M48
;DRILL file {KiCad 5.0.2-bee76a0~70~ubuntu18.04.1} date Út 29. ledna 2019, 20:40:37 CET
;FORMAT={-:-/ absolute / metric / decimal}
FMAT,2
METRIC,TZ
T1C0.400
T2C1.100
T3C3.500
%
G90
G05
T1
X116.586Y-106.68
X121.412Y-98.552
X127.Y-100.33
X127.305Y-85.547
X128.143Y-96.774
X128.778Y-85.547
X129.286Y-96.774
X137.414Y-94.234
X140.462Y-106.172
X146.05Y-96.139
X146.05Y-99.314
X149.225Y-96.139
X149.225Y-99.314
X152.908Y-87.884
X164.211Y-103.505
T2
X140.97Y-81.026
X143.51Y-81.026
X152.4Y-114.554
X154.94Y-114.554
X157.48Y-114.554
X160.02Y-114.554
X166.624Y-98.298
X169.164Y-98.298
X171.704Y-98.298
X109.982Y-93.726
X109.982Y-96.266
X109.982Y-98.806
X109.982Y-101.346
X109.982Y-103.886
X112.522Y-93.726
X112.522Y-96.266
X112.522Y-98.806
X112.522Y-101.346
X112.522Y-103.886
X133.35Y-81.026
X135.89Y-81.026
X169.164Y-85.598
X169.164Y-88.138
X169.164Y-90.678
X169.164Y-93.218
X133.35Y-114.554
X135.89Y-114.554
X138.43Y-114.554
X140.97Y-114.554
X147.32Y-112.014
X147.32Y-114.554
X147.32Y-117.094
X148.59Y-81.026
X151.13Y-81.026
X153.67Y-81.026
X156.21Y-81.026
X169.164Y-103.124
X169.164Y-105.664
X169.164Y-108.204
X169.164Y-110.744
X159.004Y-90.932
X159.004Y-93.472
X159.004Y-96.012
X159.004Y-98.552
X161.29Y-78.486
X161.29Y-81.026
X161.29Y-83.566
T3
X171.45Y-78.994
X107.95Y-117.094
X171.45Y-117.094
X107.95Y-78.994
T0
M30
