G04 #@! TF.GenerationSoftware,KiCad,Pcbnew,5.0.2-bee76a0~70~ubuntu18.04.1*
G04 #@! TF.CreationDate,2019-01-29T20:40:36+01:00*
G04 #@! TF.ProjectId,main_board,6d61696e-5f62-46f6-9172-642e6b696361,rev?*
G04 #@! TF.SameCoordinates,Original*
G04 #@! TF.FileFunction,Soldermask,Top*
G04 #@! TF.FilePolarity,Negative*
%FSLAX46Y46*%
G04 Gerber Fmt 4.6, Leading zero omitted, Abs format (unit mm)*
G04 Created by KiCad (PCBNEW 5.0.2-bee76a0~70~ubuntu18.04.1) date Út 29. ledna 2019, 20:40:36 CET*
%MOMM*%
%LPD*%
G01*
G04 APERTURE LIST*
%ADD10C,0.100000*%
G04 APERTURE END LIST*
D10*
G36*
X172339941Y-114160248D02*
X172339943Y-114160249D01*
X172339944Y-114160249D01*
X172895190Y-114390239D01*
X173289677Y-114653827D01*
X173394902Y-114724136D01*
X173819864Y-115149098D01*
X173819866Y-115149101D01*
X174153761Y-115648810D01*
X174370887Y-116173000D01*
X174383752Y-116204059D01*
X174501000Y-116793501D01*
X174501000Y-117394499D01*
X174407712Y-117863489D01*
X174383751Y-117983944D01*
X174153761Y-118539190D01*
X173998087Y-118772173D01*
X173819864Y-119038902D01*
X173394902Y-119463864D01*
X173394899Y-119463866D01*
X172895190Y-119797761D01*
X172339944Y-120027751D01*
X172339943Y-120027751D01*
X172339941Y-120027752D01*
X171750499Y-120145000D01*
X171149501Y-120145000D01*
X170560059Y-120027752D01*
X170560057Y-120027751D01*
X170560056Y-120027751D01*
X170004810Y-119797761D01*
X169505101Y-119463866D01*
X169505098Y-119463864D01*
X169080136Y-119038902D01*
X168901913Y-118772173D01*
X168746239Y-118539190D01*
X168516249Y-117983944D01*
X168492289Y-117863489D01*
X168399000Y-117394499D01*
X168399000Y-116793501D01*
X168516248Y-116204059D01*
X168529113Y-116173000D01*
X168746239Y-115648810D01*
X169080134Y-115149101D01*
X169080136Y-115149098D01*
X169505098Y-114724136D01*
X169610323Y-114653827D01*
X170004810Y-114390239D01*
X170560056Y-114160249D01*
X170560057Y-114160249D01*
X170560059Y-114160248D01*
X171149501Y-114043000D01*
X171750499Y-114043000D01*
X172339941Y-114160248D01*
X172339941Y-114160248D01*
G37*
G36*
X108839941Y-114160248D02*
X108839943Y-114160249D01*
X108839944Y-114160249D01*
X109395190Y-114390239D01*
X109789677Y-114653827D01*
X109894902Y-114724136D01*
X110319864Y-115149098D01*
X110319866Y-115149101D01*
X110653761Y-115648810D01*
X110870887Y-116173000D01*
X110883752Y-116204059D01*
X111001000Y-116793501D01*
X111001000Y-117394499D01*
X110907712Y-117863489D01*
X110883751Y-117983944D01*
X110653761Y-118539190D01*
X110498087Y-118772173D01*
X110319864Y-119038902D01*
X109894902Y-119463864D01*
X109894899Y-119463866D01*
X109395190Y-119797761D01*
X108839944Y-120027751D01*
X108839943Y-120027751D01*
X108839941Y-120027752D01*
X108250499Y-120145000D01*
X107649501Y-120145000D01*
X107060059Y-120027752D01*
X107060057Y-120027751D01*
X107060056Y-120027751D01*
X106504810Y-119797761D01*
X106005101Y-119463866D01*
X106005098Y-119463864D01*
X105580136Y-119038902D01*
X105401913Y-118772173D01*
X105246239Y-118539190D01*
X105016249Y-117983944D01*
X104992289Y-117863489D01*
X104899000Y-117394499D01*
X104899000Y-116793501D01*
X105016248Y-116204059D01*
X105029113Y-116173000D01*
X105246239Y-115648810D01*
X105580134Y-115149101D01*
X105580136Y-115149098D01*
X106005098Y-114724136D01*
X106110323Y-114653827D01*
X106504810Y-114390239D01*
X107060056Y-114160249D01*
X107060057Y-114160249D01*
X107060059Y-114160248D01*
X107649501Y-114043000D01*
X108250499Y-114043000D01*
X108839941Y-114160248D01*
X108839941Y-114160248D01*
G37*
G36*
X128350677Y-118504465D02*
X128388364Y-118515898D01*
X128423103Y-118534466D01*
X128453548Y-118559452D01*
X128478534Y-118589897D01*
X128497102Y-118624636D01*
X128508535Y-118662323D01*
X128513000Y-118707661D01*
X128513000Y-119544339D01*
X128508535Y-119589677D01*
X128497102Y-119627364D01*
X128478534Y-119662103D01*
X128453548Y-119692548D01*
X128423103Y-119717534D01*
X128388364Y-119736102D01*
X128350677Y-119747535D01*
X128305339Y-119752000D01*
X127218661Y-119752000D01*
X127173323Y-119747535D01*
X127135636Y-119736102D01*
X127100897Y-119717534D01*
X127070452Y-119692548D01*
X127045466Y-119662103D01*
X127026898Y-119627364D01*
X127015465Y-119589677D01*
X127011000Y-119544339D01*
X127011000Y-118707661D01*
X127015465Y-118662323D01*
X127026898Y-118624636D01*
X127045466Y-118589897D01*
X127070452Y-118559452D01*
X127100897Y-118534466D01*
X127135636Y-118515898D01*
X127173323Y-118504465D01*
X127218661Y-118500000D01*
X128305339Y-118500000D01*
X128350677Y-118504465D01*
X128350677Y-118504465D01*
G37*
G36*
X130636677Y-118504465D02*
X130674364Y-118515898D01*
X130709103Y-118534466D01*
X130739548Y-118559452D01*
X130764534Y-118589897D01*
X130783102Y-118624636D01*
X130794535Y-118662323D01*
X130799000Y-118707661D01*
X130799000Y-119544339D01*
X130794535Y-119589677D01*
X130783102Y-119627364D01*
X130764534Y-119662103D01*
X130739548Y-119692548D01*
X130709103Y-119717534D01*
X130674364Y-119736102D01*
X130636677Y-119747535D01*
X130591339Y-119752000D01*
X129504661Y-119752000D01*
X129459323Y-119747535D01*
X129421636Y-119736102D01*
X129386897Y-119717534D01*
X129356452Y-119692548D01*
X129331466Y-119662103D01*
X129312898Y-119627364D01*
X129301465Y-119589677D01*
X129297000Y-119544339D01*
X129297000Y-118707661D01*
X129301465Y-118662323D01*
X129312898Y-118624636D01*
X129331466Y-118589897D01*
X129356452Y-118559452D01*
X129386897Y-118534466D01*
X129421636Y-118515898D01*
X129459323Y-118504465D01*
X129504661Y-118500000D01*
X130591339Y-118500000D01*
X130636677Y-118504465D01*
X130636677Y-118504465D01*
G37*
G36*
X147640345Y-116177442D02*
X147730548Y-116186326D01*
X147846287Y-116221435D01*
X147904158Y-116238990D01*
X147989679Y-116284702D01*
X148064156Y-116324511D01*
X148204396Y-116439604D01*
X148312200Y-116570962D01*
X148319488Y-116579843D01*
X148405010Y-116739842D01*
X148405010Y-116739843D01*
X148457674Y-116913452D01*
X148475456Y-117094000D01*
X148457674Y-117274548D01*
X148422565Y-117390287D01*
X148405010Y-117448158D01*
X148359298Y-117533679D01*
X148319489Y-117608156D01*
X148204396Y-117748396D01*
X148064156Y-117863489D01*
X147989679Y-117903298D01*
X147904158Y-117949010D01*
X147846287Y-117966565D01*
X147730548Y-118001674D01*
X147640345Y-118010558D01*
X147595245Y-118015000D01*
X147044755Y-118015000D01*
X146999655Y-118010558D01*
X146909452Y-118001674D01*
X146793713Y-117966565D01*
X146735842Y-117949010D01*
X146650321Y-117903298D01*
X146575844Y-117863489D01*
X146435604Y-117748396D01*
X146320511Y-117608156D01*
X146280702Y-117533679D01*
X146234990Y-117448158D01*
X146217435Y-117390287D01*
X146182326Y-117274548D01*
X146164544Y-117094000D01*
X146182326Y-116913452D01*
X146234990Y-116739843D01*
X146234990Y-116739842D01*
X146320512Y-116579843D01*
X146327801Y-116570962D01*
X146435604Y-116439604D01*
X146575844Y-116324511D01*
X146650321Y-116284702D01*
X146735842Y-116238990D01*
X146793713Y-116221435D01*
X146909452Y-116186326D01*
X146999655Y-116177442D01*
X147044755Y-116173000D01*
X147595245Y-116173000D01*
X147640345Y-116177442D01*
X147640345Y-116177442D01*
G37*
G36*
X130636677Y-116454465D02*
X130674364Y-116465898D01*
X130709103Y-116484466D01*
X130739548Y-116509452D01*
X130764534Y-116539897D01*
X130783102Y-116574636D01*
X130794535Y-116612323D01*
X130799000Y-116657661D01*
X130799000Y-117494339D01*
X130794535Y-117539677D01*
X130783102Y-117577364D01*
X130764534Y-117612103D01*
X130739548Y-117642548D01*
X130709103Y-117667534D01*
X130674364Y-117686102D01*
X130636677Y-117697535D01*
X130591339Y-117702000D01*
X129504661Y-117702000D01*
X129459323Y-117697535D01*
X129421636Y-117686102D01*
X129386897Y-117667534D01*
X129356452Y-117642548D01*
X129331466Y-117612103D01*
X129312898Y-117577364D01*
X129301465Y-117539677D01*
X129297000Y-117494339D01*
X129297000Y-116657661D01*
X129301465Y-116612323D01*
X129312898Y-116574636D01*
X129331466Y-116539897D01*
X129356452Y-116509452D01*
X129386897Y-116484466D01*
X129421636Y-116465898D01*
X129459323Y-116454465D01*
X129504661Y-116450000D01*
X130591339Y-116450000D01*
X130636677Y-116454465D01*
X130636677Y-116454465D01*
G37*
G36*
X128350677Y-116454465D02*
X128388364Y-116465898D01*
X128423103Y-116484466D01*
X128453548Y-116509452D01*
X128478534Y-116539897D01*
X128497102Y-116574636D01*
X128508535Y-116612323D01*
X128513000Y-116657661D01*
X128513000Y-117494339D01*
X128508535Y-117539677D01*
X128497102Y-117577364D01*
X128478534Y-117612103D01*
X128453548Y-117642548D01*
X128423103Y-117667534D01*
X128388364Y-117686102D01*
X128350677Y-117697535D01*
X128305339Y-117702000D01*
X127218661Y-117702000D01*
X127173323Y-117697535D01*
X127135636Y-117686102D01*
X127100897Y-117667534D01*
X127070452Y-117642548D01*
X127045466Y-117612103D01*
X127026898Y-117577364D01*
X127015465Y-117539677D01*
X127011000Y-117494339D01*
X127011000Y-116657661D01*
X127015465Y-116612323D01*
X127026898Y-116574636D01*
X127045466Y-116539897D01*
X127070452Y-116509452D01*
X127100897Y-116484466D01*
X127135636Y-116465898D01*
X127173323Y-116454465D01*
X127218661Y-116450000D01*
X128305339Y-116450000D01*
X128350677Y-116454465D01*
X128350677Y-116454465D01*
G37*
G36*
X119821000Y-117655000D02*
X117719000Y-117655000D01*
X117719000Y-116053000D01*
X119821000Y-116053000D01*
X119821000Y-117655000D01*
X119821000Y-117655000D01*
G37*
G36*
X126121000Y-116505000D02*
X124019000Y-116505000D01*
X124019000Y-112603000D01*
X126121000Y-112603000D01*
X126121000Y-116505000D01*
X126121000Y-116505000D01*
G37*
G36*
X141150547Y-113416326D02*
X141253979Y-113447702D01*
X141324157Y-113468990D01*
X141382514Y-113500183D01*
X141484155Y-113554511D01*
X141624396Y-113669604D01*
X141739489Y-113809844D01*
X141753642Y-113836323D01*
X141825010Y-113969842D01*
X141842565Y-114027713D01*
X141877674Y-114143452D01*
X141891000Y-114278756D01*
X141891000Y-114829243D01*
X141877674Y-114964548D01*
X141825010Y-115138157D01*
X141739489Y-115298156D01*
X141624396Y-115438396D01*
X141484156Y-115553489D01*
X141421244Y-115587116D01*
X141324158Y-115639010D01*
X141291851Y-115648810D01*
X141150548Y-115691674D01*
X140970000Y-115709456D01*
X140789453Y-115691674D01*
X140648150Y-115648810D01*
X140615843Y-115639010D01*
X140518757Y-115587116D01*
X140455845Y-115553489D01*
X140315605Y-115438396D01*
X140200512Y-115298156D01*
X140152534Y-115208396D01*
X140114990Y-115138158D01*
X140093755Y-115068156D01*
X140062326Y-114964548D01*
X140050678Y-114846282D01*
X140049000Y-114829245D01*
X140049000Y-114278756D01*
X140062326Y-114143455D01*
X140062326Y-114143453D01*
X140114990Y-113969844D01*
X140114990Y-113969843D01*
X140183315Y-113842017D01*
X140200511Y-113809845D01*
X140315604Y-113669604D01*
X140455844Y-113554511D01*
X140535313Y-113512034D01*
X140615842Y-113468990D01*
X140686020Y-113447702D01*
X140789452Y-113416326D01*
X140970000Y-113398544D01*
X141150547Y-113416326D01*
X141150547Y-113416326D01*
G37*
G36*
X160200547Y-113416326D02*
X160303979Y-113447702D01*
X160374157Y-113468990D01*
X160432514Y-113500183D01*
X160534155Y-113554511D01*
X160674396Y-113669604D01*
X160789489Y-113809844D01*
X160803642Y-113836323D01*
X160875010Y-113969842D01*
X160892565Y-114027713D01*
X160927674Y-114143452D01*
X160941000Y-114278756D01*
X160941000Y-114829243D01*
X160927674Y-114964548D01*
X160875010Y-115138157D01*
X160789489Y-115298156D01*
X160674396Y-115438396D01*
X160534156Y-115553489D01*
X160471244Y-115587116D01*
X160374158Y-115639010D01*
X160341851Y-115648810D01*
X160200548Y-115691674D01*
X160020000Y-115709456D01*
X159839453Y-115691674D01*
X159698150Y-115648810D01*
X159665843Y-115639010D01*
X159568757Y-115587116D01*
X159505845Y-115553489D01*
X159365605Y-115438396D01*
X159250512Y-115298156D01*
X159202534Y-115208396D01*
X159164990Y-115138158D01*
X159143755Y-115068156D01*
X159112326Y-114964548D01*
X159100678Y-114846282D01*
X159099000Y-114829245D01*
X159099000Y-114278756D01*
X159112326Y-114143455D01*
X159112326Y-114143453D01*
X159164990Y-113969844D01*
X159164990Y-113969843D01*
X159233315Y-113842017D01*
X159250511Y-113809845D01*
X159365604Y-113669604D01*
X159505844Y-113554511D01*
X159585313Y-113512034D01*
X159665842Y-113468990D01*
X159736020Y-113447702D01*
X159839452Y-113416326D01*
X160020000Y-113398544D01*
X160200547Y-113416326D01*
X160200547Y-113416326D01*
G37*
G36*
X157660547Y-113416326D02*
X157763979Y-113447702D01*
X157834157Y-113468990D01*
X157892514Y-113500183D01*
X157994155Y-113554511D01*
X158134396Y-113669604D01*
X158249489Y-113809844D01*
X158263642Y-113836323D01*
X158335010Y-113969842D01*
X158352565Y-114027713D01*
X158387674Y-114143452D01*
X158401000Y-114278756D01*
X158401000Y-114829243D01*
X158387674Y-114964548D01*
X158335010Y-115138157D01*
X158249489Y-115298156D01*
X158134396Y-115438396D01*
X157994156Y-115553489D01*
X157931244Y-115587116D01*
X157834158Y-115639010D01*
X157801851Y-115648810D01*
X157660548Y-115691674D01*
X157480000Y-115709456D01*
X157299453Y-115691674D01*
X157158150Y-115648810D01*
X157125843Y-115639010D01*
X157028757Y-115587116D01*
X156965845Y-115553489D01*
X156825605Y-115438396D01*
X156710512Y-115298156D01*
X156662534Y-115208396D01*
X156624990Y-115138158D01*
X156603755Y-115068156D01*
X156572326Y-114964548D01*
X156560678Y-114846282D01*
X156559000Y-114829245D01*
X156559000Y-114278756D01*
X156572326Y-114143455D01*
X156572326Y-114143453D01*
X156624990Y-113969844D01*
X156624990Y-113969843D01*
X156693315Y-113842017D01*
X156710511Y-113809845D01*
X156825604Y-113669604D01*
X156965844Y-113554511D01*
X157045313Y-113512034D01*
X157125842Y-113468990D01*
X157196020Y-113447702D01*
X157299452Y-113416326D01*
X157480000Y-113398544D01*
X157660547Y-113416326D01*
X157660547Y-113416326D01*
G37*
G36*
X155120547Y-113416326D02*
X155223979Y-113447702D01*
X155294157Y-113468990D01*
X155352514Y-113500183D01*
X155454155Y-113554511D01*
X155594396Y-113669604D01*
X155709489Y-113809844D01*
X155723642Y-113836323D01*
X155795010Y-113969842D01*
X155812565Y-114027713D01*
X155847674Y-114143452D01*
X155861000Y-114278756D01*
X155861000Y-114829243D01*
X155847674Y-114964548D01*
X155795010Y-115138157D01*
X155709489Y-115298156D01*
X155594396Y-115438396D01*
X155454156Y-115553489D01*
X155391244Y-115587116D01*
X155294158Y-115639010D01*
X155261851Y-115648810D01*
X155120548Y-115691674D01*
X154940000Y-115709456D01*
X154759453Y-115691674D01*
X154618150Y-115648810D01*
X154585843Y-115639010D01*
X154488757Y-115587116D01*
X154425845Y-115553489D01*
X154285605Y-115438396D01*
X154170512Y-115298156D01*
X154122534Y-115208396D01*
X154084990Y-115138158D01*
X154063755Y-115068156D01*
X154032326Y-114964548D01*
X154020678Y-114846282D01*
X154019000Y-114829245D01*
X154019000Y-114278756D01*
X154032326Y-114143455D01*
X154032326Y-114143453D01*
X154084990Y-113969844D01*
X154084990Y-113969843D01*
X154153315Y-113842017D01*
X154170511Y-113809845D01*
X154285604Y-113669604D01*
X154425844Y-113554511D01*
X154505313Y-113512034D01*
X154585842Y-113468990D01*
X154656020Y-113447702D01*
X154759452Y-113416326D01*
X154940000Y-113398544D01*
X155120547Y-113416326D01*
X155120547Y-113416326D01*
G37*
G36*
X136070547Y-113416326D02*
X136173979Y-113447702D01*
X136244157Y-113468990D01*
X136302514Y-113500183D01*
X136404155Y-113554511D01*
X136544396Y-113669604D01*
X136659489Y-113809844D01*
X136673642Y-113836323D01*
X136745010Y-113969842D01*
X136762565Y-114027713D01*
X136797674Y-114143452D01*
X136811000Y-114278756D01*
X136811000Y-114829243D01*
X136797674Y-114964548D01*
X136745010Y-115138157D01*
X136659489Y-115298156D01*
X136544396Y-115438396D01*
X136404156Y-115553489D01*
X136341244Y-115587116D01*
X136244158Y-115639010D01*
X136211851Y-115648810D01*
X136070548Y-115691674D01*
X135890000Y-115709456D01*
X135709453Y-115691674D01*
X135568150Y-115648810D01*
X135535843Y-115639010D01*
X135438757Y-115587116D01*
X135375845Y-115553489D01*
X135235605Y-115438396D01*
X135120512Y-115298156D01*
X135072534Y-115208396D01*
X135034990Y-115138158D01*
X135013755Y-115068156D01*
X134982326Y-114964548D01*
X134970678Y-114846282D01*
X134969000Y-114829245D01*
X134969000Y-114278756D01*
X134982326Y-114143455D01*
X134982326Y-114143453D01*
X135034990Y-113969844D01*
X135034990Y-113969843D01*
X135103315Y-113842017D01*
X135120511Y-113809845D01*
X135235604Y-113669604D01*
X135375844Y-113554511D01*
X135455313Y-113512034D01*
X135535842Y-113468990D01*
X135606020Y-113447702D01*
X135709452Y-113416326D01*
X135890000Y-113398544D01*
X136070547Y-113416326D01*
X136070547Y-113416326D01*
G37*
G36*
X138610547Y-113416326D02*
X138713979Y-113447702D01*
X138784157Y-113468990D01*
X138842514Y-113500183D01*
X138944155Y-113554511D01*
X139084396Y-113669604D01*
X139199489Y-113809844D01*
X139213642Y-113836323D01*
X139285010Y-113969842D01*
X139302565Y-114027713D01*
X139337674Y-114143452D01*
X139351000Y-114278756D01*
X139351000Y-114829243D01*
X139337674Y-114964548D01*
X139285010Y-115138157D01*
X139199489Y-115298156D01*
X139084396Y-115438396D01*
X138944156Y-115553489D01*
X138881244Y-115587116D01*
X138784158Y-115639010D01*
X138751851Y-115648810D01*
X138610548Y-115691674D01*
X138430000Y-115709456D01*
X138249453Y-115691674D01*
X138108150Y-115648810D01*
X138075843Y-115639010D01*
X137978757Y-115587116D01*
X137915845Y-115553489D01*
X137775605Y-115438396D01*
X137660512Y-115298156D01*
X137612534Y-115208396D01*
X137574990Y-115138158D01*
X137553755Y-115068156D01*
X137522326Y-114964548D01*
X137510678Y-114846282D01*
X137509000Y-114829245D01*
X137509000Y-114278756D01*
X137522326Y-114143455D01*
X137522326Y-114143453D01*
X137574990Y-113969844D01*
X137574990Y-113969843D01*
X137643315Y-113842017D01*
X137660511Y-113809845D01*
X137775604Y-113669604D01*
X137915844Y-113554511D01*
X137995313Y-113512034D01*
X138075842Y-113468990D01*
X138146020Y-113447702D01*
X138249452Y-113416326D01*
X138430000Y-113398544D01*
X138610547Y-113416326D01*
X138610547Y-113416326D01*
G37*
G36*
X153179020Y-113406979D02*
X153211966Y-113416974D01*
X153242335Y-113433206D01*
X153268951Y-113455049D01*
X153290794Y-113481665D01*
X153307026Y-113512034D01*
X153317021Y-113544980D01*
X153321000Y-113585386D01*
X153321000Y-115522614D01*
X153317021Y-115563020D01*
X153307026Y-115595966D01*
X153290794Y-115626335D01*
X153268951Y-115652951D01*
X153242335Y-115674794D01*
X153211966Y-115691026D01*
X153179020Y-115701021D01*
X153138614Y-115705000D01*
X151661386Y-115705000D01*
X151620980Y-115701021D01*
X151588034Y-115691026D01*
X151557665Y-115674794D01*
X151531049Y-115652951D01*
X151509206Y-115626335D01*
X151492974Y-115595966D01*
X151482979Y-115563020D01*
X151479000Y-115522614D01*
X151479000Y-113585386D01*
X151482979Y-113544980D01*
X151492974Y-113512034D01*
X151509206Y-113481665D01*
X151531049Y-113455049D01*
X151557665Y-113433206D01*
X151588034Y-113416974D01*
X151620980Y-113406979D01*
X151661386Y-113403000D01*
X153138614Y-113403000D01*
X153179020Y-113406979D01*
X153179020Y-113406979D01*
G37*
G36*
X134129020Y-113406979D02*
X134161966Y-113416974D01*
X134192335Y-113433206D01*
X134218951Y-113455049D01*
X134240794Y-113481665D01*
X134257026Y-113512034D01*
X134267021Y-113544980D01*
X134271000Y-113585386D01*
X134271000Y-115522614D01*
X134267021Y-115563020D01*
X134257026Y-115595966D01*
X134240794Y-115626335D01*
X134218951Y-115652951D01*
X134192335Y-115674794D01*
X134161966Y-115691026D01*
X134129020Y-115701021D01*
X134088614Y-115705000D01*
X132611386Y-115705000D01*
X132570980Y-115701021D01*
X132538034Y-115691026D01*
X132507665Y-115674794D01*
X132481049Y-115652951D01*
X132459206Y-115626335D01*
X132442974Y-115595966D01*
X132432979Y-115563020D01*
X132429000Y-115522614D01*
X132429000Y-113585386D01*
X132432979Y-113544980D01*
X132442974Y-113512034D01*
X132459206Y-113481665D01*
X132481049Y-113455049D01*
X132507665Y-113433206D01*
X132538034Y-113416974D01*
X132570980Y-113406979D01*
X132611386Y-113403000D01*
X134088614Y-113403000D01*
X134129020Y-113406979D01*
X134129020Y-113406979D01*
G37*
G36*
X147640345Y-113637442D02*
X147730548Y-113646326D01*
X147839017Y-113679230D01*
X147904158Y-113698990D01*
X147968631Y-113733452D01*
X148064156Y-113784511D01*
X148204396Y-113899604D01*
X148319489Y-114039844D01*
X148359298Y-114114321D01*
X148405010Y-114199842D01*
X148405010Y-114199843D01*
X148457674Y-114373452D01*
X148475456Y-114554000D01*
X148457674Y-114734548D01*
X148437405Y-114801364D01*
X148405010Y-114908158D01*
X148359298Y-114993679D01*
X148319489Y-115068156D01*
X148204396Y-115208396D01*
X148064156Y-115323489D01*
X148005203Y-115355000D01*
X147904158Y-115409010D01*
X147846287Y-115426565D01*
X147730548Y-115461674D01*
X147640345Y-115470558D01*
X147595245Y-115475000D01*
X147044755Y-115475000D01*
X146999655Y-115470558D01*
X146909452Y-115461674D01*
X146793713Y-115426565D01*
X146735842Y-115409010D01*
X146634797Y-115355000D01*
X146575844Y-115323489D01*
X146435604Y-115208396D01*
X146320511Y-115068156D01*
X146280702Y-114993679D01*
X146234990Y-114908158D01*
X146202595Y-114801364D01*
X146182326Y-114734548D01*
X146164544Y-114554000D01*
X146182326Y-114373452D01*
X146234990Y-114199843D01*
X146234990Y-114199842D01*
X146280702Y-114114321D01*
X146320511Y-114039844D01*
X146435604Y-113899604D01*
X146575844Y-113784511D01*
X146671369Y-113733452D01*
X146735842Y-113698990D01*
X146800983Y-113679230D01*
X146909452Y-113646326D01*
X146999655Y-113637442D01*
X147044755Y-113633000D01*
X147595245Y-113633000D01*
X147640345Y-113637442D01*
X147640345Y-113637442D01*
G37*
G36*
X119821000Y-115355000D02*
X117719000Y-115355000D01*
X117719000Y-113753000D01*
X119821000Y-113753000D01*
X119821000Y-115355000D01*
X119821000Y-115355000D01*
G37*
G36*
X116412677Y-113678465D02*
X116450364Y-113689898D01*
X116485103Y-113708466D01*
X116515548Y-113733452D01*
X116540534Y-113763897D01*
X116559102Y-113798636D01*
X116570535Y-113836323D01*
X116575000Y-113881661D01*
X116575000Y-114718339D01*
X116570535Y-114763677D01*
X116559102Y-114801364D01*
X116540534Y-114836103D01*
X116515548Y-114866548D01*
X116485103Y-114891534D01*
X116450364Y-114910102D01*
X116412677Y-114921535D01*
X116367339Y-114926000D01*
X115280661Y-114926000D01*
X115235323Y-114921535D01*
X115197636Y-114910102D01*
X115162897Y-114891534D01*
X115132452Y-114866548D01*
X115107466Y-114836103D01*
X115088898Y-114801364D01*
X115077465Y-114763677D01*
X115073000Y-114718339D01*
X115073000Y-113881661D01*
X115077465Y-113836323D01*
X115088898Y-113798636D01*
X115107466Y-113763897D01*
X115132452Y-113733452D01*
X115162897Y-113708466D01*
X115197636Y-113689898D01*
X115235323Y-113678465D01*
X115280661Y-113674000D01*
X116367339Y-113674000D01*
X116412677Y-113678465D01*
X116412677Y-113678465D01*
G37*
G36*
X113872677Y-113678465D02*
X113910364Y-113689898D01*
X113945103Y-113708466D01*
X113975548Y-113733452D01*
X114000534Y-113763897D01*
X114019102Y-113798636D01*
X114030535Y-113836323D01*
X114035000Y-113881661D01*
X114035000Y-114718339D01*
X114030535Y-114763677D01*
X114019102Y-114801364D01*
X114000534Y-114836103D01*
X113975548Y-114866548D01*
X113945103Y-114891534D01*
X113910364Y-114910102D01*
X113872677Y-114921535D01*
X113827339Y-114926000D01*
X112740661Y-114926000D01*
X112695323Y-114921535D01*
X112657636Y-114910102D01*
X112622897Y-114891534D01*
X112592452Y-114866548D01*
X112567466Y-114836103D01*
X112548898Y-114801364D01*
X112537465Y-114763677D01*
X112533000Y-114718339D01*
X112533000Y-113881661D01*
X112537465Y-113836323D01*
X112548898Y-113798636D01*
X112567466Y-113763897D01*
X112592452Y-113733452D01*
X112622897Y-113708466D01*
X112657636Y-113689898D01*
X112695323Y-113678465D01*
X112740661Y-113674000D01*
X113827339Y-113674000D01*
X113872677Y-113678465D01*
X113872677Y-113678465D01*
G37*
G36*
X119821000Y-113055000D02*
X117719000Y-113055000D01*
X117719000Y-111453000D01*
X119821000Y-111453000D01*
X119821000Y-113055000D01*
X119821000Y-113055000D01*
G37*
G36*
X148471000Y-112935000D02*
X146169000Y-112935000D01*
X146169000Y-111093000D01*
X148471000Y-111093000D01*
X148471000Y-112935000D01*
X148471000Y-112935000D01*
G37*
G36*
X113872677Y-111628465D02*
X113910364Y-111639898D01*
X113945103Y-111658466D01*
X113975548Y-111683452D01*
X114000534Y-111713897D01*
X114019102Y-111748636D01*
X114030535Y-111786323D01*
X114035000Y-111831661D01*
X114035000Y-112668339D01*
X114030535Y-112713677D01*
X114019102Y-112751364D01*
X114000534Y-112786103D01*
X113975548Y-112816548D01*
X113945103Y-112841534D01*
X113910364Y-112860102D01*
X113872677Y-112871535D01*
X113827339Y-112876000D01*
X112740661Y-112876000D01*
X112695323Y-112871535D01*
X112657636Y-112860102D01*
X112622897Y-112841534D01*
X112592452Y-112816548D01*
X112567466Y-112786103D01*
X112548898Y-112751364D01*
X112537465Y-112713677D01*
X112533000Y-112668339D01*
X112533000Y-111831661D01*
X112537465Y-111786323D01*
X112548898Y-111748636D01*
X112567466Y-111713897D01*
X112592452Y-111683452D01*
X112622897Y-111658466D01*
X112657636Y-111639898D01*
X112695323Y-111628465D01*
X112740661Y-111624000D01*
X113827339Y-111624000D01*
X113872677Y-111628465D01*
X113872677Y-111628465D01*
G37*
G36*
X116412677Y-111628465D02*
X116450364Y-111639898D01*
X116485103Y-111658466D01*
X116515548Y-111683452D01*
X116540534Y-111713897D01*
X116559102Y-111748636D01*
X116570535Y-111786323D01*
X116575000Y-111831661D01*
X116575000Y-112668339D01*
X116570535Y-112713677D01*
X116559102Y-112751364D01*
X116540534Y-112786103D01*
X116515548Y-112816548D01*
X116485103Y-112841534D01*
X116450364Y-112860102D01*
X116412677Y-112871535D01*
X116367339Y-112876000D01*
X115280661Y-112876000D01*
X115235323Y-112871535D01*
X115197636Y-112860102D01*
X115162897Y-112841534D01*
X115132452Y-112816548D01*
X115107466Y-112786103D01*
X115088898Y-112751364D01*
X115077465Y-112713677D01*
X115073000Y-112668339D01*
X115073000Y-111831661D01*
X115077465Y-111786323D01*
X115088898Y-111748636D01*
X115107466Y-111713897D01*
X115132452Y-111683452D01*
X115162897Y-111658466D01*
X115197636Y-111639898D01*
X115235323Y-111628465D01*
X115280661Y-111624000D01*
X116367339Y-111624000D01*
X116412677Y-111628465D01*
X116412677Y-111628465D01*
G37*
G36*
X170173020Y-109826979D02*
X170205966Y-109836974D01*
X170236335Y-109853206D01*
X170262951Y-109875049D01*
X170284794Y-109901665D01*
X170301026Y-109932034D01*
X170311021Y-109964980D01*
X170315000Y-110005386D01*
X170315000Y-111482614D01*
X170311021Y-111523020D01*
X170301026Y-111555966D01*
X170284794Y-111586335D01*
X170262951Y-111612951D01*
X170236335Y-111634794D01*
X170205966Y-111651026D01*
X170173020Y-111661021D01*
X170132614Y-111665000D01*
X168195386Y-111665000D01*
X168154980Y-111661021D01*
X168122034Y-111651026D01*
X168091665Y-111634794D01*
X168065049Y-111612951D01*
X168043206Y-111586335D01*
X168026974Y-111555966D01*
X168016979Y-111523020D01*
X168013000Y-111482614D01*
X168013000Y-110005386D01*
X168016979Y-109964980D01*
X168026974Y-109932034D01*
X168043206Y-109901665D01*
X168065049Y-109875049D01*
X168091665Y-109853206D01*
X168122034Y-109836974D01*
X168154980Y-109826979D01*
X168195386Y-109823000D01*
X170132614Y-109823000D01*
X170173020Y-109826979D01*
X170173020Y-109826979D01*
G37*
G36*
X139272677Y-108861465D02*
X139310364Y-108872898D01*
X139345103Y-108891466D01*
X139375548Y-108916452D01*
X139400534Y-108946897D01*
X139419102Y-108981636D01*
X139430535Y-109019323D01*
X139435000Y-109064661D01*
X139435000Y-109901339D01*
X139430535Y-109946677D01*
X139419102Y-109984364D01*
X139400534Y-110019103D01*
X139375548Y-110049548D01*
X139345103Y-110074534D01*
X139310364Y-110093102D01*
X139272677Y-110104535D01*
X139227339Y-110109000D01*
X138140661Y-110109000D01*
X138095323Y-110104535D01*
X138057636Y-110093102D01*
X138022897Y-110074534D01*
X137992452Y-110049548D01*
X137967466Y-110019103D01*
X137948898Y-109984364D01*
X137937465Y-109946677D01*
X137933000Y-109901339D01*
X137933000Y-109064661D01*
X137937465Y-109019323D01*
X137948898Y-108981636D01*
X137967466Y-108946897D01*
X137992452Y-108916452D01*
X138022897Y-108891466D01*
X138057636Y-108872898D01*
X138095323Y-108861465D01*
X138140661Y-108857000D01*
X139227339Y-108857000D01*
X139272677Y-108861465D01*
X139272677Y-108861465D01*
G37*
G36*
X144744677Y-108473465D02*
X144782364Y-108484898D01*
X144817103Y-108503466D01*
X144847548Y-108528452D01*
X144872534Y-108558897D01*
X144891102Y-108593636D01*
X144902535Y-108631323D01*
X144907000Y-108676661D01*
X144907000Y-109763339D01*
X144902535Y-109808677D01*
X144891102Y-109846364D01*
X144872534Y-109881103D01*
X144847548Y-109911548D01*
X144817103Y-109936534D01*
X144782364Y-109955102D01*
X144744677Y-109966535D01*
X144699339Y-109971000D01*
X143862661Y-109971000D01*
X143817323Y-109966535D01*
X143779636Y-109955102D01*
X143744897Y-109936534D01*
X143714452Y-109911548D01*
X143689466Y-109881103D01*
X143670898Y-109846364D01*
X143659465Y-109808677D01*
X143655000Y-109763339D01*
X143655000Y-108676661D01*
X143659465Y-108631323D01*
X143670898Y-108593636D01*
X143689466Y-108558897D01*
X143714452Y-108528452D01*
X143744897Y-108503466D01*
X143779636Y-108484898D01*
X143817323Y-108473465D01*
X143862661Y-108469000D01*
X144699339Y-108469000D01*
X144744677Y-108473465D01*
X144744677Y-108473465D01*
G37*
G36*
X147520677Y-108473465D02*
X147558364Y-108484898D01*
X147593103Y-108503466D01*
X147623548Y-108528452D01*
X147648534Y-108558897D01*
X147667102Y-108593636D01*
X147678535Y-108631323D01*
X147683000Y-108676661D01*
X147683000Y-109763339D01*
X147678535Y-109808677D01*
X147667102Y-109846364D01*
X147648534Y-109881103D01*
X147623548Y-109911548D01*
X147593103Y-109936534D01*
X147558364Y-109955102D01*
X147520677Y-109966535D01*
X147475339Y-109971000D01*
X146638661Y-109971000D01*
X146593323Y-109966535D01*
X146555636Y-109955102D01*
X146520897Y-109936534D01*
X146490452Y-109911548D01*
X146465466Y-109881103D01*
X146446898Y-109846364D01*
X146435465Y-109808677D01*
X146431000Y-109763339D01*
X146431000Y-108676661D01*
X146435465Y-108631323D01*
X146446898Y-108593636D01*
X146465466Y-108558897D01*
X146490452Y-108528452D01*
X146520897Y-108503466D01*
X146555636Y-108484898D01*
X146593323Y-108473465D01*
X146638661Y-108469000D01*
X147475339Y-108469000D01*
X147520677Y-108473465D01*
X147520677Y-108473465D01*
G37*
G36*
X149570677Y-108473465D02*
X149608364Y-108484898D01*
X149643103Y-108503466D01*
X149673548Y-108528452D01*
X149698534Y-108558897D01*
X149717102Y-108593636D01*
X149728535Y-108631323D01*
X149733000Y-108676661D01*
X149733000Y-109763339D01*
X149728535Y-109808677D01*
X149717102Y-109846364D01*
X149698534Y-109881103D01*
X149673548Y-109911548D01*
X149643103Y-109936534D01*
X149608364Y-109955102D01*
X149570677Y-109966535D01*
X149525339Y-109971000D01*
X148688661Y-109971000D01*
X148643323Y-109966535D01*
X148605636Y-109955102D01*
X148570897Y-109936534D01*
X148540452Y-109911548D01*
X148515466Y-109881103D01*
X148496898Y-109846364D01*
X148485465Y-109808677D01*
X148481000Y-109763339D01*
X148481000Y-108676661D01*
X148485465Y-108631323D01*
X148496898Y-108593636D01*
X148515466Y-108558897D01*
X148540452Y-108528452D01*
X148570897Y-108503466D01*
X148605636Y-108484898D01*
X148643323Y-108473465D01*
X148688661Y-108469000D01*
X149525339Y-108469000D01*
X149570677Y-108473465D01*
X149570677Y-108473465D01*
G37*
G36*
X142694677Y-108473465D02*
X142732364Y-108484898D01*
X142767103Y-108503466D01*
X142797548Y-108528452D01*
X142822534Y-108558897D01*
X142841102Y-108593636D01*
X142852535Y-108631323D01*
X142857000Y-108676661D01*
X142857000Y-109763339D01*
X142852535Y-109808677D01*
X142841102Y-109846364D01*
X142822534Y-109881103D01*
X142797548Y-109911548D01*
X142767103Y-109936534D01*
X142732364Y-109955102D01*
X142694677Y-109966535D01*
X142649339Y-109971000D01*
X141812661Y-109971000D01*
X141767323Y-109966535D01*
X141729636Y-109955102D01*
X141694897Y-109936534D01*
X141664452Y-109911548D01*
X141639466Y-109881103D01*
X141620898Y-109846364D01*
X141609465Y-109808677D01*
X141605000Y-109763339D01*
X141605000Y-108676661D01*
X141609465Y-108631323D01*
X141620898Y-108593636D01*
X141639466Y-108558897D01*
X141664452Y-108528452D01*
X141694897Y-108503466D01*
X141729636Y-108484898D01*
X141767323Y-108473465D01*
X141812661Y-108469000D01*
X142649339Y-108469000D01*
X142694677Y-108473465D01*
X142694677Y-108473465D01*
G37*
G36*
X134996000Y-109623000D02*
X132344000Y-109623000D01*
X132344000Y-107961000D01*
X134996000Y-107961000D01*
X134996000Y-109623000D01*
X134996000Y-109623000D01*
G37*
G36*
X120079677Y-107711465D02*
X120117364Y-107722898D01*
X120152103Y-107741466D01*
X120182548Y-107766452D01*
X120207534Y-107796897D01*
X120226102Y-107831636D01*
X120237535Y-107869323D01*
X120242000Y-107914661D01*
X120242000Y-109001339D01*
X120237535Y-109046677D01*
X120226102Y-109084364D01*
X120207534Y-109119103D01*
X120182548Y-109149548D01*
X120152103Y-109174534D01*
X120117364Y-109193102D01*
X120079677Y-109204535D01*
X120034339Y-109209000D01*
X119197661Y-109209000D01*
X119152323Y-109204535D01*
X119114636Y-109193102D01*
X119079897Y-109174534D01*
X119049452Y-109149548D01*
X119024466Y-109119103D01*
X119005898Y-109084364D01*
X118994465Y-109046677D01*
X118990000Y-109001339D01*
X118990000Y-107914661D01*
X118994465Y-107869323D01*
X119005898Y-107831636D01*
X119024466Y-107796897D01*
X119049452Y-107766452D01*
X119079897Y-107741466D01*
X119114636Y-107722898D01*
X119152323Y-107711465D01*
X119197661Y-107707000D01*
X120034339Y-107707000D01*
X120079677Y-107711465D01*
X120079677Y-107711465D01*
G37*
G36*
X122129677Y-107711465D02*
X122167364Y-107722898D01*
X122202103Y-107741466D01*
X122232548Y-107766452D01*
X122257534Y-107796897D01*
X122276102Y-107831636D01*
X122287535Y-107869323D01*
X122292000Y-107914661D01*
X122292000Y-109001339D01*
X122287535Y-109046677D01*
X122276102Y-109084364D01*
X122257534Y-109119103D01*
X122232548Y-109149548D01*
X122202103Y-109174534D01*
X122167364Y-109193102D01*
X122129677Y-109204535D01*
X122084339Y-109209000D01*
X121247661Y-109209000D01*
X121202323Y-109204535D01*
X121164636Y-109193102D01*
X121129897Y-109174534D01*
X121099452Y-109149548D01*
X121074466Y-109119103D01*
X121055898Y-109084364D01*
X121044465Y-109046677D01*
X121040000Y-109001339D01*
X121040000Y-107914661D01*
X121044465Y-107869323D01*
X121055898Y-107831636D01*
X121074466Y-107796897D01*
X121099452Y-107766452D01*
X121129897Y-107741466D01*
X121164636Y-107722898D01*
X121202323Y-107711465D01*
X121247661Y-107707000D01*
X122084339Y-107707000D01*
X122129677Y-107711465D01*
X122129677Y-107711465D01*
G37*
G36*
X169484345Y-107287442D02*
X169574548Y-107296326D01*
X169690287Y-107331435D01*
X169748158Y-107348990D01*
X169833679Y-107394702D01*
X169908156Y-107434511D01*
X170048396Y-107549604D01*
X170163489Y-107689844D01*
X170183733Y-107727718D01*
X170249010Y-107849842D01*
X170257512Y-107877869D01*
X170301674Y-108023452D01*
X170319456Y-108204000D01*
X170301674Y-108384548D01*
X170274701Y-108473465D01*
X170249010Y-108558158D01*
X170232010Y-108589962D01*
X170163489Y-108718156D01*
X170048396Y-108858396D01*
X169908156Y-108973489D01*
X169856052Y-109001339D01*
X169748158Y-109059010D01*
X169718185Y-109068102D01*
X169574548Y-109111674D01*
X169484345Y-109120558D01*
X169439245Y-109125000D01*
X168888755Y-109125000D01*
X168843655Y-109120558D01*
X168753452Y-109111674D01*
X168609815Y-109068102D01*
X168579842Y-109059010D01*
X168471948Y-109001339D01*
X168419844Y-108973489D01*
X168279604Y-108858396D01*
X168164511Y-108718156D01*
X168095990Y-108589962D01*
X168078990Y-108558158D01*
X168053299Y-108473465D01*
X168026326Y-108384548D01*
X168008544Y-108204000D01*
X168026326Y-108023452D01*
X168070488Y-107877869D01*
X168078990Y-107849842D01*
X168144267Y-107727718D01*
X168164511Y-107689844D01*
X168279604Y-107549604D01*
X168419844Y-107434511D01*
X168494321Y-107394702D01*
X168579842Y-107348990D01*
X168637713Y-107331435D01*
X168753452Y-107296326D01*
X168843655Y-107287442D01*
X168888755Y-107283000D01*
X169439245Y-107283000D01*
X169484345Y-107287442D01*
X169484345Y-107287442D01*
G37*
G36*
X130509677Y-107836465D02*
X130547364Y-107847898D01*
X130582103Y-107866466D01*
X130612548Y-107891452D01*
X130637534Y-107921897D01*
X130656102Y-107956636D01*
X130667535Y-107994323D01*
X130672000Y-108039661D01*
X130672000Y-108876339D01*
X130667535Y-108921677D01*
X130656102Y-108959364D01*
X130637534Y-108994103D01*
X130612548Y-109024548D01*
X130582103Y-109049534D01*
X130547364Y-109068102D01*
X130509677Y-109079535D01*
X130464339Y-109084000D01*
X129377661Y-109084000D01*
X129332323Y-109079535D01*
X129294636Y-109068102D01*
X129259897Y-109049534D01*
X129229452Y-109024548D01*
X129204466Y-108994103D01*
X129185898Y-108959364D01*
X129174465Y-108921677D01*
X129170000Y-108876339D01*
X129170000Y-108039661D01*
X129174465Y-107994323D01*
X129185898Y-107956636D01*
X129204466Y-107921897D01*
X129229452Y-107891452D01*
X129259897Y-107866466D01*
X129294636Y-107847898D01*
X129332323Y-107836465D01*
X129377661Y-107832000D01*
X130464339Y-107832000D01*
X130509677Y-107836465D01*
X130509677Y-107836465D01*
G37*
G36*
X162751677Y-107457465D02*
X162789364Y-107468898D01*
X162824103Y-107487466D01*
X162854548Y-107512452D01*
X162879534Y-107542897D01*
X162898102Y-107577636D01*
X162909535Y-107615323D01*
X162914000Y-107660661D01*
X162914000Y-108747339D01*
X162909535Y-108792677D01*
X162898102Y-108830364D01*
X162879534Y-108865103D01*
X162854548Y-108895548D01*
X162824103Y-108920534D01*
X162789364Y-108939102D01*
X162751677Y-108950535D01*
X162706339Y-108955000D01*
X161869661Y-108955000D01*
X161824323Y-108950535D01*
X161786636Y-108939102D01*
X161751897Y-108920534D01*
X161721452Y-108895548D01*
X161696466Y-108865103D01*
X161677898Y-108830364D01*
X161666465Y-108792677D01*
X161662000Y-108747339D01*
X161662000Y-107660661D01*
X161666465Y-107615323D01*
X161677898Y-107577636D01*
X161696466Y-107542897D01*
X161721452Y-107512452D01*
X161751897Y-107487466D01*
X161786636Y-107468898D01*
X161824323Y-107457465D01*
X161869661Y-107453000D01*
X162706339Y-107453000D01*
X162751677Y-107457465D01*
X162751677Y-107457465D01*
G37*
G36*
X164801677Y-107457465D02*
X164839364Y-107468898D01*
X164874103Y-107487466D01*
X164904548Y-107512452D01*
X164929534Y-107542897D01*
X164948102Y-107577636D01*
X164959535Y-107615323D01*
X164964000Y-107660661D01*
X164964000Y-108747339D01*
X164959535Y-108792677D01*
X164948102Y-108830364D01*
X164929534Y-108865103D01*
X164904548Y-108895548D01*
X164874103Y-108920534D01*
X164839364Y-108939102D01*
X164801677Y-108950535D01*
X164756339Y-108955000D01*
X163919661Y-108955000D01*
X163874323Y-108950535D01*
X163836636Y-108939102D01*
X163801897Y-108920534D01*
X163771452Y-108895548D01*
X163746466Y-108865103D01*
X163727898Y-108830364D01*
X163716465Y-108792677D01*
X163712000Y-108747339D01*
X163712000Y-107660661D01*
X163716465Y-107615323D01*
X163727898Y-107577636D01*
X163746466Y-107542897D01*
X163771452Y-107512452D01*
X163801897Y-107487466D01*
X163836636Y-107468898D01*
X163874323Y-107457465D01*
X163919661Y-107453000D01*
X164756339Y-107453000D01*
X164801677Y-107457465D01*
X164801677Y-107457465D01*
G37*
G36*
X127334677Y-106820465D02*
X127372364Y-106831898D01*
X127407103Y-106850466D01*
X127437548Y-106875452D01*
X127462534Y-106905897D01*
X127481102Y-106940636D01*
X127492535Y-106978323D01*
X127497000Y-107023661D01*
X127497000Y-107860339D01*
X127492535Y-107905677D01*
X127481102Y-107943364D01*
X127462534Y-107978103D01*
X127437548Y-108008548D01*
X127407103Y-108033534D01*
X127372364Y-108052102D01*
X127334677Y-108063535D01*
X127289339Y-108068000D01*
X126202661Y-108068000D01*
X126157323Y-108063535D01*
X126119636Y-108052102D01*
X126084897Y-108033534D01*
X126054452Y-108008548D01*
X126029466Y-107978103D01*
X126010898Y-107943364D01*
X125999465Y-107905677D01*
X125995000Y-107860339D01*
X125995000Y-107023661D01*
X125999465Y-106978323D01*
X126010898Y-106940636D01*
X126029466Y-106905897D01*
X126054452Y-106875452D01*
X126084897Y-106850466D01*
X126119636Y-106831898D01*
X126157323Y-106820465D01*
X126202661Y-106816000D01*
X127289339Y-106816000D01*
X127334677Y-106820465D01*
X127334677Y-106820465D01*
G37*
G36*
X139272677Y-106811465D02*
X139310364Y-106822898D01*
X139345103Y-106841466D01*
X139375548Y-106866452D01*
X139400534Y-106896897D01*
X139419102Y-106931636D01*
X139430535Y-106969323D01*
X139435000Y-107014661D01*
X139435000Y-107851339D01*
X139430535Y-107896677D01*
X139419102Y-107934364D01*
X139400534Y-107969103D01*
X139375548Y-107999548D01*
X139345103Y-108024534D01*
X139310364Y-108043102D01*
X139272677Y-108054535D01*
X139227339Y-108059000D01*
X138140661Y-108059000D01*
X138095323Y-108054535D01*
X138057636Y-108043102D01*
X138022897Y-108024534D01*
X137992452Y-107999548D01*
X137967466Y-107969103D01*
X137948898Y-107934364D01*
X137937465Y-107896677D01*
X137933000Y-107851339D01*
X137933000Y-107014661D01*
X137937465Y-106969323D01*
X137948898Y-106931636D01*
X137967466Y-106896897D01*
X137992452Y-106866452D01*
X138022897Y-106841466D01*
X138057636Y-106822898D01*
X138095323Y-106811465D01*
X138140661Y-106807000D01*
X139227339Y-106807000D01*
X139272677Y-106811465D01*
X139272677Y-106811465D01*
G37*
G36*
X148817677Y-105679465D02*
X148855364Y-105690898D01*
X148890103Y-105709466D01*
X148920548Y-105734452D01*
X148945534Y-105764897D01*
X148964102Y-105799636D01*
X148975535Y-105837323D01*
X148980000Y-105882661D01*
X148980000Y-106969339D01*
X148975535Y-107014677D01*
X148964102Y-107052364D01*
X148945534Y-107087103D01*
X148920548Y-107117548D01*
X148890103Y-107142534D01*
X148855364Y-107161102D01*
X148817677Y-107172535D01*
X148772339Y-107177000D01*
X147935661Y-107177000D01*
X147890323Y-107172535D01*
X147852636Y-107161102D01*
X147817897Y-107142534D01*
X147787452Y-107117548D01*
X147762466Y-107087103D01*
X147743898Y-107052364D01*
X147732465Y-107014677D01*
X147728000Y-106969339D01*
X147728000Y-105882661D01*
X147732465Y-105837323D01*
X147743898Y-105799636D01*
X147762466Y-105764897D01*
X147787452Y-105734452D01*
X147817897Y-105709466D01*
X147852636Y-105690898D01*
X147890323Y-105679465D01*
X147935661Y-105675000D01*
X148772339Y-105675000D01*
X148817677Y-105679465D01*
X148817677Y-105679465D01*
G37*
G36*
X146767677Y-105679465D02*
X146805364Y-105690898D01*
X146840103Y-105709466D01*
X146870548Y-105734452D01*
X146895534Y-105764897D01*
X146914102Y-105799636D01*
X146925535Y-105837323D01*
X146930000Y-105882661D01*
X146930000Y-106969339D01*
X146925535Y-107014677D01*
X146914102Y-107052364D01*
X146895534Y-107087103D01*
X146870548Y-107117548D01*
X146840103Y-107142534D01*
X146805364Y-107161102D01*
X146767677Y-107172535D01*
X146722339Y-107177000D01*
X145885661Y-107177000D01*
X145840323Y-107172535D01*
X145802636Y-107161102D01*
X145767897Y-107142534D01*
X145737452Y-107117548D01*
X145712466Y-107087103D01*
X145693898Y-107052364D01*
X145682465Y-107014677D01*
X145678000Y-106969339D01*
X145678000Y-105882661D01*
X145682465Y-105837323D01*
X145693898Y-105799636D01*
X145712466Y-105764897D01*
X145737452Y-105734452D01*
X145767897Y-105709466D01*
X145802636Y-105690898D01*
X145840323Y-105679465D01*
X145885661Y-105675000D01*
X146722339Y-105675000D01*
X146767677Y-105679465D01*
X146767677Y-105679465D01*
G37*
G36*
X130509677Y-105786465D02*
X130547364Y-105797898D01*
X130582103Y-105816466D01*
X130612548Y-105841452D01*
X130637534Y-105871897D01*
X130656102Y-105906636D01*
X130667535Y-105944323D01*
X130672000Y-105989661D01*
X130672000Y-106826339D01*
X130667535Y-106871677D01*
X130656102Y-106909364D01*
X130637534Y-106944103D01*
X130612548Y-106974548D01*
X130582103Y-106999534D01*
X130547364Y-107018102D01*
X130509677Y-107029535D01*
X130464339Y-107034000D01*
X129377661Y-107034000D01*
X129332323Y-107029535D01*
X129294636Y-107018102D01*
X129259897Y-106999534D01*
X129229452Y-106974548D01*
X129204466Y-106944103D01*
X129185898Y-106909364D01*
X129174465Y-106871677D01*
X129170000Y-106826339D01*
X129170000Y-105989661D01*
X129174465Y-105944323D01*
X129185898Y-105906636D01*
X129204466Y-105871897D01*
X129229452Y-105841452D01*
X129259897Y-105816466D01*
X129294636Y-105797898D01*
X129332323Y-105786465D01*
X129377661Y-105782000D01*
X130464339Y-105782000D01*
X130509677Y-105786465D01*
X130509677Y-105786465D01*
G37*
G36*
X142703677Y-105425465D02*
X142741364Y-105436898D01*
X142776103Y-105455466D01*
X142806548Y-105480452D01*
X142831534Y-105510897D01*
X142850102Y-105545636D01*
X142861535Y-105583323D01*
X142866000Y-105628661D01*
X142866000Y-106715339D01*
X142861535Y-106760677D01*
X142850102Y-106798364D01*
X142831534Y-106833103D01*
X142806548Y-106863548D01*
X142776103Y-106888534D01*
X142741364Y-106907102D01*
X142703677Y-106918535D01*
X142658339Y-106923000D01*
X141821661Y-106923000D01*
X141776323Y-106918535D01*
X141738636Y-106907102D01*
X141703897Y-106888534D01*
X141673452Y-106863548D01*
X141648466Y-106833103D01*
X141629898Y-106798364D01*
X141618465Y-106760677D01*
X141614000Y-106715339D01*
X141614000Y-105628661D01*
X141618465Y-105583323D01*
X141629898Y-105545636D01*
X141648466Y-105510897D01*
X141673452Y-105480452D01*
X141703897Y-105455466D01*
X141738636Y-105436898D01*
X141776323Y-105425465D01*
X141821661Y-105421000D01*
X142658339Y-105421000D01*
X142703677Y-105425465D01*
X142703677Y-105425465D01*
G37*
G36*
X134996000Y-106923000D02*
X134244000Y-106923000D01*
X134244000Y-105261000D01*
X134996000Y-105261000D01*
X134996000Y-106923000D01*
X134996000Y-106923000D01*
G37*
G36*
X133096000Y-106923000D02*
X132344000Y-106923000D01*
X132344000Y-105261000D01*
X133096000Y-105261000D01*
X133096000Y-106923000D01*
X133096000Y-106923000D01*
G37*
G36*
X144753677Y-105425465D02*
X144791364Y-105436898D01*
X144826103Y-105455466D01*
X144856548Y-105480452D01*
X144881534Y-105510897D01*
X144900102Y-105545636D01*
X144911535Y-105583323D01*
X144916000Y-105628661D01*
X144916000Y-106715339D01*
X144911535Y-106760677D01*
X144900102Y-106798364D01*
X144881534Y-106833103D01*
X144856548Y-106863548D01*
X144826103Y-106888534D01*
X144791364Y-106907102D01*
X144753677Y-106918535D01*
X144708339Y-106923000D01*
X143871661Y-106923000D01*
X143826323Y-106918535D01*
X143788636Y-106907102D01*
X143753897Y-106888534D01*
X143723452Y-106863548D01*
X143698466Y-106833103D01*
X143679898Y-106798364D01*
X143668465Y-106760677D01*
X143664000Y-106715339D01*
X143664000Y-105628661D01*
X143668465Y-105583323D01*
X143679898Y-105545636D01*
X143698466Y-105510897D01*
X143723452Y-105480452D01*
X143753897Y-105455466D01*
X143788636Y-105436898D01*
X143826323Y-105425465D01*
X143871661Y-105421000D01*
X144708339Y-105421000D01*
X144753677Y-105425465D01*
X144753677Y-105425465D01*
G37*
G36*
X169484345Y-104747442D02*
X169574548Y-104756326D01*
X169676876Y-104787367D01*
X169748158Y-104808990D01*
X169833679Y-104854702D01*
X169908156Y-104894511D01*
X170048396Y-105009604D01*
X170163489Y-105149844D01*
X170203298Y-105224321D01*
X170249010Y-105309842D01*
X170259513Y-105344466D01*
X170301674Y-105483452D01*
X170319456Y-105664000D01*
X170301674Y-105844548D01*
X170276328Y-105928103D01*
X170249010Y-106018158D01*
X170229759Y-106054173D01*
X170163489Y-106178156D01*
X170048396Y-106318396D01*
X169908156Y-106433489D01*
X169835914Y-106472103D01*
X169748158Y-106519010D01*
X169690287Y-106536565D01*
X169574548Y-106571674D01*
X169484345Y-106580558D01*
X169439245Y-106585000D01*
X168888755Y-106585000D01*
X168843655Y-106580558D01*
X168753452Y-106571674D01*
X168637713Y-106536565D01*
X168579842Y-106519010D01*
X168492086Y-106472103D01*
X168419844Y-106433489D01*
X168279604Y-106318396D01*
X168164511Y-106178156D01*
X168098241Y-106054173D01*
X168078990Y-106018158D01*
X168051672Y-105928103D01*
X168026326Y-105844548D01*
X168008544Y-105664000D01*
X168026326Y-105483452D01*
X168068487Y-105344466D01*
X168078990Y-105309842D01*
X168124702Y-105224321D01*
X168164511Y-105149844D01*
X168279604Y-105009604D01*
X168419844Y-104894511D01*
X168494321Y-104854702D01*
X168579842Y-104808990D01*
X168651124Y-104787367D01*
X168753452Y-104756326D01*
X168843655Y-104747442D01*
X168888755Y-104743000D01*
X169439245Y-104743000D01*
X169484345Y-104747442D01*
X169484345Y-104747442D01*
G37*
G36*
X153496677Y-105314465D02*
X153534364Y-105325898D01*
X153569103Y-105344466D01*
X153599548Y-105369452D01*
X153624534Y-105399897D01*
X153643102Y-105434636D01*
X153654535Y-105472323D01*
X153659000Y-105517661D01*
X153659000Y-106354339D01*
X153654535Y-106399677D01*
X153643102Y-106437364D01*
X153624534Y-106472103D01*
X153599548Y-106502548D01*
X153569103Y-106527534D01*
X153534364Y-106546102D01*
X153496677Y-106557535D01*
X153451339Y-106562000D01*
X152364661Y-106562000D01*
X152319323Y-106557535D01*
X152281636Y-106546102D01*
X152246897Y-106527534D01*
X152216452Y-106502548D01*
X152191466Y-106472103D01*
X152172898Y-106437364D01*
X152161465Y-106399677D01*
X152157000Y-106354339D01*
X152157000Y-105517661D01*
X152161465Y-105472323D01*
X152172898Y-105434636D01*
X152191466Y-105399897D01*
X152216452Y-105369452D01*
X152246897Y-105344466D01*
X152281636Y-105325898D01*
X152319323Y-105314465D01*
X152364661Y-105310000D01*
X153451339Y-105310000D01*
X153496677Y-105314465D01*
X153496677Y-105314465D01*
G37*
G36*
X164810677Y-104917465D02*
X164848364Y-104928898D01*
X164883103Y-104947466D01*
X164913548Y-104972452D01*
X164938534Y-105002897D01*
X164957102Y-105037636D01*
X164968535Y-105075323D01*
X164973000Y-105120661D01*
X164973000Y-106207339D01*
X164968535Y-106252677D01*
X164957102Y-106290364D01*
X164938534Y-106325103D01*
X164913548Y-106355548D01*
X164883103Y-106380534D01*
X164848364Y-106399102D01*
X164810677Y-106410535D01*
X164765339Y-106415000D01*
X163928661Y-106415000D01*
X163883323Y-106410535D01*
X163845636Y-106399102D01*
X163810897Y-106380534D01*
X163780452Y-106355548D01*
X163755466Y-106325103D01*
X163736898Y-106290364D01*
X163725465Y-106252677D01*
X163721000Y-106207339D01*
X163721000Y-105120661D01*
X163725465Y-105075323D01*
X163736898Y-105037636D01*
X163755466Y-105002897D01*
X163780452Y-104972452D01*
X163810897Y-104947466D01*
X163845636Y-104928898D01*
X163883323Y-104917465D01*
X163928661Y-104913000D01*
X164765339Y-104913000D01*
X164810677Y-104917465D01*
X164810677Y-104917465D01*
G37*
G36*
X124161677Y-104917465D02*
X124199364Y-104928898D01*
X124234103Y-104947466D01*
X124264548Y-104972452D01*
X124289534Y-105002897D01*
X124308102Y-105037636D01*
X124319535Y-105075323D01*
X124324000Y-105120661D01*
X124324000Y-106207339D01*
X124319535Y-106252677D01*
X124308102Y-106290364D01*
X124289534Y-106325103D01*
X124264548Y-106355548D01*
X124234103Y-106380534D01*
X124199364Y-106399102D01*
X124161677Y-106410535D01*
X124116339Y-106415000D01*
X123279661Y-106415000D01*
X123234323Y-106410535D01*
X123196636Y-106399102D01*
X123161897Y-106380534D01*
X123131452Y-106355548D01*
X123106466Y-106325103D01*
X123087898Y-106290364D01*
X123076465Y-106252677D01*
X123072000Y-106207339D01*
X123072000Y-105120661D01*
X123076465Y-105075323D01*
X123087898Y-105037636D01*
X123106466Y-105002897D01*
X123131452Y-104972452D01*
X123161897Y-104947466D01*
X123196636Y-104928898D01*
X123234323Y-104917465D01*
X123279661Y-104913000D01*
X124116339Y-104913000D01*
X124161677Y-104917465D01*
X124161677Y-104917465D01*
G37*
G36*
X162760677Y-104917465D02*
X162798364Y-104928898D01*
X162833103Y-104947466D01*
X162863548Y-104972452D01*
X162888534Y-105002897D01*
X162907102Y-105037636D01*
X162918535Y-105075323D01*
X162923000Y-105120661D01*
X162923000Y-106207339D01*
X162918535Y-106252677D01*
X162907102Y-106290364D01*
X162888534Y-106325103D01*
X162863548Y-106355548D01*
X162833103Y-106380534D01*
X162798364Y-106399102D01*
X162760677Y-106410535D01*
X162715339Y-106415000D01*
X161878661Y-106415000D01*
X161833323Y-106410535D01*
X161795636Y-106399102D01*
X161760897Y-106380534D01*
X161730452Y-106355548D01*
X161705466Y-106325103D01*
X161686898Y-106290364D01*
X161675465Y-106252677D01*
X161671000Y-106207339D01*
X161671000Y-105120661D01*
X161675465Y-105075323D01*
X161686898Y-105037636D01*
X161705466Y-105002897D01*
X161730452Y-104972452D01*
X161760897Y-104947466D01*
X161795636Y-104928898D01*
X161833323Y-104917465D01*
X161878661Y-104913000D01*
X162715339Y-104913000D01*
X162760677Y-104917465D01*
X162760677Y-104917465D01*
G37*
G36*
X122111677Y-104917465D02*
X122149364Y-104928898D01*
X122184103Y-104947466D01*
X122214548Y-104972452D01*
X122239534Y-105002897D01*
X122258102Y-105037636D01*
X122269535Y-105075323D01*
X122274000Y-105120661D01*
X122274000Y-106207339D01*
X122269535Y-106252677D01*
X122258102Y-106290364D01*
X122239534Y-106325103D01*
X122214548Y-106355548D01*
X122184103Y-106380534D01*
X122149364Y-106399102D01*
X122111677Y-106410535D01*
X122066339Y-106415000D01*
X121229661Y-106415000D01*
X121184323Y-106410535D01*
X121146636Y-106399102D01*
X121111897Y-106380534D01*
X121081452Y-106355548D01*
X121056466Y-106325103D01*
X121037898Y-106290364D01*
X121026465Y-106252677D01*
X121022000Y-106207339D01*
X121022000Y-105120661D01*
X121026465Y-105075323D01*
X121037898Y-105037636D01*
X121056466Y-105002897D01*
X121081452Y-104972452D01*
X121111897Y-104947466D01*
X121146636Y-104928898D01*
X121184323Y-104917465D01*
X121229661Y-104913000D01*
X122066339Y-104913000D01*
X122111677Y-104917465D01*
X122111677Y-104917465D01*
G37*
G36*
X127334677Y-104770465D02*
X127372364Y-104781898D01*
X127407103Y-104800466D01*
X127437548Y-104825452D01*
X127462534Y-104855897D01*
X127481102Y-104890636D01*
X127492535Y-104928323D01*
X127497000Y-104973661D01*
X127497000Y-105810339D01*
X127492535Y-105855677D01*
X127481102Y-105893364D01*
X127462534Y-105928103D01*
X127437548Y-105958548D01*
X127407103Y-105983534D01*
X127372364Y-106002102D01*
X127334677Y-106013535D01*
X127289339Y-106018000D01*
X126202661Y-106018000D01*
X126157323Y-106013535D01*
X126119636Y-106002102D01*
X126084897Y-105983534D01*
X126054452Y-105958548D01*
X126029466Y-105928103D01*
X126010898Y-105893364D01*
X125999465Y-105855677D01*
X125995000Y-105810339D01*
X125995000Y-104973661D01*
X125999465Y-104928323D01*
X126010898Y-104890636D01*
X126029466Y-104855897D01*
X126054452Y-104825452D01*
X126084897Y-104800466D01*
X126119636Y-104781898D01*
X126157323Y-104770465D01*
X126202661Y-104766000D01*
X127289339Y-104766000D01*
X127334677Y-104770465D01*
X127334677Y-104770465D01*
G37*
G36*
X110161294Y-102984633D02*
X110333694Y-103036931D01*
X110333696Y-103036932D01*
X110492583Y-103121859D01*
X110631849Y-103236151D01*
X110746141Y-103375417D01*
X110799369Y-103475000D01*
X110831069Y-103534306D01*
X110883367Y-103706706D01*
X110901025Y-103886000D01*
X110883367Y-104065294D01*
X110831069Y-104237694D01*
X110831068Y-104237696D01*
X110746141Y-104396583D01*
X110631849Y-104535849D01*
X110492583Y-104650141D01*
X110333696Y-104735068D01*
X110333694Y-104735069D01*
X110161294Y-104787367D01*
X110026931Y-104800600D01*
X109937069Y-104800600D01*
X109802706Y-104787367D01*
X109630306Y-104735069D01*
X109630304Y-104735068D01*
X109471417Y-104650141D01*
X109332151Y-104535849D01*
X109217859Y-104396583D01*
X109132932Y-104237696D01*
X109132931Y-104237694D01*
X109080633Y-104065294D01*
X109062975Y-103886000D01*
X109080633Y-103706706D01*
X109132931Y-103534306D01*
X109164631Y-103475000D01*
X109217859Y-103375417D01*
X109332151Y-103236151D01*
X109471417Y-103121859D01*
X109630304Y-103036932D01*
X109630306Y-103036931D01*
X109802706Y-102984633D01*
X109937069Y-102971400D01*
X110026931Y-102971400D01*
X110161294Y-102984633D01*
X110161294Y-102984633D01*
G37*
G36*
X113436600Y-104800600D02*
X111607400Y-104800600D01*
X111607400Y-102971400D01*
X113436600Y-102971400D01*
X113436600Y-104800600D01*
X113436600Y-104800600D01*
G37*
G36*
X153496677Y-103264465D02*
X153534364Y-103275898D01*
X153569103Y-103294466D01*
X153599548Y-103319452D01*
X153624534Y-103349897D01*
X153643102Y-103384636D01*
X153654535Y-103422323D01*
X153659000Y-103467661D01*
X153659000Y-104304339D01*
X153654535Y-104349677D01*
X153643102Y-104387364D01*
X153624534Y-104422103D01*
X153599548Y-104452548D01*
X153569103Y-104477534D01*
X153534364Y-104496102D01*
X153496677Y-104507535D01*
X153451339Y-104512000D01*
X152364661Y-104512000D01*
X152319323Y-104507535D01*
X152281636Y-104496102D01*
X152246897Y-104477534D01*
X152216452Y-104452548D01*
X152191466Y-104422103D01*
X152172898Y-104387364D01*
X152161465Y-104349677D01*
X152157000Y-104304339D01*
X152157000Y-103467661D01*
X152161465Y-103422323D01*
X152172898Y-103384636D01*
X152191466Y-103349897D01*
X152216452Y-103319452D01*
X152246897Y-103294466D01*
X152281636Y-103275898D01*
X152319323Y-103264465D01*
X152364661Y-103260000D01*
X153451339Y-103260000D01*
X153496677Y-103264465D01*
X153496677Y-103264465D01*
G37*
G36*
X169459551Y-102205000D02*
X169574548Y-102216326D01*
X169676876Y-102247367D01*
X169748158Y-102268990D01*
X169833679Y-102314702D01*
X169908156Y-102354511D01*
X169908158Y-102354512D01*
X169908157Y-102354512D01*
X170048396Y-102469604D01*
X170163488Y-102609843D01*
X170249010Y-102769842D01*
X170249010Y-102769843D01*
X170301674Y-102943452D01*
X170319456Y-103124000D01*
X170301674Y-103304548D01*
X170291005Y-103339718D01*
X170249010Y-103478158D01*
X170220138Y-103532173D01*
X170163489Y-103638156D01*
X170048396Y-103778396D01*
X169908156Y-103893489D01*
X169833679Y-103933298D01*
X169748158Y-103979010D01*
X169690287Y-103996565D01*
X169574548Y-104031674D01*
X169484345Y-104040558D01*
X169439245Y-104045000D01*
X168888755Y-104045000D01*
X168843655Y-104040558D01*
X168753452Y-104031674D01*
X168637713Y-103996565D01*
X168579842Y-103979010D01*
X168494321Y-103933298D01*
X168419844Y-103893489D01*
X168279604Y-103778396D01*
X168164511Y-103638156D01*
X168107862Y-103532173D01*
X168078990Y-103478158D01*
X168036995Y-103339718D01*
X168026326Y-103304548D01*
X168008544Y-103124000D01*
X168026326Y-102943452D01*
X168078990Y-102769843D01*
X168078990Y-102769842D01*
X168164512Y-102609843D01*
X168279604Y-102469604D01*
X168419843Y-102354512D01*
X168419842Y-102354512D01*
X168419844Y-102354511D01*
X168494321Y-102314702D01*
X168579842Y-102268990D01*
X168651124Y-102247367D01*
X168753452Y-102216326D01*
X168868449Y-102205000D01*
X168888755Y-102203000D01*
X169439245Y-102203000D01*
X169459551Y-102205000D01*
X169459551Y-102205000D01*
G37*
G36*
X130272000Y-103475000D02*
X128620000Y-103475000D01*
X128620000Y-102773000D01*
X130272000Y-102773000D01*
X130272000Y-103475000D01*
X130272000Y-103475000D01*
G37*
G36*
X124872000Y-103475000D02*
X123220000Y-103475000D01*
X123220000Y-102773000D01*
X124872000Y-102773000D01*
X124872000Y-103475000D01*
X124872000Y-103475000D01*
G37*
G36*
X144994293Y-101165323D02*
X145001311Y-101167452D01*
X145015080Y-101174811D01*
X145037719Y-101184187D01*
X145061753Y-101188967D01*
X145086257Y-101188966D01*
X145110290Y-101184184D01*
X145132920Y-101174811D01*
X145146689Y-101167452D01*
X145153707Y-101165323D01*
X145167140Y-101164000D01*
X145480860Y-101164000D01*
X145494293Y-101165323D01*
X145501311Y-101167452D01*
X145515080Y-101174811D01*
X145537719Y-101184187D01*
X145561753Y-101188967D01*
X145586257Y-101188966D01*
X145610290Y-101184184D01*
X145632920Y-101174811D01*
X145646689Y-101167452D01*
X145653707Y-101165323D01*
X145667140Y-101164000D01*
X145980860Y-101164000D01*
X145994293Y-101165323D01*
X146001311Y-101167452D01*
X146015080Y-101174811D01*
X146037719Y-101184187D01*
X146061753Y-101188967D01*
X146086257Y-101188966D01*
X146110290Y-101184184D01*
X146132920Y-101174811D01*
X146146689Y-101167452D01*
X146153707Y-101165323D01*
X146167140Y-101164000D01*
X146480860Y-101164000D01*
X146494293Y-101165323D01*
X146501311Y-101167452D01*
X146515080Y-101174811D01*
X146537719Y-101184187D01*
X146561753Y-101188967D01*
X146586257Y-101188966D01*
X146610290Y-101184184D01*
X146632920Y-101174811D01*
X146646689Y-101167452D01*
X146653707Y-101165323D01*
X146667140Y-101164000D01*
X146980860Y-101164000D01*
X146994293Y-101165323D01*
X147001311Y-101167452D01*
X147015080Y-101174811D01*
X147037719Y-101184187D01*
X147061753Y-101188967D01*
X147086257Y-101188966D01*
X147110290Y-101184184D01*
X147132920Y-101174811D01*
X147146689Y-101167452D01*
X147153707Y-101165323D01*
X147167140Y-101164000D01*
X147480860Y-101164000D01*
X147494293Y-101165323D01*
X147501311Y-101167452D01*
X147515080Y-101174811D01*
X147537719Y-101184187D01*
X147561753Y-101188967D01*
X147586257Y-101188966D01*
X147610290Y-101184184D01*
X147632920Y-101174811D01*
X147646689Y-101167452D01*
X147653707Y-101165323D01*
X147667140Y-101164000D01*
X147980860Y-101164000D01*
X147994293Y-101165323D01*
X148001311Y-101167452D01*
X148015080Y-101174811D01*
X148037719Y-101184187D01*
X148061753Y-101188967D01*
X148086257Y-101188966D01*
X148110290Y-101184184D01*
X148132920Y-101174811D01*
X148146689Y-101167452D01*
X148153707Y-101165323D01*
X148167140Y-101164000D01*
X148480860Y-101164000D01*
X148494293Y-101165323D01*
X148501311Y-101167452D01*
X148515080Y-101174811D01*
X148537719Y-101184187D01*
X148561753Y-101188967D01*
X148586257Y-101188966D01*
X148610290Y-101184184D01*
X148632920Y-101174811D01*
X148646689Y-101167452D01*
X148653707Y-101165323D01*
X148667140Y-101164000D01*
X148980860Y-101164000D01*
X148994293Y-101165323D01*
X149001311Y-101167452D01*
X149015080Y-101174811D01*
X149037719Y-101184187D01*
X149061753Y-101188967D01*
X149086257Y-101188966D01*
X149110290Y-101184184D01*
X149132920Y-101174811D01*
X149146689Y-101167452D01*
X149153707Y-101165323D01*
X149167140Y-101164000D01*
X149480860Y-101164000D01*
X149494293Y-101165323D01*
X149501311Y-101167452D01*
X149515080Y-101174811D01*
X149537719Y-101184187D01*
X149561753Y-101188967D01*
X149586257Y-101188966D01*
X149610290Y-101184184D01*
X149632920Y-101174811D01*
X149646689Y-101167452D01*
X149653707Y-101165323D01*
X149667140Y-101164000D01*
X149980860Y-101164000D01*
X149994293Y-101165323D01*
X150001311Y-101167452D01*
X150015080Y-101174811D01*
X150037719Y-101184187D01*
X150061753Y-101188967D01*
X150086257Y-101188966D01*
X150110290Y-101184184D01*
X150132920Y-101174811D01*
X150146689Y-101167452D01*
X150153707Y-101165323D01*
X150167140Y-101164000D01*
X150480860Y-101164000D01*
X150494293Y-101165323D01*
X150501312Y-101167452D01*
X150507775Y-101170907D01*
X150513442Y-101175558D01*
X150518093Y-101181225D01*
X150521548Y-101187688D01*
X150523677Y-101194707D01*
X150525000Y-101208140D01*
X150525000Y-102696860D01*
X150523677Y-102710293D01*
X150521548Y-102717312D01*
X150518093Y-102723775D01*
X150513442Y-102729442D01*
X150507775Y-102734093D01*
X150501312Y-102737548D01*
X150494293Y-102739677D01*
X150480860Y-102741000D01*
X150167140Y-102741000D01*
X150153707Y-102739677D01*
X150146689Y-102737548D01*
X150132920Y-102730189D01*
X150110281Y-102720813D01*
X150086247Y-102716033D01*
X150061743Y-102716034D01*
X150037710Y-102720816D01*
X150015080Y-102730189D01*
X150001311Y-102737548D01*
X149994293Y-102739677D01*
X149980860Y-102741000D01*
X149667140Y-102741000D01*
X149653707Y-102739677D01*
X149646689Y-102737548D01*
X149632920Y-102730189D01*
X149610281Y-102720813D01*
X149586247Y-102716033D01*
X149561743Y-102716034D01*
X149537710Y-102720816D01*
X149515080Y-102730189D01*
X149501311Y-102737548D01*
X149494293Y-102739677D01*
X149480860Y-102741000D01*
X149167140Y-102741000D01*
X149153707Y-102739677D01*
X149146689Y-102737548D01*
X149132920Y-102730189D01*
X149110281Y-102720813D01*
X149086247Y-102716033D01*
X149061743Y-102716034D01*
X149037710Y-102720816D01*
X149015080Y-102730189D01*
X149001311Y-102737548D01*
X148994293Y-102739677D01*
X148980860Y-102741000D01*
X148667140Y-102741000D01*
X148653707Y-102739677D01*
X148646689Y-102737548D01*
X148632920Y-102730189D01*
X148610281Y-102720813D01*
X148586247Y-102716033D01*
X148561743Y-102716034D01*
X148537710Y-102720816D01*
X148515080Y-102730189D01*
X148501311Y-102737548D01*
X148494293Y-102739677D01*
X148480860Y-102741000D01*
X148167140Y-102741000D01*
X148153707Y-102739677D01*
X148146689Y-102737548D01*
X148132920Y-102730189D01*
X148110281Y-102720813D01*
X148086247Y-102716033D01*
X148061743Y-102716034D01*
X148037710Y-102720816D01*
X148015080Y-102730189D01*
X148001311Y-102737548D01*
X147994293Y-102739677D01*
X147980860Y-102741000D01*
X147667140Y-102741000D01*
X147653707Y-102739677D01*
X147646689Y-102737548D01*
X147632920Y-102730189D01*
X147610281Y-102720813D01*
X147586247Y-102716033D01*
X147561743Y-102716034D01*
X147537710Y-102720816D01*
X147515080Y-102730189D01*
X147501311Y-102737548D01*
X147494293Y-102739677D01*
X147480860Y-102741000D01*
X147167140Y-102741000D01*
X147153707Y-102739677D01*
X147146689Y-102737548D01*
X147132920Y-102730189D01*
X147110281Y-102720813D01*
X147086247Y-102716033D01*
X147061743Y-102716034D01*
X147037710Y-102720816D01*
X147015080Y-102730189D01*
X147001311Y-102737548D01*
X146994293Y-102739677D01*
X146980860Y-102741000D01*
X146667140Y-102741000D01*
X146653707Y-102739677D01*
X146646689Y-102737548D01*
X146632920Y-102730189D01*
X146610281Y-102720813D01*
X146586247Y-102716033D01*
X146561743Y-102716034D01*
X146537710Y-102720816D01*
X146515080Y-102730189D01*
X146501311Y-102737548D01*
X146494293Y-102739677D01*
X146480860Y-102741000D01*
X146167140Y-102741000D01*
X146153707Y-102739677D01*
X146146689Y-102737548D01*
X146132920Y-102730189D01*
X146110281Y-102720813D01*
X146086247Y-102716033D01*
X146061743Y-102716034D01*
X146037710Y-102720816D01*
X146015080Y-102730189D01*
X146001311Y-102737548D01*
X145994293Y-102739677D01*
X145980860Y-102741000D01*
X145667140Y-102741000D01*
X145653707Y-102739677D01*
X145646689Y-102737548D01*
X145632920Y-102730189D01*
X145610281Y-102720813D01*
X145586247Y-102716033D01*
X145561743Y-102716034D01*
X145537710Y-102720816D01*
X145515080Y-102730189D01*
X145501311Y-102737548D01*
X145494293Y-102739677D01*
X145480860Y-102741000D01*
X145167140Y-102741000D01*
X145153707Y-102739677D01*
X145146689Y-102737548D01*
X145132920Y-102730189D01*
X145110281Y-102720813D01*
X145086247Y-102716033D01*
X145061743Y-102716034D01*
X145037710Y-102720816D01*
X145015080Y-102730189D01*
X145001311Y-102737548D01*
X144994293Y-102739677D01*
X144980860Y-102741000D01*
X144667140Y-102741000D01*
X144653707Y-102739677D01*
X144646688Y-102737548D01*
X144640225Y-102734093D01*
X144634558Y-102729442D01*
X144629907Y-102723775D01*
X144626452Y-102717312D01*
X144624323Y-102710293D01*
X144623000Y-102696860D01*
X144623000Y-101208140D01*
X144624323Y-101194707D01*
X144626452Y-101187688D01*
X144629907Y-101181225D01*
X144634558Y-101175558D01*
X144640225Y-101170907D01*
X144646688Y-101167452D01*
X144653707Y-101165323D01*
X144667140Y-101164000D01*
X144980860Y-101164000D01*
X144994293Y-101165323D01*
X144994293Y-101165323D01*
G37*
G36*
X110161294Y-100444633D02*
X110333694Y-100496931D01*
X110333696Y-100496932D01*
X110492583Y-100581859D01*
X110631849Y-100696151D01*
X110681108Y-100756173D01*
X110746140Y-100835416D01*
X110831069Y-100994306D01*
X110883367Y-101166706D01*
X110901025Y-101346000D01*
X110883367Y-101525294D01*
X110833363Y-101690131D01*
X110831068Y-101697696D01*
X110746141Y-101856583D01*
X110631849Y-101995849D01*
X110492583Y-102110141D01*
X110333696Y-102195068D01*
X110333694Y-102195069D01*
X110161294Y-102247367D01*
X110026931Y-102260600D01*
X109937069Y-102260600D01*
X109802706Y-102247367D01*
X109630306Y-102195069D01*
X109630304Y-102195068D01*
X109471417Y-102110141D01*
X109332151Y-101995849D01*
X109217859Y-101856583D01*
X109132932Y-101697696D01*
X109130637Y-101690131D01*
X109080633Y-101525294D01*
X109062975Y-101346000D01*
X109080633Y-101166706D01*
X109132931Y-100994306D01*
X109217860Y-100835416D01*
X109282893Y-100756173D01*
X109332151Y-100696151D01*
X109471417Y-100581859D01*
X109630304Y-100496932D01*
X109630306Y-100496931D01*
X109802706Y-100444633D01*
X109937069Y-100431400D01*
X110026931Y-100431400D01*
X110161294Y-100444633D01*
X110161294Y-100444633D01*
G37*
G36*
X112701294Y-100444633D02*
X112873694Y-100496931D01*
X112873696Y-100496932D01*
X113032583Y-100581859D01*
X113171849Y-100696151D01*
X113221108Y-100756173D01*
X113286140Y-100835416D01*
X113371069Y-100994306D01*
X113423367Y-101166706D01*
X113441025Y-101346000D01*
X113423367Y-101525294D01*
X113373363Y-101690131D01*
X113371068Y-101697696D01*
X113286141Y-101856583D01*
X113171849Y-101995849D01*
X113032583Y-102110141D01*
X112873696Y-102195068D01*
X112873694Y-102195069D01*
X112701294Y-102247367D01*
X112566931Y-102260600D01*
X112477069Y-102260600D01*
X112342706Y-102247367D01*
X112170306Y-102195069D01*
X112170304Y-102195068D01*
X112011417Y-102110141D01*
X111872151Y-101995849D01*
X111757859Y-101856583D01*
X111672932Y-101697696D01*
X111670637Y-101690131D01*
X111620633Y-101525294D01*
X111602975Y-101346000D01*
X111620633Y-101166706D01*
X111672931Y-100994306D01*
X111757860Y-100835416D01*
X111822893Y-100756173D01*
X111872151Y-100696151D01*
X112011417Y-100581859D01*
X112170304Y-100496932D01*
X112170306Y-100496931D01*
X112342706Y-100444633D01*
X112477069Y-100431400D01*
X112566931Y-100431400D01*
X112701294Y-100444633D01*
X112701294Y-100444633D01*
G37*
G36*
X124872000Y-102205000D02*
X123220000Y-102205000D01*
X123220000Y-101503000D01*
X124872000Y-101503000D01*
X124872000Y-102205000D01*
X124872000Y-102205000D01*
G37*
G36*
X130272000Y-102205000D02*
X128620000Y-102205000D01*
X128620000Y-101503000D01*
X130272000Y-101503000D01*
X130272000Y-102205000D01*
X130272000Y-102205000D01*
G37*
G36*
X118444677Y-100488465D02*
X118482364Y-100499898D01*
X118517103Y-100518466D01*
X118547548Y-100543452D01*
X118572534Y-100573897D01*
X118591102Y-100608636D01*
X118602535Y-100646323D01*
X118607000Y-100691661D01*
X118607000Y-101528339D01*
X118602535Y-101573677D01*
X118591102Y-101611364D01*
X118572534Y-101646103D01*
X118547548Y-101676548D01*
X118517103Y-101701534D01*
X118482364Y-101720102D01*
X118444677Y-101731535D01*
X118399339Y-101736000D01*
X117312661Y-101736000D01*
X117267323Y-101731535D01*
X117229636Y-101720102D01*
X117194897Y-101701534D01*
X117164452Y-101676548D01*
X117139466Y-101646103D01*
X117120898Y-101611364D01*
X117109465Y-101573677D01*
X117105000Y-101528339D01*
X117105000Y-100691661D01*
X117109465Y-100646323D01*
X117120898Y-100608636D01*
X117139466Y-100573897D01*
X117164452Y-100543452D01*
X117194897Y-100518466D01*
X117229636Y-100499898D01*
X117267323Y-100488465D01*
X117312661Y-100484000D01*
X118399339Y-100484000D01*
X118444677Y-100488465D01*
X118444677Y-100488465D01*
G37*
G36*
X124872000Y-100935000D02*
X123220000Y-100935000D01*
X123220000Y-100233000D01*
X124872000Y-100233000D01*
X124872000Y-100935000D01*
X124872000Y-100935000D01*
G37*
G36*
X130272000Y-100935000D02*
X128620000Y-100935000D01*
X128620000Y-100233000D01*
X130272000Y-100233000D01*
X130272000Y-100935000D01*
X130272000Y-100935000D01*
G37*
G36*
X152494293Y-94840323D02*
X152501312Y-94842452D01*
X152507775Y-94845907D01*
X152513442Y-94850558D01*
X152518093Y-94856225D01*
X152521548Y-94862688D01*
X152523677Y-94869707D01*
X152525000Y-94883140D01*
X152525000Y-95196860D01*
X152523677Y-95210293D01*
X152521548Y-95217311D01*
X152514189Y-95231080D01*
X152504813Y-95253719D01*
X152500033Y-95277753D01*
X152500034Y-95302257D01*
X152504816Y-95326290D01*
X152514189Y-95348920D01*
X152521548Y-95362689D01*
X152523677Y-95369707D01*
X152525000Y-95383140D01*
X152525000Y-95696860D01*
X152523677Y-95710293D01*
X152521548Y-95717311D01*
X152514189Y-95731080D01*
X152504813Y-95753719D01*
X152500033Y-95777753D01*
X152500034Y-95802257D01*
X152504816Y-95826290D01*
X152514189Y-95848920D01*
X152521548Y-95862689D01*
X152523677Y-95869707D01*
X152525000Y-95883140D01*
X152525000Y-96196860D01*
X152523677Y-96210293D01*
X152521548Y-96217311D01*
X152514189Y-96231080D01*
X152504813Y-96253719D01*
X152500033Y-96277753D01*
X152500034Y-96302257D01*
X152504816Y-96326290D01*
X152514189Y-96348920D01*
X152521548Y-96362689D01*
X152523677Y-96369707D01*
X152525000Y-96383140D01*
X152525000Y-96696860D01*
X152523677Y-96710293D01*
X152521548Y-96717311D01*
X152514189Y-96731080D01*
X152504813Y-96753719D01*
X152500033Y-96777753D01*
X152500034Y-96802257D01*
X152504816Y-96826290D01*
X152514189Y-96848920D01*
X152521548Y-96862689D01*
X152523677Y-96869707D01*
X152525000Y-96883140D01*
X152525000Y-97196860D01*
X152523677Y-97210293D01*
X152521548Y-97217311D01*
X152514189Y-97231080D01*
X152504813Y-97253719D01*
X152500033Y-97277753D01*
X152500034Y-97302257D01*
X152504816Y-97326290D01*
X152514189Y-97348920D01*
X152521548Y-97362689D01*
X152523677Y-97369707D01*
X152525000Y-97383140D01*
X152525000Y-97696860D01*
X152523677Y-97710293D01*
X152521548Y-97717311D01*
X152514189Y-97731080D01*
X152504813Y-97753719D01*
X152500033Y-97777753D01*
X152500034Y-97802257D01*
X152504816Y-97826290D01*
X152514189Y-97848920D01*
X152521548Y-97862689D01*
X152523677Y-97869707D01*
X152525000Y-97883140D01*
X152525000Y-98196860D01*
X152523677Y-98210293D01*
X152521548Y-98217311D01*
X152514189Y-98231080D01*
X152504813Y-98253719D01*
X152500033Y-98277753D01*
X152500034Y-98302257D01*
X152504816Y-98326290D01*
X152514189Y-98348920D01*
X152521548Y-98362689D01*
X152523677Y-98369707D01*
X152525000Y-98383140D01*
X152525000Y-98696860D01*
X152523677Y-98710293D01*
X152521548Y-98717311D01*
X152514189Y-98731080D01*
X152504813Y-98753719D01*
X152500033Y-98777753D01*
X152500034Y-98802257D01*
X152504816Y-98826290D01*
X152514189Y-98848920D01*
X152521548Y-98862689D01*
X152523677Y-98869707D01*
X152525000Y-98883140D01*
X152525000Y-99196860D01*
X152523677Y-99210293D01*
X152521548Y-99217311D01*
X152514189Y-99231080D01*
X152504813Y-99253719D01*
X152500033Y-99277753D01*
X152500034Y-99302257D01*
X152504816Y-99326290D01*
X152514189Y-99348920D01*
X152521548Y-99362689D01*
X152523677Y-99369707D01*
X152525000Y-99383140D01*
X152525000Y-99696860D01*
X152523677Y-99710293D01*
X152521548Y-99717311D01*
X152514189Y-99731080D01*
X152504813Y-99753719D01*
X152500033Y-99777753D01*
X152500034Y-99802257D01*
X152504816Y-99826290D01*
X152514189Y-99848920D01*
X152521548Y-99862689D01*
X152523677Y-99869707D01*
X152525000Y-99883140D01*
X152525000Y-100196860D01*
X152523677Y-100210293D01*
X152521548Y-100217311D01*
X152514189Y-100231080D01*
X152504813Y-100253719D01*
X152500033Y-100277753D01*
X152500034Y-100302257D01*
X152504816Y-100326290D01*
X152514189Y-100348920D01*
X152521548Y-100362689D01*
X152523677Y-100369707D01*
X152525000Y-100383140D01*
X152525000Y-100696860D01*
X152523677Y-100710293D01*
X152521548Y-100717312D01*
X152518093Y-100723775D01*
X152513442Y-100729442D01*
X152507775Y-100734093D01*
X152501312Y-100737548D01*
X152494293Y-100739677D01*
X152480860Y-100741000D01*
X150992140Y-100741000D01*
X150978707Y-100739677D01*
X150971688Y-100737548D01*
X150965225Y-100734093D01*
X150959558Y-100729442D01*
X150954907Y-100723775D01*
X150951452Y-100717312D01*
X150949323Y-100710293D01*
X150948000Y-100696860D01*
X150948000Y-100383140D01*
X150949323Y-100369707D01*
X150951452Y-100362689D01*
X150958811Y-100348920D01*
X150968187Y-100326281D01*
X150972967Y-100302247D01*
X150972966Y-100277743D01*
X150968184Y-100253710D01*
X150958811Y-100231080D01*
X150951452Y-100217311D01*
X150949323Y-100210293D01*
X150948000Y-100196860D01*
X150948000Y-99883140D01*
X150949323Y-99869707D01*
X150951452Y-99862689D01*
X150958811Y-99848920D01*
X150968187Y-99826281D01*
X150972967Y-99802247D01*
X150972966Y-99777743D01*
X150968184Y-99753710D01*
X150958811Y-99731080D01*
X150951452Y-99717311D01*
X150949323Y-99710293D01*
X150948000Y-99696860D01*
X150948000Y-99383140D01*
X150949323Y-99369707D01*
X150951452Y-99362689D01*
X150958811Y-99348920D01*
X150968187Y-99326281D01*
X150972967Y-99302247D01*
X150972966Y-99277743D01*
X150968184Y-99253710D01*
X150958811Y-99231080D01*
X150951452Y-99217311D01*
X150949323Y-99210293D01*
X150948000Y-99196860D01*
X150948000Y-98883140D01*
X150949323Y-98869707D01*
X150951452Y-98862689D01*
X150958811Y-98848920D01*
X150968187Y-98826281D01*
X150972967Y-98802247D01*
X150972966Y-98777743D01*
X150968184Y-98753710D01*
X150958811Y-98731080D01*
X150951452Y-98717311D01*
X150949323Y-98710293D01*
X150948000Y-98696860D01*
X150948000Y-98383140D01*
X150949323Y-98369707D01*
X150951452Y-98362689D01*
X150958811Y-98348920D01*
X150968187Y-98326281D01*
X150972967Y-98302247D01*
X150972966Y-98277743D01*
X150968184Y-98253710D01*
X150958811Y-98231080D01*
X150951452Y-98217311D01*
X150949323Y-98210293D01*
X150948000Y-98196860D01*
X150948000Y-97883140D01*
X150949323Y-97869707D01*
X150951452Y-97862689D01*
X150958811Y-97848920D01*
X150968187Y-97826281D01*
X150972967Y-97802247D01*
X150972966Y-97777743D01*
X150968184Y-97753710D01*
X150958811Y-97731080D01*
X150951452Y-97717311D01*
X150949323Y-97710293D01*
X150948000Y-97696860D01*
X150948000Y-97383140D01*
X150949323Y-97369707D01*
X150951452Y-97362689D01*
X150958811Y-97348920D01*
X150968187Y-97326281D01*
X150972967Y-97302247D01*
X150972966Y-97277743D01*
X150968184Y-97253710D01*
X150958811Y-97231080D01*
X150951452Y-97217311D01*
X150949323Y-97210293D01*
X150948000Y-97196860D01*
X150948000Y-96883140D01*
X150949323Y-96869707D01*
X150951452Y-96862689D01*
X150958811Y-96848920D01*
X150968187Y-96826281D01*
X150972967Y-96802247D01*
X150972966Y-96777743D01*
X150968184Y-96753710D01*
X150958811Y-96731080D01*
X150951452Y-96717311D01*
X150949323Y-96710293D01*
X150948000Y-96696860D01*
X150948000Y-96383140D01*
X150949323Y-96369707D01*
X150951452Y-96362689D01*
X150958811Y-96348920D01*
X150968187Y-96326281D01*
X150972967Y-96302247D01*
X150972966Y-96277743D01*
X150968184Y-96253710D01*
X150958811Y-96231080D01*
X150951452Y-96217311D01*
X150949323Y-96210293D01*
X150948000Y-96196860D01*
X150948000Y-95883140D01*
X150949323Y-95869707D01*
X150951452Y-95862689D01*
X150958811Y-95848920D01*
X150968187Y-95826281D01*
X150972967Y-95802247D01*
X150972966Y-95777743D01*
X150968184Y-95753710D01*
X150958811Y-95731080D01*
X150951452Y-95717311D01*
X150949323Y-95710293D01*
X150948000Y-95696860D01*
X150948000Y-95383140D01*
X150949323Y-95369707D01*
X150951452Y-95362689D01*
X150958811Y-95348920D01*
X150968187Y-95326281D01*
X150972967Y-95302247D01*
X150972966Y-95277743D01*
X150968184Y-95253710D01*
X150958811Y-95231080D01*
X150951452Y-95217311D01*
X150949323Y-95210293D01*
X150948000Y-95196860D01*
X150948000Y-94883140D01*
X150949323Y-94869707D01*
X150951452Y-94862688D01*
X150954907Y-94856225D01*
X150959558Y-94850558D01*
X150965225Y-94845907D01*
X150971688Y-94842452D01*
X150978707Y-94840323D01*
X150992140Y-94839000D01*
X152480860Y-94839000D01*
X152494293Y-94840323D01*
X152494293Y-94840323D01*
G37*
G36*
X144169293Y-94840323D02*
X144176312Y-94842452D01*
X144182775Y-94845907D01*
X144188442Y-94850558D01*
X144193093Y-94856225D01*
X144196548Y-94862688D01*
X144198677Y-94869707D01*
X144200000Y-94883140D01*
X144200000Y-95196860D01*
X144198677Y-95210293D01*
X144196548Y-95217311D01*
X144189189Y-95231080D01*
X144179813Y-95253719D01*
X144175033Y-95277753D01*
X144175034Y-95302257D01*
X144179816Y-95326290D01*
X144189189Y-95348920D01*
X144196548Y-95362689D01*
X144198677Y-95369707D01*
X144200000Y-95383140D01*
X144200000Y-95696860D01*
X144198677Y-95710293D01*
X144196548Y-95717311D01*
X144189189Y-95731080D01*
X144179813Y-95753719D01*
X144175033Y-95777753D01*
X144175034Y-95802257D01*
X144179816Y-95826290D01*
X144189189Y-95848920D01*
X144196548Y-95862689D01*
X144198677Y-95869707D01*
X144200000Y-95883140D01*
X144200000Y-96196860D01*
X144198677Y-96210293D01*
X144196548Y-96217311D01*
X144189189Y-96231080D01*
X144179813Y-96253719D01*
X144175033Y-96277753D01*
X144175034Y-96302257D01*
X144179816Y-96326290D01*
X144189189Y-96348920D01*
X144196548Y-96362689D01*
X144198677Y-96369707D01*
X144200000Y-96383140D01*
X144200000Y-96696860D01*
X144198677Y-96710293D01*
X144196548Y-96717311D01*
X144189189Y-96731080D01*
X144179813Y-96753719D01*
X144175033Y-96777753D01*
X144175034Y-96802257D01*
X144179816Y-96826290D01*
X144189189Y-96848920D01*
X144196548Y-96862689D01*
X144198677Y-96869707D01*
X144200000Y-96883140D01*
X144200000Y-97196860D01*
X144198677Y-97210293D01*
X144196548Y-97217311D01*
X144189189Y-97231080D01*
X144179813Y-97253719D01*
X144175033Y-97277753D01*
X144175034Y-97302257D01*
X144179816Y-97326290D01*
X144189189Y-97348920D01*
X144196548Y-97362689D01*
X144198677Y-97369707D01*
X144200000Y-97383140D01*
X144200000Y-97696860D01*
X144198677Y-97710293D01*
X144196548Y-97717311D01*
X144189189Y-97731080D01*
X144179813Y-97753719D01*
X144175033Y-97777753D01*
X144175034Y-97802257D01*
X144179816Y-97826290D01*
X144189189Y-97848920D01*
X144196548Y-97862689D01*
X144198677Y-97869707D01*
X144200000Y-97883140D01*
X144200000Y-98196860D01*
X144198677Y-98210293D01*
X144196548Y-98217311D01*
X144189189Y-98231080D01*
X144179813Y-98253719D01*
X144175033Y-98277753D01*
X144175034Y-98302257D01*
X144179816Y-98326290D01*
X144189189Y-98348920D01*
X144196548Y-98362689D01*
X144198677Y-98369707D01*
X144200000Y-98383140D01*
X144200000Y-98696860D01*
X144198677Y-98710293D01*
X144196548Y-98717311D01*
X144189189Y-98731080D01*
X144179813Y-98753719D01*
X144175033Y-98777753D01*
X144175034Y-98802257D01*
X144179816Y-98826290D01*
X144189189Y-98848920D01*
X144196548Y-98862689D01*
X144198677Y-98869707D01*
X144200000Y-98883140D01*
X144200000Y-99196860D01*
X144198677Y-99210293D01*
X144196548Y-99217311D01*
X144189189Y-99231080D01*
X144179813Y-99253719D01*
X144175033Y-99277753D01*
X144175034Y-99302257D01*
X144179816Y-99326290D01*
X144189189Y-99348920D01*
X144196548Y-99362689D01*
X144198677Y-99369707D01*
X144200000Y-99383140D01*
X144200000Y-99696860D01*
X144198677Y-99710293D01*
X144196548Y-99717311D01*
X144189189Y-99731080D01*
X144179813Y-99753719D01*
X144175033Y-99777753D01*
X144175034Y-99802257D01*
X144179816Y-99826290D01*
X144189189Y-99848920D01*
X144196548Y-99862689D01*
X144198677Y-99869707D01*
X144200000Y-99883140D01*
X144200000Y-100196860D01*
X144198677Y-100210293D01*
X144196548Y-100217311D01*
X144189189Y-100231080D01*
X144179813Y-100253719D01*
X144175033Y-100277753D01*
X144175034Y-100302257D01*
X144179816Y-100326290D01*
X144189189Y-100348920D01*
X144196548Y-100362689D01*
X144198677Y-100369707D01*
X144200000Y-100383140D01*
X144200000Y-100696860D01*
X144198677Y-100710293D01*
X144196548Y-100717312D01*
X144193093Y-100723775D01*
X144188442Y-100729442D01*
X144182775Y-100734093D01*
X144176312Y-100737548D01*
X144169293Y-100739677D01*
X144155860Y-100741000D01*
X142667140Y-100741000D01*
X142653707Y-100739677D01*
X142646688Y-100737548D01*
X142640225Y-100734093D01*
X142634558Y-100729442D01*
X142629907Y-100723775D01*
X142626452Y-100717312D01*
X142624323Y-100710293D01*
X142623000Y-100696860D01*
X142623000Y-100383140D01*
X142624323Y-100369707D01*
X142626452Y-100362689D01*
X142633811Y-100348920D01*
X142643187Y-100326281D01*
X142647967Y-100302247D01*
X142647966Y-100277743D01*
X142643184Y-100253710D01*
X142633811Y-100231080D01*
X142626452Y-100217311D01*
X142624323Y-100210293D01*
X142623000Y-100196860D01*
X142623000Y-99883140D01*
X142624323Y-99869707D01*
X142626452Y-99862689D01*
X142633811Y-99848920D01*
X142643187Y-99826281D01*
X142647967Y-99802247D01*
X142647966Y-99777743D01*
X142643184Y-99753710D01*
X142633811Y-99731080D01*
X142626452Y-99717311D01*
X142624323Y-99710293D01*
X142623000Y-99696860D01*
X142623000Y-99383140D01*
X142624323Y-99369707D01*
X142626452Y-99362689D01*
X142633811Y-99348920D01*
X142643187Y-99326281D01*
X142647967Y-99302247D01*
X142647966Y-99277743D01*
X142643184Y-99253710D01*
X142633811Y-99231080D01*
X142626452Y-99217311D01*
X142624323Y-99210293D01*
X142623000Y-99196860D01*
X142623000Y-98883140D01*
X142624323Y-98869707D01*
X142626452Y-98862689D01*
X142633811Y-98848920D01*
X142643187Y-98826281D01*
X142647967Y-98802247D01*
X142647966Y-98777743D01*
X142643184Y-98753710D01*
X142633811Y-98731080D01*
X142626452Y-98717311D01*
X142624323Y-98710293D01*
X142623000Y-98696860D01*
X142623000Y-98383140D01*
X142624323Y-98369707D01*
X142626452Y-98362689D01*
X142633811Y-98348920D01*
X142643187Y-98326281D01*
X142647967Y-98302247D01*
X142647966Y-98277743D01*
X142643184Y-98253710D01*
X142633811Y-98231080D01*
X142626452Y-98217311D01*
X142624323Y-98210293D01*
X142623000Y-98196860D01*
X142623000Y-97883140D01*
X142624323Y-97869707D01*
X142626452Y-97862689D01*
X142633811Y-97848920D01*
X142643187Y-97826281D01*
X142647967Y-97802247D01*
X142647966Y-97777743D01*
X142643184Y-97753710D01*
X142633811Y-97731080D01*
X142626452Y-97717311D01*
X142624323Y-97710293D01*
X142623000Y-97696860D01*
X142623000Y-97383140D01*
X142624323Y-97369707D01*
X142626452Y-97362689D01*
X142633811Y-97348920D01*
X142643187Y-97326281D01*
X142647967Y-97302247D01*
X142647966Y-97277743D01*
X142643184Y-97253710D01*
X142633811Y-97231080D01*
X142626452Y-97217311D01*
X142624323Y-97210293D01*
X142623000Y-97196860D01*
X142623000Y-96883140D01*
X142624323Y-96869707D01*
X142626452Y-96862689D01*
X142633811Y-96848920D01*
X142643187Y-96826281D01*
X142647967Y-96802247D01*
X142647966Y-96777743D01*
X142643184Y-96753710D01*
X142633811Y-96731080D01*
X142626452Y-96717311D01*
X142624323Y-96710293D01*
X142623000Y-96696860D01*
X142623000Y-96383140D01*
X142624323Y-96369707D01*
X142626452Y-96362689D01*
X142633811Y-96348920D01*
X142643187Y-96326281D01*
X142647967Y-96302247D01*
X142647966Y-96277743D01*
X142643184Y-96253710D01*
X142633811Y-96231080D01*
X142626452Y-96217311D01*
X142624323Y-96210293D01*
X142623000Y-96196860D01*
X142623000Y-95883140D01*
X142624323Y-95869707D01*
X142626452Y-95862689D01*
X142633811Y-95848920D01*
X142643187Y-95826281D01*
X142647967Y-95802247D01*
X142647966Y-95777743D01*
X142643184Y-95753710D01*
X142633811Y-95731080D01*
X142626452Y-95717311D01*
X142624323Y-95710293D01*
X142623000Y-95696860D01*
X142623000Y-95383140D01*
X142624323Y-95369707D01*
X142626452Y-95362689D01*
X142633811Y-95348920D01*
X142643187Y-95326281D01*
X142647967Y-95302247D01*
X142647966Y-95277743D01*
X142643184Y-95253710D01*
X142633811Y-95231080D01*
X142626452Y-95217311D01*
X142624323Y-95210293D01*
X142623000Y-95196860D01*
X142623000Y-94883140D01*
X142624323Y-94869707D01*
X142626452Y-94862688D01*
X142629907Y-94856225D01*
X142634558Y-94850558D01*
X142640225Y-94845907D01*
X142646688Y-94842452D01*
X142653707Y-94840323D01*
X142667140Y-94839000D01*
X144155860Y-94839000D01*
X144169293Y-94840323D01*
X144169293Y-94840323D01*
G37*
G36*
X140542677Y-99218465D02*
X140580364Y-99229898D01*
X140615103Y-99248466D01*
X140645548Y-99273452D01*
X140670534Y-99303897D01*
X140689102Y-99338636D01*
X140700535Y-99376323D01*
X140705000Y-99421661D01*
X140705000Y-100258339D01*
X140700535Y-100303677D01*
X140689102Y-100341364D01*
X140670534Y-100376103D01*
X140645548Y-100406548D01*
X140615103Y-100431534D01*
X140580364Y-100450102D01*
X140542677Y-100461535D01*
X140497339Y-100466000D01*
X139410661Y-100466000D01*
X139365323Y-100461535D01*
X139327636Y-100450102D01*
X139292897Y-100431534D01*
X139262452Y-100406548D01*
X139237466Y-100376103D01*
X139218898Y-100341364D01*
X139207465Y-100303677D01*
X139203000Y-100258339D01*
X139203000Y-99421661D01*
X139207465Y-99376323D01*
X139218898Y-99338636D01*
X139237466Y-99303897D01*
X139262452Y-99273452D01*
X139292897Y-99248466D01*
X139327636Y-99229898D01*
X139365323Y-99218465D01*
X139410661Y-99214000D01*
X140497339Y-99214000D01*
X140542677Y-99218465D01*
X140542677Y-99218465D01*
G37*
G36*
X110161294Y-97904633D02*
X110333694Y-97956931D01*
X110333696Y-97956932D01*
X110492583Y-98041859D01*
X110631849Y-98156151D01*
X110746141Y-98295417D01*
X110808207Y-98411535D01*
X110831069Y-98454306D01*
X110883367Y-98626706D01*
X110901025Y-98806000D01*
X110883367Y-98985294D01*
X110831069Y-99157694D01*
X110831068Y-99157696D01*
X110746141Y-99316583D01*
X110631849Y-99455849D01*
X110492583Y-99570141D01*
X110333696Y-99655068D01*
X110333694Y-99655069D01*
X110161294Y-99707367D01*
X110026931Y-99720600D01*
X109937069Y-99720600D01*
X109802706Y-99707367D01*
X109630306Y-99655069D01*
X109630304Y-99655068D01*
X109471417Y-99570141D01*
X109332151Y-99455849D01*
X109217859Y-99316583D01*
X109132932Y-99157696D01*
X109132931Y-99157694D01*
X109080633Y-98985294D01*
X109062975Y-98806000D01*
X109080633Y-98626706D01*
X109132931Y-98454306D01*
X109155793Y-98411535D01*
X109217859Y-98295417D01*
X109332151Y-98156151D01*
X109471417Y-98041859D01*
X109630304Y-97956932D01*
X109630306Y-97956931D01*
X109802706Y-97904633D01*
X109937069Y-97891400D01*
X110026931Y-97891400D01*
X110161294Y-97904633D01*
X110161294Y-97904633D01*
G37*
G36*
X112701294Y-97904633D02*
X112873694Y-97956931D01*
X112873696Y-97956932D01*
X113032583Y-98041859D01*
X113171849Y-98156151D01*
X113286141Y-98295417D01*
X113348207Y-98411535D01*
X113371069Y-98454306D01*
X113423367Y-98626706D01*
X113441025Y-98806000D01*
X113423367Y-98985294D01*
X113371069Y-99157694D01*
X113371068Y-99157696D01*
X113286141Y-99316583D01*
X113171849Y-99455849D01*
X113032583Y-99570141D01*
X112873696Y-99655068D01*
X112873694Y-99655069D01*
X112701294Y-99707367D01*
X112566931Y-99720600D01*
X112477069Y-99720600D01*
X112342706Y-99707367D01*
X112170306Y-99655069D01*
X112170304Y-99655068D01*
X112011417Y-99570141D01*
X111872151Y-99455849D01*
X111757859Y-99316583D01*
X111672932Y-99157696D01*
X111672931Y-99157694D01*
X111620633Y-98985294D01*
X111602975Y-98806000D01*
X111620633Y-98626706D01*
X111672931Y-98454306D01*
X111695793Y-98411535D01*
X111757859Y-98295417D01*
X111872151Y-98156151D01*
X112011417Y-98041859D01*
X112170304Y-97956932D01*
X112170306Y-97956931D01*
X112342706Y-97904633D01*
X112477069Y-97891400D01*
X112566931Y-97891400D01*
X112701294Y-97904633D01*
X112701294Y-97904633D01*
G37*
G36*
X118444677Y-98438465D02*
X118482364Y-98449898D01*
X118517103Y-98468466D01*
X118547548Y-98493452D01*
X118572534Y-98523897D01*
X118591102Y-98558636D01*
X118602535Y-98596323D01*
X118607000Y-98641661D01*
X118607000Y-99478339D01*
X118602535Y-99523677D01*
X118591102Y-99561364D01*
X118572534Y-99596103D01*
X118547548Y-99626548D01*
X118517103Y-99651534D01*
X118482364Y-99670102D01*
X118444677Y-99681535D01*
X118399339Y-99686000D01*
X117312661Y-99686000D01*
X117267323Y-99681535D01*
X117229636Y-99670102D01*
X117194897Y-99651534D01*
X117164452Y-99626548D01*
X117139466Y-99596103D01*
X117120898Y-99561364D01*
X117109465Y-99523677D01*
X117105000Y-99478339D01*
X117105000Y-98641661D01*
X117109465Y-98596323D01*
X117120898Y-98558636D01*
X117139466Y-98523897D01*
X117164452Y-98493452D01*
X117194897Y-98468466D01*
X117229636Y-98449898D01*
X117267323Y-98438465D01*
X117312661Y-98434000D01*
X118399339Y-98434000D01*
X118444677Y-98438465D01*
X118444677Y-98438465D01*
G37*
G36*
X130272000Y-99665000D02*
X128620000Y-99665000D01*
X128620000Y-98963000D01*
X130272000Y-98963000D01*
X130272000Y-99665000D01*
X130272000Y-99665000D01*
G37*
G36*
X124872000Y-99665000D02*
X123220000Y-99665000D01*
X123220000Y-98963000D01*
X124872000Y-98963000D01*
X124872000Y-99665000D01*
X124872000Y-99665000D01*
G37*
G36*
X159324345Y-97635442D02*
X159414548Y-97644326D01*
X159528720Y-97678960D01*
X159588158Y-97696990D01*
X159670494Y-97741000D01*
X159748156Y-97782511D01*
X159888396Y-97897604D01*
X160003489Y-98037844D01*
X160043298Y-98112321D01*
X160089010Y-98197842D01*
X160099781Y-98233350D01*
X160141674Y-98371452D01*
X160159456Y-98552000D01*
X160141674Y-98732548D01*
X160109382Y-98839000D01*
X160089010Y-98906158D01*
X160081668Y-98919893D01*
X160003489Y-99066156D01*
X159888396Y-99206396D01*
X159748156Y-99321489D01*
X159716076Y-99338636D01*
X159588158Y-99407010D01*
X159530287Y-99424565D01*
X159414548Y-99459674D01*
X159324345Y-99468558D01*
X159279245Y-99473000D01*
X158728755Y-99473000D01*
X158683655Y-99468558D01*
X158593452Y-99459674D01*
X158477713Y-99424565D01*
X158419842Y-99407010D01*
X158291924Y-99338636D01*
X158259844Y-99321489D01*
X158119604Y-99206396D01*
X158004511Y-99066156D01*
X157926332Y-98919893D01*
X157918990Y-98906158D01*
X157898618Y-98839000D01*
X157866326Y-98732548D01*
X157848544Y-98552000D01*
X157866326Y-98371452D01*
X157908219Y-98233350D01*
X157918990Y-98197842D01*
X157964702Y-98112321D01*
X158004511Y-98037844D01*
X158119604Y-97897604D01*
X158259844Y-97782511D01*
X158337506Y-97741000D01*
X158419842Y-97696990D01*
X158479280Y-97678960D01*
X158593452Y-97644326D01*
X158683655Y-97635442D01*
X158728755Y-97631000D01*
X159279245Y-97631000D01*
X159324345Y-97635442D01*
X159324345Y-97635442D01*
G37*
G36*
X169344548Y-97160326D02*
X169420411Y-97183339D01*
X169518158Y-97212990D01*
X169592687Y-97252827D01*
X169678156Y-97298511D01*
X169818396Y-97413604D01*
X169933489Y-97553844D01*
X170019010Y-97713843D01*
X170071674Y-97887452D01*
X170085000Y-98022757D01*
X170085000Y-98573244D01*
X170071674Y-98708548D01*
X170042112Y-98806000D01*
X170019010Y-98882158D01*
X169998840Y-98919893D01*
X169933489Y-99042156D01*
X169818396Y-99182396D01*
X169678155Y-99297489D01*
X169601174Y-99338636D01*
X169518157Y-99383010D01*
X169478199Y-99395131D01*
X169344547Y-99435674D01*
X169164000Y-99453456D01*
X168983452Y-99435674D01*
X168849800Y-99395131D01*
X168809842Y-99383010D01*
X168694743Y-99321488D01*
X168649844Y-99297489D01*
X168509604Y-99182396D01*
X168394511Y-99042155D01*
X168321819Y-98906158D01*
X168308990Y-98882157D01*
X168277320Y-98777753D01*
X168256326Y-98708547D01*
X168243000Y-98573243D01*
X168243000Y-98022756D01*
X168256326Y-97887452D01*
X168301338Y-97739069D01*
X168308990Y-97713842D01*
X168394513Y-97553843D01*
X168509605Y-97413604D01*
X168543521Y-97385770D01*
X168649845Y-97298511D01*
X168735314Y-97252827D01*
X168809843Y-97212990D01*
X168907590Y-97183339D01*
X168983453Y-97160326D01*
X169164000Y-97142544D01*
X169344548Y-97160326D01*
X169344548Y-97160326D01*
G37*
G36*
X166804548Y-97160326D02*
X166880411Y-97183339D01*
X166978158Y-97212990D01*
X167052687Y-97252827D01*
X167138156Y-97298511D01*
X167278396Y-97413604D01*
X167393489Y-97553844D01*
X167479010Y-97713843D01*
X167531674Y-97887452D01*
X167545000Y-98022757D01*
X167545000Y-98573244D01*
X167531674Y-98708548D01*
X167502112Y-98806000D01*
X167479010Y-98882158D01*
X167458840Y-98919893D01*
X167393489Y-99042156D01*
X167278396Y-99182396D01*
X167138155Y-99297489D01*
X167061174Y-99338636D01*
X166978157Y-99383010D01*
X166938199Y-99395131D01*
X166804547Y-99435674D01*
X166624000Y-99453456D01*
X166443452Y-99435674D01*
X166309800Y-99395131D01*
X166269842Y-99383010D01*
X166154743Y-99321488D01*
X166109844Y-99297489D01*
X165969604Y-99182396D01*
X165854511Y-99042155D01*
X165781819Y-98906158D01*
X165768990Y-98882157D01*
X165737320Y-98777753D01*
X165716326Y-98708547D01*
X165703000Y-98573243D01*
X165703000Y-98022756D01*
X165716326Y-97887452D01*
X165761338Y-97739069D01*
X165768990Y-97713842D01*
X165854513Y-97553843D01*
X165969605Y-97413604D01*
X166003521Y-97385770D01*
X166109845Y-97298511D01*
X166195314Y-97252827D01*
X166269843Y-97212990D01*
X166367590Y-97183339D01*
X166443453Y-97160326D01*
X166624000Y-97142544D01*
X166804548Y-97160326D01*
X166804548Y-97160326D01*
G37*
G36*
X172625000Y-99449000D02*
X170783000Y-99449000D01*
X170783000Y-97147000D01*
X172625000Y-97147000D01*
X172625000Y-99449000D01*
X172625000Y-99449000D01*
G37*
G36*
X138002677Y-98193465D02*
X138040364Y-98204898D01*
X138075103Y-98223466D01*
X138105548Y-98248452D01*
X138130534Y-98278897D01*
X138149102Y-98313636D01*
X138160535Y-98351323D01*
X138165000Y-98396661D01*
X138165000Y-99233339D01*
X138160535Y-99278677D01*
X138149102Y-99316364D01*
X138130534Y-99351103D01*
X138105548Y-99381548D01*
X138075103Y-99406534D01*
X138040364Y-99425102D01*
X138002677Y-99436535D01*
X137957339Y-99441000D01*
X136870661Y-99441000D01*
X136825323Y-99436535D01*
X136787636Y-99425102D01*
X136752897Y-99406534D01*
X136722452Y-99381548D01*
X136697466Y-99351103D01*
X136678898Y-99316364D01*
X136667465Y-99278677D01*
X136663000Y-99233339D01*
X136663000Y-98396661D01*
X136667465Y-98351323D01*
X136678898Y-98313636D01*
X136697466Y-98278897D01*
X136722452Y-98248452D01*
X136752897Y-98223466D01*
X136787636Y-98204898D01*
X136825323Y-98193465D01*
X136870661Y-98189000D01*
X137957339Y-98189000D01*
X138002677Y-98193465D01*
X138002677Y-98193465D01*
G37*
G36*
X140542677Y-97168465D02*
X140580364Y-97179898D01*
X140615103Y-97198466D01*
X140645548Y-97223452D01*
X140670534Y-97253897D01*
X140689102Y-97288636D01*
X140700535Y-97326323D01*
X140705000Y-97371661D01*
X140705000Y-98208339D01*
X140700535Y-98253677D01*
X140689102Y-98291364D01*
X140670534Y-98326103D01*
X140645548Y-98356548D01*
X140615103Y-98381534D01*
X140580364Y-98400102D01*
X140542677Y-98411535D01*
X140497339Y-98416000D01*
X139410661Y-98416000D01*
X139365323Y-98411535D01*
X139327636Y-98400102D01*
X139292897Y-98381534D01*
X139262452Y-98356548D01*
X139237466Y-98326103D01*
X139218898Y-98291364D01*
X139207465Y-98253677D01*
X139203000Y-98208339D01*
X139203000Y-97371661D01*
X139207465Y-97326323D01*
X139218898Y-97288636D01*
X139237466Y-97253897D01*
X139262452Y-97223452D01*
X139292897Y-97198466D01*
X139327636Y-97179898D01*
X139365323Y-97168465D01*
X139410661Y-97164000D01*
X140497339Y-97164000D01*
X140542677Y-97168465D01*
X140542677Y-97168465D01*
G37*
G36*
X126211677Y-96027465D02*
X126249364Y-96038898D01*
X126284103Y-96057466D01*
X126314548Y-96082452D01*
X126339534Y-96112897D01*
X126358102Y-96147636D01*
X126369535Y-96185323D01*
X126374000Y-96230661D01*
X126374000Y-97317339D01*
X126369535Y-97362677D01*
X126358102Y-97400364D01*
X126339534Y-97435103D01*
X126314548Y-97465548D01*
X126284103Y-97490534D01*
X126249364Y-97509102D01*
X126211677Y-97520535D01*
X126166339Y-97525000D01*
X125329661Y-97525000D01*
X125284323Y-97520535D01*
X125246636Y-97509102D01*
X125211897Y-97490534D01*
X125181452Y-97465548D01*
X125156466Y-97435103D01*
X125137898Y-97400364D01*
X125126465Y-97362677D01*
X125122000Y-97317339D01*
X125122000Y-96230661D01*
X125126465Y-96185323D01*
X125137898Y-96147636D01*
X125156466Y-96112897D01*
X125181452Y-96082452D01*
X125211897Y-96057466D01*
X125246636Y-96038898D01*
X125284323Y-96027465D01*
X125329661Y-96023000D01*
X126166339Y-96023000D01*
X126211677Y-96027465D01*
X126211677Y-96027465D01*
G37*
G36*
X124161677Y-96027465D02*
X124199364Y-96038898D01*
X124234103Y-96057466D01*
X124264548Y-96082452D01*
X124289534Y-96112897D01*
X124308102Y-96147636D01*
X124319535Y-96185323D01*
X124324000Y-96230661D01*
X124324000Y-97317339D01*
X124319535Y-97362677D01*
X124308102Y-97400364D01*
X124289534Y-97435103D01*
X124264548Y-97465548D01*
X124234103Y-97490534D01*
X124199364Y-97509102D01*
X124161677Y-97520535D01*
X124116339Y-97525000D01*
X123279661Y-97525000D01*
X123234323Y-97520535D01*
X123196636Y-97509102D01*
X123161897Y-97490534D01*
X123131452Y-97465548D01*
X123106466Y-97435103D01*
X123087898Y-97400364D01*
X123076465Y-97362677D01*
X123072000Y-97317339D01*
X123072000Y-96230661D01*
X123076465Y-96185323D01*
X123087898Y-96147636D01*
X123106466Y-96112897D01*
X123131452Y-96082452D01*
X123161897Y-96057466D01*
X123196636Y-96038898D01*
X123234323Y-96027465D01*
X123279661Y-96023000D01*
X124116339Y-96023000D01*
X124161677Y-96027465D01*
X124161677Y-96027465D01*
G37*
G36*
X138002677Y-96143465D02*
X138040364Y-96154898D01*
X138075103Y-96173466D01*
X138105548Y-96198452D01*
X138130534Y-96228897D01*
X138149102Y-96263636D01*
X138160535Y-96301323D01*
X138165000Y-96346661D01*
X138165000Y-97183339D01*
X138160535Y-97228677D01*
X138149102Y-97266364D01*
X138130534Y-97301103D01*
X138105548Y-97331548D01*
X138075103Y-97356534D01*
X138040364Y-97375102D01*
X138002677Y-97386535D01*
X137957339Y-97391000D01*
X136870661Y-97391000D01*
X136825323Y-97386535D01*
X136787636Y-97375102D01*
X136752897Y-97356534D01*
X136722452Y-97331548D01*
X136697466Y-97301103D01*
X136678898Y-97266364D01*
X136667465Y-97228677D01*
X136663000Y-97183339D01*
X136663000Y-96346661D01*
X136667465Y-96301323D01*
X136678898Y-96263636D01*
X136697466Y-96228897D01*
X136722452Y-96198452D01*
X136752897Y-96173466D01*
X136787636Y-96154898D01*
X136825323Y-96143465D01*
X136870661Y-96139000D01*
X137957339Y-96139000D01*
X138002677Y-96143465D01*
X138002677Y-96143465D01*
G37*
G36*
X110161294Y-95364633D02*
X110333694Y-95416931D01*
X110333696Y-95416932D01*
X110492583Y-95501859D01*
X110631849Y-95616151D01*
X110746141Y-95755417D01*
X110790817Y-95839000D01*
X110831069Y-95914306D01*
X110883367Y-96086706D01*
X110901025Y-96266000D01*
X110883367Y-96445294D01*
X110833363Y-96610131D01*
X110831068Y-96617696D01*
X110746141Y-96776583D01*
X110631849Y-96915849D01*
X110492583Y-97030141D01*
X110333696Y-97115068D01*
X110333694Y-97115069D01*
X110161294Y-97167367D01*
X110026931Y-97180600D01*
X109937069Y-97180600D01*
X109802706Y-97167367D01*
X109630306Y-97115069D01*
X109630304Y-97115068D01*
X109471417Y-97030141D01*
X109332151Y-96915849D01*
X109217859Y-96776583D01*
X109132932Y-96617696D01*
X109130637Y-96610131D01*
X109080633Y-96445294D01*
X109062975Y-96266000D01*
X109080633Y-96086706D01*
X109132931Y-95914306D01*
X109173183Y-95839000D01*
X109217859Y-95755417D01*
X109332151Y-95616151D01*
X109471417Y-95501859D01*
X109630304Y-95416932D01*
X109630306Y-95416931D01*
X109802706Y-95364633D01*
X109937069Y-95351400D01*
X110026931Y-95351400D01*
X110161294Y-95364633D01*
X110161294Y-95364633D01*
G37*
G36*
X112701294Y-95364633D02*
X112873694Y-95416931D01*
X112873696Y-95416932D01*
X113032583Y-95501859D01*
X113171849Y-95616151D01*
X113286141Y-95755417D01*
X113330817Y-95839000D01*
X113371069Y-95914306D01*
X113423367Y-96086706D01*
X113441025Y-96266000D01*
X113423367Y-96445294D01*
X113373363Y-96610131D01*
X113371068Y-96617696D01*
X113286141Y-96776583D01*
X113171849Y-96915849D01*
X113032583Y-97030141D01*
X112873696Y-97115068D01*
X112873694Y-97115069D01*
X112701294Y-97167367D01*
X112566931Y-97180600D01*
X112477069Y-97180600D01*
X112342706Y-97167367D01*
X112170306Y-97115069D01*
X112170304Y-97115068D01*
X112011417Y-97030141D01*
X111872151Y-96915849D01*
X111757859Y-96776583D01*
X111672932Y-96617696D01*
X111670637Y-96610131D01*
X111620633Y-96445294D01*
X111602975Y-96266000D01*
X111620633Y-96086706D01*
X111672931Y-95914306D01*
X111713183Y-95839000D01*
X111757859Y-95755417D01*
X111872151Y-95616151D01*
X112011417Y-95501859D01*
X112170304Y-95416932D01*
X112170306Y-95416931D01*
X112342706Y-95364633D01*
X112477069Y-95351400D01*
X112566931Y-95351400D01*
X112701294Y-95364633D01*
X112701294Y-95364633D01*
G37*
G36*
X159324345Y-95095442D02*
X159414548Y-95104326D01*
X159530287Y-95139435D01*
X159588158Y-95156990D01*
X159661767Y-95196335D01*
X159748156Y-95242511D01*
X159888396Y-95357604D01*
X160003489Y-95497844D01*
X160031422Y-95550103D01*
X160089010Y-95657842D01*
X160100846Y-95696860D01*
X160141674Y-95831452D01*
X160159456Y-96012000D01*
X160141674Y-96192548D01*
X160119392Y-96266000D01*
X160089010Y-96366158D01*
X160046711Y-96445293D01*
X160003489Y-96526156D01*
X159888396Y-96666396D01*
X159748156Y-96781489D01*
X159673679Y-96821298D01*
X159588158Y-96867010D01*
X159534984Y-96883140D01*
X159414548Y-96919674D01*
X159324345Y-96928558D01*
X159279245Y-96933000D01*
X158728755Y-96933000D01*
X158683655Y-96928558D01*
X158593452Y-96919674D01*
X158473016Y-96883140D01*
X158419842Y-96867010D01*
X158334321Y-96821298D01*
X158259844Y-96781489D01*
X158119604Y-96666396D01*
X158004511Y-96526156D01*
X157961289Y-96445293D01*
X157918990Y-96366158D01*
X157888608Y-96266000D01*
X157866326Y-96192548D01*
X157848544Y-96012000D01*
X157866326Y-95831452D01*
X157907154Y-95696860D01*
X157918990Y-95657842D01*
X157976578Y-95550103D01*
X158004511Y-95497844D01*
X158119604Y-95357604D01*
X158259844Y-95242511D01*
X158346233Y-95196335D01*
X158419842Y-95156990D01*
X158477713Y-95139435D01*
X158593452Y-95104326D01*
X158683655Y-95095442D01*
X158728755Y-95091000D01*
X159279245Y-95091000D01*
X159324345Y-95095442D01*
X159324345Y-95095442D01*
G37*
G36*
X118444677Y-95408465D02*
X118482364Y-95419898D01*
X118517103Y-95438466D01*
X118547548Y-95463452D01*
X118572534Y-95493897D01*
X118591102Y-95528636D01*
X118602535Y-95566323D01*
X118607000Y-95611661D01*
X118607000Y-96448339D01*
X118602535Y-96493677D01*
X118591102Y-96531364D01*
X118572534Y-96566103D01*
X118547548Y-96596548D01*
X118517103Y-96621534D01*
X118482364Y-96640102D01*
X118444677Y-96651535D01*
X118399339Y-96656000D01*
X117312661Y-96656000D01*
X117267323Y-96651535D01*
X117229636Y-96640102D01*
X117194897Y-96621534D01*
X117164452Y-96596548D01*
X117139466Y-96566103D01*
X117120898Y-96531364D01*
X117109465Y-96493677D01*
X117105000Y-96448339D01*
X117105000Y-95611661D01*
X117109465Y-95566323D01*
X117120898Y-95528636D01*
X117139466Y-95493897D01*
X117164452Y-95463452D01*
X117194897Y-95438466D01*
X117229636Y-95419898D01*
X117267323Y-95408465D01*
X117312661Y-95404000D01*
X118399339Y-95404000D01*
X118444677Y-95408465D01*
X118444677Y-95408465D01*
G37*
G36*
X155274677Y-94392465D02*
X155312364Y-94403898D01*
X155347103Y-94422466D01*
X155377548Y-94447452D01*
X155402534Y-94477897D01*
X155421102Y-94512636D01*
X155432535Y-94550323D01*
X155437000Y-94595661D01*
X155437000Y-95432339D01*
X155432535Y-95477677D01*
X155421102Y-95515364D01*
X155402534Y-95550103D01*
X155377548Y-95580548D01*
X155347103Y-95605534D01*
X155312364Y-95624102D01*
X155274677Y-95635535D01*
X155229339Y-95640000D01*
X154142661Y-95640000D01*
X154097323Y-95635535D01*
X154059636Y-95624102D01*
X154024897Y-95605534D01*
X153994452Y-95580548D01*
X153969466Y-95550103D01*
X153950898Y-95515364D01*
X153939465Y-95477677D01*
X153935000Y-95432339D01*
X153935000Y-94595661D01*
X153939465Y-94550323D01*
X153950898Y-94512636D01*
X153969466Y-94477897D01*
X153994452Y-94447452D01*
X154024897Y-94422466D01*
X154059636Y-94403898D01*
X154097323Y-94392465D01*
X154142661Y-94388000D01*
X155229339Y-94388000D01*
X155274677Y-94392465D01*
X155274677Y-94392465D01*
G37*
G36*
X110161294Y-92824633D02*
X110333694Y-92876931D01*
X110333696Y-92876932D01*
X110492583Y-92961859D01*
X110631849Y-93076151D01*
X110746141Y-93215417D01*
X110800880Y-93317827D01*
X110831069Y-93374306D01*
X110883367Y-93546706D01*
X110901025Y-93726000D01*
X110883367Y-93905294D01*
X110831069Y-94077694D01*
X110831068Y-94077696D01*
X110746141Y-94236583D01*
X110631849Y-94375849D01*
X110492583Y-94490141D01*
X110333696Y-94575068D01*
X110333694Y-94575069D01*
X110161294Y-94627367D01*
X110026931Y-94640600D01*
X109937069Y-94640600D01*
X109802706Y-94627367D01*
X109630306Y-94575069D01*
X109630304Y-94575068D01*
X109471417Y-94490141D01*
X109332151Y-94375849D01*
X109217859Y-94236583D01*
X109132932Y-94077696D01*
X109132931Y-94077694D01*
X109080633Y-93905294D01*
X109062975Y-93726000D01*
X109080633Y-93546706D01*
X109132931Y-93374306D01*
X109163120Y-93317827D01*
X109217859Y-93215417D01*
X109332151Y-93076151D01*
X109471417Y-92961859D01*
X109630304Y-92876932D01*
X109630306Y-92876931D01*
X109802706Y-92824633D01*
X109937069Y-92811400D01*
X110026931Y-92811400D01*
X110161294Y-92824633D01*
X110161294Y-92824633D01*
G37*
G36*
X112701294Y-92824633D02*
X112873694Y-92876931D01*
X112873696Y-92876932D01*
X113032583Y-92961859D01*
X113171849Y-93076151D01*
X113286141Y-93215417D01*
X113340880Y-93317827D01*
X113371069Y-93374306D01*
X113423367Y-93546706D01*
X113441025Y-93726000D01*
X113423367Y-93905294D01*
X113371069Y-94077694D01*
X113371068Y-94077696D01*
X113286141Y-94236583D01*
X113171849Y-94375849D01*
X113032583Y-94490141D01*
X112873696Y-94575068D01*
X112873694Y-94575069D01*
X112701294Y-94627367D01*
X112566931Y-94640600D01*
X112477069Y-94640600D01*
X112342706Y-94627367D01*
X112170306Y-94575069D01*
X112170304Y-94575068D01*
X112011417Y-94490141D01*
X111872151Y-94375849D01*
X111757859Y-94236583D01*
X111672932Y-94077696D01*
X111672931Y-94077694D01*
X111620633Y-93905294D01*
X111602975Y-93726000D01*
X111620633Y-93546706D01*
X111672931Y-93374306D01*
X111703120Y-93317827D01*
X111757859Y-93215417D01*
X111872151Y-93076151D01*
X112011417Y-92961859D01*
X112170304Y-92876932D01*
X112170306Y-92876931D01*
X112342706Y-92824633D01*
X112477069Y-92811400D01*
X112566931Y-92811400D01*
X112701294Y-92824633D01*
X112701294Y-92824633D01*
G37*
G36*
X118444677Y-93358465D02*
X118482364Y-93369898D01*
X118517103Y-93388466D01*
X118547548Y-93413452D01*
X118572534Y-93443897D01*
X118591102Y-93478636D01*
X118602535Y-93516323D01*
X118607000Y-93561661D01*
X118607000Y-94398339D01*
X118602535Y-94443677D01*
X118591102Y-94481364D01*
X118572534Y-94516103D01*
X118547548Y-94546548D01*
X118517103Y-94571534D01*
X118482364Y-94590102D01*
X118444677Y-94601535D01*
X118399339Y-94606000D01*
X117312661Y-94606000D01*
X117267323Y-94601535D01*
X117229636Y-94590102D01*
X117194897Y-94571534D01*
X117164452Y-94546548D01*
X117139466Y-94516103D01*
X117120898Y-94481364D01*
X117109465Y-94443677D01*
X117105000Y-94398339D01*
X117105000Y-93561661D01*
X117109465Y-93516323D01*
X117120898Y-93478636D01*
X117139466Y-93443897D01*
X117164452Y-93413452D01*
X117194897Y-93388466D01*
X117229636Y-93369898D01*
X117267323Y-93358465D01*
X117312661Y-93354000D01*
X118399339Y-93354000D01*
X118444677Y-93358465D01*
X118444677Y-93358465D01*
G37*
G36*
X124872000Y-94458000D02*
X123220000Y-94458000D01*
X123220000Y-93756000D01*
X124872000Y-93756000D01*
X124872000Y-94458000D01*
X124872000Y-94458000D01*
G37*
G36*
X130272000Y-94458000D02*
X128620000Y-94458000D01*
X128620000Y-93756000D01*
X130272000Y-93756000D01*
X130272000Y-94458000D01*
X130272000Y-94458000D01*
G37*
G36*
X144994293Y-92840323D02*
X145001311Y-92842452D01*
X145015080Y-92849811D01*
X145037719Y-92859187D01*
X145061753Y-92863967D01*
X145086257Y-92863966D01*
X145110290Y-92859184D01*
X145132920Y-92849811D01*
X145146689Y-92842452D01*
X145153707Y-92840323D01*
X145167140Y-92839000D01*
X145480860Y-92839000D01*
X145494293Y-92840323D01*
X145501311Y-92842452D01*
X145515080Y-92849811D01*
X145537719Y-92859187D01*
X145561753Y-92863967D01*
X145586257Y-92863966D01*
X145610290Y-92859184D01*
X145632920Y-92849811D01*
X145646689Y-92842452D01*
X145653707Y-92840323D01*
X145667140Y-92839000D01*
X145980860Y-92839000D01*
X145994293Y-92840323D01*
X146001311Y-92842452D01*
X146015080Y-92849811D01*
X146037719Y-92859187D01*
X146061753Y-92863967D01*
X146086257Y-92863966D01*
X146110290Y-92859184D01*
X146132920Y-92849811D01*
X146146689Y-92842452D01*
X146153707Y-92840323D01*
X146167140Y-92839000D01*
X146480860Y-92839000D01*
X146494293Y-92840323D01*
X146501311Y-92842452D01*
X146515080Y-92849811D01*
X146537719Y-92859187D01*
X146561753Y-92863967D01*
X146586257Y-92863966D01*
X146610290Y-92859184D01*
X146632920Y-92849811D01*
X146646689Y-92842452D01*
X146653707Y-92840323D01*
X146667140Y-92839000D01*
X146980860Y-92839000D01*
X146994293Y-92840323D01*
X147001311Y-92842452D01*
X147015080Y-92849811D01*
X147037719Y-92859187D01*
X147061753Y-92863967D01*
X147086257Y-92863966D01*
X147110290Y-92859184D01*
X147132920Y-92849811D01*
X147146689Y-92842452D01*
X147153707Y-92840323D01*
X147167140Y-92839000D01*
X147480860Y-92839000D01*
X147494293Y-92840323D01*
X147501311Y-92842452D01*
X147515080Y-92849811D01*
X147537719Y-92859187D01*
X147561753Y-92863967D01*
X147586257Y-92863966D01*
X147610290Y-92859184D01*
X147632920Y-92849811D01*
X147646689Y-92842452D01*
X147653707Y-92840323D01*
X147667140Y-92839000D01*
X147980860Y-92839000D01*
X147994293Y-92840323D01*
X148001311Y-92842452D01*
X148015080Y-92849811D01*
X148037719Y-92859187D01*
X148061753Y-92863967D01*
X148086257Y-92863966D01*
X148110290Y-92859184D01*
X148132920Y-92849811D01*
X148146689Y-92842452D01*
X148153707Y-92840323D01*
X148167140Y-92839000D01*
X148480860Y-92839000D01*
X148494293Y-92840323D01*
X148501311Y-92842452D01*
X148515080Y-92849811D01*
X148537719Y-92859187D01*
X148561753Y-92863967D01*
X148586257Y-92863966D01*
X148610290Y-92859184D01*
X148632920Y-92849811D01*
X148646689Y-92842452D01*
X148653707Y-92840323D01*
X148667140Y-92839000D01*
X148980860Y-92839000D01*
X148994293Y-92840323D01*
X149001311Y-92842452D01*
X149015080Y-92849811D01*
X149037719Y-92859187D01*
X149061753Y-92863967D01*
X149086257Y-92863966D01*
X149110290Y-92859184D01*
X149132920Y-92849811D01*
X149146689Y-92842452D01*
X149153707Y-92840323D01*
X149167140Y-92839000D01*
X149480860Y-92839000D01*
X149494293Y-92840323D01*
X149501311Y-92842452D01*
X149515080Y-92849811D01*
X149537719Y-92859187D01*
X149561753Y-92863967D01*
X149586257Y-92863966D01*
X149610290Y-92859184D01*
X149632920Y-92849811D01*
X149646689Y-92842452D01*
X149653707Y-92840323D01*
X149667140Y-92839000D01*
X149980860Y-92839000D01*
X149994293Y-92840323D01*
X150001311Y-92842452D01*
X150015080Y-92849811D01*
X150037719Y-92859187D01*
X150061753Y-92863967D01*
X150086257Y-92863966D01*
X150110290Y-92859184D01*
X150132920Y-92849811D01*
X150146689Y-92842452D01*
X150153707Y-92840323D01*
X150167140Y-92839000D01*
X150480860Y-92839000D01*
X150494293Y-92840323D01*
X150501312Y-92842452D01*
X150507775Y-92845907D01*
X150513442Y-92850558D01*
X150518093Y-92856225D01*
X150521548Y-92862688D01*
X150523677Y-92869707D01*
X150525000Y-92883140D01*
X150525000Y-94371860D01*
X150523677Y-94385293D01*
X150521548Y-94392312D01*
X150518093Y-94398775D01*
X150513442Y-94404442D01*
X150507775Y-94409093D01*
X150501312Y-94412548D01*
X150494293Y-94414677D01*
X150480860Y-94416000D01*
X150167140Y-94416000D01*
X150153707Y-94414677D01*
X150146689Y-94412548D01*
X150132920Y-94405189D01*
X150110281Y-94395813D01*
X150086247Y-94391033D01*
X150061743Y-94391034D01*
X150037710Y-94395816D01*
X150015080Y-94405189D01*
X150001311Y-94412548D01*
X149994293Y-94414677D01*
X149980860Y-94416000D01*
X149667140Y-94416000D01*
X149653707Y-94414677D01*
X149646689Y-94412548D01*
X149632920Y-94405189D01*
X149610281Y-94395813D01*
X149586247Y-94391033D01*
X149561743Y-94391034D01*
X149537710Y-94395816D01*
X149515080Y-94405189D01*
X149501311Y-94412548D01*
X149494293Y-94414677D01*
X149480860Y-94416000D01*
X149167140Y-94416000D01*
X149153707Y-94414677D01*
X149146689Y-94412548D01*
X149132920Y-94405189D01*
X149110281Y-94395813D01*
X149086247Y-94391033D01*
X149061743Y-94391034D01*
X149037710Y-94395816D01*
X149015080Y-94405189D01*
X149001311Y-94412548D01*
X148994293Y-94414677D01*
X148980860Y-94416000D01*
X148667140Y-94416000D01*
X148653707Y-94414677D01*
X148646689Y-94412548D01*
X148632920Y-94405189D01*
X148610281Y-94395813D01*
X148586247Y-94391033D01*
X148561743Y-94391034D01*
X148537710Y-94395816D01*
X148515080Y-94405189D01*
X148501311Y-94412548D01*
X148494293Y-94414677D01*
X148480860Y-94416000D01*
X148167140Y-94416000D01*
X148153707Y-94414677D01*
X148146689Y-94412548D01*
X148132920Y-94405189D01*
X148110281Y-94395813D01*
X148086247Y-94391033D01*
X148061743Y-94391034D01*
X148037710Y-94395816D01*
X148015080Y-94405189D01*
X148001311Y-94412548D01*
X147994293Y-94414677D01*
X147980860Y-94416000D01*
X147667140Y-94416000D01*
X147653707Y-94414677D01*
X147646689Y-94412548D01*
X147632920Y-94405189D01*
X147610281Y-94395813D01*
X147586247Y-94391033D01*
X147561743Y-94391034D01*
X147537710Y-94395816D01*
X147515080Y-94405189D01*
X147501311Y-94412548D01*
X147494293Y-94414677D01*
X147480860Y-94416000D01*
X147167140Y-94416000D01*
X147153707Y-94414677D01*
X147146689Y-94412548D01*
X147132920Y-94405189D01*
X147110281Y-94395813D01*
X147086247Y-94391033D01*
X147061743Y-94391034D01*
X147037710Y-94395816D01*
X147015080Y-94405189D01*
X147001311Y-94412548D01*
X146994293Y-94414677D01*
X146980860Y-94416000D01*
X146667140Y-94416000D01*
X146653707Y-94414677D01*
X146646689Y-94412548D01*
X146632920Y-94405189D01*
X146610281Y-94395813D01*
X146586247Y-94391033D01*
X146561743Y-94391034D01*
X146537710Y-94395816D01*
X146515080Y-94405189D01*
X146501311Y-94412548D01*
X146494293Y-94414677D01*
X146480860Y-94416000D01*
X146167140Y-94416000D01*
X146153707Y-94414677D01*
X146146689Y-94412548D01*
X146132920Y-94405189D01*
X146110281Y-94395813D01*
X146086247Y-94391033D01*
X146061743Y-94391034D01*
X146037710Y-94395816D01*
X146015080Y-94405189D01*
X146001311Y-94412548D01*
X145994293Y-94414677D01*
X145980860Y-94416000D01*
X145667140Y-94416000D01*
X145653707Y-94414677D01*
X145646689Y-94412548D01*
X145632920Y-94405189D01*
X145610281Y-94395813D01*
X145586247Y-94391033D01*
X145561743Y-94391034D01*
X145537710Y-94395816D01*
X145515080Y-94405189D01*
X145501311Y-94412548D01*
X145494293Y-94414677D01*
X145480860Y-94416000D01*
X145167140Y-94416000D01*
X145153707Y-94414677D01*
X145146689Y-94412548D01*
X145132920Y-94405189D01*
X145110281Y-94395813D01*
X145086247Y-94391033D01*
X145061743Y-94391034D01*
X145037710Y-94395816D01*
X145015080Y-94405189D01*
X145001311Y-94412548D01*
X144994293Y-94414677D01*
X144980860Y-94416000D01*
X144667140Y-94416000D01*
X144653707Y-94414677D01*
X144646688Y-94412548D01*
X144640225Y-94409093D01*
X144634558Y-94404442D01*
X144629907Y-94398775D01*
X144626452Y-94392312D01*
X144624323Y-94385293D01*
X144623000Y-94371860D01*
X144623000Y-92883140D01*
X144624323Y-92869707D01*
X144626452Y-92862688D01*
X144629907Y-92856225D01*
X144634558Y-92850558D01*
X144640225Y-92845907D01*
X144646688Y-92842452D01*
X144653707Y-92840323D01*
X144667140Y-92839000D01*
X144980860Y-92839000D01*
X144994293Y-92840323D01*
X144994293Y-92840323D01*
G37*
G36*
X159324345Y-92555442D02*
X159414548Y-92564326D01*
X159530287Y-92599435D01*
X159588158Y-92616990D01*
X159673679Y-92662702D01*
X159748156Y-92702511D01*
X159888396Y-92817604D01*
X160003489Y-92957844D01*
X160043298Y-93032321D01*
X160089010Y-93117842D01*
X160089010Y-93117843D01*
X160141674Y-93291452D01*
X160159456Y-93472000D01*
X160141674Y-93652548D01*
X160119392Y-93726000D01*
X160089010Y-93826158D01*
X160063570Y-93873752D01*
X160003489Y-93986156D01*
X159888396Y-94126396D01*
X159748156Y-94241489D01*
X159673679Y-94281298D01*
X159588158Y-94327010D01*
X159561465Y-94335107D01*
X159414548Y-94379674D01*
X159330011Y-94388000D01*
X159279245Y-94393000D01*
X158728755Y-94393000D01*
X158677989Y-94388000D01*
X158593452Y-94379674D01*
X158446535Y-94335107D01*
X158419842Y-94327010D01*
X158334321Y-94281298D01*
X158259844Y-94241489D01*
X158119604Y-94126396D01*
X158004511Y-93986156D01*
X157944430Y-93873752D01*
X157918990Y-93826158D01*
X157888608Y-93726000D01*
X157866326Y-93652548D01*
X157848544Y-93472000D01*
X157866326Y-93291452D01*
X157918990Y-93117843D01*
X157918990Y-93117842D01*
X157964702Y-93032321D01*
X158004511Y-92957844D01*
X158119604Y-92817604D01*
X158259844Y-92702511D01*
X158334321Y-92662702D01*
X158419842Y-92616990D01*
X158477713Y-92599435D01*
X158593452Y-92564326D01*
X158683655Y-92555442D01*
X158728755Y-92551000D01*
X159279245Y-92551000D01*
X159324345Y-92555442D01*
X159324345Y-92555442D01*
G37*
G36*
X170173020Y-92300979D02*
X170205966Y-92310974D01*
X170236335Y-92327206D01*
X170262951Y-92349049D01*
X170284794Y-92375665D01*
X170301026Y-92406034D01*
X170311021Y-92438980D01*
X170315000Y-92479386D01*
X170315000Y-93956614D01*
X170311021Y-93997020D01*
X170301026Y-94029966D01*
X170284794Y-94060335D01*
X170262951Y-94086951D01*
X170236335Y-94108794D01*
X170205966Y-94125026D01*
X170173020Y-94135021D01*
X170132614Y-94139000D01*
X168195386Y-94139000D01*
X168154980Y-94135021D01*
X168122034Y-94125026D01*
X168091665Y-94108794D01*
X168065049Y-94086951D01*
X168043206Y-94060335D01*
X168026974Y-94029966D01*
X168016979Y-93997020D01*
X168013000Y-93956614D01*
X168013000Y-92479386D01*
X168016979Y-92438980D01*
X168026974Y-92406034D01*
X168043206Y-92375665D01*
X168065049Y-92349049D01*
X168091665Y-92327206D01*
X168122034Y-92310974D01*
X168154980Y-92300979D01*
X168195386Y-92297000D01*
X170132614Y-92297000D01*
X170173020Y-92300979D01*
X170173020Y-92300979D01*
G37*
G36*
X155274677Y-92342465D02*
X155312364Y-92353898D01*
X155347103Y-92372466D01*
X155377548Y-92397452D01*
X155402534Y-92427897D01*
X155421102Y-92462636D01*
X155432535Y-92500323D01*
X155437000Y-92545661D01*
X155437000Y-93382339D01*
X155432535Y-93427677D01*
X155421102Y-93465364D01*
X155402534Y-93500103D01*
X155377548Y-93530548D01*
X155347103Y-93555534D01*
X155312364Y-93574102D01*
X155274677Y-93585535D01*
X155229339Y-93590000D01*
X154142661Y-93590000D01*
X154097323Y-93585535D01*
X154059636Y-93574102D01*
X154024897Y-93555534D01*
X153994452Y-93530548D01*
X153969466Y-93500103D01*
X153950898Y-93465364D01*
X153939465Y-93427677D01*
X153935000Y-93382339D01*
X153935000Y-92545661D01*
X153939465Y-92500323D01*
X153950898Y-92462636D01*
X153969466Y-92427897D01*
X153994452Y-92397452D01*
X154024897Y-92372466D01*
X154059636Y-92353898D01*
X154097323Y-92342465D01*
X154142661Y-92338000D01*
X155229339Y-92338000D01*
X155274677Y-92342465D01*
X155274677Y-92342465D01*
G37*
G36*
X124872000Y-93188000D02*
X123220000Y-93188000D01*
X123220000Y-92486000D01*
X124872000Y-92486000D01*
X124872000Y-93188000D01*
X124872000Y-93188000D01*
G37*
G36*
X130272000Y-93188000D02*
X128620000Y-93188000D01*
X128620000Y-92486000D01*
X130272000Y-92486000D01*
X130272000Y-93188000D01*
X130272000Y-93188000D01*
G37*
G36*
X141050677Y-91589465D02*
X141088364Y-91600898D01*
X141123103Y-91619466D01*
X141153548Y-91644452D01*
X141178534Y-91674897D01*
X141197102Y-91709636D01*
X141208535Y-91747323D01*
X141213000Y-91792661D01*
X141213000Y-92629339D01*
X141208535Y-92674677D01*
X141197102Y-92712364D01*
X141178534Y-92747103D01*
X141153548Y-92777548D01*
X141123103Y-92802534D01*
X141088364Y-92821102D01*
X141050677Y-92832535D01*
X141005339Y-92837000D01*
X139918661Y-92837000D01*
X139873323Y-92832535D01*
X139835636Y-92821102D01*
X139800897Y-92802534D01*
X139770452Y-92777548D01*
X139745466Y-92747103D01*
X139726898Y-92712364D01*
X139715465Y-92674677D01*
X139711000Y-92629339D01*
X139711000Y-91792661D01*
X139715465Y-91747323D01*
X139726898Y-91709636D01*
X139745466Y-91674897D01*
X139770452Y-91644452D01*
X139800897Y-91619466D01*
X139835636Y-91600898D01*
X139873323Y-91589465D01*
X139918661Y-91585000D01*
X141005339Y-91585000D01*
X141050677Y-91589465D01*
X141050677Y-91589465D01*
G37*
G36*
X118393877Y-90929065D02*
X118431564Y-90940498D01*
X118466303Y-90959066D01*
X118496748Y-90984052D01*
X118521734Y-91014497D01*
X118540302Y-91049236D01*
X118551735Y-91086923D01*
X118556200Y-91132261D01*
X118556200Y-91968939D01*
X118551735Y-92014277D01*
X118540302Y-92051964D01*
X118521734Y-92086703D01*
X118496748Y-92117148D01*
X118466303Y-92142134D01*
X118431564Y-92160702D01*
X118393877Y-92172135D01*
X118348539Y-92176600D01*
X117261861Y-92176600D01*
X117216523Y-92172135D01*
X117178836Y-92160702D01*
X117144097Y-92142134D01*
X117113652Y-92117148D01*
X117088666Y-92086703D01*
X117070098Y-92051964D01*
X117058665Y-92014277D01*
X117054200Y-91968939D01*
X117054200Y-91132261D01*
X117058665Y-91086923D01*
X117070098Y-91049236D01*
X117088666Y-91014497D01*
X117113652Y-90984052D01*
X117144097Y-90959066D01*
X117178836Y-90940498D01*
X117216523Y-90929065D01*
X117261861Y-90924600D01*
X118348539Y-90924600D01*
X118393877Y-90929065D01*
X118393877Y-90929065D01*
G37*
G36*
X124872000Y-91918000D02*
X123220000Y-91918000D01*
X123220000Y-91216000D01*
X124872000Y-91216000D01*
X124872000Y-91918000D01*
X124872000Y-91918000D01*
G37*
G36*
X130272000Y-91918000D02*
X128620000Y-91918000D01*
X128620000Y-91216000D01*
X130272000Y-91216000D01*
X130272000Y-91918000D01*
X130272000Y-91918000D01*
G37*
G36*
X160155000Y-91853000D02*
X157853000Y-91853000D01*
X157853000Y-90011000D01*
X160155000Y-90011000D01*
X160155000Y-91853000D01*
X160155000Y-91853000D01*
G37*
G36*
X169484345Y-89761442D02*
X169574548Y-89770326D01*
X169690287Y-89805435D01*
X169748158Y-89822990D01*
X169806972Y-89854427D01*
X169908156Y-89908511D01*
X169908158Y-89908512D01*
X169908157Y-89908512D01*
X170048396Y-90023604D01*
X170163488Y-90163843D01*
X170249010Y-90323842D01*
X170249010Y-90323843D01*
X170301674Y-90497452D01*
X170319456Y-90678000D01*
X170301674Y-90858548D01*
X170275352Y-90945318D01*
X170249010Y-91032158D01*
X170219737Y-91086923D01*
X170163489Y-91192156D01*
X170048396Y-91332396D01*
X169908156Y-91447489D01*
X169833679Y-91487298D01*
X169748158Y-91533010D01*
X169690287Y-91550565D01*
X169574548Y-91585674D01*
X169484345Y-91594558D01*
X169439245Y-91599000D01*
X168888755Y-91599000D01*
X168843655Y-91594558D01*
X168753452Y-91585674D01*
X168637713Y-91550565D01*
X168579842Y-91533010D01*
X168494321Y-91487298D01*
X168419844Y-91447489D01*
X168279604Y-91332396D01*
X168164511Y-91192156D01*
X168108263Y-91086923D01*
X168078990Y-91032158D01*
X168052648Y-90945318D01*
X168026326Y-90858548D01*
X168008544Y-90678000D01*
X168026326Y-90497452D01*
X168078990Y-90323843D01*
X168078990Y-90323842D01*
X168164512Y-90163843D01*
X168279604Y-90023604D01*
X168419843Y-89908512D01*
X168419842Y-89908512D01*
X168419844Y-89908511D01*
X168521028Y-89854427D01*
X168579842Y-89822990D01*
X168637713Y-89805435D01*
X168753452Y-89770326D01*
X168843655Y-89761442D01*
X168888755Y-89757000D01*
X169439245Y-89757000D01*
X169484345Y-89761442D01*
X169484345Y-89761442D01*
G37*
G36*
X146531677Y-89423465D02*
X146569364Y-89434898D01*
X146604103Y-89453466D01*
X146634548Y-89478452D01*
X146659534Y-89508897D01*
X146678102Y-89543636D01*
X146689535Y-89581323D01*
X146694000Y-89626661D01*
X146694000Y-90713339D01*
X146689535Y-90758677D01*
X146678102Y-90796364D01*
X146659534Y-90831103D01*
X146634548Y-90861548D01*
X146604103Y-90886534D01*
X146569364Y-90905102D01*
X146531677Y-90916535D01*
X146486339Y-90921000D01*
X145649661Y-90921000D01*
X145604323Y-90916535D01*
X145566636Y-90905102D01*
X145531897Y-90886534D01*
X145501452Y-90861548D01*
X145476466Y-90831103D01*
X145457898Y-90796364D01*
X145446465Y-90758677D01*
X145442000Y-90713339D01*
X145442000Y-89626661D01*
X145446465Y-89581323D01*
X145457898Y-89543636D01*
X145476466Y-89508897D01*
X145501452Y-89478452D01*
X145531897Y-89453466D01*
X145566636Y-89434898D01*
X145604323Y-89423465D01*
X145649661Y-89419000D01*
X146486339Y-89419000D01*
X146531677Y-89423465D01*
X146531677Y-89423465D01*
G37*
G36*
X144481677Y-89423465D02*
X144519364Y-89434898D01*
X144554103Y-89453466D01*
X144584548Y-89478452D01*
X144609534Y-89508897D01*
X144628102Y-89543636D01*
X144639535Y-89581323D01*
X144644000Y-89626661D01*
X144644000Y-90713339D01*
X144639535Y-90758677D01*
X144628102Y-90796364D01*
X144609534Y-90831103D01*
X144584548Y-90861548D01*
X144554103Y-90886534D01*
X144519364Y-90905102D01*
X144481677Y-90916535D01*
X144436339Y-90921000D01*
X143599661Y-90921000D01*
X143554323Y-90916535D01*
X143516636Y-90905102D01*
X143481897Y-90886534D01*
X143451452Y-90861548D01*
X143426466Y-90831103D01*
X143407898Y-90796364D01*
X143396465Y-90758677D01*
X143392000Y-90713339D01*
X143392000Y-89626661D01*
X143396465Y-89581323D01*
X143407898Y-89543636D01*
X143426466Y-89508897D01*
X143451452Y-89478452D01*
X143481897Y-89453466D01*
X143516636Y-89434898D01*
X143554323Y-89423465D01*
X143599661Y-89419000D01*
X144436339Y-89419000D01*
X144481677Y-89423465D01*
X144481677Y-89423465D01*
G37*
G36*
X141050677Y-89539465D02*
X141088364Y-89550898D01*
X141123103Y-89569466D01*
X141153548Y-89594452D01*
X141178534Y-89624897D01*
X141197102Y-89659636D01*
X141208535Y-89697323D01*
X141213000Y-89742661D01*
X141213000Y-90579339D01*
X141208535Y-90624677D01*
X141197102Y-90662364D01*
X141178534Y-90697103D01*
X141153548Y-90727548D01*
X141123103Y-90752534D01*
X141088364Y-90771102D01*
X141050677Y-90782535D01*
X141005339Y-90787000D01*
X139918661Y-90787000D01*
X139873323Y-90782535D01*
X139835636Y-90771102D01*
X139800897Y-90752534D01*
X139770452Y-90727548D01*
X139745466Y-90697103D01*
X139726898Y-90662364D01*
X139715465Y-90624677D01*
X139711000Y-90579339D01*
X139711000Y-89742661D01*
X139715465Y-89697323D01*
X139726898Y-89659636D01*
X139745466Y-89624897D01*
X139770452Y-89594452D01*
X139800897Y-89569466D01*
X139835636Y-89550898D01*
X139873323Y-89539465D01*
X139918661Y-89535000D01*
X141005339Y-89535000D01*
X141050677Y-89539465D01*
X141050677Y-89539465D01*
G37*
G36*
X130272000Y-90648000D02*
X128620000Y-90648000D01*
X128620000Y-89946000D01*
X130272000Y-89946000D01*
X130272000Y-90648000D01*
X130272000Y-90648000D01*
G37*
G36*
X124872000Y-90648000D02*
X123220000Y-90648000D01*
X123220000Y-89946000D01*
X124872000Y-89946000D01*
X124872000Y-90648000D01*
X124872000Y-90648000D01*
G37*
G36*
X118393877Y-88879065D02*
X118431564Y-88890498D01*
X118466303Y-88909066D01*
X118496748Y-88934052D01*
X118521734Y-88964497D01*
X118540302Y-88999236D01*
X118551735Y-89036923D01*
X118556200Y-89082261D01*
X118556200Y-89918939D01*
X118551735Y-89964277D01*
X118540302Y-90001964D01*
X118521734Y-90036703D01*
X118496748Y-90067148D01*
X118466303Y-90092134D01*
X118431564Y-90110702D01*
X118393877Y-90122135D01*
X118348539Y-90126600D01*
X117261861Y-90126600D01*
X117216523Y-90122135D01*
X117178836Y-90110702D01*
X117144097Y-90092134D01*
X117113652Y-90067148D01*
X117088666Y-90036703D01*
X117070098Y-90001964D01*
X117058665Y-89964277D01*
X117054200Y-89918939D01*
X117054200Y-89082261D01*
X117058665Y-89036923D01*
X117070098Y-88999236D01*
X117088666Y-88964497D01*
X117113652Y-88934052D01*
X117144097Y-88909066D01*
X117178836Y-88890498D01*
X117216523Y-88879065D01*
X117261861Y-88874600D01*
X118348539Y-88874600D01*
X118393877Y-88879065D01*
X118393877Y-88879065D01*
G37*
G36*
X169484345Y-87221442D02*
X169574548Y-87230326D01*
X169690287Y-87265435D01*
X169748158Y-87282990D01*
X169815772Y-87319131D01*
X169908156Y-87368511D01*
X170048396Y-87483604D01*
X170163489Y-87623844D01*
X170203298Y-87698321D01*
X170249010Y-87783842D01*
X170249010Y-87783843D01*
X170301674Y-87957452D01*
X170319456Y-88138000D01*
X170301674Y-88318548D01*
X170266565Y-88434287D01*
X170249010Y-88492158D01*
X170203298Y-88577679D01*
X170163489Y-88652156D01*
X170048396Y-88792396D01*
X169908156Y-88907489D01*
X169858460Y-88934052D01*
X169748158Y-88993010D01*
X169727633Y-88999236D01*
X169574548Y-89045674D01*
X169484345Y-89054558D01*
X169439245Y-89059000D01*
X168888755Y-89059000D01*
X168843655Y-89054558D01*
X168753452Y-89045674D01*
X168600367Y-88999236D01*
X168579842Y-88993010D01*
X168469540Y-88934052D01*
X168419844Y-88907489D01*
X168279604Y-88792396D01*
X168164511Y-88652156D01*
X168124702Y-88577679D01*
X168078990Y-88492158D01*
X168061435Y-88434287D01*
X168026326Y-88318548D01*
X168008544Y-88138000D01*
X168026326Y-87957452D01*
X168078990Y-87783843D01*
X168078990Y-87783842D01*
X168124702Y-87698321D01*
X168164511Y-87623844D01*
X168279604Y-87483604D01*
X168419844Y-87368511D01*
X168512228Y-87319131D01*
X168579842Y-87282990D01*
X168637713Y-87265435D01*
X168753452Y-87230326D01*
X168843655Y-87221442D01*
X168888755Y-87217000D01*
X169439245Y-87217000D01*
X169484345Y-87221442D01*
X169484345Y-87221442D01*
G37*
G36*
X128488677Y-87391465D02*
X128526364Y-87402898D01*
X128561103Y-87421466D01*
X128591548Y-87446452D01*
X128616534Y-87476897D01*
X128635102Y-87511636D01*
X128646535Y-87549323D01*
X128651000Y-87594661D01*
X128651000Y-88681339D01*
X128646535Y-88726677D01*
X128635102Y-88764364D01*
X128616534Y-88799103D01*
X128591548Y-88829548D01*
X128561103Y-88854534D01*
X128526364Y-88873102D01*
X128488677Y-88884535D01*
X128443339Y-88889000D01*
X127606661Y-88889000D01*
X127561323Y-88884535D01*
X127523636Y-88873102D01*
X127488897Y-88854534D01*
X127458452Y-88829548D01*
X127433466Y-88799103D01*
X127414898Y-88764364D01*
X127403465Y-88726677D01*
X127399000Y-88681339D01*
X127399000Y-87594661D01*
X127403465Y-87549323D01*
X127414898Y-87511636D01*
X127433466Y-87476897D01*
X127458452Y-87446452D01*
X127488897Y-87421466D01*
X127523636Y-87402898D01*
X127561323Y-87391465D01*
X127606661Y-87387000D01*
X128443339Y-87387000D01*
X128488677Y-87391465D01*
X128488677Y-87391465D01*
G37*
G36*
X126438677Y-87391465D02*
X126476364Y-87402898D01*
X126511103Y-87421466D01*
X126541548Y-87446452D01*
X126566534Y-87476897D01*
X126585102Y-87511636D01*
X126596535Y-87549323D01*
X126601000Y-87594661D01*
X126601000Y-88681339D01*
X126596535Y-88726677D01*
X126585102Y-88764364D01*
X126566534Y-88799103D01*
X126541548Y-88829548D01*
X126511103Y-88854534D01*
X126476364Y-88873102D01*
X126438677Y-88884535D01*
X126393339Y-88889000D01*
X125556661Y-88889000D01*
X125511323Y-88884535D01*
X125473636Y-88873102D01*
X125438897Y-88854534D01*
X125408452Y-88829548D01*
X125383466Y-88799103D01*
X125364898Y-88764364D01*
X125353465Y-88726677D01*
X125349000Y-88681339D01*
X125349000Y-87594661D01*
X125353465Y-87549323D01*
X125364898Y-87511636D01*
X125383466Y-87476897D01*
X125408452Y-87446452D01*
X125438897Y-87421466D01*
X125473636Y-87402898D01*
X125511323Y-87391465D01*
X125556661Y-87387000D01*
X126393339Y-87387000D01*
X126438677Y-87391465D01*
X126438677Y-87391465D01*
G37*
G36*
X121492677Y-86975665D02*
X121530364Y-86987098D01*
X121565103Y-87005666D01*
X121595548Y-87030652D01*
X121620534Y-87061097D01*
X121639102Y-87095836D01*
X121650535Y-87133523D01*
X121655000Y-87178861D01*
X121655000Y-88015539D01*
X121650535Y-88060877D01*
X121639102Y-88098564D01*
X121620534Y-88133303D01*
X121595548Y-88163748D01*
X121565103Y-88188734D01*
X121530364Y-88207302D01*
X121492677Y-88218735D01*
X121447339Y-88223200D01*
X120360661Y-88223200D01*
X120315323Y-88218735D01*
X120277636Y-88207302D01*
X120242897Y-88188734D01*
X120212452Y-88163748D01*
X120187466Y-88133303D01*
X120168898Y-88098564D01*
X120157465Y-88060877D01*
X120153000Y-88015539D01*
X120153000Y-87178861D01*
X120157465Y-87133523D01*
X120168898Y-87095836D01*
X120187466Y-87061097D01*
X120212452Y-87030652D01*
X120242897Y-87005666D01*
X120277636Y-86987098D01*
X120315323Y-86975665D01*
X120360661Y-86971200D01*
X121447339Y-86971200D01*
X121492677Y-86975665D01*
X121492677Y-86975665D01*
G37*
G36*
X124083477Y-86975665D02*
X124121164Y-86987098D01*
X124155903Y-87005666D01*
X124186348Y-87030652D01*
X124211334Y-87061097D01*
X124229902Y-87095836D01*
X124241335Y-87133523D01*
X124245800Y-87178861D01*
X124245800Y-88015539D01*
X124241335Y-88060877D01*
X124229902Y-88098564D01*
X124211334Y-88133303D01*
X124186348Y-88163748D01*
X124155903Y-88188734D01*
X124121164Y-88207302D01*
X124083477Y-88218735D01*
X124038139Y-88223200D01*
X122951461Y-88223200D01*
X122906123Y-88218735D01*
X122868436Y-88207302D01*
X122833697Y-88188734D01*
X122803252Y-88163748D01*
X122778266Y-88133303D01*
X122759698Y-88098564D01*
X122748265Y-88060877D01*
X122743800Y-88015539D01*
X122743800Y-87178861D01*
X122748265Y-87133523D01*
X122759698Y-87095836D01*
X122778266Y-87061097D01*
X122803252Y-87030652D01*
X122833697Y-87005666D01*
X122868436Y-86987098D01*
X122906123Y-86975665D01*
X122951461Y-86971200D01*
X124038139Y-86971200D01*
X124083477Y-86975665D01*
X124083477Y-86975665D01*
G37*
G36*
X136335677Y-85867465D02*
X136373364Y-85878898D01*
X136408103Y-85897466D01*
X136438548Y-85922452D01*
X136463534Y-85952897D01*
X136482102Y-85987636D01*
X136493535Y-86025323D01*
X136498000Y-86070661D01*
X136498000Y-87157339D01*
X136493535Y-87202677D01*
X136482102Y-87240364D01*
X136463534Y-87275103D01*
X136438548Y-87305548D01*
X136408103Y-87330534D01*
X136373364Y-87349102D01*
X136335677Y-87360535D01*
X136290339Y-87365000D01*
X135453661Y-87365000D01*
X135408323Y-87360535D01*
X135370636Y-87349102D01*
X135335897Y-87330534D01*
X135305452Y-87305548D01*
X135280466Y-87275103D01*
X135261898Y-87240364D01*
X135250465Y-87202677D01*
X135246000Y-87157339D01*
X135246000Y-86070661D01*
X135250465Y-86025323D01*
X135261898Y-85987636D01*
X135280466Y-85952897D01*
X135305452Y-85922452D01*
X135335897Y-85897466D01*
X135370636Y-85878898D01*
X135408323Y-85867465D01*
X135453661Y-85863000D01*
X136290339Y-85863000D01*
X136335677Y-85867465D01*
X136335677Y-85867465D01*
G37*
G36*
X146005677Y-85867465D02*
X146043364Y-85878898D01*
X146078103Y-85897466D01*
X146108548Y-85922452D01*
X146133534Y-85952897D01*
X146152102Y-85987636D01*
X146163535Y-86025323D01*
X146168000Y-86070661D01*
X146168000Y-87157339D01*
X146163535Y-87202677D01*
X146152102Y-87240364D01*
X146133534Y-87275103D01*
X146108548Y-87305548D01*
X146078103Y-87330534D01*
X146043364Y-87349102D01*
X146005677Y-87360535D01*
X145960339Y-87365000D01*
X145123661Y-87365000D01*
X145078323Y-87360535D01*
X145040636Y-87349102D01*
X145005897Y-87330534D01*
X144975452Y-87305548D01*
X144950466Y-87275103D01*
X144931898Y-87240364D01*
X144920465Y-87202677D01*
X144916000Y-87157339D01*
X144916000Y-86070661D01*
X144920465Y-86025323D01*
X144931898Y-85987636D01*
X144950466Y-85952897D01*
X144975452Y-85922452D01*
X145005897Y-85897466D01*
X145040636Y-85878898D01*
X145078323Y-85867465D01*
X145123661Y-85863000D01*
X145960339Y-85863000D01*
X146005677Y-85867465D01*
X146005677Y-85867465D01*
G37*
G36*
X138385677Y-85867465D02*
X138423364Y-85878898D01*
X138458103Y-85897466D01*
X138488548Y-85922452D01*
X138513534Y-85952897D01*
X138532102Y-85987636D01*
X138543535Y-86025323D01*
X138548000Y-86070661D01*
X138548000Y-87157339D01*
X138543535Y-87202677D01*
X138532102Y-87240364D01*
X138513534Y-87275103D01*
X138488548Y-87305548D01*
X138458103Y-87330534D01*
X138423364Y-87349102D01*
X138385677Y-87360535D01*
X138340339Y-87365000D01*
X137503661Y-87365000D01*
X137458323Y-87360535D01*
X137420636Y-87349102D01*
X137385897Y-87330534D01*
X137355452Y-87305548D01*
X137330466Y-87275103D01*
X137311898Y-87240364D01*
X137300465Y-87202677D01*
X137296000Y-87157339D01*
X137296000Y-86070661D01*
X137300465Y-86025323D01*
X137311898Y-85987636D01*
X137330466Y-85952897D01*
X137355452Y-85922452D01*
X137385897Y-85897466D01*
X137420636Y-85878898D01*
X137458323Y-85867465D01*
X137503661Y-85863000D01*
X138340339Y-85863000D01*
X138385677Y-85867465D01*
X138385677Y-85867465D01*
G37*
G36*
X143955677Y-85867465D02*
X143993364Y-85878898D01*
X144028103Y-85897466D01*
X144058548Y-85922452D01*
X144083534Y-85952897D01*
X144102102Y-85987636D01*
X144113535Y-86025323D01*
X144118000Y-86070661D01*
X144118000Y-87157339D01*
X144113535Y-87202677D01*
X144102102Y-87240364D01*
X144083534Y-87275103D01*
X144058548Y-87305548D01*
X144028103Y-87330534D01*
X143993364Y-87349102D01*
X143955677Y-87360535D01*
X143910339Y-87365000D01*
X143073661Y-87365000D01*
X143028323Y-87360535D01*
X142990636Y-87349102D01*
X142955897Y-87330534D01*
X142925452Y-87305548D01*
X142900466Y-87275103D01*
X142881898Y-87240364D01*
X142870465Y-87202677D01*
X142866000Y-87157339D01*
X142866000Y-86070661D01*
X142870465Y-86025323D01*
X142881898Y-85987636D01*
X142900466Y-85952897D01*
X142925452Y-85922452D01*
X142955897Y-85897466D01*
X142990636Y-85878898D01*
X143028323Y-85867465D01*
X143073661Y-85863000D01*
X143910339Y-85863000D01*
X143955677Y-85867465D01*
X143955677Y-85867465D01*
G37*
G36*
X169484345Y-84681442D02*
X169574548Y-84690326D01*
X169690287Y-84725435D01*
X169748158Y-84742990D01*
X169833679Y-84788702D01*
X169908156Y-84828511D01*
X170048396Y-84943604D01*
X170163489Y-85083844D01*
X170187551Y-85128861D01*
X170249010Y-85243842D01*
X170249010Y-85243843D01*
X170301674Y-85417452D01*
X170319456Y-85598000D01*
X170301674Y-85778548D01*
X170274701Y-85867465D01*
X170249010Y-85952158D01*
X170232010Y-85983962D01*
X170163489Y-86112156D01*
X170048396Y-86252396D01*
X169908156Y-86367489D01*
X169833679Y-86407298D01*
X169748158Y-86453010D01*
X169690287Y-86470565D01*
X169574548Y-86505674D01*
X169484345Y-86514558D01*
X169439245Y-86519000D01*
X168888755Y-86519000D01*
X168843655Y-86514558D01*
X168753452Y-86505674D01*
X168637713Y-86470565D01*
X168579842Y-86453010D01*
X168494321Y-86407298D01*
X168419844Y-86367489D01*
X168279604Y-86252396D01*
X168164511Y-86112156D01*
X168095990Y-85983962D01*
X168078990Y-85952158D01*
X168053299Y-85867465D01*
X168026326Y-85778548D01*
X168008544Y-85598000D01*
X168026326Y-85417452D01*
X168078990Y-85243843D01*
X168078990Y-85243842D01*
X168140449Y-85128861D01*
X168164511Y-85083844D01*
X168279604Y-84943604D01*
X168419844Y-84828511D01*
X168494321Y-84788702D01*
X168579842Y-84742990D01*
X168637713Y-84725435D01*
X168753452Y-84690326D01*
X168843655Y-84681442D01*
X168888755Y-84677000D01*
X169439245Y-84677000D01*
X169484345Y-84681442D01*
X169484345Y-84681442D01*
G37*
G36*
X124083477Y-84925665D02*
X124121164Y-84937098D01*
X124155903Y-84955666D01*
X124186348Y-84980652D01*
X124211334Y-85011097D01*
X124229902Y-85045836D01*
X124241335Y-85083523D01*
X124245800Y-85128861D01*
X124245800Y-85965539D01*
X124241335Y-86010877D01*
X124229902Y-86048564D01*
X124211334Y-86083303D01*
X124186348Y-86113748D01*
X124155903Y-86138734D01*
X124121164Y-86157302D01*
X124083477Y-86168735D01*
X124038139Y-86173200D01*
X122951461Y-86173200D01*
X122906123Y-86168735D01*
X122868436Y-86157302D01*
X122833697Y-86138734D01*
X122803252Y-86113748D01*
X122778266Y-86083303D01*
X122759698Y-86048564D01*
X122748265Y-86010877D01*
X122743800Y-85965539D01*
X122743800Y-85128861D01*
X122748265Y-85083523D01*
X122759698Y-85045836D01*
X122778266Y-85011097D01*
X122803252Y-84980652D01*
X122833697Y-84955666D01*
X122868436Y-84937098D01*
X122906123Y-84925665D01*
X122951461Y-84921200D01*
X124038139Y-84921200D01*
X124083477Y-84925665D01*
X124083477Y-84925665D01*
G37*
G36*
X121492677Y-84925665D02*
X121530364Y-84937098D01*
X121565103Y-84955666D01*
X121595548Y-84980652D01*
X121620534Y-85011097D01*
X121639102Y-85045836D01*
X121650535Y-85083523D01*
X121655000Y-85128861D01*
X121655000Y-85965539D01*
X121650535Y-86010877D01*
X121639102Y-86048564D01*
X121620534Y-86083303D01*
X121595548Y-86113748D01*
X121565103Y-86138734D01*
X121530364Y-86157302D01*
X121492677Y-86168735D01*
X121447339Y-86173200D01*
X120360661Y-86173200D01*
X120315323Y-86168735D01*
X120277636Y-86157302D01*
X120242897Y-86138734D01*
X120212452Y-86113748D01*
X120187466Y-86083303D01*
X120168898Y-86048564D01*
X120157465Y-86010877D01*
X120153000Y-85965539D01*
X120153000Y-85128861D01*
X120157465Y-85083523D01*
X120168898Y-85045836D01*
X120187466Y-85011097D01*
X120212452Y-84980652D01*
X120242897Y-84955666D01*
X120277636Y-84937098D01*
X120315323Y-84925665D01*
X120360661Y-84921200D01*
X121447339Y-84921200D01*
X121492677Y-84925665D01*
X121492677Y-84925665D01*
G37*
G36*
X162441000Y-84487000D02*
X160139000Y-84487000D01*
X160139000Y-82645000D01*
X162441000Y-82645000D01*
X162441000Y-84487000D01*
X162441000Y-84487000D01*
G37*
G36*
X122056200Y-83568200D02*
X119954200Y-83568200D01*
X119954200Y-81966200D01*
X122056200Y-81966200D01*
X122056200Y-83568200D01*
X122056200Y-83568200D01*
G37*
G36*
X128356200Y-82418200D02*
X126254200Y-82418200D01*
X126254200Y-78516200D01*
X128356200Y-78516200D01*
X128356200Y-82418200D01*
X128356200Y-82418200D01*
G37*
G36*
X133530548Y-79888326D02*
X133610957Y-79912718D01*
X133704158Y-79940990D01*
X133780689Y-79981897D01*
X133864156Y-80026511D01*
X134004396Y-80141604D01*
X134119489Y-80281844D01*
X134205010Y-80441843D01*
X134257674Y-80615452D01*
X134271000Y-80750757D01*
X134271000Y-81301244D01*
X134257674Y-81436548D01*
X134226245Y-81540156D01*
X134205010Y-81610158D01*
X134167467Y-81680396D01*
X134119489Y-81770156D01*
X134004396Y-81910396D01*
X133864155Y-82025489D01*
X133784686Y-82067966D01*
X133704157Y-82111010D01*
X133658199Y-82124951D01*
X133530547Y-82163674D01*
X133350000Y-82181456D01*
X133169452Y-82163674D01*
X133041800Y-82124951D01*
X132995842Y-82111010D01*
X132872347Y-82045000D01*
X132835844Y-82025489D01*
X132695604Y-81910396D01*
X132580511Y-81770155D01*
X132494991Y-81610158D01*
X132494990Y-81610157D01*
X132473756Y-81540156D01*
X132442326Y-81436547D01*
X132429000Y-81301243D01*
X132429000Y-80750756D01*
X132442326Y-80615452D01*
X132494990Y-80441843D01*
X132494990Y-80441842D01*
X132580513Y-80281843D01*
X132601303Y-80256511D01*
X132695605Y-80141604D01*
X132835845Y-80026511D01*
X132919312Y-79981897D01*
X132995843Y-79940990D01*
X133089044Y-79912718D01*
X133169453Y-79888326D01*
X133350000Y-79870544D01*
X133530548Y-79888326D01*
X133530548Y-79888326D01*
G37*
G36*
X141150548Y-79888326D02*
X141230957Y-79912718D01*
X141324158Y-79940990D01*
X141400689Y-79981897D01*
X141484156Y-80026511D01*
X141624396Y-80141604D01*
X141739489Y-80281844D01*
X141825010Y-80441843D01*
X141877674Y-80615452D01*
X141891000Y-80750757D01*
X141891000Y-81301244D01*
X141877674Y-81436548D01*
X141846245Y-81540156D01*
X141825010Y-81610158D01*
X141787467Y-81680396D01*
X141739489Y-81770156D01*
X141624396Y-81910396D01*
X141484155Y-82025489D01*
X141404686Y-82067966D01*
X141324157Y-82111010D01*
X141278199Y-82124951D01*
X141150547Y-82163674D01*
X140970000Y-82181456D01*
X140789452Y-82163674D01*
X140661800Y-82124951D01*
X140615842Y-82111010D01*
X140492347Y-82045000D01*
X140455844Y-82025489D01*
X140315604Y-81910396D01*
X140200511Y-81770155D01*
X140114991Y-81610158D01*
X140114990Y-81610157D01*
X140093756Y-81540156D01*
X140062326Y-81436547D01*
X140049000Y-81301243D01*
X140049000Y-80750756D01*
X140062326Y-80615452D01*
X140114990Y-80441843D01*
X140114990Y-80441842D01*
X140200513Y-80281843D01*
X140221303Y-80256511D01*
X140315605Y-80141604D01*
X140455845Y-80026511D01*
X140539312Y-79981897D01*
X140615843Y-79940990D01*
X140709044Y-79912718D01*
X140789453Y-79888326D01*
X140970000Y-79870544D01*
X141150548Y-79888326D01*
X141150548Y-79888326D01*
G37*
G36*
X148770548Y-79888326D02*
X148850957Y-79912718D01*
X148944158Y-79940990D01*
X149020689Y-79981897D01*
X149104156Y-80026511D01*
X149244396Y-80141604D01*
X149359489Y-80281844D01*
X149445010Y-80441843D01*
X149497674Y-80615452D01*
X149511000Y-80750757D01*
X149511000Y-81301244D01*
X149497674Y-81436548D01*
X149466245Y-81540156D01*
X149445010Y-81610158D01*
X149407467Y-81680396D01*
X149359489Y-81770156D01*
X149244396Y-81910396D01*
X149104155Y-82025489D01*
X149024686Y-82067966D01*
X148944157Y-82111010D01*
X148898199Y-82124951D01*
X148770547Y-82163674D01*
X148590000Y-82181456D01*
X148409452Y-82163674D01*
X148281800Y-82124951D01*
X148235842Y-82111010D01*
X148112347Y-82045000D01*
X148075844Y-82025489D01*
X147935604Y-81910396D01*
X147820511Y-81770155D01*
X147734991Y-81610158D01*
X147734990Y-81610157D01*
X147713756Y-81540156D01*
X147682326Y-81436547D01*
X147669000Y-81301243D01*
X147669000Y-80750756D01*
X147682326Y-80615452D01*
X147734990Y-80441843D01*
X147734990Y-80441842D01*
X147820513Y-80281843D01*
X147841303Y-80256511D01*
X147935605Y-80141604D01*
X148075845Y-80026511D01*
X148159312Y-79981897D01*
X148235843Y-79940990D01*
X148329044Y-79912718D01*
X148409453Y-79888326D01*
X148590000Y-79870544D01*
X148770548Y-79888326D01*
X148770548Y-79888326D01*
G37*
G36*
X151310548Y-79888326D02*
X151390957Y-79912718D01*
X151484158Y-79940990D01*
X151560689Y-79981897D01*
X151644156Y-80026511D01*
X151784396Y-80141604D01*
X151899489Y-80281844D01*
X151985010Y-80441843D01*
X152037674Y-80615452D01*
X152051000Y-80750757D01*
X152051000Y-81301244D01*
X152037674Y-81436548D01*
X152006245Y-81540156D01*
X151985010Y-81610158D01*
X151947467Y-81680396D01*
X151899489Y-81770156D01*
X151784396Y-81910396D01*
X151644155Y-82025489D01*
X151564686Y-82067966D01*
X151484157Y-82111010D01*
X151438199Y-82124951D01*
X151310547Y-82163674D01*
X151130000Y-82181456D01*
X150949452Y-82163674D01*
X150821800Y-82124951D01*
X150775842Y-82111010D01*
X150652347Y-82045000D01*
X150615844Y-82025489D01*
X150475604Y-81910396D01*
X150360511Y-81770155D01*
X150274991Y-81610158D01*
X150274990Y-81610157D01*
X150253756Y-81540156D01*
X150222326Y-81436547D01*
X150209000Y-81301243D01*
X150209000Y-80750756D01*
X150222326Y-80615452D01*
X150274990Y-80441843D01*
X150274990Y-80441842D01*
X150360513Y-80281843D01*
X150381303Y-80256511D01*
X150475605Y-80141604D01*
X150615845Y-80026511D01*
X150699312Y-79981897D01*
X150775843Y-79940990D01*
X150869044Y-79912718D01*
X150949453Y-79888326D01*
X151130000Y-79870544D01*
X151310548Y-79888326D01*
X151310548Y-79888326D01*
G37*
G36*
X153850548Y-79888326D02*
X153930957Y-79912718D01*
X154024158Y-79940990D01*
X154100689Y-79981897D01*
X154184156Y-80026511D01*
X154324396Y-80141604D01*
X154439489Y-80281844D01*
X154525010Y-80441843D01*
X154577674Y-80615452D01*
X154591000Y-80750757D01*
X154591000Y-81301244D01*
X154577674Y-81436548D01*
X154546245Y-81540156D01*
X154525010Y-81610158D01*
X154487467Y-81680396D01*
X154439489Y-81770156D01*
X154324396Y-81910396D01*
X154184155Y-82025489D01*
X154104686Y-82067966D01*
X154024157Y-82111010D01*
X153978199Y-82124951D01*
X153850547Y-82163674D01*
X153670000Y-82181456D01*
X153489452Y-82163674D01*
X153361800Y-82124951D01*
X153315842Y-82111010D01*
X153192347Y-82045000D01*
X153155844Y-82025489D01*
X153015604Y-81910396D01*
X152900511Y-81770155D01*
X152814991Y-81610158D01*
X152814990Y-81610157D01*
X152793756Y-81540156D01*
X152762326Y-81436547D01*
X152749000Y-81301243D01*
X152749000Y-80750756D01*
X152762326Y-80615452D01*
X152814990Y-80441843D01*
X152814990Y-80441842D01*
X152900513Y-80281843D01*
X152921303Y-80256511D01*
X153015605Y-80141604D01*
X153155845Y-80026511D01*
X153239312Y-79981897D01*
X153315843Y-79940990D01*
X153409044Y-79912718D01*
X153489453Y-79888326D01*
X153670000Y-79870544D01*
X153850548Y-79888326D01*
X153850548Y-79888326D01*
G37*
G36*
X156989020Y-79878979D02*
X157021966Y-79888974D01*
X157052335Y-79905206D01*
X157078951Y-79927049D01*
X157100794Y-79953665D01*
X157117026Y-79984034D01*
X157127021Y-80016980D01*
X157131000Y-80057386D01*
X157131000Y-81994614D01*
X157127021Y-82035020D01*
X157117026Y-82067966D01*
X157100794Y-82098335D01*
X157078951Y-82124951D01*
X157052335Y-82146794D01*
X157021966Y-82163026D01*
X156989020Y-82173021D01*
X156948614Y-82177000D01*
X155471386Y-82177000D01*
X155430980Y-82173021D01*
X155398034Y-82163026D01*
X155367665Y-82146794D01*
X155341049Y-82124951D01*
X155319206Y-82098335D01*
X155302974Y-82067966D01*
X155292979Y-82035020D01*
X155289000Y-81994614D01*
X155289000Y-80057386D01*
X155292979Y-80016980D01*
X155302974Y-79984034D01*
X155319206Y-79953665D01*
X155341049Y-79927049D01*
X155367665Y-79905206D01*
X155398034Y-79888974D01*
X155430980Y-79878979D01*
X155471386Y-79875000D01*
X156948614Y-79875000D01*
X156989020Y-79878979D01*
X156989020Y-79878979D01*
G37*
G36*
X136669020Y-79878979D02*
X136701966Y-79888974D01*
X136732335Y-79905206D01*
X136758951Y-79927049D01*
X136780794Y-79953665D01*
X136797026Y-79984034D01*
X136807021Y-80016980D01*
X136811000Y-80057386D01*
X136811000Y-81994614D01*
X136807021Y-82035020D01*
X136797026Y-82067966D01*
X136780794Y-82098335D01*
X136758951Y-82124951D01*
X136732335Y-82146794D01*
X136701966Y-82163026D01*
X136669020Y-82173021D01*
X136628614Y-82177000D01*
X135151386Y-82177000D01*
X135110980Y-82173021D01*
X135078034Y-82163026D01*
X135047665Y-82146794D01*
X135021049Y-82124951D01*
X134999206Y-82098335D01*
X134982974Y-82067966D01*
X134972979Y-82035020D01*
X134969000Y-81994614D01*
X134969000Y-80057386D01*
X134972979Y-80016980D01*
X134982974Y-79984034D01*
X134999206Y-79953665D01*
X135021049Y-79927049D01*
X135047665Y-79905206D01*
X135078034Y-79888974D01*
X135110980Y-79878979D01*
X135151386Y-79875000D01*
X136628614Y-79875000D01*
X136669020Y-79878979D01*
X136669020Y-79878979D01*
G37*
G36*
X144289020Y-79878979D02*
X144321966Y-79888974D01*
X144352335Y-79905206D01*
X144378951Y-79927049D01*
X144400794Y-79953665D01*
X144417026Y-79984034D01*
X144427021Y-80016980D01*
X144431000Y-80057386D01*
X144431000Y-81994614D01*
X144427021Y-82035020D01*
X144417026Y-82067966D01*
X144400794Y-82098335D01*
X144378951Y-82124951D01*
X144352335Y-82146794D01*
X144321966Y-82163026D01*
X144289020Y-82173021D01*
X144248614Y-82177000D01*
X142771386Y-82177000D01*
X142730980Y-82173021D01*
X142698034Y-82163026D01*
X142667665Y-82146794D01*
X142641049Y-82124951D01*
X142619206Y-82098335D01*
X142602974Y-82067966D01*
X142592979Y-82035020D01*
X142589000Y-81994614D01*
X142589000Y-80057386D01*
X142592979Y-80016980D01*
X142602974Y-79984034D01*
X142619206Y-79953665D01*
X142641049Y-79927049D01*
X142667665Y-79905206D01*
X142698034Y-79888974D01*
X142730980Y-79878979D01*
X142771386Y-79875000D01*
X144248614Y-79875000D01*
X144289020Y-79878979D01*
X144289020Y-79878979D01*
G37*
G36*
X172339941Y-76060248D02*
X172339943Y-76060249D01*
X172339944Y-76060249D01*
X172895190Y-76290239D01*
X172895191Y-76290240D01*
X173394902Y-76624136D01*
X173819864Y-77049098D01*
X173819866Y-77049101D01*
X174153761Y-77548810D01*
X174383751Y-78104056D01*
X174383752Y-78104059D01*
X174501000Y-78693501D01*
X174501000Y-79294499D01*
X174384517Y-79880097D01*
X174383751Y-79883944D01*
X174153761Y-80439190D01*
X173882305Y-80845452D01*
X173819864Y-80938902D01*
X173394902Y-81363864D01*
X173394899Y-81363866D01*
X172895190Y-81697761D01*
X172339944Y-81927751D01*
X172339943Y-81927751D01*
X172339941Y-81927752D01*
X171750499Y-82045000D01*
X171149501Y-82045000D01*
X170560059Y-81927752D01*
X170560057Y-81927751D01*
X170560056Y-81927751D01*
X170004810Y-81697761D01*
X169505101Y-81363866D01*
X169505098Y-81363864D01*
X169080136Y-80938902D01*
X169017695Y-80845452D01*
X168746239Y-80439190D01*
X168516249Y-79883944D01*
X168515484Y-79880097D01*
X168399000Y-79294499D01*
X168399000Y-78693501D01*
X168516248Y-78104059D01*
X168516249Y-78104056D01*
X168746239Y-77548810D01*
X169080134Y-77049101D01*
X169080136Y-77049098D01*
X169505098Y-76624136D01*
X170004809Y-76290240D01*
X170004810Y-76290239D01*
X170560056Y-76060249D01*
X170560057Y-76060249D01*
X170560059Y-76060248D01*
X171149501Y-75943000D01*
X171750499Y-75943000D01*
X172339941Y-76060248D01*
X172339941Y-76060248D01*
G37*
G36*
X108839941Y-76060248D02*
X108839943Y-76060249D01*
X108839944Y-76060249D01*
X109395190Y-76290239D01*
X109395191Y-76290240D01*
X109894902Y-76624136D01*
X110319864Y-77049098D01*
X110319866Y-77049101D01*
X110653761Y-77548810D01*
X110883751Y-78104056D01*
X110883752Y-78104059D01*
X111001000Y-78693501D01*
X111001000Y-79294499D01*
X110884517Y-79880097D01*
X110883751Y-79883944D01*
X110653761Y-80439190D01*
X110382305Y-80845452D01*
X110319864Y-80938902D01*
X109894902Y-81363864D01*
X109894899Y-81363866D01*
X109395190Y-81697761D01*
X108839944Y-81927751D01*
X108839943Y-81927751D01*
X108839941Y-81927752D01*
X108250499Y-82045000D01*
X107649501Y-82045000D01*
X107060059Y-81927752D01*
X107060057Y-81927751D01*
X107060056Y-81927751D01*
X106504810Y-81697761D01*
X106005101Y-81363866D01*
X106005098Y-81363864D01*
X105580136Y-80938902D01*
X105517695Y-80845452D01*
X105246239Y-80439190D01*
X105016249Y-79883944D01*
X105015484Y-79880097D01*
X104899000Y-79294499D01*
X104899000Y-78693501D01*
X105016248Y-78104059D01*
X105016249Y-78104056D01*
X105246239Y-77548810D01*
X105580134Y-77049101D01*
X105580136Y-77049098D01*
X106005098Y-76624136D01*
X106504809Y-76290240D01*
X106504810Y-76290239D01*
X107060056Y-76060249D01*
X107060057Y-76060249D01*
X107060059Y-76060248D01*
X107649501Y-75943000D01*
X108250499Y-75943000D01*
X108839941Y-76060248D01*
X108839941Y-76060248D01*
G37*
G36*
X161610345Y-80109442D02*
X161700548Y-80118326D01*
X161816287Y-80153435D01*
X161874158Y-80170990D01*
X161959679Y-80216702D01*
X162034156Y-80256511D01*
X162034158Y-80256512D01*
X162034157Y-80256512D01*
X162174396Y-80371604D01*
X162289488Y-80511843D01*
X162375010Y-80671842D01*
X162375010Y-80671843D01*
X162427674Y-80845452D01*
X162445456Y-81026000D01*
X162427674Y-81206548D01*
X162408972Y-81268200D01*
X162375010Y-81380158D01*
X162329298Y-81465679D01*
X162289489Y-81540156D01*
X162174396Y-81680396D01*
X162034156Y-81795489D01*
X161959679Y-81835298D01*
X161874158Y-81881010D01*
X161816287Y-81898565D01*
X161700548Y-81933674D01*
X161610345Y-81942558D01*
X161565245Y-81947000D01*
X161014755Y-81947000D01*
X160969655Y-81942558D01*
X160879452Y-81933674D01*
X160763713Y-81898565D01*
X160705842Y-81881010D01*
X160620321Y-81835298D01*
X160545844Y-81795489D01*
X160405604Y-81680396D01*
X160290511Y-81540156D01*
X160250702Y-81465679D01*
X160204990Y-81380158D01*
X160171028Y-81268200D01*
X160152326Y-81206548D01*
X160134544Y-81026000D01*
X160152326Y-80845452D01*
X160204990Y-80671843D01*
X160204990Y-80671842D01*
X160290512Y-80511843D01*
X160405604Y-80371604D01*
X160545843Y-80256512D01*
X160545842Y-80256512D01*
X160545844Y-80256511D01*
X160620321Y-80216702D01*
X160705842Y-80170990D01*
X160763713Y-80153435D01*
X160879452Y-80118326D01*
X160969655Y-80109442D01*
X161014755Y-80105000D01*
X161565245Y-80105000D01*
X161610345Y-80109442D01*
X161610345Y-80109442D01*
G37*
G36*
X122056200Y-81268200D02*
X119954200Y-81268200D01*
X119954200Y-79666200D01*
X122056200Y-79666200D01*
X122056200Y-81268200D01*
X122056200Y-81268200D01*
G37*
G36*
X115650677Y-79914465D02*
X115688364Y-79925898D01*
X115723103Y-79944466D01*
X115753548Y-79969452D01*
X115778534Y-79999897D01*
X115797102Y-80034636D01*
X115808535Y-80072323D01*
X115813000Y-80117661D01*
X115813000Y-80954339D01*
X115808535Y-80999677D01*
X115797102Y-81037364D01*
X115778534Y-81072103D01*
X115753548Y-81102548D01*
X115723103Y-81127534D01*
X115688364Y-81146102D01*
X115650677Y-81157535D01*
X115605339Y-81162000D01*
X114518661Y-81162000D01*
X114473323Y-81157535D01*
X114435636Y-81146102D01*
X114400897Y-81127534D01*
X114370452Y-81102548D01*
X114345466Y-81072103D01*
X114326898Y-81037364D01*
X114315465Y-80999677D01*
X114311000Y-80954339D01*
X114311000Y-80117661D01*
X114315465Y-80072323D01*
X114326898Y-80034636D01*
X114345466Y-79999897D01*
X114370452Y-79969452D01*
X114400897Y-79944466D01*
X114435636Y-79925898D01*
X114473323Y-79914465D01*
X114518661Y-79910000D01*
X115605339Y-79910000D01*
X115650677Y-79914465D01*
X115650677Y-79914465D01*
G37*
G36*
X118698677Y-79896465D02*
X118736364Y-79907898D01*
X118771103Y-79926466D01*
X118801548Y-79951452D01*
X118826534Y-79981897D01*
X118845102Y-80016636D01*
X118856535Y-80054323D01*
X118861000Y-80099661D01*
X118861000Y-80936339D01*
X118856535Y-80981677D01*
X118845102Y-81019364D01*
X118826534Y-81054103D01*
X118801548Y-81084548D01*
X118771103Y-81109534D01*
X118736364Y-81128102D01*
X118698677Y-81139535D01*
X118653339Y-81144000D01*
X117566661Y-81144000D01*
X117521323Y-81139535D01*
X117483636Y-81128102D01*
X117448897Y-81109534D01*
X117418452Y-81084548D01*
X117393466Y-81054103D01*
X117374898Y-81019364D01*
X117363465Y-80981677D01*
X117359000Y-80936339D01*
X117359000Y-80099661D01*
X117363465Y-80054323D01*
X117374898Y-80016636D01*
X117393466Y-79981897D01*
X117418452Y-79951452D01*
X117448897Y-79926466D01*
X117483636Y-79907898D01*
X117521323Y-79896465D01*
X117566661Y-79892000D01*
X118653339Y-79892000D01*
X118698677Y-79896465D01*
X118698677Y-79896465D01*
G37*
G36*
X161610345Y-77569442D02*
X161700548Y-77578326D01*
X161816287Y-77613435D01*
X161874158Y-77630990D01*
X161959679Y-77676702D01*
X162034156Y-77716511D01*
X162174396Y-77831604D01*
X162289489Y-77971844D01*
X162319514Y-78028017D01*
X162375010Y-78131842D01*
X162375010Y-78131843D01*
X162427674Y-78305452D01*
X162445456Y-78486000D01*
X162427674Y-78666548D01*
X162419497Y-78693503D01*
X162375010Y-78840158D01*
X162346805Y-78892925D01*
X162289489Y-79000156D01*
X162174396Y-79140396D01*
X162034156Y-79255489D01*
X161961177Y-79294497D01*
X161874158Y-79341010D01*
X161816287Y-79358565D01*
X161700548Y-79393674D01*
X161610345Y-79402558D01*
X161565245Y-79407000D01*
X161014755Y-79407000D01*
X160969655Y-79402558D01*
X160879452Y-79393674D01*
X160763713Y-79358565D01*
X160705842Y-79341010D01*
X160618823Y-79294497D01*
X160545844Y-79255489D01*
X160405604Y-79140396D01*
X160290511Y-79000156D01*
X160233195Y-78892925D01*
X160204990Y-78840158D01*
X160160503Y-78693503D01*
X160152326Y-78666548D01*
X160134544Y-78486000D01*
X160152326Y-78305452D01*
X160204990Y-78131843D01*
X160204990Y-78131842D01*
X160260486Y-78028017D01*
X160290511Y-77971844D01*
X160405604Y-77831604D01*
X160545844Y-77716511D01*
X160620321Y-77676702D01*
X160705842Y-77630990D01*
X160763713Y-77613435D01*
X160879452Y-77578326D01*
X160969655Y-77569442D01*
X161014755Y-77565000D01*
X161565245Y-77565000D01*
X161610345Y-77569442D01*
X161610345Y-77569442D01*
G37*
G36*
X115650677Y-77864465D02*
X115688364Y-77875898D01*
X115723103Y-77894466D01*
X115753548Y-77919452D01*
X115778534Y-77949897D01*
X115797102Y-77984636D01*
X115808535Y-78022323D01*
X115813000Y-78067661D01*
X115813000Y-78904339D01*
X115808535Y-78949677D01*
X115797102Y-78987364D01*
X115778534Y-79022103D01*
X115753548Y-79052548D01*
X115723103Y-79077534D01*
X115688364Y-79096102D01*
X115650677Y-79107535D01*
X115605339Y-79112000D01*
X114518661Y-79112000D01*
X114473323Y-79107535D01*
X114435636Y-79096102D01*
X114400897Y-79077534D01*
X114370452Y-79052548D01*
X114345466Y-79022103D01*
X114326898Y-78987364D01*
X114315465Y-78949677D01*
X114311000Y-78904339D01*
X114311000Y-78067661D01*
X114315465Y-78022323D01*
X114326898Y-77984636D01*
X114345466Y-77949897D01*
X114370452Y-77919452D01*
X114400897Y-77894466D01*
X114435636Y-77875898D01*
X114473323Y-77864465D01*
X114518661Y-77860000D01*
X115605339Y-77860000D01*
X115650677Y-77864465D01*
X115650677Y-77864465D01*
G37*
G36*
X118698677Y-77846465D02*
X118736364Y-77857898D01*
X118771103Y-77876466D01*
X118801548Y-77901452D01*
X118826534Y-77931897D01*
X118845102Y-77966636D01*
X118856535Y-78004323D01*
X118861000Y-78049661D01*
X118861000Y-78886339D01*
X118856535Y-78931677D01*
X118845102Y-78969364D01*
X118826534Y-79004103D01*
X118801548Y-79034548D01*
X118771103Y-79059534D01*
X118736364Y-79078102D01*
X118698677Y-79089535D01*
X118653339Y-79094000D01*
X117566661Y-79094000D01*
X117521323Y-79089535D01*
X117483636Y-79078102D01*
X117448897Y-79059534D01*
X117418452Y-79034548D01*
X117393466Y-79004103D01*
X117374898Y-78969364D01*
X117363465Y-78931677D01*
X117359000Y-78886339D01*
X117359000Y-78049661D01*
X117363465Y-78004323D01*
X117374898Y-77966636D01*
X117393466Y-77931897D01*
X117418452Y-77901452D01*
X117448897Y-77876466D01*
X117483636Y-77857898D01*
X117521323Y-77846465D01*
X117566661Y-77842000D01*
X118653339Y-77842000D01*
X118698677Y-77846465D01*
X118698677Y-77846465D01*
G37*
G36*
X122056200Y-78968200D02*
X119954200Y-78968200D01*
X119954200Y-77366200D01*
X122056200Y-77366200D01*
X122056200Y-78968200D01*
X122056200Y-78968200D01*
G37*
M02*
