G04 #@! TF.GenerationSoftware,KiCad,Pcbnew,5.0.2-bee76a0~70~ubuntu18.04.1*
G04 #@! TF.CreationDate,2019-01-29T20:40:36+01:00*
G04 #@! TF.ProjectId,main_board,6d61696e-5f62-46f6-9172-642e6b696361,rev?*
G04 #@! TF.SameCoordinates,Original*
G04 #@! TF.FileFunction,Copper,L2,Bot*
G04 #@! TF.FilePolarity,Positive*
%FSLAX46Y46*%
G04 Gerber Fmt 4.6, Leading zero omitted, Abs format (unit mm)*
G04 Created by KiCad (PCBNEW 5.0.2-bee76a0~70~ubuntu18.04.1) date Út 29. ledna 2019, 20:40:36 CET*
%MOMM*%
%LPD*%
G01*
G04 APERTURE LIST*
G04 #@! TA.AperFunction,ComponentPad*
%ADD10O,2.200000X1.740000*%
G04 #@! TD*
G04 #@! TA.AperFunction,ComponentPad*
%ADD11R,2.200000X1.740000*%
G04 #@! TD*
G04 #@! TA.AperFunction,ComponentPad*
%ADD12R,1.727200X1.727200*%
G04 #@! TD*
G04 #@! TA.AperFunction,ComponentPad*
%ADD13O,1.727200X1.727200*%
G04 #@! TD*
G04 #@! TA.AperFunction,ComponentPad*
%ADD14C,6.000000*%
G04 #@! TD*
G04 #@! TA.AperFunction,ComponentPad*
%ADD15O,1.740000X2.200000*%
G04 #@! TD*
G04 #@! TA.AperFunction,Conductor*
%ADD16C,0.100000*%
G04 #@! TD*
G04 #@! TA.AperFunction,ComponentPad*
%ADD17C,1.740000*%
G04 #@! TD*
G04 #@! TA.AperFunction,ComponentPad*
%ADD18R,1.740000X2.200000*%
G04 #@! TD*
G04 #@! TA.AperFunction,ViaPad*
%ADD19C,0.800000*%
G04 #@! TD*
G04 #@! TA.AperFunction,Conductor*
%ADD20C,0.500000*%
G04 #@! TD*
G04 #@! TA.AperFunction,Conductor*
%ADD21C,0.250000*%
G04 #@! TD*
G04 #@! TA.AperFunction,Conductor*
%ADD22C,0.254000*%
G04 #@! TD*
G04 APERTURE END LIST*
D10*
G04 #@! TO.P,SW1,3*
G04 #@! TO.N,+5V*
X147320000Y-117094000D03*
G04 #@! TO.P,SW1,2*
G04 #@! TO.N,Net-(J1-Pad1)*
X147320000Y-114554000D03*
D11*
G04 #@! TO.P,SW1,1*
G04 #@! TO.N,+3V3*
X147320000Y-112014000D03*
G04 #@! TD*
D12*
G04 #@! TO.P,J8,1*
G04 #@! TO.N,Net-(J8-Pad1)*
X112522000Y-103886000D03*
D13*
G04 #@! TO.P,J8,2*
G04 #@! TO.N,+5.5V*
X109982000Y-103886000D03*
G04 #@! TO.P,J8,3*
G04 #@! TO.N,Net-(J8-Pad3)*
X112522000Y-101346000D03*
G04 #@! TO.P,J8,4*
G04 #@! TO.N,+5.5V*
X109982000Y-101346000D03*
G04 #@! TO.P,J8,5*
G04 #@! TO.N,Net-(J8-Pad5)*
X112522000Y-98806000D03*
G04 #@! TO.P,J8,6*
G04 #@! TO.N,GND*
X109982000Y-98806000D03*
G04 #@! TO.P,J8,7*
G04 #@! TO.N,Net-(J8-Pad7)*
X112522000Y-96266000D03*
G04 #@! TO.P,J8,8*
G04 #@! TO.N,GND*
X109982000Y-96266000D03*
G04 #@! TO.P,J8,9*
G04 #@! TO.N,Net-(J8-Pad9)*
X112522000Y-93726000D03*
G04 #@! TO.P,J8,10*
G04 #@! TO.N,GND*
X109982000Y-93726000D03*
G04 #@! TD*
D11*
G04 #@! TO.P,J4,1*
G04 #@! TO.N,GND*
X159004000Y-90932000D03*
D10*
G04 #@! TO.P,J4,2*
G04 #@! TO.N,/~RST*
X159004000Y-93472000D03*
G04 #@! TO.P,J4,3*
G04 #@! TO.N,/SDCLK*
X159004000Y-96012000D03*
G04 #@! TO.P,J4,4*
G04 #@! TO.N,/SDWIO*
X159004000Y-98552000D03*
G04 #@! TD*
D11*
G04 #@! TO.P,SW2,1*
G04 #@! TO.N,+3V3*
X161290000Y-83566000D03*
D10*
G04 #@! TO.P,SW2,2*
G04 #@! TO.N,Net-(J3-Pad1)*
X161290000Y-81026000D03*
G04 #@! TO.P,SW2,3*
G04 #@! TO.N,+5V*
X161290000Y-78486000D03*
G04 #@! TD*
D14*
G04 #@! TO.P,N1,1*
G04 #@! TO.N,N/C*
X107950000Y-78994000D03*
G04 #@! TD*
G04 #@! TO.P,N2,1*
G04 #@! TO.N,N/C*
X171450000Y-78994000D03*
G04 #@! TD*
G04 #@! TO.P,N3,1*
G04 #@! TO.N,N/C*
X107950000Y-117094000D03*
G04 #@! TD*
G04 #@! TO.P,N4,1*
G04 #@! TO.N,N/C*
X171450000Y-117094000D03*
G04 #@! TD*
D15*
G04 #@! TO.P,J1,4*
G04 #@! TO.N,GND*
X160020000Y-114554000D03*
G04 #@! TO.P,J1,3*
G04 #@! TO.N,/UART3_RX*
X157480000Y-114554000D03*
G04 #@! TO.P,J1,2*
G04 #@! TO.N,/UART3_TX*
X154940000Y-114554000D03*
D16*
G04 #@! TD*
G04 #@! TO.N,Net-(J1-Pad1)*
G04 #@! TO.C,J1*
G36*
X153044000Y-113455207D02*
X153068323Y-113458814D01*
X153092174Y-113464789D01*
X153115326Y-113473073D01*
X153137554Y-113483586D01*
X153158644Y-113496227D01*
X153178394Y-113510874D01*
X153196613Y-113527387D01*
X153213126Y-113545606D01*
X153227773Y-113565356D01*
X153240414Y-113586446D01*
X153250927Y-113608674D01*
X153259211Y-113631826D01*
X153265186Y-113655677D01*
X153268793Y-113680000D01*
X153270000Y-113704559D01*
X153270000Y-115403441D01*
X153268793Y-115428000D01*
X153265186Y-115452323D01*
X153259211Y-115476174D01*
X153250927Y-115499326D01*
X153240414Y-115521554D01*
X153227773Y-115542644D01*
X153213126Y-115562394D01*
X153196613Y-115580613D01*
X153178394Y-115597126D01*
X153158644Y-115611773D01*
X153137554Y-115624414D01*
X153115326Y-115634927D01*
X153092174Y-115643211D01*
X153068323Y-115649186D01*
X153044000Y-115652793D01*
X153019441Y-115654000D01*
X151780559Y-115654000D01*
X151756000Y-115652793D01*
X151731677Y-115649186D01*
X151707826Y-115643211D01*
X151684674Y-115634927D01*
X151662446Y-115624414D01*
X151641356Y-115611773D01*
X151621606Y-115597126D01*
X151603387Y-115580613D01*
X151586874Y-115562394D01*
X151572227Y-115542644D01*
X151559586Y-115521554D01*
X151549073Y-115499326D01*
X151540789Y-115476174D01*
X151534814Y-115452323D01*
X151531207Y-115428000D01*
X151530000Y-115403441D01*
X151530000Y-113704559D01*
X151531207Y-113680000D01*
X151534814Y-113655677D01*
X151540789Y-113631826D01*
X151549073Y-113608674D01*
X151559586Y-113586446D01*
X151572227Y-113565356D01*
X151586874Y-113545606D01*
X151603387Y-113527387D01*
X151621606Y-113510874D01*
X151641356Y-113496227D01*
X151662446Y-113483586D01*
X151684674Y-113473073D01*
X151707826Y-113464789D01*
X151731677Y-113458814D01*
X151756000Y-113455207D01*
X151780559Y-113454000D01*
X153019441Y-113454000D01*
X153044000Y-113455207D01*
X153044000Y-113455207D01*
G37*
D17*
G04 #@! TO.P,J1,1*
G04 #@! TO.N,Net-(J1-Pad1)*
X152400000Y-114554000D03*
G04 #@! TD*
D16*
G04 #@! TO.N,+3V3*
G04 #@! TO.C,J2*
G36*
X170038000Y-109875207D02*
X170062323Y-109878814D01*
X170086174Y-109884789D01*
X170109326Y-109893073D01*
X170131554Y-109903586D01*
X170152644Y-109916227D01*
X170172394Y-109930874D01*
X170190613Y-109947387D01*
X170207126Y-109965606D01*
X170221773Y-109985356D01*
X170234414Y-110006446D01*
X170244927Y-110028674D01*
X170253211Y-110051826D01*
X170259186Y-110075677D01*
X170262793Y-110100000D01*
X170264000Y-110124559D01*
X170264000Y-111363441D01*
X170262793Y-111388000D01*
X170259186Y-111412323D01*
X170253211Y-111436174D01*
X170244927Y-111459326D01*
X170234414Y-111481554D01*
X170221773Y-111502644D01*
X170207126Y-111522394D01*
X170190613Y-111540613D01*
X170172394Y-111557126D01*
X170152644Y-111571773D01*
X170131554Y-111584414D01*
X170109326Y-111594927D01*
X170086174Y-111603211D01*
X170062323Y-111609186D01*
X170038000Y-111612793D01*
X170013441Y-111614000D01*
X168314559Y-111614000D01*
X168290000Y-111612793D01*
X168265677Y-111609186D01*
X168241826Y-111603211D01*
X168218674Y-111594927D01*
X168196446Y-111584414D01*
X168175356Y-111571773D01*
X168155606Y-111557126D01*
X168137387Y-111540613D01*
X168120874Y-111522394D01*
X168106227Y-111502644D01*
X168093586Y-111481554D01*
X168083073Y-111459326D01*
X168074789Y-111436174D01*
X168068814Y-111412323D01*
X168065207Y-111388000D01*
X168064000Y-111363441D01*
X168064000Y-110124559D01*
X168065207Y-110100000D01*
X168068814Y-110075677D01*
X168074789Y-110051826D01*
X168083073Y-110028674D01*
X168093586Y-110006446D01*
X168106227Y-109985356D01*
X168120874Y-109965606D01*
X168137387Y-109947387D01*
X168155606Y-109930874D01*
X168175356Y-109916227D01*
X168196446Y-109903586D01*
X168218674Y-109893073D01*
X168241826Y-109884789D01*
X168265677Y-109878814D01*
X168290000Y-109875207D01*
X168314559Y-109874000D01*
X170013441Y-109874000D01*
X170038000Y-109875207D01*
X170038000Y-109875207D01*
G37*
D17*
G04 #@! TD*
G04 #@! TO.P,J2,1*
G04 #@! TO.N,+3V3*
X169164000Y-110744000D03*
D10*
G04 #@! TO.P,J2,2*
G04 #@! TO.N,/SCL*
X169164000Y-108204000D03*
G04 #@! TO.P,J2,3*
G04 #@! TO.N,/SDA*
X169164000Y-105664000D03*
G04 #@! TO.P,J2,4*
G04 #@! TO.N,GND*
X169164000Y-103124000D03*
G04 #@! TD*
D16*
G04 #@! TO.N,Net-(J3-Pad1)*
G04 #@! TO.C,J3*
G36*
X156854000Y-79927207D02*
X156878323Y-79930814D01*
X156902174Y-79936789D01*
X156925326Y-79945073D01*
X156947554Y-79955586D01*
X156968644Y-79968227D01*
X156988394Y-79982874D01*
X157006613Y-79999387D01*
X157023126Y-80017606D01*
X157037773Y-80037356D01*
X157050414Y-80058446D01*
X157060927Y-80080674D01*
X157069211Y-80103826D01*
X157075186Y-80127677D01*
X157078793Y-80152000D01*
X157080000Y-80176559D01*
X157080000Y-81875441D01*
X157078793Y-81900000D01*
X157075186Y-81924323D01*
X157069211Y-81948174D01*
X157060927Y-81971326D01*
X157050414Y-81993554D01*
X157037773Y-82014644D01*
X157023126Y-82034394D01*
X157006613Y-82052613D01*
X156988394Y-82069126D01*
X156968644Y-82083773D01*
X156947554Y-82096414D01*
X156925326Y-82106927D01*
X156902174Y-82115211D01*
X156878323Y-82121186D01*
X156854000Y-82124793D01*
X156829441Y-82126000D01*
X155590559Y-82126000D01*
X155566000Y-82124793D01*
X155541677Y-82121186D01*
X155517826Y-82115211D01*
X155494674Y-82106927D01*
X155472446Y-82096414D01*
X155451356Y-82083773D01*
X155431606Y-82069126D01*
X155413387Y-82052613D01*
X155396874Y-82034394D01*
X155382227Y-82014644D01*
X155369586Y-81993554D01*
X155359073Y-81971326D01*
X155350789Y-81948174D01*
X155344814Y-81924323D01*
X155341207Y-81900000D01*
X155340000Y-81875441D01*
X155340000Y-80176559D01*
X155341207Y-80152000D01*
X155344814Y-80127677D01*
X155350789Y-80103826D01*
X155359073Y-80080674D01*
X155369586Y-80058446D01*
X155382227Y-80037356D01*
X155396874Y-80017606D01*
X155413387Y-79999387D01*
X155431606Y-79982874D01*
X155451356Y-79968227D01*
X155472446Y-79955586D01*
X155494674Y-79945073D01*
X155517826Y-79936789D01*
X155541677Y-79930814D01*
X155566000Y-79927207D01*
X155590559Y-79926000D01*
X156829441Y-79926000D01*
X156854000Y-79927207D01*
X156854000Y-79927207D01*
G37*
D17*
G04 #@! TD*
G04 #@! TO.P,J3,1*
G04 #@! TO.N,Net-(J3-Pad1)*
X156210000Y-81026000D03*
D15*
G04 #@! TO.P,J3,2*
G04 #@! TO.N,/UART5_TX*
X153670000Y-81026000D03*
G04 #@! TO.P,J3,3*
G04 #@! TO.N,/UART5_RX*
X151130000Y-81026000D03*
G04 #@! TO.P,J3,4*
G04 #@! TO.N,GND*
X148590000Y-81026000D03*
G04 #@! TD*
D10*
G04 #@! TO.P,J6,4*
G04 #@! TO.N,GND*
X169164000Y-85598000D03*
G04 #@! TO.P,J6,3*
G04 #@! TO.N,/UART1_RX*
X169164000Y-88138000D03*
G04 #@! TO.P,J6,2*
G04 #@! TO.N,/UART1_TX*
X169164000Y-90678000D03*
D16*
G04 #@! TD*
G04 #@! TO.N,Net-(J6-Pad1)*
G04 #@! TO.C,J6*
G36*
X170038000Y-92349207D02*
X170062323Y-92352814D01*
X170086174Y-92358789D01*
X170109326Y-92367073D01*
X170131554Y-92377586D01*
X170152644Y-92390227D01*
X170172394Y-92404874D01*
X170190613Y-92421387D01*
X170207126Y-92439606D01*
X170221773Y-92459356D01*
X170234414Y-92480446D01*
X170244927Y-92502674D01*
X170253211Y-92525826D01*
X170259186Y-92549677D01*
X170262793Y-92574000D01*
X170264000Y-92598559D01*
X170264000Y-93837441D01*
X170262793Y-93862000D01*
X170259186Y-93886323D01*
X170253211Y-93910174D01*
X170244927Y-93933326D01*
X170234414Y-93955554D01*
X170221773Y-93976644D01*
X170207126Y-93996394D01*
X170190613Y-94014613D01*
X170172394Y-94031126D01*
X170152644Y-94045773D01*
X170131554Y-94058414D01*
X170109326Y-94068927D01*
X170086174Y-94077211D01*
X170062323Y-94083186D01*
X170038000Y-94086793D01*
X170013441Y-94088000D01*
X168314559Y-94088000D01*
X168290000Y-94086793D01*
X168265677Y-94083186D01*
X168241826Y-94077211D01*
X168218674Y-94068927D01*
X168196446Y-94058414D01*
X168175356Y-94045773D01*
X168155606Y-94031126D01*
X168137387Y-94014613D01*
X168120874Y-93996394D01*
X168106227Y-93976644D01*
X168093586Y-93955554D01*
X168083073Y-93933326D01*
X168074789Y-93910174D01*
X168068814Y-93886323D01*
X168065207Y-93862000D01*
X168064000Y-93837441D01*
X168064000Y-92598559D01*
X168065207Y-92574000D01*
X168068814Y-92549677D01*
X168074789Y-92525826D01*
X168083073Y-92502674D01*
X168093586Y-92480446D01*
X168106227Y-92459356D01*
X168120874Y-92439606D01*
X168137387Y-92421387D01*
X168155606Y-92404874D01*
X168175356Y-92390227D01*
X168196446Y-92377586D01*
X168218674Y-92367073D01*
X168241826Y-92358789D01*
X168265677Y-92352814D01*
X168290000Y-92349207D01*
X168314559Y-92348000D01*
X170013441Y-92348000D01*
X170038000Y-92349207D01*
X170038000Y-92349207D01*
G37*
D17*
G04 #@! TO.P,J6,1*
G04 #@! TO.N,Net-(J6-Pad1)*
X169164000Y-93218000D03*
G04 #@! TD*
D18*
G04 #@! TO.P,SW5,1*
G04 #@! TO.N,+5V*
X171704000Y-98298000D03*
D15*
G04 #@! TO.P,SW5,2*
G04 #@! TO.N,Net-(J6-Pad1)*
X169164000Y-98298000D03*
G04 #@! TO.P,SW5,3*
G04 #@! TO.N,+3V3*
X166624000Y-98298000D03*
G04 #@! TD*
D16*
G04 #@! TO.N,+3V3*
G04 #@! TO.C,J5*
G36*
X133994000Y-113455207D02*
X134018323Y-113458814D01*
X134042174Y-113464789D01*
X134065326Y-113473073D01*
X134087554Y-113483586D01*
X134108644Y-113496227D01*
X134128394Y-113510874D01*
X134146613Y-113527387D01*
X134163126Y-113545606D01*
X134177773Y-113565356D01*
X134190414Y-113586446D01*
X134200927Y-113608674D01*
X134209211Y-113631826D01*
X134215186Y-113655677D01*
X134218793Y-113680000D01*
X134220000Y-113704559D01*
X134220000Y-115403441D01*
X134218793Y-115428000D01*
X134215186Y-115452323D01*
X134209211Y-115476174D01*
X134200927Y-115499326D01*
X134190414Y-115521554D01*
X134177773Y-115542644D01*
X134163126Y-115562394D01*
X134146613Y-115580613D01*
X134128394Y-115597126D01*
X134108644Y-115611773D01*
X134087554Y-115624414D01*
X134065326Y-115634927D01*
X134042174Y-115643211D01*
X134018323Y-115649186D01*
X133994000Y-115652793D01*
X133969441Y-115654000D01*
X132730559Y-115654000D01*
X132706000Y-115652793D01*
X132681677Y-115649186D01*
X132657826Y-115643211D01*
X132634674Y-115634927D01*
X132612446Y-115624414D01*
X132591356Y-115611773D01*
X132571606Y-115597126D01*
X132553387Y-115580613D01*
X132536874Y-115562394D01*
X132522227Y-115542644D01*
X132509586Y-115521554D01*
X132499073Y-115499326D01*
X132490789Y-115476174D01*
X132484814Y-115452323D01*
X132481207Y-115428000D01*
X132480000Y-115403441D01*
X132480000Y-113704559D01*
X132481207Y-113680000D01*
X132484814Y-113655677D01*
X132490789Y-113631826D01*
X132499073Y-113608674D01*
X132509586Y-113586446D01*
X132522227Y-113565356D01*
X132536874Y-113545606D01*
X132553387Y-113527387D01*
X132571606Y-113510874D01*
X132591356Y-113496227D01*
X132612446Y-113483586D01*
X132634674Y-113473073D01*
X132657826Y-113464789D01*
X132681677Y-113458814D01*
X132706000Y-113455207D01*
X132730559Y-113454000D01*
X133969441Y-113454000D01*
X133994000Y-113455207D01*
X133994000Y-113455207D01*
G37*
D17*
G04 #@! TD*
G04 #@! TO.P,J5,1*
G04 #@! TO.N,+3V3*
X133350000Y-114554000D03*
D15*
G04 #@! TO.P,J5,2*
G04 #@! TO.N,/UART2_TX*
X135890000Y-114554000D03*
G04 #@! TO.P,J5,3*
G04 #@! TO.N,/UART2_RX*
X138430000Y-114554000D03*
G04 #@! TO.P,J5,4*
G04 #@! TO.N,GND*
X140970000Y-114554000D03*
G04 #@! TD*
G04 #@! TO.P,J7,2*
G04 #@! TO.N,Net-(J7-Pad2)*
X140970000Y-81026000D03*
D16*
G04 #@! TD*
G04 #@! TO.N,Net-(J7-Pad1)*
G04 #@! TO.C,J7*
G36*
X144154000Y-79927207D02*
X144178323Y-79930814D01*
X144202174Y-79936789D01*
X144225326Y-79945073D01*
X144247554Y-79955586D01*
X144268644Y-79968227D01*
X144288394Y-79982874D01*
X144306613Y-79999387D01*
X144323126Y-80017606D01*
X144337773Y-80037356D01*
X144350414Y-80058446D01*
X144360927Y-80080674D01*
X144369211Y-80103826D01*
X144375186Y-80127677D01*
X144378793Y-80152000D01*
X144380000Y-80176559D01*
X144380000Y-81875441D01*
X144378793Y-81900000D01*
X144375186Y-81924323D01*
X144369211Y-81948174D01*
X144360927Y-81971326D01*
X144350414Y-81993554D01*
X144337773Y-82014644D01*
X144323126Y-82034394D01*
X144306613Y-82052613D01*
X144288394Y-82069126D01*
X144268644Y-82083773D01*
X144247554Y-82096414D01*
X144225326Y-82106927D01*
X144202174Y-82115211D01*
X144178323Y-82121186D01*
X144154000Y-82124793D01*
X144129441Y-82126000D01*
X142890559Y-82126000D01*
X142866000Y-82124793D01*
X142841677Y-82121186D01*
X142817826Y-82115211D01*
X142794674Y-82106927D01*
X142772446Y-82096414D01*
X142751356Y-82083773D01*
X142731606Y-82069126D01*
X142713387Y-82052613D01*
X142696874Y-82034394D01*
X142682227Y-82014644D01*
X142669586Y-81993554D01*
X142659073Y-81971326D01*
X142650789Y-81948174D01*
X142644814Y-81924323D01*
X142641207Y-81900000D01*
X142640000Y-81875441D01*
X142640000Y-80176559D01*
X142641207Y-80152000D01*
X142644814Y-80127677D01*
X142650789Y-80103826D01*
X142659073Y-80080674D01*
X142669586Y-80058446D01*
X142682227Y-80037356D01*
X142696874Y-80017606D01*
X142713387Y-79999387D01*
X142731606Y-79982874D01*
X142751356Y-79968227D01*
X142772446Y-79955586D01*
X142794674Y-79945073D01*
X142817826Y-79936789D01*
X142841677Y-79930814D01*
X142866000Y-79927207D01*
X142890559Y-79926000D01*
X144129441Y-79926000D01*
X144154000Y-79927207D01*
X144154000Y-79927207D01*
G37*
D17*
G04 #@! TO.P,J7,1*
G04 #@! TO.N,Net-(J7-Pad1)*
X143510000Y-81026000D03*
G04 #@! TD*
D16*
G04 #@! TO.N,Net-(J9-Pad1)*
G04 #@! TO.C,J9*
G36*
X136534000Y-79927207D02*
X136558323Y-79930814D01*
X136582174Y-79936789D01*
X136605326Y-79945073D01*
X136627554Y-79955586D01*
X136648644Y-79968227D01*
X136668394Y-79982874D01*
X136686613Y-79999387D01*
X136703126Y-80017606D01*
X136717773Y-80037356D01*
X136730414Y-80058446D01*
X136740927Y-80080674D01*
X136749211Y-80103826D01*
X136755186Y-80127677D01*
X136758793Y-80152000D01*
X136760000Y-80176559D01*
X136760000Y-81875441D01*
X136758793Y-81900000D01*
X136755186Y-81924323D01*
X136749211Y-81948174D01*
X136740927Y-81971326D01*
X136730414Y-81993554D01*
X136717773Y-82014644D01*
X136703126Y-82034394D01*
X136686613Y-82052613D01*
X136668394Y-82069126D01*
X136648644Y-82083773D01*
X136627554Y-82096414D01*
X136605326Y-82106927D01*
X136582174Y-82115211D01*
X136558323Y-82121186D01*
X136534000Y-82124793D01*
X136509441Y-82126000D01*
X135270559Y-82126000D01*
X135246000Y-82124793D01*
X135221677Y-82121186D01*
X135197826Y-82115211D01*
X135174674Y-82106927D01*
X135152446Y-82096414D01*
X135131356Y-82083773D01*
X135111606Y-82069126D01*
X135093387Y-82052613D01*
X135076874Y-82034394D01*
X135062227Y-82014644D01*
X135049586Y-81993554D01*
X135039073Y-81971326D01*
X135030789Y-81948174D01*
X135024814Y-81924323D01*
X135021207Y-81900000D01*
X135020000Y-81875441D01*
X135020000Y-80176559D01*
X135021207Y-80152000D01*
X135024814Y-80127677D01*
X135030789Y-80103826D01*
X135039073Y-80080674D01*
X135049586Y-80058446D01*
X135062227Y-80037356D01*
X135076874Y-80017606D01*
X135093387Y-79999387D01*
X135111606Y-79982874D01*
X135131356Y-79968227D01*
X135152446Y-79955586D01*
X135174674Y-79945073D01*
X135197826Y-79936789D01*
X135221677Y-79930814D01*
X135246000Y-79927207D01*
X135270559Y-79926000D01*
X136509441Y-79926000D01*
X136534000Y-79927207D01*
X136534000Y-79927207D01*
G37*
D17*
G04 #@! TD*
G04 #@! TO.P,J9,1*
G04 #@! TO.N,Net-(J9-Pad1)*
X135890000Y-81026000D03*
D15*
G04 #@! TO.P,J9,2*
G04 #@! TO.N,Net-(J9-Pad2)*
X133350000Y-81026000D03*
G04 #@! TD*
D19*
G04 #@! TO.N,GND*
X146050000Y-96139000D03*
X149225000Y-96139000D03*
X149225000Y-99314000D03*
X146050000Y-99314000D03*
X116586000Y-106680000D03*
X121412000Y-98552000D03*
X127000000Y-100330000D03*
G04 #@! TO.N,+5V*
X129286000Y-96774000D03*
X128143000Y-96774000D03*
G04 #@! TO.N,+3V3*
X128778000Y-85547200D03*
X127304800Y-85547200D03*
G04 #@! TO.N,/SCL*
X164211000Y-103505000D03*
G04 #@! TO.N,/~RST*
X137414000Y-94234000D03*
G04 #@! TO.N,/SDCLK*
X152908000Y-87884000D03*
G04 #@! TO.N,Net-(J8-Pad1)*
X140462000Y-106172000D03*
G04 #@! TD*
D20*
G04 #@! TO.N,+5V*
X162941000Y-78486000D02*
X164846000Y-80391000D01*
X161290000Y-78486000D02*
X162941000Y-78486000D01*
X164846000Y-80391000D02*
X164846000Y-92075000D01*
X168275000Y-95504000D02*
X170260000Y-95504000D01*
X171704000Y-96948000D02*
X171704000Y-98298000D01*
X164846000Y-92075000D02*
X168275000Y-95504000D01*
X170260000Y-95504000D02*
X171704000Y-96948000D01*
X129286000Y-96774000D02*
X128143000Y-96774000D01*
X129851685Y-96774000D02*
X129286000Y-96774000D01*
X138684000Y-96774000D02*
X129851685Y-96774000D01*
X144145000Y-115570000D02*
X144145000Y-102235000D01*
X144145000Y-102235000D02*
X138684000Y-96774000D01*
X147320000Y-117094000D02*
X145669000Y-117094000D01*
X145669000Y-117094000D02*
X144145000Y-115570000D01*
X171704000Y-111887000D02*
X171704000Y-98298000D01*
X170688000Y-112903000D02*
X171704000Y-111887000D01*
X168656000Y-112903000D02*
X170688000Y-112903000D01*
X147320000Y-117094000D02*
X164465000Y-117094000D01*
X164465000Y-117094000D02*
X168656000Y-112903000D01*
G04 #@! TO.N,+3V3*
X168402000Y-110744000D02*
X169164000Y-110744000D01*
X147320000Y-112014000D02*
X147320000Y-107569000D01*
X147320000Y-107569000D02*
X150876000Y-104013000D01*
X150876000Y-104013000D02*
X160909000Y-104013000D01*
X160909000Y-104013000D02*
X166624000Y-98298000D01*
X160909000Y-104013000D02*
X160909000Y-107696000D01*
X160909000Y-107696000D02*
X163957000Y-110744000D01*
X163957000Y-110744000D02*
X169164000Y-110744000D01*
X130302000Y-85547200D02*
X128778000Y-85547200D01*
X161290000Y-83566000D02*
X161290000Y-85496400D01*
X161239200Y-85547200D02*
X130302000Y-85547200D01*
X161290000Y-85496400D02*
X161239200Y-85547200D01*
X163068000Y-92456000D02*
X166624000Y-96012000D01*
X163068000Y-87325200D02*
X163068000Y-92456000D01*
X161290000Y-83566000D02*
X161290000Y-85547200D01*
X166624000Y-96012000D02*
X166624000Y-98298000D01*
X161290000Y-85547200D02*
X163068000Y-87325200D01*
X127304800Y-85547200D02*
X128778000Y-85547200D01*
G04 #@! TO.N,Net-(J1-Pad1)*
X148522081Y-114554000D02*
X152400000Y-114554000D01*
X147320000Y-114554000D02*
X148522081Y-114554000D01*
D21*
G04 #@! TO.N,/SCL*
X164211000Y-105283000D02*
X164211000Y-103505000D01*
X169164000Y-108204000D02*
X167132000Y-108204000D01*
X167132000Y-108204000D02*
X164211000Y-105283000D01*
D20*
G04 #@! TO.N,Net-(J3-Pad1)*
X161290000Y-81026000D02*
X156210000Y-81026000D01*
D21*
G04 #@! TO.N,/~RST*
X159004000Y-93472000D02*
X138176000Y-93472000D01*
X137813999Y-93834001D02*
X137414000Y-94234000D01*
X138176000Y-93472000D02*
X137813999Y-93834001D01*
G04 #@! TO.N,/SDCLK*
X160020000Y-87884000D02*
X153473685Y-87884000D01*
X153473685Y-87884000D02*
X152908000Y-87884000D01*
X161417000Y-94361000D02*
X161417000Y-89281000D01*
X159004000Y-96012000D02*
X159766000Y-96012000D01*
X161417000Y-89281000D02*
X160020000Y-87884000D01*
X159766000Y-96012000D02*
X161417000Y-94361000D01*
D20*
G04 #@! TO.N,+5.5V*
X109982000Y-101346000D02*
X109982000Y-103886000D01*
D21*
G04 #@! TO.N,Net-(J8-Pad1)*
X140062001Y-105772001D02*
X140462000Y-106172000D01*
X138176000Y-103886000D02*
X140062001Y-105772001D01*
X112522000Y-103886000D02*
X138176000Y-103886000D01*
G04 #@! TD*
D22*
G04 #@! TO.N,GND*
G36*
X176128001Y-121772000D02*
X103272000Y-121772000D01*
X103272000Y-116432219D01*
X104623000Y-116432219D01*
X104623000Y-117755781D01*
X105129505Y-118978594D01*
X106065406Y-119914495D01*
X107288219Y-120421000D01*
X108611781Y-120421000D01*
X109834594Y-119914495D01*
X110770495Y-118978594D01*
X111277000Y-117755781D01*
X111277000Y-116432219D01*
X110770495Y-115209406D01*
X109834594Y-114273505D01*
X108611781Y-113767000D01*
X107288219Y-113767000D01*
X106065406Y-114273505D01*
X105129505Y-115209406D01*
X104623000Y-116432219D01*
X103272000Y-116432219D01*
X103272000Y-113704559D01*
X132146594Y-113704559D01*
X132146594Y-115403441D01*
X132191046Y-115626915D01*
X132317633Y-115816367D01*
X132507085Y-115942954D01*
X132730559Y-115987406D01*
X133969441Y-115987406D01*
X134192915Y-115942954D01*
X134382367Y-115816367D01*
X134508954Y-115626915D01*
X134553406Y-115403441D01*
X134553406Y-114206110D01*
X134693000Y-114206110D01*
X134693000Y-114901891D01*
X134762451Y-115251046D01*
X135027013Y-115646988D01*
X135422955Y-115911549D01*
X135890000Y-116004450D01*
X136357046Y-115911549D01*
X136752988Y-115646988D01*
X137017549Y-115251045D01*
X137087000Y-114901890D01*
X137087000Y-114206110D01*
X137233000Y-114206110D01*
X137233000Y-114901891D01*
X137302451Y-115251046D01*
X137567013Y-115646988D01*
X137962955Y-115911549D01*
X138430000Y-116004450D01*
X138897046Y-115911549D01*
X139292988Y-115646988D01*
X139557549Y-115251045D01*
X139558825Y-115244630D01*
X139629266Y-115484802D01*
X139999509Y-115944533D01*
X140517500Y-116227584D01*
X140609969Y-116245302D01*
X140843000Y-116124246D01*
X140843000Y-114681000D01*
X141097000Y-114681000D01*
X141097000Y-116124246D01*
X141330031Y-116245302D01*
X141422500Y-116227584D01*
X141940491Y-115944533D01*
X142310734Y-115484802D01*
X142476862Y-114918380D01*
X142320582Y-114681000D01*
X141097000Y-114681000D01*
X140843000Y-114681000D01*
X140823000Y-114681000D01*
X140823000Y-114427000D01*
X140843000Y-114427000D01*
X140843000Y-112983754D01*
X141097000Y-112983754D01*
X141097000Y-114427000D01*
X142320582Y-114427000D01*
X142476862Y-114189620D01*
X142310734Y-113623198D01*
X141940491Y-113163467D01*
X141422500Y-112880416D01*
X141330031Y-112862698D01*
X141097000Y-112983754D01*
X140843000Y-112983754D01*
X140609969Y-112862698D01*
X140517500Y-112880416D01*
X139999509Y-113163467D01*
X139629266Y-113623198D01*
X139558825Y-113863370D01*
X139557549Y-113856954D01*
X139292988Y-113461012D01*
X138897045Y-113196451D01*
X138430000Y-113103550D01*
X137962954Y-113196451D01*
X137567012Y-113461012D01*
X137302451Y-113856955D01*
X137233000Y-114206110D01*
X137087000Y-114206110D01*
X137087000Y-114206109D01*
X137017549Y-113856954D01*
X136752988Y-113461012D01*
X136357045Y-113196451D01*
X135890000Y-113103550D01*
X135422954Y-113196451D01*
X135027012Y-113461012D01*
X134762451Y-113856955D01*
X134693000Y-114206110D01*
X134553406Y-114206110D01*
X134553406Y-113704559D01*
X134508954Y-113481085D01*
X134382367Y-113291633D01*
X134192915Y-113165046D01*
X133969441Y-113120594D01*
X132730559Y-113120594D01*
X132507085Y-113165046D01*
X132317633Y-113291633D01*
X132191046Y-113481085D01*
X132146594Y-113704559D01*
X103272000Y-113704559D01*
X103272000Y-99165026D01*
X108527042Y-99165026D01*
X108699312Y-99580947D01*
X109093510Y-100012821D01*
X109536876Y-100220616D01*
X109517451Y-100224480D01*
X109123625Y-100487625D01*
X108860480Y-100881451D01*
X108768075Y-101346000D01*
X108860480Y-101810549D01*
X109123625Y-102204375D01*
X109405000Y-102392383D01*
X109405001Y-102839617D01*
X109123625Y-103027625D01*
X108860480Y-103421451D01*
X108768075Y-103886000D01*
X108860480Y-104350549D01*
X109123625Y-104744375D01*
X109517451Y-105007520D01*
X109864738Y-105076600D01*
X110099262Y-105076600D01*
X110446549Y-105007520D01*
X110840375Y-104744375D01*
X111103520Y-104350549D01*
X111195925Y-103886000D01*
X111103520Y-103421451D01*
X110840375Y-103027625D01*
X110832556Y-103022400D01*
X111324994Y-103022400D01*
X111324994Y-104749600D01*
X111350373Y-104877189D01*
X111422646Y-104985354D01*
X111530811Y-105057627D01*
X111658400Y-105083006D01*
X113385600Y-105083006D01*
X113513189Y-105057627D01*
X113621354Y-104985354D01*
X113693627Y-104877189D01*
X113719006Y-104749600D01*
X113719006Y-104338000D01*
X137988776Y-104338000D01*
X139735000Y-106084225D01*
X139735000Y-106316609D01*
X139845679Y-106583813D01*
X140050187Y-106788321D01*
X140317391Y-106899000D01*
X140606609Y-106899000D01*
X140873813Y-106788321D01*
X141078321Y-106583813D01*
X141189000Y-106316609D01*
X141189000Y-106027391D01*
X141078321Y-105760187D01*
X140873813Y-105555679D01*
X140606609Y-105445000D01*
X140374225Y-105445000D01*
X138527093Y-103597869D01*
X138501874Y-103560126D01*
X138352362Y-103460225D01*
X138220518Y-103434000D01*
X138176000Y-103425145D01*
X138131482Y-103434000D01*
X113719006Y-103434000D01*
X113719006Y-103022400D01*
X113693627Y-102894811D01*
X113621354Y-102786646D01*
X113513189Y-102714373D01*
X113385600Y-102688994D01*
X111658400Y-102688994D01*
X111530811Y-102714373D01*
X111422646Y-102786646D01*
X111350373Y-102894811D01*
X111324994Y-103022400D01*
X110832556Y-103022400D01*
X110559000Y-102839617D01*
X110559000Y-102392383D01*
X110840375Y-102204375D01*
X111103520Y-101810549D01*
X111195925Y-101346000D01*
X111308075Y-101346000D01*
X111400480Y-101810549D01*
X111663625Y-102204375D01*
X112057451Y-102467520D01*
X112404738Y-102536600D01*
X112639262Y-102536600D01*
X112986549Y-102467520D01*
X113380375Y-102204375D01*
X113643520Y-101810549D01*
X113735925Y-101346000D01*
X113643520Y-100881451D01*
X113380375Y-100487625D01*
X112986549Y-100224480D01*
X112639262Y-100155400D01*
X112404738Y-100155400D01*
X112057451Y-100224480D01*
X111663625Y-100487625D01*
X111400480Y-100881451D01*
X111308075Y-101346000D01*
X111195925Y-101346000D01*
X111103520Y-100881451D01*
X110840375Y-100487625D01*
X110446549Y-100224480D01*
X110427124Y-100220616D01*
X110870490Y-100012821D01*
X111264688Y-99580947D01*
X111398135Y-99258759D01*
X111400480Y-99270549D01*
X111663625Y-99664375D01*
X112057451Y-99927520D01*
X112404738Y-99996600D01*
X112639262Y-99996600D01*
X112986549Y-99927520D01*
X113380375Y-99664375D01*
X113643520Y-99270549D01*
X113735925Y-98806000D01*
X113643520Y-98341451D01*
X113380375Y-97947625D01*
X112986549Y-97684480D01*
X112639262Y-97615400D01*
X112404738Y-97615400D01*
X112057451Y-97684480D01*
X111663625Y-97947625D01*
X111400480Y-98341451D01*
X111398135Y-98353241D01*
X111264688Y-98031053D01*
X110870490Y-97599179D01*
X110735687Y-97536000D01*
X110870490Y-97472821D01*
X111264688Y-97040947D01*
X111398135Y-96718759D01*
X111400480Y-96730549D01*
X111663625Y-97124375D01*
X112057451Y-97387520D01*
X112404738Y-97456600D01*
X112639262Y-97456600D01*
X112986549Y-97387520D01*
X113380375Y-97124375D01*
X113643520Y-96730549D01*
X113663641Y-96629391D01*
X127416000Y-96629391D01*
X127416000Y-96918609D01*
X127526679Y-97185813D01*
X127731187Y-97390321D01*
X127998391Y-97501000D01*
X128287609Y-97501000D01*
X128554813Y-97390321D01*
X128594134Y-97351000D01*
X128834866Y-97351000D01*
X128874187Y-97390321D01*
X129141391Y-97501000D01*
X129430609Y-97501000D01*
X129697813Y-97390321D01*
X129737134Y-97351000D01*
X138445000Y-97351000D01*
X143568001Y-102474002D01*
X143568000Y-115513172D01*
X143556696Y-115570000D01*
X143568000Y-115626828D01*
X143601478Y-115795133D01*
X143729006Y-115985994D01*
X143777188Y-116018188D01*
X145220814Y-117461815D01*
X145253006Y-117509994D01*
X145443866Y-117637522D01*
X145612171Y-117671000D01*
X145668999Y-117682304D01*
X145725827Y-117671000D01*
X146035920Y-117671000D01*
X146227012Y-117956988D01*
X146622954Y-118221549D01*
X146972109Y-118291000D01*
X147667891Y-118291000D01*
X148017046Y-118221549D01*
X148412988Y-117956988D01*
X148604080Y-117671000D01*
X164408172Y-117671000D01*
X164465000Y-117682304D01*
X164521828Y-117671000D01*
X164521829Y-117671000D01*
X164690134Y-117637522D01*
X164880994Y-117509994D01*
X164913188Y-117461812D01*
X165942781Y-116432219D01*
X168123000Y-116432219D01*
X168123000Y-117755781D01*
X168629505Y-118978594D01*
X169565406Y-119914495D01*
X170788219Y-120421000D01*
X172111781Y-120421000D01*
X173334594Y-119914495D01*
X174270495Y-118978594D01*
X174777000Y-117755781D01*
X174777000Y-116432219D01*
X174270495Y-115209406D01*
X173334594Y-114273505D01*
X172111781Y-113767000D01*
X170788219Y-113767000D01*
X169565406Y-114273505D01*
X168629505Y-115209406D01*
X168123000Y-116432219D01*
X165942781Y-116432219D01*
X168895001Y-113480000D01*
X170631172Y-113480000D01*
X170688000Y-113491304D01*
X170744828Y-113480000D01*
X170744829Y-113480000D01*
X170913134Y-113446522D01*
X171103994Y-113318994D01*
X171136188Y-113270812D01*
X172071815Y-112335186D01*
X172119994Y-112302994D01*
X172247522Y-112112134D01*
X172281000Y-111943829D01*
X172281000Y-111943828D01*
X172292304Y-111887000D01*
X172281000Y-111830172D01*
X172281000Y-99731406D01*
X172574000Y-99731406D01*
X172701589Y-99706027D01*
X172809754Y-99633754D01*
X172882027Y-99525589D01*
X172907406Y-99398000D01*
X172907406Y-97198000D01*
X172882027Y-97070411D01*
X172809754Y-96962246D01*
X172701589Y-96889973D01*
X172574000Y-96864594D01*
X172275713Y-96864594D01*
X172257693Y-96774000D01*
X172247522Y-96722866D01*
X172119994Y-96532006D01*
X172071815Y-96499814D01*
X170708188Y-95136188D01*
X170675994Y-95088006D01*
X170485134Y-94960478D01*
X170316829Y-94927000D01*
X170316828Y-94927000D01*
X170260000Y-94915696D01*
X170203172Y-94927000D01*
X168514001Y-94927000D01*
X166185560Y-92598559D01*
X167730594Y-92598559D01*
X167730594Y-93837441D01*
X167775046Y-94060915D01*
X167901633Y-94250367D01*
X168091085Y-94376954D01*
X168314559Y-94421406D01*
X170013441Y-94421406D01*
X170236915Y-94376954D01*
X170426367Y-94250367D01*
X170552954Y-94060915D01*
X170597406Y-93837441D01*
X170597406Y-92598559D01*
X170552954Y-92375085D01*
X170426367Y-92185633D01*
X170236915Y-92059046D01*
X170013441Y-92014594D01*
X168314559Y-92014594D01*
X168091085Y-92059046D01*
X167901633Y-92185633D01*
X167775046Y-92375085D01*
X167730594Y-92598559D01*
X166185560Y-92598559D01*
X165423000Y-91836000D01*
X165423000Y-90678000D01*
X167713550Y-90678000D01*
X167806451Y-91145046D01*
X168071012Y-91540988D01*
X168466954Y-91805549D01*
X168816109Y-91875000D01*
X169511891Y-91875000D01*
X169861046Y-91805549D01*
X170256988Y-91540988D01*
X170521549Y-91145046D01*
X170614450Y-90678000D01*
X170521549Y-90210954D01*
X170256988Y-89815012D01*
X169861046Y-89550451D01*
X169511891Y-89481000D01*
X168816109Y-89481000D01*
X168466954Y-89550451D01*
X168071012Y-89815012D01*
X167806451Y-90210954D01*
X167713550Y-90678000D01*
X165423000Y-90678000D01*
X165423000Y-85958031D01*
X167472698Y-85958031D01*
X167490416Y-86050500D01*
X167773467Y-86568491D01*
X168233198Y-86938734D01*
X168473370Y-87009175D01*
X168466954Y-87010451D01*
X168071012Y-87275012D01*
X167806451Y-87670954D01*
X167713550Y-88138000D01*
X167806451Y-88605046D01*
X168071012Y-89000988D01*
X168466954Y-89265549D01*
X168816109Y-89335000D01*
X169511891Y-89335000D01*
X169861046Y-89265549D01*
X170256988Y-89000988D01*
X170521549Y-88605046D01*
X170614450Y-88138000D01*
X170521549Y-87670954D01*
X170256988Y-87275012D01*
X169861046Y-87010451D01*
X169854630Y-87009175D01*
X170094802Y-86938734D01*
X170554533Y-86568491D01*
X170837584Y-86050500D01*
X170855302Y-85958031D01*
X170734246Y-85725000D01*
X169291000Y-85725000D01*
X169291000Y-85745000D01*
X169037000Y-85745000D01*
X169037000Y-85725000D01*
X167593754Y-85725000D01*
X167472698Y-85958031D01*
X165423000Y-85958031D01*
X165423000Y-85237969D01*
X167472698Y-85237969D01*
X167593754Y-85471000D01*
X169037000Y-85471000D01*
X169037000Y-84247418D01*
X169291000Y-84247418D01*
X169291000Y-85471000D01*
X170734246Y-85471000D01*
X170855302Y-85237969D01*
X170837584Y-85145500D01*
X170554533Y-84627509D01*
X170094802Y-84257266D01*
X169528380Y-84091138D01*
X169291000Y-84247418D01*
X169037000Y-84247418D01*
X168799620Y-84091138D01*
X168233198Y-84257266D01*
X167773467Y-84627509D01*
X167490416Y-85145500D01*
X167472698Y-85237969D01*
X165423000Y-85237969D01*
X165423000Y-80447828D01*
X165434304Y-80391000D01*
X165421962Y-80328954D01*
X165389522Y-80165866D01*
X165261994Y-79975006D01*
X165213815Y-79942814D01*
X163603220Y-78332219D01*
X168123000Y-78332219D01*
X168123000Y-79655781D01*
X168629505Y-80878594D01*
X169565406Y-81814495D01*
X170788219Y-82321000D01*
X172111781Y-82321000D01*
X173334594Y-81814495D01*
X174270495Y-80878594D01*
X174777000Y-79655781D01*
X174777000Y-78332219D01*
X174270495Y-77109406D01*
X173334594Y-76173505D01*
X172111781Y-75667000D01*
X170788219Y-75667000D01*
X169565406Y-76173505D01*
X168629505Y-77109406D01*
X168123000Y-78332219D01*
X163603220Y-78332219D01*
X163389188Y-78118188D01*
X163356994Y-78070006D01*
X163166134Y-77942478D01*
X162997829Y-77909000D01*
X162997828Y-77909000D01*
X162941000Y-77897696D01*
X162884172Y-77909000D01*
X162574080Y-77909000D01*
X162382988Y-77623012D01*
X161987046Y-77358451D01*
X161637891Y-77289000D01*
X160942109Y-77289000D01*
X160592954Y-77358451D01*
X160197012Y-77623012D01*
X159932451Y-78018954D01*
X159839550Y-78486000D01*
X159932451Y-78953046D01*
X160197012Y-79348988D01*
X160592954Y-79613549D01*
X160942109Y-79683000D01*
X161637891Y-79683000D01*
X161987046Y-79613549D01*
X162382988Y-79348988D01*
X162574080Y-79063000D01*
X162702000Y-79063000D01*
X164269000Y-80630001D01*
X164269001Y-92018167D01*
X164257696Y-92075000D01*
X164298126Y-92278250D01*
X164302479Y-92300134D01*
X164430007Y-92490994D01*
X164478186Y-92523186D01*
X167826814Y-95871815D01*
X167859006Y-95919994D01*
X168049866Y-96047522D01*
X168218171Y-96081000D01*
X168274999Y-96092304D01*
X168331827Y-96081000D01*
X170021000Y-96081000D01*
X170809472Y-96869473D01*
X170706411Y-96889973D01*
X170598246Y-96962246D01*
X170525973Y-97070411D01*
X170500594Y-97198000D01*
X170500594Y-99398000D01*
X170525973Y-99525589D01*
X170598246Y-99633754D01*
X170706411Y-99706027D01*
X170834000Y-99731406D01*
X171127001Y-99731406D01*
X171127000Y-111647999D01*
X170449000Y-112326000D01*
X168712827Y-112326000D01*
X168655999Y-112314696D01*
X168599171Y-112326000D01*
X168430866Y-112359478D01*
X168240006Y-112487006D01*
X168207815Y-112535184D01*
X164226000Y-116517000D01*
X148604080Y-116517000D01*
X148412988Y-116231012D01*
X148017046Y-115966451D01*
X147667891Y-115897000D01*
X146972109Y-115897000D01*
X146622954Y-115966451D01*
X146227012Y-116231012D01*
X146035920Y-116517000D01*
X145908001Y-116517000D01*
X144722000Y-115331000D01*
X144722000Y-114554000D01*
X145869550Y-114554000D01*
X145962451Y-115021046D01*
X146227012Y-115416988D01*
X146622954Y-115681549D01*
X146972109Y-115751000D01*
X147667891Y-115751000D01*
X148017046Y-115681549D01*
X148412988Y-115416988D01*
X148604080Y-115131000D01*
X151196594Y-115131000D01*
X151196594Y-115403441D01*
X151241046Y-115626915D01*
X151367633Y-115816367D01*
X151557085Y-115942954D01*
X151780559Y-115987406D01*
X153019441Y-115987406D01*
X153242915Y-115942954D01*
X153432367Y-115816367D01*
X153558954Y-115626915D01*
X153603406Y-115403441D01*
X153603406Y-114206110D01*
X153743000Y-114206110D01*
X153743000Y-114901891D01*
X153812451Y-115251046D01*
X154077013Y-115646988D01*
X154472955Y-115911549D01*
X154940000Y-116004450D01*
X155407046Y-115911549D01*
X155802988Y-115646988D01*
X156067549Y-115251045D01*
X156137000Y-114901890D01*
X156137000Y-114206110D01*
X156283000Y-114206110D01*
X156283000Y-114901891D01*
X156352451Y-115251046D01*
X156617013Y-115646988D01*
X157012955Y-115911549D01*
X157480000Y-116004450D01*
X157947046Y-115911549D01*
X158342988Y-115646988D01*
X158607549Y-115251045D01*
X158608825Y-115244630D01*
X158679266Y-115484802D01*
X159049509Y-115944533D01*
X159567500Y-116227584D01*
X159659969Y-116245302D01*
X159893000Y-116124246D01*
X159893000Y-114681000D01*
X160147000Y-114681000D01*
X160147000Y-116124246D01*
X160380031Y-116245302D01*
X160472500Y-116227584D01*
X160990491Y-115944533D01*
X161360734Y-115484802D01*
X161526862Y-114918380D01*
X161370582Y-114681000D01*
X160147000Y-114681000D01*
X159893000Y-114681000D01*
X159873000Y-114681000D01*
X159873000Y-114427000D01*
X159893000Y-114427000D01*
X159893000Y-112983754D01*
X160147000Y-112983754D01*
X160147000Y-114427000D01*
X161370582Y-114427000D01*
X161526862Y-114189620D01*
X161360734Y-113623198D01*
X160990491Y-113163467D01*
X160472500Y-112880416D01*
X160380031Y-112862698D01*
X160147000Y-112983754D01*
X159893000Y-112983754D01*
X159659969Y-112862698D01*
X159567500Y-112880416D01*
X159049509Y-113163467D01*
X158679266Y-113623198D01*
X158608825Y-113863370D01*
X158607549Y-113856954D01*
X158342988Y-113461012D01*
X157947045Y-113196451D01*
X157480000Y-113103550D01*
X157012954Y-113196451D01*
X156617012Y-113461012D01*
X156352451Y-113856955D01*
X156283000Y-114206110D01*
X156137000Y-114206110D01*
X156137000Y-114206109D01*
X156067549Y-113856954D01*
X155802988Y-113461012D01*
X155407045Y-113196451D01*
X154940000Y-113103550D01*
X154472954Y-113196451D01*
X154077012Y-113461012D01*
X153812451Y-113856955D01*
X153743000Y-114206110D01*
X153603406Y-114206110D01*
X153603406Y-113704559D01*
X153558954Y-113481085D01*
X153432367Y-113291633D01*
X153242915Y-113165046D01*
X153019441Y-113120594D01*
X151780559Y-113120594D01*
X151557085Y-113165046D01*
X151367633Y-113291633D01*
X151241046Y-113481085D01*
X151196594Y-113704559D01*
X151196594Y-113977000D01*
X148604080Y-113977000D01*
X148412988Y-113691012D01*
X148017046Y-113426451D01*
X147667891Y-113357000D01*
X146972109Y-113357000D01*
X146622954Y-113426451D01*
X146227012Y-113691012D01*
X145962451Y-114086954D01*
X145869550Y-114554000D01*
X144722000Y-114554000D01*
X144722000Y-102291827D01*
X144733304Y-102234999D01*
X144717094Y-102153509D01*
X144688522Y-102009866D01*
X144560994Y-101819006D01*
X144512815Y-101786814D01*
X141278001Y-98552000D01*
X157553550Y-98552000D01*
X157646451Y-99019046D01*
X157911012Y-99414988D01*
X158306954Y-99679549D01*
X158656109Y-99749000D01*
X159351891Y-99749000D01*
X159701046Y-99679549D01*
X160096988Y-99414988D01*
X160361549Y-99019046D01*
X160454450Y-98552000D01*
X160361549Y-98084954D01*
X160096988Y-97689012D01*
X159701046Y-97424451D01*
X159351891Y-97355000D01*
X158656109Y-97355000D01*
X158306954Y-97424451D01*
X157911012Y-97689012D01*
X157646451Y-98084954D01*
X157553550Y-98552000D01*
X141278001Y-98552000D01*
X139132188Y-96406188D01*
X139099994Y-96358006D01*
X138909134Y-96230478D01*
X138740829Y-96197000D01*
X138740828Y-96197000D01*
X138684000Y-96185696D01*
X138627172Y-96197000D01*
X129737134Y-96197000D01*
X129697813Y-96157679D01*
X129430609Y-96047000D01*
X129141391Y-96047000D01*
X128874187Y-96157679D01*
X128834866Y-96197000D01*
X128594134Y-96197000D01*
X128554813Y-96157679D01*
X128287609Y-96047000D01*
X127998391Y-96047000D01*
X127731187Y-96157679D01*
X127526679Y-96362187D01*
X127416000Y-96629391D01*
X113663641Y-96629391D01*
X113735925Y-96266000D01*
X113643520Y-95801451D01*
X113380375Y-95407625D01*
X112986549Y-95144480D01*
X112639262Y-95075400D01*
X112404738Y-95075400D01*
X112057451Y-95144480D01*
X111663625Y-95407625D01*
X111400480Y-95801451D01*
X111398135Y-95813241D01*
X111264688Y-95491053D01*
X110870490Y-95059179D01*
X110735687Y-94996000D01*
X110870490Y-94932821D01*
X111264688Y-94500947D01*
X111398135Y-94178759D01*
X111400480Y-94190549D01*
X111663625Y-94584375D01*
X112057451Y-94847520D01*
X112404738Y-94916600D01*
X112639262Y-94916600D01*
X112986549Y-94847520D01*
X113380375Y-94584375D01*
X113643520Y-94190549D01*
X113663641Y-94089391D01*
X136687000Y-94089391D01*
X136687000Y-94378609D01*
X136797679Y-94645813D01*
X137002187Y-94850321D01*
X137269391Y-94961000D01*
X137558609Y-94961000D01*
X137825813Y-94850321D01*
X138030321Y-94645813D01*
X138141000Y-94378609D01*
X138141000Y-94146225D01*
X138165090Y-94122135D01*
X138165092Y-94122132D01*
X138363225Y-93924000D01*
X157643458Y-93924000D01*
X157646451Y-93939046D01*
X157911012Y-94334988D01*
X158306954Y-94599549D01*
X158656109Y-94669000D01*
X159351891Y-94669000D01*
X159701046Y-94599549D01*
X160096988Y-94334988D01*
X160361549Y-93939046D01*
X160454450Y-93472000D01*
X160361549Y-93004954D01*
X160096988Y-92609012D01*
X159839555Y-92437000D01*
X160230309Y-92437000D01*
X160463698Y-92340327D01*
X160642327Y-92161699D01*
X160739000Y-91928310D01*
X160739000Y-91217750D01*
X160580250Y-91059000D01*
X159131000Y-91059000D01*
X159131000Y-91079000D01*
X158877000Y-91079000D01*
X158877000Y-91059000D01*
X157427750Y-91059000D01*
X157269000Y-91217750D01*
X157269000Y-91928310D01*
X157365673Y-92161699D01*
X157544302Y-92340327D01*
X157777691Y-92437000D01*
X158168445Y-92437000D01*
X157911012Y-92609012D01*
X157646451Y-93004954D01*
X157643458Y-93020000D01*
X138220518Y-93020000D01*
X138176000Y-93011145D01*
X138131482Y-93020000D01*
X137999638Y-93046225D01*
X137850126Y-93146126D01*
X137824908Y-93183867D01*
X137525868Y-93482908D01*
X137525865Y-93482910D01*
X137501775Y-93507000D01*
X137269391Y-93507000D01*
X137002187Y-93617679D01*
X136797679Y-93822187D01*
X136687000Y-94089391D01*
X113663641Y-94089391D01*
X113735925Y-93726000D01*
X113643520Y-93261451D01*
X113380375Y-92867625D01*
X112986549Y-92604480D01*
X112639262Y-92535400D01*
X112404738Y-92535400D01*
X112057451Y-92604480D01*
X111663625Y-92867625D01*
X111400480Y-93261451D01*
X111398135Y-93273241D01*
X111264688Y-92951053D01*
X110870490Y-92519179D01*
X110341027Y-92271032D01*
X110109000Y-92391531D01*
X110109000Y-93599000D01*
X110129000Y-93599000D01*
X110129000Y-93853000D01*
X110109000Y-93853000D01*
X110109000Y-96139000D01*
X110129000Y-96139000D01*
X110129000Y-96393000D01*
X110109000Y-96393000D01*
X110109000Y-98679000D01*
X110129000Y-98679000D01*
X110129000Y-98933000D01*
X110109000Y-98933000D01*
X110109000Y-98953000D01*
X109855000Y-98953000D01*
X109855000Y-98933000D01*
X108648183Y-98933000D01*
X108527042Y-99165026D01*
X103272000Y-99165026D01*
X103272000Y-96625026D01*
X108527042Y-96625026D01*
X108699312Y-97040947D01*
X109093510Y-97472821D01*
X109228313Y-97536000D01*
X109093510Y-97599179D01*
X108699312Y-98031053D01*
X108527042Y-98446974D01*
X108648183Y-98679000D01*
X109855000Y-98679000D01*
X109855000Y-96393000D01*
X108648183Y-96393000D01*
X108527042Y-96625026D01*
X103272000Y-96625026D01*
X103272000Y-94085026D01*
X108527042Y-94085026D01*
X108699312Y-94500947D01*
X109093510Y-94932821D01*
X109228313Y-94996000D01*
X109093510Y-95059179D01*
X108699312Y-95491053D01*
X108527042Y-95906974D01*
X108648183Y-96139000D01*
X109855000Y-96139000D01*
X109855000Y-93853000D01*
X108648183Y-93853000D01*
X108527042Y-94085026D01*
X103272000Y-94085026D01*
X103272000Y-93366974D01*
X108527042Y-93366974D01*
X108648183Y-93599000D01*
X109855000Y-93599000D01*
X109855000Y-92391531D01*
X109622973Y-92271032D01*
X109093510Y-92519179D01*
X108699312Y-92951053D01*
X108527042Y-93366974D01*
X103272000Y-93366974D01*
X103272000Y-89935690D01*
X157269000Y-89935690D01*
X157269000Y-90646250D01*
X157427750Y-90805000D01*
X158877000Y-90805000D01*
X158877000Y-89585750D01*
X159131000Y-89585750D01*
X159131000Y-90805000D01*
X160580250Y-90805000D01*
X160739000Y-90646250D01*
X160739000Y-89935690D01*
X160642327Y-89702301D01*
X160463698Y-89523673D01*
X160230309Y-89427000D01*
X159289750Y-89427000D01*
X159131000Y-89585750D01*
X158877000Y-89585750D01*
X158718250Y-89427000D01*
X157777691Y-89427000D01*
X157544302Y-89523673D01*
X157365673Y-89702301D01*
X157269000Y-89935690D01*
X103272000Y-89935690D01*
X103272000Y-87739391D01*
X152181000Y-87739391D01*
X152181000Y-88028609D01*
X152291679Y-88295813D01*
X152496187Y-88500321D01*
X152763391Y-88611000D01*
X153052609Y-88611000D01*
X153319813Y-88500321D01*
X153484134Y-88336000D01*
X159832776Y-88336000D01*
X160965001Y-89468225D01*
X160965000Y-94173776D01*
X160032712Y-95106064D01*
X159701046Y-94884451D01*
X159351891Y-94815000D01*
X158656109Y-94815000D01*
X158306954Y-94884451D01*
X157911012Y-95149012D01*
X157646451Y-95544954D01*
X157553550Y-96012000D01*
X157646451Y-96479046D01*
X157911012Y-96874988D01*
X158306954Y-97139549D01*
X158656109Y-97209000D01*
X159351891Y-97209000D01*
X159701046Y-97139549D01*
X160096988Y-96874988D01*
X160361549Y-96479046D01*
X160454450Y-96012000D01*
X160446283Y-95970941D01*
X161705131Y-94712093D01*
X161742874Y-94686874D01*
X161842775Y-94537362D01*
X161869000Y-94405518D01*
X161869000Y-94405517D01*
X161877855Y-94361000D01*
X161869000Y-94316482D01*
X161869000Y-89325516D01*
X161877855Y-89280999D01*
X161869000Y-89236482D01*
X161842775Y-89104638D01*
X161742874Y-88955126D01*
X161705131Y-88929907D01*
X160371093Y-87595869D01*
X160345874Y-87558126D01*
X160196362Y-87458225D01*
X160064518Y-87432000D01*
X160020000Y-87423145D01*
X159975482Y-87432000D01*
X153484134Y-87432000D01*
X153319813Y-87267679D01*
X153052609Y-87157000D01*
X152763391Y-87157000D01*
X152496187Y-87267679D01*
X152291679Y-87472187D01*
X152181000Y-87739391D01*
X103272000Y-87739391D01*
X103272000Y-85402591D01*
X126577800Y-85402591D01*
X126577800Y-85691809D01*
X126688479Y-85959013D01*
X126892987Y-86163521D01*
X127160191Y-86274200D01*
X127449409Y-86274200D01*
X127716613Y-86163521D01*
X127755934Y-86124200D01*
X128326866Y-86124200D01*
X128366187Y-86163521D01*
X128633391Y-86274200D01*
X128922609Y-86274200D01*
X129189813Y-86163521D01*
X129229134Y-86124200D01*
X161051000Y-86124200D01*
X162491000Y-87564201D01*
X162491001Y-92399167D01*
X162479696Y-92456000D01*
X162520932Y-92663304D01*
X162524479Y-92681134D01*
X162652007Y-92871994D01*
X162700186Y-92904186D01*
X166047000Y-96251001D01*
X166047000Y-97013921D01*
X165761013Y-97205012D01*
X165496451Y-97600954D01*
X165427000Y-97950109D01*
X165427000Y-98645890D01*
X165432493Y-98673505D01*
X160670000Y-103436000D01*
X150932827Y-103436000D01*
X150875999Y-103424696D01*
X150819171Y-103436000D01*
X150650866Y-103469478D01*
X150460006Y-103597006D01*
X150427815Y-103645184D01*
X146952186Y-107120814D01*
X146904007Y-107153006D01*
X146819148Y-107280007D01*
X146776479Y-107343866D01*
X146731696Y-107569000D01*
X146743001Y-107625833D01*
X146743000Y-110810594D01*
X146220000Y-110810594D01*
X146092411Y-110835973D01*
X145984246Y-110908246D01*
X145911973Y-111016411D01*
X145886594Y-111144000D01*
X145886594Y-112884000D01*
X145911973Y-113011589D01*
X145984246Y-113119754D01*
X146092411Y-113192027D01*
X146220000Y-113217406D01*
X148420000Y-113217406D01*
X148547589Y-113192027D01*
X148655754Y-113119754D01*
X148728027Y-113011589D01*
X148753406Y-112884000D01*
X148753406Y-111144000D01*
X148728027Y-111016411D01*
X148655754Y-110908246D01*
X148547589Y-110835973D01*
X148420000Y-110810594D01*
X147897000Y-110810594D01*
X147897000Y-107808000D01*
X151115001Y-104590000D01*
X160332000Y-104590000D01*
X160332001Y-107639167D01*
X160320696Y-107696000D01*
X160340217Y-107794134D01*
X160365479Y-107921134D01*
X160493007Y-108111994D01*
X160541186Y-108144186D01*
X163508814Y-111111815D01*
X163541006Y-111159994D01*
X163731866Y-111287522D01*
X163900171Y-111321000D01*
X163900172Y-111321000D01*
X163957000Y-111332304D01*
X164013828Y-111321000D01*
X167730594Y-111321000D01*
X167730594Y-111363441D01*
X167775046Y-111586915D01*
X167901633Y-111776367D01*
X168091085Y-111902954D01*
X168314559Y-111947406D01*
X170013441Y-111947406D01*
X170236915Y-111902954D01*
X170426367Y-111776367D01*
X170552954Y-111586915D01*
X170597406Y-111363441D01*
X170597406Y-110124559D01*
X170552954Y-109901085D01*
X170426367Y-109711633D01*
X170236915Y-109585046D01*
X170013441Y-109540594D01*
X168314559Y-109540594D01*
X168091085Y-109585046D01*
X167901633Y-109711633D01*
X167775046Y-109901085D01*
X167730594Y-110124559D01*
X167730594Y-110167000D01*
X164196001Y-110167000D01*
X161486000Y-107457000D01*
X161486000Y-104252000D01*
X162377609Y-103360391D01*
X163484000Y-103360391D01*
X163484000Y-103649609D01*
X163594679Y-103916813D01*
X163759001Y-104081135D01*
X163759000Y-105238482D01*
X163750145Y-105283000D01*
X163759000Y-105327517D01*
X163785225Y-105459361D01*
X163885126Y-105608874D01*
X163922869Y-105634093D01*
X166780909Y-108492134D01*
X166806126Y-108529874D01*
X166843866Y-108555091D01*
X166955638Y-108629775D01*
X167132000Y-108664855D01*
X167176518Y-108656000D01*
X167803458Y-108656000D01*
X167806451Y-108671046D01*
X168071012Y-109066988D01*
X168466954Y-109331549D01*
X168816109Y-109401000D01*
X169511891Y-109401000D01*
X169861046Y-109331549D01*
X170256988Y-109066988D01*
X170521549Y-108671046D01*
X170614450Y-108204000D01*
X170521549Y-107736954D01*
X170256988Y-107341012D01*
X169861046Y-107076451D01*
X169511891Y-107007000D01*
X168816109Y-107007000D01*
X168466954Y-107076451D01*
X168071012Y-107341012D01*
X167806451Y-107736954D01*
X167803458Y-107752000D01*
X167319225Y-107752000D01*
X164663000Y-105095776D01*
X164663000Y-104081134D01*
X164827321Y-103916813D01*
X164938000Y-103649609D01*
X164938000Y-103484031D01*
X167472698Y-103484031D01*
X167490416Y-103576500D01*
X167773467Y-104094491D01*
X168233198Y-104464734D01*
X168473370Y-104535175D01*
X168466954Y-104536451D01*
X168071012Y-104801012D01*
X167806451Y-105196954D01*
X167713550Y-105664000D01*
X167806451Y-106131046D01*
X168071012Y-106526988D01*
X168466954Y-106791549D01*
X168816109Y-106861000D01*
X169511891Y-106861000D01*
X169861046Y-106791549D01*
X170256988Y-106526988D01*
X170521549Y-106131046D01*
X170614450Y-105664000D01*
X170521549Y-105196954D01*
X170256988Y-104801012D01*
X169861046Y-104536451D01*
X169854630Y-104535175D01*
X170094802Y-104464734D01*
X170554533Y-104094491D01*
X170837584Y-103576500D01*
X170855302Y-103484031D01*
X170734246Y-103251000D01*
X169291000Y-103251000D01*
X169291000Y-103271000D01*
X169037000Y-103271000D01*
X169037000Y-103251000D01*
X167593754Y-103251000D01*
X167472698Y-103484031D01*
X164938000Y-103484031D01*
X164938000Y-103360391D01*
X164827321Y-103093187D01*
X164622813Y-102888679D01*
X164355609Y-102778000D01*
X164066391Y-102778000D01*
X163799187Y-102888679D01*
X163594679Y-103093187D01*
X163484000Y-103360391D01*
X162377609Y-103360391D01*
X162974031Y-102763969D01*
X167472698Y-102763969D01*
X167593754Y-102997000D01*
X169037000Y-102997000D01*
X169037000Y-101773418D01*
X169291000Y-101773418D01*
X169291000Y-102997000D01*
X170734246Y-102997000D01*
X170855302Y-102763969D01*
X170837584Y-102671500D01*
X170554533Y-102153509D01*
X170094802Y-101783266D01*
X169528380Y-101617138D01*
X169291000Y-101773418D01*
X169037000Y-101773418D01*
X168799620Y-101617138D01*
X168233198Y-101783266D01*
X167773467Y-102153509D01*
X167490416Y-102671500D01*
X167472698Y-102763969D01*
X162974031Y-102763969D01*
X166112294Y-99625708D01*
X166156954Y-99655549D01*
X166624000Y-99748450D01*
X167091045Y-99655549D01*
X167486988Y-99390988D01*
X167751549Y-98995046D01*
X167821000Y-98645891D01*
X167821000Y-97950110D01*
X167821000Y-97950109D01*
X167967000Y-97950109D01*
X167967000Y-98645890D01*
X168036451Y-98995045D01*
X168301012Y-99390988D01*
X168696954Y-99655549D01*
X169164000Y-99748450D01*
X169631045Y-99655549D01*
X170026988Y-99390988D01*
X170291549Y-98995046D01*
X170361000Y-98645891D01*
X170361000Y-97950110D01*
X170291549Y-97600955D01*
X170026988Y-97205012D01*
X169631046Y-96940451D01*
X169164000Y-96847550D01*
X168696955Y-96940451D01*
X168301013Y-97205012D01*
X168036451Y-97600954D01*
X167967000Y-97950109D01*
X167821000Y-97950109D01*
X167751549Y-97600955D01*
X167486988Y-97205012D01*
X167201000Y-97013920D01*
X167201000Y-96068827D01*
X167212304Y-96011999D01*
X167194003Y-95919994D01*
X167167522Y-95786866D01*
X167039994Y-95596006D01*
X166991815Y-95563814D01*
X163645000Y-92217000D01*
X163645000Y-87382029D01*
X163656304Y-87325200D01*
X163611522Y-87100065D01*
X163551643Y-87010451D01*
X163483994Y-86909206D01*
X163435815Y-86877014D01*
X161867000Y-85308200D01*
X161867000Y-84769406D01*
X162390000Y-84769406D01*
X162517589Y-84744027D01*
X162625754Y-84671754D01*
X162698027Y-84563589D01*
X162723406Y-84436000D01*
X162723406Y-82696000D01*
X162698027Y-82568411D01*
X162625754Y-82460246D01*
X162517589Y-82387973D01*
X162390000Y-82362594D01*
X160190000Y-82362594D01*
X160062411Y-82387973D01*
X159954246Y-82460246D01*
X159881973Y-82568411D01*
X159856594Y-82696000D01*
X159856594Y-84436000D01*
X159881973Y-84563589D01*
X159954246Y-84671754D01*
X160062411Y-84744027D01*
X160190000Y-84769406D01*
X160713001Y-84769406D01*
X160713001Y-84970200D01*
X129229134Y-84970200D01*
X129189813Y-84930879D01*
X128922609Y-84820200D01*
X128633391Y-84820200D01*
X128366187Y-84930879D01*
X128326866Y-84970200D01*
X127755934Y-84970200D01*
X127716613Y-84930879D01*
X127449409Y-84820200D01*
X127160191Y-84820200D01*
X126892987Y-84930879D01*
X126688479Y-85135387D01*
X126577800Y-85402591D01*
X103272000Y-85402591D01*
X103272000Y-78332219D01*
X104623000Y-78332219D01*
X104623000Y-79655781D01*
X105129505Y-80878594D01*
X106065406Y-81814495D01*
X107288219Y-82321000D01*
X108611781Y-82321000D01*
X109834594Y-81814495D01*
X110770495Y-80878594D01*
X110853538Y-80678109D01*
X132153000Y-80678109D01*
X132153000Y-81373890D01*
X132222451Y-81723045D01*
X132487012Y-82118988D01*
X132882954Y-82383549D01*
X133350000Y-82476450D01*
X133817045Y-82383549D01*
X134212988Y-82118988D01*
X134477549Y-81723046D01*
X134547000Y-81373891D01*
X134547000Y-80678110D01*
X134477549Y-80328955D01*
X134375722Y-80176559D01*
X134686594Y-80176559D01*
X134686594Y-81875441D01*
X134731046Y-82098915D01*
X134857633Y-82288367D01*
X135047085Y-82414954D01*
X135270559Y-82459406D01*
X136509441Y-82459406D01*
X136732915Y-82414954D01*
X136922367Y-82288367D01*
X137048954Y-82098915D01*
X137093406Y-81875441D01*
X137093406Y-80678109D01*
X139773000Y-80678109D01*
X139773000Y-81373890D01*
X139842451Y-81723045D01*
X140107012Y-82118988D01*
X140502954Y-82383549D01*
X140970000Y-82476450D01*
X141437045Y-82383549D01*
X141832988Y-82118988D01*
X142097549Y-81723046D01*
X142167000Y-81373891D01*
X142167000Y-80678110D01*
X142097549Y-80328955D01*
X141995722Y-80176559D01*
X142306594Y-80176559D01*
X142306594Y-81875441D01*
X142351046Y-82098915D01*
X142477633Y-82288367D01*
X142667085Y-82414954D01*
X142890559Y-82459406D01*
X144129441Y-82459406D01*
X144352915Y-82414954D01*
X144542367Y-82288367D01*
X144668954Y-82098915D01*
X144713406Y-81875441D01*
X144713406Y-81390380D01*
X147083138Y-81390380D01*
X147249266Y-81956802D01*
X147619509Y-82416533D01*
X148137500Y-82699584D01*
X148229969Y-82717302D01*
X148463000Y-82596246D01*
X148463000Y-81153000D01*
X147239418Y-81153000D01*
X147083138Y-81390380D01*
X144713406Y-81390380D01*
X144713406Y-80661620D01*
X147083138Y-80661620D01*
X147239418Y-80899000D01*
X148463000Y-80899000D01*
X148463000Y-79455754D01*
X148717000Y-79455754D01*
X148717000Y-80899000D01*
X148737000Y-80899000D01*
X148737000Y-81153000D01*
X148717000Y-81153000D01*
X148717000Y-82596246D01*
X148950031Y-82717302D01*
X149042500Y-82699584D01*
X149560491Y-82416533D01*
X149930734Y-81956802D01*
X150001175Y-81716630D01*
X150002451Y-81723045D01*
X150267012Y-82118988D01*
X150662954Y-82383549D01*
X151130000Y-82476450D01*
X151597045Y-82383549D01*
X151992988Y-82118988D01*
X152257549Y-81723046D01*
X152327000Y-81373891D01*
X152327000Y-80678110D01*
X152327000Y-80678109D01*
X152473000Y-80678109D01*
X152473000Y-81373890D01*
X152542451Y-81723045D01*
X152807012Y-82118988D01*
X153202954Y-82383549D01*
X153670000Y-82476450D01*
X154137045Y-82383549D01*
X154532988Y-82118988D01*
X154797549Y-81723046D01*
X154867000Y-81373891D01*
X154867000Y-80678110D01*
X154797549Y-80328955D01*
X154695722Y-80176559D01*
X155006594Y-80176559D01*
X155006594Y-81875441D01*
X155051046Y-82098915D01*
X155177633Y-82288367D01*
X155367085Y-82414954D01*
X155590559Y-82459406D01*
X156829441Y-82459406D01*
X157052915Y-82414954D01*
X157242367Y-82288367D01*
X157368954Y-82098915D01*
X157413406Y-81875441D01*
X157413406Y-81603000D01*
X160005920Y-81603000D01*
X160197012Y-81888988D01*
X160592954Y-82153549D01*
X160942109Y-82223000D01*
X161637891Y-82223000D01*
X161987046Y-82153549D01*
X162382988Y-81888988D01*
X162647549Y-81493046D01*
X162740450Y-81026000D01*
X162647549Y-80558954D01*
X162382988Y-80163012D01*
X161987046Y-79898451D01*
X161637891Y-79829000D01*
X160942109Y-79829000D01*
X160592954Y-79898451D01*
X160197012Y-80163012D01*
X160005920Y-80449000D01*
X157413406Y-80449000D01*
X157413406Y-80176559D01*
X157368954Y-79953085D01*
X157242367Y-79763633D01*
X157052915Y-79637046D01*
X156829441Y-79592594D01*
X155590559Y-79592594D01*
X155367085Y-79637046D01*
X155177633Y-79763633D01*
X155051046Y-79953085D01*
X155006594Y-80176559D01*
X154695722Y-80176559D01*
X154532988Y-79933012D01*
X154137046Y-79668451D01*
X153670000Y-79575550D01*
X153202955Y-79668451D01*
X152807013Y-79933012D01*
X152542451Y-80328954D01*
X152473000Y-80678109D01*
X152327000Y-80678109D01*
X152257549Y-80328955D01*
X151992988Y-79933012D01*
X151597046Y-79668451D01*
X151130000Y-79575550D01*
X150662955Y-79668451D01*
X150267013Y-79933012D01*
X150002451Y-80328954D01*
X150001175Y-80335370D01*
X149930734Y-80095198D01*
X149560491Y-79635467D01*
X149042500Y-79352416D01*
X148950031Y-79334698D01*
X148717000Y-79455754D01*
X148463000Y-79455754D01*
X148229969Y-79334698D01*
X148137500Y-79352416D01*
X147619509Y-79635467D01*
X147249266Y-80095198D01*
X147083138Y-80661620D01*
X144713406Y-80661620D01*
X144713406Y-80176559D01*
X144668954Y-79953085D01*
X144542367Y-79763633D01*
X144352915Y-79637046D01*
X144129441Y-79592594D01*
X142890559Y-79592594D01*
X142667085Y-79637046D01*
X142477633Y-79763633D01*
X142351046Y-79953085D01*
X142306594Y-80176559D01*
X141995722Y-80176559D01*
X141832988Y-79933012D01*
X141437046Y-79668451D01*
X140970000Y-79575550D01*
X140502955Y-79668451D01*
X140107013Y-79933012D01*
X139842451Y-80328954D01*
X139773000Y-80678109D01*
X137093406Y-80678109D01*
X137093406Y-80176559D01*
X137048954Y-79953085D01*
X136922367Y-79763633D01*
X136732915Y-79637046D01*
X136509441Y-79592594D01*
X135270559Y-79592594D01*
X135047085Y-79637046D01*
X134857633Y-79763633D01*
X134731046Y-79953085D01*
X134686594Y-80176559D01*
X134375722Y-80176559D01*
X134212988Y-79933012D01*
X133817046Y-79668451D01*
X133350000Y-79575550D01*
X132882955Y-79668451D01*
X132487013Y-79933012D01*
X132222451Y-80328954D01*
X132153000Y-80678109D01*
X110853538Y-80678109D01*
X111277000Y-79655781D01*
X111277000Y-78332219D01*
X110770495Y-77109406D01*
X109834594Y-76173505D01*
X108611781Y-75667000D01*
X107288219Y-75667000D01*
X106065406Y-76173505D01*
X105129505Y-77109406D01*
X104623000Y-78332219D01*
X103272000Y-78332219D01*
X103272000Y-74316000D01*
X176128000Y-74316000D01*
X176128001Y-121772000D01*
X176128001Y-121772000D01*
G37*
X176128001Y-121772000D02*
X103272000Y-121772000D01*
X103272000Y-116432219D01*
X104623000Y-116432219D01*
X104623000Y-117755781D01*
X105129505Y-118978594D01*
X106065406Y-119914495D01*
X107288219Y-120421000D01*
X108611781Y-120421000D01*
X109834594Y-119914495D01*
X110770495Y-118978594D01*
X111277000Y-117755781D01*
X111277000Y-116432219D01*
X110770495Y-115209406D01*
X109834594Y-114273505D01*
X108611781Y-113767000D01*
X107288219Y-113767000D01*
X106065406Y-114273505D01*
X105129505Y-115209406D01*
X104623000Y-116432219D01*
X103272000Y-116432219D01*
X103272000Y-113704559D01*
X132146594Y-113704559D01*
X132146594Y-115403441D01*
X132191046Y-115626915D01*
X132317633Y-115816367D01*
X132507085Y-115942954D01*
X132730559Y-115987406D01*
X133969441Y-115987406D01*
X134192915Y-115942954D01*
X134382367Y-115816367D01*
X134508954Y-115626915D01*
X134553406Y-115403441D01*
X134553406Y-114206110D01*
X134693000Y-114206110D01*
X134693000Y-114901891D01*
X134762451Y-115251046D01*
X135027013Y-115646988D01*
X135422955Y-115911549D01*
X135890000Y-116004450D01*
X136357046Y-115911549D01*
X136752988Y-115646988D01*
X137017549Y-115251045D01*
X137087000Y-114901890D01*
X137087000Y-114206110D01*
X137233000Y-114206110D01*
X137233000Y-114901891D01*
X137302451Y-115251046D01*
X137567013Y-115646988D01*
X137962955Y-115911549D01*
X138430000Y-116004450D01*
X138897046Y-115911549D01*
X139292988Y-115646988D01*
X139557549Y-115251045D01*
X139558825Y-115244630D01*
X139629266Y-115484802D01*
X139999509Y-115944533D01*
X140517500Y-116227584D01*
X140609969Y-116245302D01*
X140843000Y-116124246D01*
X140843000Y-114681000D01*
X141097000Y-114681000D01*
X141097000Y-116124246D01*
X141330031Y-116245302D01*
X141422500Y-116227584D01*
X141940491Y-115944533D01*
X142310734Y-115484802D01*
X142476862Y-114918380D01*
X142320582Y-114681000D01*
X141097000Y-114681000D01*
X140843000Y-114681000D01*
X140823000Y-114681000D01*
X140823000Y-114427000D01*
X140843000Y-114427000D01*
X140843000Y-112983754D01*
X141097000Y-112983754D01*
X141097000Y-114427000D01*
X142320582Y-114427000D01*
X142476862Y-114189620D01*
X142310734Y-113623198D01*
X141940491Y-113163467D01*
X141422500Y-112880416D01*
X141330031Y-112862698D01*
X141097000Y-112983754D01*
X140843000Y-112983754D01*
X140609969Y-112862698D01*
X140517500Y-112880416D01*
X139999509Y-113163467D01*
X139629266Y-113623198D01*
X139558825Y-113863370D01*
X139557549Y-113856954D01*
X139292988Y-113461012D01*
X138897045Y-113196451D01*
X138430000Y-113103550D01*
X137962954Y-113196451D01*
X137567012Y-113461012D01*
X137302451Y-113856955D01*
X137233000Y-114206110D01*
X137087000Y-114206110D01*
X137087000Y-114206109D01*
X137017549Y-113856954D01*
X136752988Y-113461012D01*
X136357045Y-113196451D01*
X135890000Y-113103550D01*
X135422954Y-113196451D01*
X135027012Y-113461012D01*
X134762451Y-113856955D01*
X134693000Y-114206110D01*
X134553406Y-114206110D01*
X134553406Y-113704559D01*
X134508954Y-113481085D01*
X134382367Y-113291633D01*
X134192915Y-113165046D01*
X133969441Y-113120594D01*
X132730559Y-113120594D01*
X132507085Y-113165046D01*
X132317633Y-113291633D01*
X132191046Y-113481085D01*
X132146594Y-113704559D01*
X103272000Y-113704559D01*
X103272000Y-99165026D01*
X108527042Y-99165026D01*
X108699312Y-99580947D01*
X109093510Y-100012821D01*
X109536876Y-100220616D01*
X109517451Y-100224480D01*
X109123625Y-100487625D01*
X108860480Y-100881451D01*
X108768075Y-101346000D01*
X108860480Y-101810549D01*
X109123625Y-102204375D01*
X109405000Y-102392383D01*
X109405001Y-102839617D01*
X109123625Y-103027625D01*
X108860480Y-103421451D01*
X108768075Y-103886000D01*
X108860480Y-104350549D01*
X109123625Y-104744375D01*
X109517451Y-105007520D01*
X109864738Y-105076600D01*
X110099262Y-105076600D01*
X110446549Y-105007520D01*
X110840375Y-104744375D01*
X111103520Y-104350549D01*
X111195925Y-103886000D01*
X111103520Y-103421451D01*
X110840375Y-103027625D01*
X110832556Y-103022400D01*
X111324994Y-103022400D01*
X111324994Y-104749600D01*
X111350373Y-104877189D01*
X111422646Y-104985354D01*
X111530811Y-105057627D01*
X111658400Y-105083006D01*
X113385600Y-105083006D01*
X113513189Y-105057627D01*
X113621354Y-104985354D01*
X113693627Y-104877189D01*
X113719006Y-104749600D01*
X113719006Y-104338000D01*
X137988776Y-104338000D01*
X139735000Y-106084225D01*
X139735000Y-106316609D01*
X139845679Y-106583813D01*
X140050187Y-106788321D01*
X140317391Y-106899000D01*
X140606609Y-106899000D01*
X140873813Y-106788321D01*
X141078321Y-106583813D01*
X141189000Y-106316609D01*
X141189000Y-106027391D01*
X141078321Y-105760187D01*
X140873813Y-105555679D01*
X140606609Y-105445000D01*
X140374225Y-105445000D01*
X138527093Y-103597869D01*
X138501874Y-103560126D01*
X138352362Y-103460225D01*
X138220518Y-103434000D01*
X138176000Y-103425145D01*
X138131482Y-103434000D01*
X113719006Y-103434000D01*
X113719006Y-103022400D01*
X113693627Y-102894811D01*
X113621354Y-102786646D01*
X113513189Y-102714373D01*
X113385600Y-102688994D01*
X111658400Y-102688994D01*
X111530811Y-102714373D01*
X111422646Y-102786646D01*
X111350373Y-102894811D01*
X111324994Y-103022400D01*
X110832556Y-103022400D01*
X110559000Y-102839617D01*
X110559000Y-102392383D01*
X110840375Y-102204375D01*
X111103520Y-101810549D01*
X111195925Y-101346000D01*
X111308075Y-101346000D01*
X111400480Y-101810549D01*
X111663625Y-102204375D01*
X112057451Y-102467520D01*
X112404738Y-102536600D01*
X112639262Y-102536600D01*
X112986549Y-102467520D01*
X113380375Y-102204375D01*
X113643520Y-101810549D01*
X113735925Y-101346000D01*
X113643520Y-100881451D01*
X113380375Y-100487625D01*
X112986549Y-100224480D01*
X112639262Y-100155400D01*
X112404738Y-100155400D01*
X112057451Y-100224480D01*
X111663625Y-100487625D01*
X111400480Y-100881451D01*
X111308075Y-101346000D01*
X111195925Y-101346000D01*
X111103520Y-100881451D01*
X110840375Y-100487625D01*
X110446549Y-100224480D01*
X110427124Y-100220616D01*
X110870490Y-100012821D01*
X111264688Y-99580947D01*
X111398135Y-99258759D01*
X111400480Y-99270549D01*
X111663625Y-99664375D01*
X112057451Y-99927520D01*
X112404738Y-99996600D01*
X112639262Y-99996600D01*
X112986549Y-99927520D01*
X113380375Y-99664375D01*
X113643520Y-99270549D01*
X113735925Y-98806000D01*
X113643520Y-98341451D01*
X113380375Y-97947625D01*
X112986549Y-97684480D01*
X112639262Y-97615400D01*
X112404738Y-97615400D01*
X112057451Y-97684480D01*
X111663625Y-97947625D01*
X111400480Y-98341451D01*
X111398135Y-98353241D01*
X111264688Y-98031053D01*
X110870490Y-97599179D01*
X110735687Y-97536000D01*
X110870490Y-97472821D01*
X111264688Y-97040947D01*
X111398135Y-96718759D01*
X111400480Y-96730549D01*
X111663625Y-97124375D01*
X112057451Y-97387520D01*
X112404738Y-97456600D01*
X112639262Y-97456600D01*
X112986549Y-97387520D01*
X113380375Y-97124375D01*
X113643520Y-96730549D01*
X113663641Y-96629391D01*
X127416000Y-96629391D01*
X127416000Y-96918609D01*
X127526679Y-97185813D01*
X127731187Y-97390321D01*
X127998391Y-97501000D01*
X128287609Y-97501000D01*
X128554813Y-97390321D01*
X128594134Y-97351000D01*
X128834866Y-97351000D01*
X128874187Y-97390321D01*
X129141391Y-97501000D01*
X129430609Y-97501000D01*
X129697813Y-97390321D01*
X129737134Y-97351000D01*
X138445000Y-97351000D01*
X143568001Y-102474002D01*
X143568000Y-115513172D01*
X143556696Y-115570000D01*
X143568000Y-115626828D01*
X143601478Y-115795133D01*
X143729006Y-115985994D01*
X143777188Y-116018188D01*
X145220814Y-117461815D01*
X145253006Y-117509994D01*
X145443866Y-117637522D01*
X145612171Y-117671000D01*
X145668999Y-117682304D01*
X145725827Y-117671000D01*
X146035920Y-117671000D01*
X146227012Y-117956988D01*
X146622954Y-118221549D01*
X146972109Y-118291000D01*
X147667891Y-118291000D01*
X148017046Y-118221549D01*
X148412988Y-117956988D01*
X148604080Y-117671000D01*
X164408172Y-117671000D01*
X164465000Y-117682304D01*
X164521828Y-117671000D01*
X164521829Y-117671000D01*
X164690134Y-117637522D01*
X164880994Y-117509994D01*
X164913188Y-117461812D01*
X165942781Y-116432219D01*
X168123000Y-116432219D01*
X168123000Y-117755781D01*
X168629505Y-118978594D01*
X169565406Y-119914495D01*
X170788219Y-120421000D01*
X172111781Y-120421000D01*
X173334594Y-119914495D01*
X174270495Y-118978594D01*
X174777000Y-117755781D01*
X174777000Y-116432219D01*
X174270495Y-115209406D01*
X173334594Y-114273505D01*
X172111781Y-113767000D01*
X170788219Y-113767000D01*
X169565406Y-114273505D01*
X168629505Y-115209406D01*
X168123000Y-116432219D01*
X165942781Y-116432219D01*
X168895001Y-113480000D01*
X170631172Y-113480000D01*
X170688000Y-113491304D01*
X170744828Y-113480000D01*
X170744829Y-113480000D01*
X170913134Y-113446522D01*
X171103994Y-113318994D01*
X171136188Y-113270812D01*
X172071815Y-112335186D01*
X172119994Y-112302994D01*
X172247522Y-112112134D01*
X172281000Y-111943829D01*
X172281000Y-111943828D01*
X172292304Y-111887000D01*
X172281000Y-111830172D01*
X172281000Y-99731406D01*
X172574000Y-99731406D01*
X172701589Y-99706027D01*
X172809754Y-99633754D01*
X172882027Y-99525589D01*
X172907406Y-99398000D01*
X172907406Y-97198000D01*
X172882027Y-97070411D01*
X172809754Y-96962246D01*
X172701589Y-96889973D01*
X172574000Y-96864594D01*
X172275713Y-96864594D01*
X172257693Y-96774000D01*
X172247522Y-96722866D01*
X172119994Y-96532006D01*
X172071815Y-96499814D01*
X170708188Y-95136188D01*
X170675994Y-95088006D01*
X170485134Y-94960478D01*
X170316829Y-94927000D01*
X170316828Y-94927000D01*
X170260000Y-94915696D01*
X170203172Y-94927000D01*
X168514001Y-94927000D01*
X166185560Y-92598559D01*
X167730594Y-92598559D01*
X167730594Y-93837441D01*
X167775046Y-94060915D01*
X167901633Y-94250367D01*
X168091085Y-94376954D01*
X168314559Y-94421406D01*
X170013441Y-94421406D01*
X170236915Y-94376954D01*
X170426367Y-94250367D01*
X170552954Y-94060915D01*
X170597406Y-93837441D01*
X170597406Y-92598559D01*
X170552954Y-92375085D01*
X170426367Y-92185633D01*
X170236915Y-92059046D01*
X170013441Y-92014594D01*
X168314559Y-92014594D01*
X168091085Y-92059046D01*
X167901633Y-92185633D01*
X167775046Y-92375085D01*
X167730594Y-92598559D01*
X166185560Y-92598559D01*
X165423000Y-91836000D01*
X165423000Y-90678000D01*
X167713550Y-90678000D01*
X167806451Y-91145046D01*
X168071012Y-91540988D01*
X168466954Y-91805549D01*
X168816109Y-91875000D01*
X169511891Y-91875000D01*
X169861046Y-91805549D01*
X170256988Y-91540988D01*
X170521549Y-91145046D01*
X170614450Y-90678000D01*
X170521549Y-90210954D01*
X170256988Y-89815012D01*
X169861046Y-89550451D01*
X169511891Y-89481000D01*
X168816109Y-89481000D01*
X168466954Y-89550451D01*
X168071012Y-89815012D01*
X167806451Y-90210954D01*
X167713550Y-90678000D01*
X165423000Y-90678000D01*
X165423000Y-85958031D01*
X167472698Y-85958031D01*
X167490416Y-86050500D01*
X167773467Y-86568491D01*
X168233198Y-86938734D01*
X168473370Y-87009175D01*
X168466954Y-87010451D01*
X168071012Y-87275012D01*
X167806451Y-87670954D01*
X167713550Y-88138000D01*
X167806451Y-88605046D01*
X168071012Y-89000988D01*
X168466954Y-89265549D01*
X168816109Y-89335000D01*
X169511891Y-89335000D01*
X169861046Y-89265549D01*
X170256988Y-89000988D01*
X170521549Y-88605046D01*
X170614450Y-88138000D01*
X170521549Y-87670954D01*
X170256988Y-87275012D01*
X169861046Y-87010451D01*
X169854630Y-87009175D01*
X170094802Y-86938734D01*
X170554533Y-86568491D01*
X170837584Y-86050500D01*
X170855302Y-85958031D01*
X170734246Y-85725000D01*
X169291000Y-85725000D01*
X169291000Y-85745000D01*
X169037000Y-85745000D01*
X169037000Y-85725000D01*
X167593754Y-85725000D01*
X167472698Y-85958031D01*
X165423000Y-85958031D01*
X165423000Y-85237969D01*
X167472698Y-85237969D01*
X167593754Y-85471000D01*
X169037000Y-85471000D01*
X169037000Y-84247418D01*
X169291000Y-84247418D01*
X169291000Y-85471000D01*
X170734246Y-85471000D01*
X170855302Y-85237969D01*
X170837584Y-85145500D01*
X170554533Y-84627509D01*
X170094802Y-84257266D01*
X169528380Y-84091138D01*
X169291000Y-84247418D01*
X169037000Y-84247418D01*
X168799620Y-84091138D01*
X168233198Y-84257266D01*
X167773467Y-84627509D01*
X167490416Y-85145500D01*
X167472698Y-85237969D01*
X165423000Y-85237969D01*
X165423000Y-80447828D01*
X165434304Y-80391000D01*
X165421962Y-80328954D01*
X165389522Y-80165866D01*
X165261994Y-79975006D01*
X165213815Y-79942814D01*
X163603220Y-78332219D01*
X168123000Y-78332219D01*
X168123000Y-79655781D01*
X168629505Y-80878594D01*
X169565406Y-81814495D01*
X170788219Y-82321000D01*
X172111781Y-82321000D01*
X173334594Y-81814495D01*
X174270495Y-80878594D01*
X174777000Y-79655781D01*
X174777000Y-78332219D01*
X174270495Y-77109406D01*
X173334594Y-76173505D01*
X172111781Y-75667000D01*
X170788219Y-75667000D01*
X169565406Y-76173505D01*
X168629505Y-77109406D01*
X168123000Y-78332219D01*
X163603220Y-78332219D01*
X163389188Y-78118188D01*
X163356994Y-78070006D01*
X163166134Y-77942478D01*
X162997829Y-77909000D01*
X162997828Y-77909000D01*
X162941000Y-77897696D01*
X162884172Y-77909000D01*
X162574080Y-77909000D01*
X162382988Y-77623012D01*
X161987046Y-77358451D01*
X161637891Y-77289000D01*
X160942109Y-77289000D01*
X160592954Y-77358451D01*
X160197012Y-77623012D01*
X159932451Y-78018954D01*
X159839550Y-78486000D01*
X159932451Y-78953046D01*
X160197012Y-79348988D01*
X160592954Y-79613549D01*
X160942109Y-79683000D01*
X161637891Y-79683000D01*
X161987046Y-79613549D01*
X162382988Y-79348988D01*
X162574080Y-79063000D01*
X162702000Y-79063000D01*
X164269000Y-80630001D01*
X164269001Y-92018167D01*
X164257696Y-92075000D01*
X164298126Y-92278250D01*
X164302479Y-92300134D01*
X164430007Y-92490994D01*
X164478186Y-92523186D01*
X167826814Y-95871815D01*
X167859006Y-95919994D01*
X168049866Y-96047522D01*
X168218171Y-96081000D01*
X168274999Y-96092304D01*
X168331827Y-96081000D01*
X170021000Y-96081000D01*
X170809472Y-96869473D01*
X170706411Y-96889973D01*
X170598246Y-96962246D01*
X170525973Y-97070411D01*
X170500594Y-97198000D01*
X170500594Y-99398000D01*
X170525973Y-99525589D01*
X170598246Y-99633754D01*
X170706411Y-99706027D01*
X170834000Y-99731406D01*
X171127001Y-99731406D01*
X171127000Y-111647999D01*
X170449000Y-112326000D01*
X168712827Y-112326000D01*
X168655999Y-112314696D01*
X168599171Y-112326000D01*
X168430866Y-112359478D01*
X168240006Y-112487006D01*
X168207815Y-112535184D01*
X164226000Y-116517000D01*
X148604080Y-116517000D01*
X148412988Y-116231012D01*
X148017046Y-115966451D01*
X147667891Y-115897000D01*
X146972109Y-115897000D01*
X146622954Y-115966451D01*
X146227012Y-116231012D01*
X146035920Y-116517000D01*
X145908001Y-116517000D01*
X144722000Y-115331000D01*
X144722000Y-114554000D01*
X145869550Y-114554000D01*
X145962451Y-115021046D01*
X146227012Y-115416988D01*
X146622954Y-115681549D01*
X146972109Y-115751000D01*
X147667891Y-115751000D01*
X148017046Y-115681549D01*
X148412988Y-115416988D01*
X148604080Y-115131000D01*
X151196594Y-115131000D01*
X151196594Y-115403441D01*
X151241046Y-115626915D01*
X151367633Y-115816367D01*
X151557085Y-115942954D01*
X151780559Y-115987406D01*
X153019441Y-115987406D01*
X153242915Y-115942954D01*
X153432367Y-115816367D01*
X153558954Y-115626915D01*
X153603406Y-115403441D01*
X153603406Y-114206110D01*
X153743000Y-114206110D01*
X153743000Y-114901891D01*
X153812451Y-115251046D01*
X154077013Y-115646988D01*
X154472955Y-115911549D01*
X154940000Y-116004450D01*
X155407046Y-115911549D01*
X155802988Y-115646988D01*
X156067549Y-115251045D01*
X156137000Y-114901890D01*
X156137000Y-114206110D01*
X156283000Y-114206110D01*
X156283000Y-114901891D01*
X156352451Y-115251046D01*
X156617013Y-115646988D01*
X157012955Y-115911549D01*
X157480000Y-116004450D01*
X157947046Y-115911549D01*
X158342988Y-115646988D01*
X158607549Y-115251045D01*
X158608825Y-115244630D01*
X158679266Y-115484802D01*
X159049509Y-115944533D01*
X159567500Y-116227584D01*
X159659969Y-116245302D01*
X159893000Y-116124246D01*
X159893000Y-114681000D01*
X160147000Y-114681000D01*
X160147000Y-116124246D01*
X160380031Y-116245302D01*
X160472500Y-116227584D01*
X160990491Y-115944533D01*
X161360734Y-115484802D01*
X161526862Y-114918380D01*
X161370582Y-114681000D01*
X160147000Y-114681000D01*
X159893000Y-114681000D01*
X159873000Y-114681000D01*
X159873000Y-114427000D01*
X159893000Y-114427000D01*
X159893000Y-112983754D01*
X160147000Y-112983754D01*
X160147000Y-114427000D01*
X161370582Y-114427000D01*
X161526862Y-114189620D01*
X161360734Y-113623198D01*
X160990491Y-113163467D01*
X160472500Y-112880416D01*
X160380031Y-112862698D01*
X160147000Y-112983754D01*
X159893000Y-112983754D01*
X159659969Y-112862698D01*
X159567500Y-112880416D01*
X159049509Y-113163467D01*
X158679266Y-113623198D01*
X158608825Y-113863370D01*
X158607549Y-113856954D01*
X158342988Y-113461012D01*
X157947045Y-113196451D01*
X157480000Y-113103550D01*
X157012954Y-113196451D01*
X156617012Y-113461012D01*
X156352451Y-113856955D01*
X156283000Y-114206110D01*
X156137000Y-114206110D01*
X156137000Y-114206109D01*
X156067549Y-113856954D01*
X155802988Y-113461012D01*
X155407045Y-113196451D01*
X154940000Y-113103550D01*
X154472954Y-113196451D01*
X154077012Y-113461012D01*
X153812451Y-113856955D01*
X153743000Y-114206110D01*
X153603406Y-114206110D01*
X153603406Y-113704559D01*
X153558954Y-113481085D01*
X153432367Y-113291633D01*
X153242915Y-113165046D01*
X153019441Y-113120594D01*
X151780559Y-113120594D01*
X151557085Y-113165046D01*
X151367633Y-113291633D01*
X151241046Y-113481085D01*
X151196594Y-113704559D01*
X151196594Y-113977000D01*
X148604080Y-113977000D01*
X148412988Y-113691012D01*
X148017046Y-113426451D01*
X147667891Y-113357000D01*
X146972109Y-113357000D01*
X146622954Y-113426451D01*
X146227012Y-113691012D01*
X145962451Y-114086954D01*
X145869550Y-114554000D01*
X144722000Y-114554000D01*
X144722000Y-102291827D01*
X144733304Y-102234999D01*
X144717094Y-102153509D01*
X144688522Y-102009866D01*
X144560994Y-101819006D01*
X144512815Y-101786814D01*
X141278001Y-98552000D01*
X157553550Y-98552000D01*
X157646451Y-99019046D01*
X157911012Y-99414988D01*
X158306954Y-99679549D01*
X158656109Y-99749000D01*
X159351891Y-99749000D01*
X159701046Y-99679549D01*
X160096988Y-99414988D01*
X160361549Y-99019046D01*
X160454450Y-98552000D01*
X160361549Y-98084954D01*
X160096988Y-97689012D01*
X159701046Y-97424451D01*
X159351891Y-97355000D01*
X158656109Y-97355000D01*
X158306954Y-97424451D01*
X157911012Y-97689012D01*
X157646451Y-98084954D01*
X157553550Y-98552000D01*
X141278001Y-98552000D01*
X139132188Y-96406188D01*
X139099994Y-96358006D01*
X138909134Y-96230478D01*
X138740829Y-96197000D01*
X138740828Y-96197000D01*
X138684000Y-96185696D01*
X138627172Y-96197000D01*
X129737134Y-96197000D01*
X129697813Y-96157679D01*
X129430609Y-96047000D01*
X129141391Y-96047000D01*
X128874187Y-96157679D01*
X128834866Y-96197000D01*
X128594134Y-96197000D01*
X128554813Y-96157679D01*
X128287609Y-96047000D01*
X127998391Y-96047000D01*
X127731187Y-96157679D01*
X127526679Y-96362187D01*
X127416000Y-96629391D01*
X113663641Y-96629391D01*
X113735925Y-96266000D01*
X113643520Y-95801451D01*
X113380375Y-95407625D01*
X112986549Y-95144480D01*
X112639262Y-95075400D01*
X112404738Y-95075400D01*
X112057451Y-95144480D01*
X111663625Y-95407625D01*
X111400480Y-95801451D01*
X111398135Y-95813241D01*
X111264688Y-95491053D01*
X110870490Y-95059179D01*
X110735687Y-94996000D01*
X110870490Y-94932821D01*
X111264688Y-94500947D01*
X111398135Y-94178759D01*
X111400480Y-94190549D01*
X111663625Y-94584375D01*
X112057451Y-94847520D01*
X112404738Y-94916600D01*
X112639262Y-94916600D01*
X112986549Y-94847520D01*
X113380375Y-94584375D01*
X113643520Y-94190549D01*
X113663641Y-94089391D01*
X136687000Y-94089391D01*
X136687000Y-94378609D01*
X136797679Y-94645813D01*
X137002187Y-94850321D01*
X137269391Y-94961000D01*
X137558609Y-94961000D01*
X137825813Y-94850321D01*
X138030321Y-94645813D01*
X138141000Y-94378609D01*
X138141000Y-94146225D01*
X138165090Y-94122135D01*
X138165092Y-94122132D01*
X138363225Y-93924000D01*
X157643458Y-93924000D01*
X157646451Y-93939046D01*
X157911012Y-94334988D01*
X158306954Y-94599549D01*
X158656109Y-94669000D01*
X159351891Y-94669000D01*
X159701046Y-94599549D01*
X160096988Y-94334988D01*
X160361549Y-93939046D01*
X160454450Y-93472000D01*
X160361549Y-93004954D01*
X160096988Y-92609012D01*
X159839555Y-92437000D01*
X160230309Y-92437000D01*
X160463698Y-92340327D01*
X160642327Y-92161699D01*
X160739000Y-91928310D01*
X160739000Y-91217750D01*
X160580250Y-91059000D01*
X159131000Y-91059000D01*
X159131000Y-91079000D01*
X158877000Y-91079000D01*
X158877000Y-91059000D01*
X157427750Y-91059000D01*
X157269000Y-91217750D01*
X157269000Y-91928310D01*
X157365673Y-92161699D01*
X157544302Y-92340327D01*
X157777691Y-92437000D01*
X158168445Y-92437000D01*
X157911012Y-92609012D01*
X157646451Y-93004954D01*
X157643458Y-93020000D01*
X138220518Y-93020000D01*
X138176000Y-93011145D01*
X138131482Y-93020000D01*
X137999638Y-93046225D01*
X137850126Y-93146126D01*
X137824908Y-93183867D01*
X137525868Y-93482908D01*
X137525865Y-93482910D01*
X137501775Y-93507000D01*
X137269391Y-93507000D01*
X137002187Y-93617679D01*
X136797679Y-93822187D01*
X136687000Y-94089391D01*
X113663641Y-94089391D01*
X113735925Y-93726000D01*
X113643520Y-93261451D01*
X113380375Y-92867625D01*
X112986549Y-92604480D01*
X112639262Y-92535400D01*
X112404738Y-92535400D01*
X112057451Y-92604480D01*
X111663625Y-92867625D01*
X111400480Y-93261451D01*
X111398135Y-93273241D01*
X111264688Y-92951053D01*
X110870490Y-92519179D01*
X110341027Y-92271032D01*
X110109000Y-92391531D01*
X110109000Y-93599000D01*
X110129000Y-93599000D01*
X110129000Y-93853000D01*
X110109000Y-93853000D01*
X110109000Y-96139000D01*
X110129000Y-96139000D01*
X110129000Y-96393000D01*
X110109000Y-96393000D01*
X110109000Y-98679000D01*
X110129000Y-98679000D01*
X110129000Y-98933000D01*
X110109000Y-98933000D01*
X110109000Y-98953000D01*
X109855000Y-98953000D01*
X109855000Y-98933000D01*
X108648183Y-98933000D01*
X108527042Y-99165026D01*
X103272000Y-99165026D01*
X103272000Y-96625026D01*
X108527042Y-96625026D01*
X108699312Y-97040947D01*
X109093510Y-97472821D01*
X109228313Y-97536000D01*
X109093510Y-97599179D01*
X108699312Y-98031053D01*
X108527042Y-98446974D01*
X108648183Y-98679000D01*
X109855000Y-98679000D01*
X109855000Y-96393000D01*
X108648183Y-96393000D01*
X108527042Y-96625026D01*
X103272000Y-96625026D01*
X103272000Y-94085026D01*
X108527042Y-94085026D01*
X108699312Y-94500947D01*
X109093510Y-94932821D01*
X109228313Y-94996000D01*
X109093510Y-95059179D01*
X108699312Y-95491053D01*
X108527042Y-95906974D01*
X108648183Y-96139000D01*
X109855000Y-96139000D01*
X109855000Y-93853000D01*
X108648183Y-93853000D01*
X108527042Y-94085026D01*
X103272000Y-94085026D01*
X103272000Y-93366974D01*
X108527042Y-93366974D01*
X108648183Y-93599000D01*
X109855000Y-93599000D01*
X109855000Y-92391531D01*
X109622973Y-92271032D01*
X109093510Y-92519179D01*
X108699312Y-92951053D01*
X108527042Y-93366974D01*
X103272000Y-93366974D01*
X103272000Y-89935690D01*
X157269000Y-89935690D01*
X157269000Y-90646250D01*
X157427750Y-90805000D01*
X158877000Y-90805000D01*
X158877000Y-89585750D01*
X159131000Y-89585750D01*
X159131000Y-90805000D01*
X160580250Y-90805000D01*
X160739000Y-90646250D01*
X160739000Y-89935690D01*
X160642327Y-89702301D01*
X160463698Y-89523673D01*
X160230309Y-89427000D01*
X159289750Y-89427000D01*
X159131000Y-89585750D01*
X158877000Y-89585750D01*
X158718250Y-89427000D01*
X157777691Y-89427000D01*
X157544302Y-89523673D01*
X157365673Y-89702301D01*
X157269000Y-89935690D01*
X103272000Y-89935690D01*
X103272000Y-87739391D01*
X152181000Y-87739391D01*
X152181000Y-88028609D01*
X152291679Y-88295813D01*
X152496187Y-88500321D01*
X152763391Y-88611000D01*
X153052609Y-88611000D01*
X153319813Y-88500321D01*
X153484134Y-88336000D01*
X159832776Y-88336000D01*
X160965001Y-89468225D01*
X160965000Y-94173776D01*
X160032712Y-95106064D01*
X159701046Y-94884451D01*
X159351891Y-94815000D01*
X158656109Y-94815000D01*
X158306954Y-94884451D01*
X157911012Y-95149012D01*
X157646451Y-95544954D01*
X157553550Y-96012000D01*
X157646451Y-96479046D01*
X157911012Y-96874988D01*
X158306954Y-97139549D01*
X158656109Y-97209000D01*
X159351891Y-97209000D01*
X159701046Y-97139549D01*
X160096988Y-96874988D01*
X160361549Y-96479046D01*
X160454450Y-96012000D01*
X160446283Y-95970941D01*
X161705131Y-94712093D01*
X161742874Y-94686874D01*
X161842775Y-94537362D01*
X161869000Y-94405518D01*
X161869000Y-94405517D01*
X161877855Y-94361000D01*
X161869000Y-94316482D01*
X161869000Y-89325516D01*
X161877855Y-89280999D01*
X161869000Y-89236482D01*
X161842775Y-89104638D01*
X161742874Y-88955126D01*
X161705131Y-88929907D01*
X160371093Y-87595869D01*
X160345874Y-87558126D01*
X160196362Y-87458225D01*
X160064518Y-87432000D01*
X160020000Y-87423145D01*
X159975482Y-87432000D01*
X153484134Y-87432000D01*
X153319813Y-87267679D01*
X153052609Y-87157000D01*
X152763391Y-87157000D01*
X152496187Y-87267679D01*
X152291679Y-87472187D01*
X152181000Y-87739391D01*
X103272000Y-87739391D01*
X103272000Y-85402591D01*
X126577800Y-85402591D01*
X126577800Y-85691809D01*
X126688479Y-85959013D01*
X126892987Y-86163521D01*
X127160191Y-86274200D01*
X127449409Y-86274200D01*
X127716613Y-86163521D01*
X127755934Y-86124200D01*
X128326866Y-86124200D01*
X128366187Y-86163521D01*
X128633391Y-86274200D01*
X128922609Y-86274200D01*
X129189813Y-86163521D01*
X129229134Y-86124200D01*
X161051000Y-86124200D01*
X162491000Y-87564201D01*
X162491001Y-92399167D01*
X162479696Y-92456000D01*
X162520932Y-92663304D01*
X162524479Y-92681134D01*
X162652007Y-92871994D01*
X162700186Y-92904186D01*
X166047000Y-96251001D01*
X166047000Y-97013921D01*
X165761013Y-97205012D01*
X165496451Y-97600954D01*
X165427000Y-97950109D01*
X165427000Y-98645890D01*
X165432493Y-98673505D01*
X160670000Y-103436000D01*
X150932827Y-103436000D01*
X150875999Y-103424696D01*
X150819171Y-103436000D01*
X150650866Y-103469478D01*
X150460006Y-103597006D01*
X150427815Y-103645184D01*
X146952186Y-107120814D01*
X146904007Y-107153006D01*
X146819148Y-107280007D01*
X146776479Y-107343866D01*
X146731696Y-107569000D01*
X146743001Y-107625833D01*
X146743000Y-110810594D01*
X146220000Y-110810594D01*
X146092411Y-110835973D01*
X145984246Y-110908246D01*
X145911973Y-111016411D01*
X145886594Y-111144000D01*
X145886594Y-112884000D01*
X145911973Y-113011589D01*
X145984246Y-113119754D01*
X146092411Y-113192027D01*
X146220000Y-113217406D01*
X148420000Y-113217406D01*
X148547589Y-113192027D01*
X148655754Y-113119754D01*
X148728027Y-113011589D01*
X148753406Y-112884000D01*
X148753406Y-111144000D01*
X148728027Y-111016411D01*
X148655754Y-110908246D01*
X148547589Y-110835973D01*
X148420000Y-110810594D01*
X147897000Y-110810594D01*
X147897000Y-107808000D01*
X151115001Y-104590000D01*
X160332000Y-104590000D01*
X160332001Y-107639167D01*
X160320696Y-107696000D01*
X160340217Y-107794134D01*
X160365479Y-107921134D01*
X160493007Y-108111994D01*
X160541186Y-108144186D01*
X163508814Y-111111815D01*
X163541006Y-111159994D01*
X163731866Y-111287522D01*
X163900171Y-111321000D01*
X163900172Y-111321000D01*
X163957000Y-111332304D01*
X164013828Y-111321000D01*
X167730594Y-111321000D01*
X167730594Y-111363441D01*
X167775046Y-111586915D01*
X167901633Y-111776367D01*
X168091085Y-111902954D01*
X168314559Y-111947406D01*
X170013441Y-111947406D01*
X170236915Y-111902954D01*
X170426367Y-111776367D01*
X170552954Y-111586915D01*
X170597406Y-111363441D01*
X170597406Y-110124559D01*
X170552954Y-109901085D01*
X170426367Y-109711633D01*
X170236915Y-109585046D01*
X170013441Y-109540594D01*
X168314559Y-109540594D01*
X168091085Y-109585046D01*
X167901633Y-109711633D01*
X167775046Y-109901085D01*
X167730594Y-110124559D01*
X167730594Y-110167000D01*
X164196001Y-110167000D01*
X161486000Y-107457000D01*
X161486000Y-104252000D01*
X162377609Y-103360391D01*
X163484000Y-103360391D01*
X163484000Y-103649609D01*
X163594679Y-103916813D01*
X163759001Y-104081135D01*
X163759000Y-105238482D01*
X163750145Y-105283000D01*
X163759000Y-105327517D01*
X163785225Y-105459361D01*
X163885126Y-105608874D01*
X163922869Y-105634093D01*
X166780909Y-108492134D01*
X166806126Y-108529874D01*
X166843866Y-108555091D01*
X166955638Y-108629775D01*
X167132000Y-108664855D01*
X167176518Y-108656000D01*
X167803458Y-108656000D01*
X167806451Y-108671046D01*
X168071012Y-109066988D01*
X168466954Y-109331549D01*
X168816109Y-109401000D01*
X169511891Y-109401000D01*
X169861046Y-109331549D01*
X170256988Y-109066988D01*
X170521549Y-108671046D01*
X170614450Y-108204000D01*
X170521549Y-107736954D01*
X170256988Y-107341012D01*
X169861046Y-107076451D01*
X169511891Y-107007000D01*
X168816109Y-107007000D01*
X168466954Y-107076451D01*
X168071012Y-107341012D01*
X167806451Y-107736954D01*
X167803458Y-107752000D01*
X167319225Y-107752000D01*
X164663000Y-105095776D01*
X164663000Y-104081134D01*
X164827321Y-103916813D01*
X164938000Y-103649609D01*
X164938000Y-103484031D01*
X167472698Y-103484031D01*
X167490416Y-103576500D01*
X167773467Y-104094491D01*
X168233198Y-104464734D01*
X168473370Y-104535175D01*
X168466954Y-104536451D01*
X168071012Y-104801012D01*
X167806451Y-105196954D01*
X167713550Y-105664000D01*
X167806451Y-106131046D01*
X168071012Y-106526988D01*
X168466954Y-106791549D01*
X168816109Y-106861000D01*
X169511891Y-106861000D01*
X169861046Y-106791549D01*
X170256988Y-106526988D01*
X170521549Y-106131046D01*
X170614450Y-105664000D01*
X170521549Y-105196954D01*
X170256988Y-104801012D01*
X169861046Y-104536451D01*
X169854630Y-104535175D01*
X170094802Y-104464734D01*
X170554533Y-104094491D01*
X170837584Y-103576500D01*
X170855302Y-103484031D01*
X170734246Y-103251000D01*
X169291000Y-103251000D01*
X169291000Y-103271000D01*
X169037000Y-103271000D01*
X169037000Y-103251000D01*
X167593754Y-103251000D01*
X167472698Y-103484031D01*
X164938000Y-103484031D01*
X164938000Y-103360391D01*
X164827321Y-103093187D01*
X164622813Y-102888679D01*
X164355609Y-102778000D01*
X164066391Y-102778000D01*
X163799187Y-102888679D01*
X163594679Y-103093187D01*
X163484000Y-103360391D01*
X162377609Y-103360391D01*
X162974031Y-102763969D01*
X167472698Y-102763969D01*
X167593754Y-102997000D01*
X169037000Y-102997000D01*
X169037000Y-101773418D01*
X169291000Y-101773418D01*
X169291000Y-102997000D01*
X170734246Y-102997000D01*
X170855302Y-102763969D01*
X170837584Y-102671500D01*
X170554533Y-102153509D01*
X170094802Y-101783266D01*
X169528380Y-101617138D01*
X169291000Y-101773418D01*
X169037000Y-101773418D01*
X168799620Y-101617138D01*
X168233198Y-101783266D01*
X167773467Y-102153509D01*
X167490416Y-102671500D01*
X167472698Y-102763969D01*
X162974031Y-102763969D01*
X166112294Y-99625708D01*
X166156954Y-99655549D01*
X166624000Y-99748450D01*
X167091045Y-99655549D01*
X167486988Y-99390988D01*
X167751549Y-98995046D01*
X167821000Y-98645891D01*
X167821000Y-97950110D01*
X167821000Y-97950109D01*
X167967000Y-97950109D01*
X167967000Y-98645890D01*
X168036451Y-98995045D01*
X168301012Y-99390988D01*
X168696954Y-99655549D01*
X169164000Y-99748450D01*
X169631045Y-99655549D01*
X170026988Y-99390988D01*
X170291549Y-98995046D01*
X170361000Y-98645891D01*
X170361000Y-97950110D01*
X170291549Y-97600955D01*
X170026988Y-97205012D01*
X169631046Y-96940451D01*
X169164000Y-96847550D01*
X168696955Y-96940451D01*
X168301013Y-97205012D01*
X168036451Y-97600954D01*
X167967000Y-97950109D01*
X167821000Y-97950109D01*
X167751549Y-97600955D01*
X167486988Y-97205012D01*
X167201000Y-97013920D01*
X167201000Y-96068827D01*
X167212304Y-96011999D01*
X167194003Y-95919994D01*
X167167522Y-95786866D01*
X167039994Y-95596006D01*
X166991815Y-95563814D01*
X163645000Y-92217000D01*
X163645000Y-87382029D01*
X163656304Y-87325200D01*
X163611522Y-87100065D01*
X163551643Y-87010451D01*
X163483994Y-86909206D01*
X163435815Y-86877014D01*
X161867000Y-85308200D01*
X161867000Y-84769406D01*
X162390000Y-84769406D01*
X162517589Y-84744027D01*
X162625754Y-84671754D01*
X162698027Y-84563589D01*
X162723406Y-84436000D01*
X162723406Y-82696000D01*
X162698027Y-82568411D01*
X162625754Y-82460246D01*
X162517589Y-82387973D01*
X162390000Y-82362594D01*
X160190000Y-82362594D01*
X160062411Y-82387973D01*
X159954246Y-82460246D01*
X159881973Y-82568411D01*
X159856594Y-82696000D01*
X159856594Y-84436000D01*
X159881973Y-84563589D01*
X159954246Y-84671754D01*
X160062411Y-84744027D01*
X160190000Y-84769406D01*
X160713001Y-84769406D01*
X160713001Y-84970200D01*
X129229134Y-84970200D01*
X129189813Y-84930879D01*
X128922609Y-84820200D01*
X128633391Y-84820200D01*
X128366187Y-84930879D01*
X128326866Y-84970200D01*
X127755934Y-84970200D01*
X127716613Y-84930879D01*
X127449409Y-84820200D01*
X127160191Y-84820200D01*
X126892987Y-84930879D01*
X126688479Y-85135387D01*
X126577800Y-85402591D01*
X103272000Y-85402591D01*
X103272000Y-78332219D01*
X104623000Y-78332219D01*
X104623000Y-79655781D01*
X105129505Y-80878594D01*
X106065406Y-81814495D01*
X107288219Y-82321000D01*
X108611781Y-82321000D01*
X109834594Y-81814495D01*
X110770495Y-80878594D01*
X110853538Y-80678109D01*
X132153000Y-80678109D01*
X132153000Y-81373890D01*
X132222451Y-81723045D01*
X132487012Y-82118988D01*
X132882954Y-82383549D01*
X133350000Y-82476450D01*
X133817045Y-82383549D01*
X134212988Y-82118988D01*
X134477549Y-81723046D01*
X134547000Y-81373891D01*
X134547000Y-80678110D01*
X134477549Y-80328955D01*
X134375722Y-80176559D01*
X134686594Y-80176559D01*
X134686594Y-81875441D01*
X134731046Y-82098915D01*
X134857633Y-82288367D01*
X135047085Y-82414954D01*
X135270559Y-82459406D01*
X136509441Y-82459406D01*
X136732915Y-82414954D01*
X136922367Y-82288367D01*
X137048954Y-82098915D01*
X137093406Y-81875441D01*
X137093406Y-80678109D01*
X139773000Y-80678109D01*
X139773000Y-81373890D01*
X139842451Y-81723045D01*
X140107012Y-82118988D01*
X140502954Y-82383549D01*
X140970000Y-82476450D01*
X141437045Y-82383549D01*
X141832988Y-82118988D01*
X142097549Y-81723046D01*
X142167000Y-81373891D01*
X142167000Y-80678110D01*
X142097549Y-80328955D01*
X141995722Y-80176559D01*
X142306594Y-80176559D01*
X142306594Y-81875441D01*
X142351046Y-82098915D01*
X142477633Y-82288367D01*
X142667085Y-82414954D01*
X142890559Y-82459406D01*
X144129441Y-82459406D01*
X144352915Y-82414954D01*
X144542367Y-82288367D01*
X144668954Y-82098915D01*
X144713406Y-81875441D01*
X144713406Y-81390380D01*
X147083138Y-81390380D01*
X147249266Y-81956802D01*
X147619509Y-82416533D01*
X148137500Y-82699584D01*
X148229969Y-82717302D01*
X148463000Y-82596246D01*
X148463000Y-81153000D01*
X147239418Y-81153000D01*
X147083138Y-81390380D01*
X144713406Y-81390380D01*
X144713406Y-80661620D01*
X147083138Y-80661620D01*
X147239418Y-80899000D01*
X148463000Y-80899000D01*
X148463000Y-79455754D01*
X148717000Y-79455754D01*
X148717000Y-80899000D01*
X148737000Y-80899000D01*
X148737000Y-81153000D01*
X148717000Y-81153000D01*
X148717000Y-82596246D01*
X148950031Y-82717302D01*
X149042500Y-82699584D01*
X149560491Y-82416533D01*
X149930734Y-81956802D01*
X150001175Y-81716630D01*
X150002451Y-81723045D01*
X150267012Y-82118988D01*
X150662954Y-82383549D01*
X151130000Y-82476450D01*
X151597045Y-82383549D01*
X151992988Y-82118988D01*
X152257549Y-81723046D01*
X152327000Y-81373891D01*
X152327000Y-80678110D01*
X152327000Y-80678109D01*
X152473000Y-80678109D01*
X152473000Y-81373890D01*
X152542451Y-81723045D01*
X152807012Y-82118988D01*
X153202954Y-82383549D01*
X153670000Y-82476450D01*
X154137045Y-82383549D01*
X154532988Y-82118988D01*
X154797549Y-81723046D01*
X154867000Y-81373891D01*
X154867000Y-80678110D01*
X154797549Y-80328955D01*
X154695722Y-80176559D01*
X155006594Y-80176559D01*
X155006594Y-81875441D01*
X155051046Y-82098915D01*
X155177633Y-82288367D01*
X155367085Y-82414954D01*
X155590559Y-82459406D01*
X156829441Y-82459406D01*
X157052915Y-82414954D01*
X157242367Y-82288367D01*
X157368954Y-82098915D01*
X157413406Y-81875441D01*
X157413406Y-81603000D01*
X160005920Y-81603000D01*
X160197012Y-81888988D01*
X160592954Y-82153549D01*
X160942109Y-82223000D01*
X161637891Y-82223000D01*
X161987046Y-82153549D01*
X162382988Y-81888988D01*
X162647549Y-81493046D01*
X162740450Y-81026000D01*
X162647549Y-80558954D01*
X162382988Y-80163012D01*
X161987046Y-79898451D01*
X161637891Y-79829000D01*
X160942109Y-79829000D01*
X160592954Y-79898451D01*
X160197012Y-80163012D01*
X160005920Y-80449000D01*
X157413406Y-80449000D01*
X157413406Y-80176559D01*
X157368954Y-79953085D01*
X157242367Y-79763633D01*
X157052915Y-79637046D01*
X156829441Y-79592594D01*
X155590559Y-79592594D01*
X155367085Y-79637046D01*
X155177633Y-79763633D01*
X155051046Y-79953085D01*
X155006594Y-80176559D01*
X154695722Y-80176559D01*
X154532988Y-79933012D01*
X154137046Y-79668451D01*
X153670000Y-79575550D01*
X153202955Y-79668451D01*
X152807013Y-79933012D01*
X152542451Y-80328954D01*
X152473000Y-80678109D01*
X152327000Y-80678109D01*
X152257549Y-80328955D01*
X151992988Y-79933012D01*
X151597046Y-79668451D01*
X151130000Y-79575550D01*
X150662955Y-79668451D01*
X150267013Y-79933012D01*
X150002451Y-80328954D01*
X150001175Y-80335370D01*
X149930734Y-80095198D01*
X149560491Y-79635467D01*
X149042500Y-79352416D01*
X148950031Y-79334698D01*
X148717000Y-79455754D01*
X148463000Y-79455754D01*
X148229969Y-79334698D01*
X148137500Y-79352416D01*
X147619509Y-79635467D01*
X147249266Y-80095198D01*
X147083138Y-80661620D01*
X144713406Y-80661620D01*
X144713406Y-80176559D01*
X144668954Y-79953085D01*
X144542367Y-79763633D01*
X144352915Y-79637046D01*
X144129441Y-79592594D01*
X142890559Y-79592594D01*
X142667085Y-79637046D01*
X142477633Y-79763633D01*
X142351046Y-79953085D01*
X142306594Y-80176559D01*
X141995722Y-80176559D01*
X141832988Y-79933012D01*
X141437046Y-79668451D01*
X140970000Y-79575550D01*
X140502955Y-79668451D01*
X140107013Y-79933012D01*
X139842451Y-80328954D01*
X139773000Y-80678109D01*
X137093406Y-80678109D01*
X137093406Y-80176559D01*
X137048954Y-79953085D01*
X136922367Y-79763633D01*
X136732915Y-79637046D01*
X136509441Y-79592594D01*
X135270559Y-79592594D01*
X135047085Y-79637046D01*
X134857633Y-79763633D01*
X134731046Y-79953085D01*
X134686594Y-80176559D01*
X134375722Y-80176559D01*
X134212988Y-79933012D01*
X133817046Y-79668451D01*
X133350000Y-79575550D01*
X132882955Y-79668451D01*
X132487013Y-79933012D01*
X132222451Y-80328954D01*
X132153000Y-80678109D01*
X110853538Y-80678109D01*
X111277000Y-79655781D01*
X111277000Y-78332219D01*
X110770495Y-77109406D01*
X109834594Y-76173505D01*
X108611781Y-75667000D01*
X107288219Y-75667000D01*
X106065406Y-76173505D01*
X105129505Y-77109406D01*
X104623000Y-78332219D01*
X103272000Y-78332219D01*
X103272000Y-74316000D01*
X176128000Y-74316000D01*
X176128001Y-121772000D01*
G04 #@! TD*
M02*
