G04 #@! TF.GenerationSoftware,KiCad,Pcbnew,5.0.2-bee76a0~70~ubuntu18.04.1*
G04 #@! TF.CreationDate,2019-01-29T20:40:36+01:00*
G04 #@! TF.ProjectId,main_board,6d61696e-5f62-46f6-9172-642e6b696361,rev?*
G04 #@! TF.SameCoordinates,Original*
G04 #@! TF.FileFunction,Legend,Top*
G04 #@! TF.FilePolarity,Positive*
%FSLAX46Y46*%
G04 Gerber Fmt 4.6, Leading zero omitted, Abs format (unit mm)*
G04 Created by KiCad (PCBNEW 5.0.2-bee76a0~70~ubuntu18.04.1) date Út 29. ledna 2019, 20:40:36 CET*
%MOMM*%
%LPD*%
G01*
G04 APERTURE LIST*
%ADD10C,0.300000*%
%ADD11C,0.150000*%
%ADD12C,0.120000*%
G04 APERTURE END LIST*
D10*
X105239285Y-92008285D02*
X105310714Y-91865428D01*
X105310714Y-91579714D01*
X105239285Y-91436857D01*
X105096428Y-91293999D01*
X104953571Y-91222571D01*
X104667857Y-91222571D01*
X104525000Y-91293999D01*
X104382142Y-91436857D01*
X104310714Y-91579714D01*
X104310714Y-91865428D01*
X104382142Y-92008285D01*
X105810714Y-91722571D02*
X105739285Y-91365428D01*
X105525000Y-91008285D01*
X105167857Y-90793999D01*
X104810714Y-90722571D01*
X104453571Y-90793999D01*
X104096428Y-91008285D01*
X103882142Y-91365428D01*
X103810714Y-91722571D01*
X103882142Y-92079714D01*
X104096428Y-92436857D01*
X104453571Y-92651142D01*
X104810714Y-92722571D01*
X105167857Y-92651142D01*
X105525000Y-92436857D01*
X105739285Y-92079714D01*
X105810714Y-91722571D01*
X105596428Y-94936857D02*
X104525000Y-94936857D01*
X104310714Y-94865428D01*
X104167857Y-94722571D01*
X104096428Y-94508285D01*
X104096428Y-94365428D01*
X104096428Y-95651142D02*
X105096428Y-95651142D01*
X105596428Y-95651142D02*
X105525000Y-95579714D01*
X105453571Y-95651142D01*
X105525000Y-95722571D01*
X105596428Y-95651142D01*
X105453571Y-95651142D01*
X104096428Y-96365428D02*
X105096428Y-96365428D01*
X104810714Y-96365428D02*
X104953571Y-96436857D01*
X105025000Y-96508285D01*
X105096428Y-96651142D01*
X105096428Y-96793999D01*
X104096428Y-97293999D02*
X105096428Y-97293999D01*
X105596428Y-97293999D02*
X105525000Y-97222571D01*
X105453571Y-97293999D01*
X105525000Y-97365428D01*
X105596428Y-97293999D01*
X105453571Y-97293999D01*
X104096428Y-99151142D02*
X105596428Y-99151142D01*
X104882142Y-99151142D02*
X104882142Y-100008285D01*
X104096428Y-100008285D02*
X105596428Y-100008285D01*
X104096428Y-101365428D02*
X104882142Y-101365428D01*
X105025000Y-101294000D01*
X105096428Y-101151142D01*
X105096428Y-100865428D01*
X105025000Y-100722571D01*
X104167857Y-101365428D02*
X104096428Y-101222571D01*
X104096428Y-100865428D01*
X104167857Y-100722571D01*
X104310714Y-100651142D01*
X104453571Y-100651142D01*
X104596428Y-100722571D01*
X104667857Y-100865428D01*
X104667857Y-101222571D01*
X104739285Y-101365428D01*
X105096428Y-102079714D02*
X104096428Y-102079714D01*
X104953571Y-102079714D02*
X105025000Y-102151142D01*
X105096428Y-102293999D01*
X105096428Y-102508285D01*
X105025000Y-102651142D01*
X104882142Y-102722571D01*
X104096428Y-102722571D01*
X104096428Y-104079714D02*
X104882142Y-104079714D01*
X105025000Y-104008285D01*
X105096428Y-103865428D01*
X105096428Y-103579714D01*
X105025000Y-103436857D01*
X104167857Y-104079714D02*
X104096428Y-103936857D01*
X104096428Y-103579714D01*
X104167857Y-103436857D01*
X104310714Y-103365428D01*
X104453571Y-103365428D01*
X104596428Y-103436857D01*
X104667857Y-103579714D01*
X104667857Y-103936857D01*
X104739285Y-104079714D01*
X104096428Y-104793999D02*
X105596428Y-104793999D01*
X104667857Y-104936857D02*
X104096428Y-105365428D01*
X105096428Y-105365428D02*
X104525000Y-104793999D01*
D11*
X174394761Y-109648476D02*
X174442380Y-109505619D01*
X174442380Y-109267523D01*
X174394761Y-109172285D01*
X174347142Y-109124666D01*
X174251904Y-109077047D01*
X174156666Y-109077047D01*
X174061428Y-109124666D01*
X174013809Y-109172285D01*
X173966190Y-109267523D01*
X173918571Y-109458000D01*
X173870952Y-109553238D01*
X173823333Y-109600857D01*
X173728095Y-109648476D01*
X173632857Y-109648476D01*
X173537619Y-109600857D01*
X173490000Y-109553238D01*
X173442380Y-109458000D01*
X173442380Y-109219904D01*
X173490000Y-109077047D01*
X174347142Y-108077047D02*
X174394761Y-108124666D01*
X174442380Y-108267523D01*
X174442380Y-108362761D01*
X174394761Y-108505619D01*
X174299523Y-108600857D01*
X174204285Y-108648476D01*
X174013809Y-108696095D01*
X173870952Y-108696095D01*
X173680476Y-108648476D01*
X173585238Y-108600857D01*
X173490000Y-108505619D01*
X173442380Y-108362761D01*
X173442380Y-108267523D01*
X173490000Y-108124666D01*
X173537619Y-108077047D01*
X174442380Y-107172285D02*
X174442380Y-107648476D01*
X173442380Y-107648476D01*
X163560285Y-78557428D02*
X164322190Y-78557428D01*
X163941238Y-78938380D02*
X163941238Y-78176476D01*
X165274571Y-77938380D02*
X164798380Y-77938380D01*
X164750761Y-78414571D01*
X164798380Y-78366952D01*
X164893619Y-78319333D01*
X165131714Y-78319333D01*
X165226952Y-78366952D01*
X165274571Y-78414571D01*
X165322190Y-78509809D01*
X165322190Y-78747904D01*
X165274571Y-78843142D01*
X165226952Y-78890761D01*
X165131714Y-78938380D01*
X164893619Y-78938380D01*
X164798380Y-78890761D01*
X164750761Y-78843142D01*
X165607904Y-77938380D02*
X165941238Y-78938380D01*
X166274571Y-77938380D01*
X174569428Y-100091714D02*
X174569428Y-99329809D01*
X174950380Y-99710761D02*
X174188476Y-99710761D01*
X173950380Y-98377428D02*
X173950380Y-98853619D01*
X174426571Y-98901238D01*
X174378952Y-98853619D01*
X174331333Y-98758380D01*
X174331333Y-98520285D01*
X174378952Y-98425047D01*
X174426571Y-98377428D01*
X174521809Y-98329809D01*
X174759904Y-98329809D01*
X174855142Y-98377428D01*
X174902761Y-98425047D01*
X174950380Y-98520285D01*
X174950380Y-98758380D01*
X174902761Y-98853619D01*
X174855142Y-98901238D01*
X173950380Y-98044095D02*
X174950380Y-97710761D01*
X173950380Y-97377428D01*
X145780285Y-119959428D02*
X146542190Y-119959428D01*
X146161238Y-120340380D02*
X146161238Y-119578476D01*
X147494571Y-119340380D02*
X147018380Y-119340380D01*
X146970761Y-119816571D01*
X147018380Y-119768952D01*
X147113619Y-119721333D01*
X147351714Y-119721333D01*
X147446952Y-119768952D01*
X147494571Y-119816571D01*
X147542190Y-119911809D01*
X147542190Y-120149904D01*
X147494571Y-120245142D01*
X147446952Y-120292761D01*
X147351714Y-120340380D01*
X147113619Y-120340380D01*
X147018380Y-120292761D01*
X146970761Y-120245142D01*
X147827904Y-119340380D02*
X148161238Y-120340380D01*
X148494571Y-119340380D01*
X163084095Y-82621428D02*
X163846000Y-82621428D01*
X163465047Y-83002380D02*
X163465047Y-82240476D01*
X164226952Y-82002380D02*
X164846000Y-82002380D01*
X164512666Y-82383333D01*
X164655523Y-82383333D01*
X164750761Y-82430952D01*
X164798380Y-82478571D01*
X164846000Y-82573809D01*
X164846000Y-82811904D01*
X164798380Y-82907142D01*
X164750761Y-82954761D01*
X164655523Y-83002380D01*
X164369809Y-83002380D01*
X164274571Y-82954761D01*
X164226952Y-82907142D01*
X165131714Y-82002380D02*
X165465047Y-83002380D01*
X165798380Y-82002380D01*
X166036476Y-82002380D02*
X166655523Y-82002380D01*
X166322190Y-82383333D01*
X166465047Y-82383333D01*
X166560285Y-82430952D01*
X166607904Y-82478571D01*
X166655523Y-82573809D01*
X166655523Y-82811904D01*
X166607904Y-82907142D01*
X166560285Y-82954761D01*
X166465047Y-83002380D01*
X166179333Y-83002380D01*
X166084095Y-82954761D01*
X166036476Y-82907142D01*
X163647428Y-100059904D02*
X163647428Y-99298000D01*
X164028380Y-99678952D02*
X163266476Y-99678952D01*
X163028380Y-98917047D02*
X163028380Y-98298000D01*
X163409333Y-98631333D01*
X163409333Y-98488476D01*
X163456952Y-98393238D01*
X163504571Y-98345619D01*
X163599809Y-98298000D01*
X163837904Y-98298000D01*
X163933142Y-98345619D01*
X163980761Y-98393238D01*
X164028380Y-98488476D01*
X164028380Y-98774190D01*
X163980761Y-98869428D01*
X163933142Y-98917047D01*
X163028380Y-98012285D02*
X164028380Y-97678952D01*
X163028380Y-97345619D01*
X163028380Y-97107523D02*
X163028380Y-96488476D01*
X163409333Y-96821809D01*
X163409333Y-96678952D01*
X163456952Y-96583714D01*
X163504571Y-96536095D01*
X163599809Y-96488476D01*
X163837904Y-96488476D01*
X163933142Y-96536095D01*
X163980761Y-96583714D01*
X164028380Y-96678952D01*
X164028380Y-96964666D01*
X163980761Y-97059904D01*
X163933142Y-97107523D01*
X143033904Y-112228380D02*
X143652952Y-112228380D01*
X143319619Y-112609333D01*
X143462476Y-112609333D01*
X143557714Y-112656952D01*
X143605333Y-112704571D01*
X143652952Y-112799809D01*
X143652952Y-113037904D01*
X143605333Y-113133142D01*
X143557714Y-113180761D01*
X143462476Y-113228380D01*
X143176761Y-113228380D01*
X143081523Y-113180761D01*
X143033904Y-113133142D01*
X143938666Y-112228380D02*
X144272000Y-113228380D01*
X144605333Y-112228380D01*
X144843428Y-112228380D02*
X145462476Y-112228380D01*
X145129142Y-112609333D01*
X145272000Y-112609333D01*
X145367238Y-112656952D01*
X145414857Y-112704571D01*
X145462476Y-112799809D01*
X145462476Y-113037904D01*
X145414857Y-113133142D01*
X145367238Y-113180761D01*
X145272000Y-113228380D01*
X144986285Y-113228380D01*
X144891047Y-113180761D01*
X144843428Y-113133142D01*
X153733809Y-119086380D02*
X153733809Y-119895904D01*
X153781428Y-119991142D01*
X153829047Y-120038761D01*
X153924285Y-120086380D01*
X154114761Y-120086380D01*
X154210000Y-120038761D01*
X154257619Y-119991142D01*
X154305238Y-119895904D01*
X154305238Y-119086380D01*
X154733809Y-119800666D02*
X155210000Y-119800666D01*
X154638571Y-120086380D02*
X154971904Y-119086380D01*
X155305238Y-120086380D01*
X156210000Y-120086380D02*
X155876666Y-119610190D01*
X155638571Y-120086380D02*
X155638571Y-119086380D01*
X156019523Y-119086380D01*
X156114761Y-119134000D01*
X156162380Y-119181619D01*
X156210000Y-119276857D01*
X156210000Y-119419714D01*
X156162380Y-119514952D01*
X156114761Y-119562571D01*
X156019523Y-119610190D01*
X155638571Y-119610190D01*
X156495714Y-119086380D02*
X157067142Y-119086380D01*
X156781428Y-120086380D02*
X156781428Y-119086380D01*
X157162380Y-120181619D02*
X157924285Y-120181619D01*
X158495714Y-119562571D02*
X158638571Y-119610190D01*
X158686190Y-119657809D01*
X158733809Y-119753047D01*
X158733809Y-119895904D01*
X158686190Y-119991142D01*
X158638571Y-120038761D01*
X158543333Y-120086380D01*
X158162380Y-120086380D01*
X158162380Y-119086380D01*
X158495714Y-119086380D01*
X158590952Y-119134000D01*
X158638571Y-119181619D01*
X158686190Y-119276857D01*
X158686190Y-119372095D01*
X158638571Y-119467333D01*
X158590952Y-119514952D01*
X158495714Y-119562571D01*
X158162380Y-119562571D01*
X135009238Y-119086380D02*
X135009238Y-119895904D01*
X135056857Y-119991142D01*
X135104476Y-120038761D01*
X135199714Y-120086380D01*
X135390190Y-120086380D01*
X135485428Y-120038761D01*
X135533047Y-119991142D01*
X135580666Y-119895904D01*
X135580666Y-119086380D01*
X136009238Y-119800666D02*
X136485428Y-119800666D01*
X135914000Y-120086380D02*
X136247333Y-119086380D01*
X136580666Y-120086380D01*
X137485428Y-120086380D02*
X137152095Y-119610190D01*
X136914000Y-120086380D02*
X136914000Y-119086380D01*
X137294952Y-119086380D01*
X137390190Y-119134000D01*
X137437809Y-119181619D01*
X137485428Y-119276857D01*
X137485428Y-119419714D01*
X137437809Y-119514952D01*
X137390190Y-119562571D01*
X137294952Y-119610190D01*
X136914000Y-119610190D01*
X137771142Y-119086380D02*
X138342571Y-119086380D01*
X138056857Y-120086380D02*
X138056857Y-119086380D01*
X138437809Y-120181619D02*
X139199714Y-120181619D01*
X139390190Y-119800666D02*
X139866380Y-119800666D01*
X139294952Y-120086380D02*
X139628285Y-119086380D01*
X139961619Y-120086380D01*
X173442380Y-92138190D02*
X174251904Y-92138190D01*
X174347142Y-92090571D01*
X174394761Y-92042952D01*
X174442380Y-91947714D01*
X174442380Y-91757238D01*
X174394761Y-91662000D01*
X174347142Y-91614380D01*
X174251904Y-91566761D01*
X173442380Y-91566761D01*
X174156666Y-91138190D02*
X174156666Y-90662000D01*
X174442380Y-91233428D02*
X173442380Y-90900095D01*
X174442380Y-90566761D01*
X174442380Y-89662000D02*
X173966190Y-89995333D01*
X174442380Y-90233428D02*
X173442380Y-90233428D01*
X173442380Y-89852476D01*
X173490000Y-89757238D01*
X173537619Y-89709619D01*
X173632857Y-89662000D01*
X173775714Y-89662000D01*
X173870952Y-89709619D01*
X173918571Y-89757238D01*
X173966190Y-89852476D01*
X173966190Y-90233428D01*
X173442380Y-89376285D02*
X173442380Y-88804857D01*
X174442380Y-89090571D02*
X173442380Y-89090571D01*
X174537619Y-88709619D02*
X174537619Y-87947714D01*
X174347142Y-87138190D02*
X174394761Y-87185809D01*
X174442380Y-87328666D01*
X174442380Y-87423904D01*
X174394761Y-87566761D01*
X174299523Y-87662000D01*
X174204285Y-87709619D01*
X174013809Y-87757238D01*
X173870952Y-87757238D01*
X173680476Y-87709619D01*
X173585238Y-87662000D01*
X173490000Y-87566761D01*
X173442380Y-87423904D01*
X173442380Y-87328666D01*
X173490000Y-87185809D01*
X173537619Y-87138190D01*
X150177809Y-75906380D02*
X150177809Y-76715904D01*
X150225428Y-76811142D01*
X150273047Y-76858761D01*
X150368285Y-76906380D01*
X150558761Y-76906380D01*
X150654000Y-76858761D01*
X150701619Y-76811142D01*
X150749238Y-76715904D01*
X150749238Y-75906380D01*
X151177809Y-76620666D02*
X151654000Y-76620666D01*
X151082571Y-76906380D02*
X151415904Y-75906380D01*
X151749238Y-76906380D01*
X152654000Y-76906380D02*
X152320666Y-76430190D01*
X152082571Y-76906380D02*
X152082571Y-75906380D01*
X152463523Y-75906380D01*
X152558761Y-75954000D01*
X152606380Y-76001619D01*
X152654000Y-76096857D01*
X152654000Y-76239714D01*
X152606380Y-76334952D01*
X152558761Y-76382571D01*
X152463523Y-76430190D01*
X152082571Y-76430190D01*
X152939714Y-75906380D02*
X153511142Y-75906380D01*
X153225428Y-76906380D02*
X153225428Y-75906380D01*
X153606380Y-77001619D02*
X154368285Y-77001619D01*
X154606380Y-76906380D02*
X154606380Y-75906380D01*
X154844476Y-75906380D01*
X154987333Y-75954000D01*
X155082571Y-76049238D01*
X155130190Y-76144476D01*
X155177809Y-76334952D01*
X155177809Y-76477809D01*
X155130190Y-76668285D01*
X155082571Y-76763523D01*
X154987333Y-76858761D01*
X154844476Y-76906380D01*
X154606380Y-76906380D01*
X174394761Y-106116285D02*
X174442380Y-105973428D01*
X174442380Y-105735333D01*
X174394761Y-105640095D01*
X174347142Y-105592476D01*
X174251904Y-105544857D01*
X174156666Y-105544857D01*
X174061428Y-105592476D01*
X174013809Y-105640095D01*
X173966190Y-105735333D01*
X173918571Y-105925809D01*
X173870952Y-106021047D01*
X173823333Y-106068666D01*
X173728095Y-106116285D01*
X173632857Y-106116285D01*
X173537619Y-106068666D01*
X173490000Y-106021047D01*
X173442380Y-105925809D01*
X173442380Y-105687714D01*
X173490000Y-105544857D01*
X174442380Y-105116285D02*
X173442380Y-105116285D01*
X173442380Y-104878190D01*
X173490000Y-104735333D01*
X173585238Y-104640095D01*
X173680476Y-104592476D01*
X173870952Y-104544857D01*
X174013809Y-104544857D01*
X174204285Y-104592476D01*
X174299523Y-104640095D01*
X174394761Y-104735333D01*
X174442380Y-104878190D01*
X174442380Y-105116285D01*
X174156666Y-104163904D02*
X174156666Y-103687714D01*
X174442380Y-104259142D02*
X173442380Y-103925809D01*
X174442380Y-103592476D01*
X140803523Y-76382571D02*
X140946380Y-76430190D01*
X140994000Y-76477809D01*
X141041619Y-76573047D01*
X141041619Y-76715904D01*
X140994000Y-76811142D01*
X140946380Y-76858761D01*
X140851142Y-76906380D01*
X140470190Y-76906380D01*
X140470190Y-75906380D01*
X140803523Y-75906380D01*
X140898761Y-75954000D01*
X140946380Y-76001619D01*
X140994000Y-76096857D01*
X140994000Y-76192095D01*
X140946380Y-76287333D01*
X140898761Y-76334952D01*
X140803523Y-76382571D01*
X140470190Y-76382571D01*
X141327333Y-75906380D02*
X141898761Y-75906380D01*
X141613047Y-76906380D02*
X141613047Y-75906380D01*
X142232095Y-76906380D02*
X142232095Y-75906380D01*
X142803523Y-76906380D01*
X142803523Y-75906380D01*
X143041619Y-77001619D02*
X143803523Y-77001619D01*
X143994000Y-76001619D02*
X144041619Y-75954000D01*
X144136857Y-75906380D01*
X144374952Y-75906380D01*
X144470190Y-75954000D01*
X144517809Y-76001619D01*
X144565428Y-76096857D01*
X144565428Y-76192095D01*
X144517809Y-76334952D01*
X143946380Y-76906380D01*
X144565428Y-76906380D01*
X133183523Y-76382571D02*
X133326380Y-76430190D01*
X133374000Y-76477809D01*
X133421619Y-76573047D01*
X133421619Y-76715904D01*
X133374000Y-76811142D01*
X133326380Y-76858761D01*
X133231142Y-76906380D01*
X132850190Y-76906380D01*
X132850190Y-75906380D01*
X133183523Y-75906380D01*
X133278761Y-75954000D01*
X133326380Y-76001619D01*
X133374000Y-76096857D01*
X133374000Y-76192095D01*
X133326380Y-76287333D01*
X133278761Y-76334952D01*
X133183523Y-76382571D01*
X132850190Y-76382571D01*
X133707333Y-75906380D02*
X134278761Y-75906380D01*
X133993047Y-76906380D02*
X133993047Y-75906380D01*
X134612095Y-76906380D02*
X134612095Y-75906380D01*
X135183523Y-76906380D01*
X135183523Y-75906380D01*
X135421619Y-77001619D02*
X136183523Y-77001619D01*
X136945428Y-76906380D02*
X136374000Y-76906380D01*
X136659714Y-76906380D02*
X136659714Y-75906380D01*
X136564476Y-76049238D01*
X136469238Y-76144476D01*
X136374000Y-76192095D01*
D12*
G04 #@! TO.C,C7*
X120194000Y-86310948D02*
X120194000Y-86833452D01*
X121614000Y-86310948D02*
X121614000Y-86833452D01*
G04 #@! TO.C,SW1*
X145990000Y-110684000D02*
X147320000Y-110684000D01*
X145990000Y-112014000D02*
X145990000Y-110684000D01*
X145990000Y-113284000D02*
X148650000Y-113284000D01*
X148650000Y-113284000D02*
X148650000Y-118424000D01*
X145990000Y-113284000D02*
X145990000Y-118424000D01*
X145990000Y-118424000D02*
X148650000Y-118424000D01*
G04 #@! TO.C,C13*
X124984252Y-96064000D02*
X124461748Y-96064000D01*
X124984252Y-97484000D02*
X124461748Y-97484000D01*
G04 #@! TO.C,J8*
X106577000Y-109236000D02*
X106577000Y-88376000D01*
X106577000Y-88376000D02*
X115927000Y-88376000D01*
X115927000Y-88376000D02*
X115927000Y-109236000D01*
X115927000Y-109236000D02*
X106577000Y-109236000D01*
X116177000Y-109486000D02*
X116177000Y-106946000D01*
X116177000Y-109486000D02*
X113637000Y-109486000D01*
G04 #@! TO.C,C10*
X153618000Y-104649748D02*
X153618000Y-105172252D01*
X152198000Y-104649748D02*
X152198000Y-105172252D01*
G04 #@! TO.C,U3*
X150734000Y-101400000D02*
X151184000Y-101400000D01*
X151184000Y-101400000D02*
X151184000Y-100950000D01*
X144414000Y-101400000D02*
X143964000Y-101400000D01*
X143964000Y-101400000D02*
X143964000Y-100950000D01*
X150734000Y-94180000D02*
X151184000Y-94180000D01*
X151184000Y-94180000D02*
X151184000Y-94630000D01*
X144414000Y-94180000D02*
X143964000Y-94180000D01*
X143964000Y-94180000D02*
X143964000Y-94630000D01*
X143964000Y-94630000D02*
X142674000Y-94630000D01*
G04 #@! TO.C,J4*
X157674000Y-99882000D02*
X160334000Y-99882000D01*
X157674000Y-92202000D02*
X157674000Y-99882000D01*
X160334000Y-92202000D02*
X160334000Y-99882000D01*
X157674000Y-92202000D02*
X160334000Y-92202000D01*
X157674000Y-90932000D02*
X157674000Y-89602000D01*
X157674000Y-89602000D02*
X159004000Y-89602000D01*
G04 #@! TO.C,C1*
X115114000Y-113013748D02*
X115114000Y-113536252D01*
X116534000Y-113013748D02*
X116534000Y-113536252D01*
G04 #@! TO.C,C2*
X112574000Y-113013748D02*
X112574000Y-113536252D01*
X113994000Y-113013748D02*
X113994000Y-113536252D01*
G04 #@! TO.C,C3*
X128472000Y-118362252D02*
X128472000Y-117839748D01*
X127052000Y-118362252D02*
X127052000Y-117839748D01*
G04 #@! TO.C,C4*
X129338000Y-118362252D02*
X129338000Y-117839748D01*
X130758000Y-118362252D02*
X130758000Y-117839748D01*
G04 #@! TO.C,C5*
X118820000Y-79231748D02*
X118820000Y-79754252D01*
X117400000Y-79231748D02*
X117400000Y-79754252D01*
G04 #@! TO.C,C6*
X115772000Y-79249748D02*
X115772000Y-79772252D01*
X114352000Y-79249748D02*
X114352000Y-79772252D01*
G04 #@! TO.C,C8*
X124204800Y-86310948D02*
X124204800Y-86833452D01*
X122784800Y-86310948D02*
X122784800Y-86833452D01*
G04 #@! TO.C,C9*
X141172000Y-91447252D02*
X141172000Y-90924748D01*
X139752000Y-91447252D02*
X139752000Y-90924748D01*
G04 #@! TO.C,C11*
X153976000Y-93727748D02*
X153976000Y-94250252D01*
X155396000Y-93727748D02*
X155396000Y-94250252D01*
G04 #@! TO.C,C12*
X140664000Y-98553748D02*
X140664000Y-99076252D01*
X139244000Y-98553748D02*
X139244000Y-99076252D01*
G04 #@! TO.C,C14*
X122411748Y-104954000D02*
X122934252Y-104954000D01*
X122411748Y-106374000D02*
X122934252Y-106374000D01*
G04 #@! TO.C,D1*
X147082000Y-110180000D02*
X149942000Y-110180000D01*
X149942000Y-110180000D02*
X149942000Y-108260000D01*
X149942000Y-108260000D02*
X147082000Y-108260000D01*
G04 #@! TO.C,D2*
X141396000Y-110180000D02*
X144256000Y-110180000D01*
X141396000Y-108260000D02*
X141396000Y-110180000D01*
X144256000Y-108260000D02*
X141396000Y-108260000D01*
G04 #@! TO.C,R1*
X163051748Y-107494000D02*
X163574252Y-107494000D01*
X163051748Y-108914000D02*
X163574252Y-108914000D01*
G04 #@! TO.C,R2*
X163060748Y-106374000D02*
X163583252Y-106374000D01*
X163060748Y-104954000D02*
X163583252Y-104954000D01*
G04 #@! TO.C,R3*
X145304252Y-89460000D02*
X144781748Y-89460000D01*
X145304252Y-90880000D02*
X144781748Y-90880000D01*
G04 #@! TO.C,R4*
X147067748Y-105716000D02*
X147590252Y-105716000D01*
X147067748Y-107136000D02*
X147590252Y-107136000D01*
G04 #@! TO.C,R5*
X139394000Y-108719252D02*
X139394000Y-108196748D01*
X137974000Y-108719252D02*
X137974000Y-108196748D01*
G04 #@! TO.C,R6*
X136704000Y-98051252D02*
X136704000Y-97528748D01*
X138124000Y-98051252D02*
X138124000Y-97528748D01*
G04 #@! TO.C,R8*
X120902252Y-107748000D02*
X120379748Y-107748000D01*
X120902252Y-109168000D02*
X120379748Y-109168000D01*
G04 #@! TO.C,R9*
X117146000Y-100346252D02*
X117146000Y-99823748D01*
X118566000Y-100346252D02*
X118566000Y-99823748D01*
G04 #@! TO.C,R10*
X127456000Y-106155748D02*
X127456000Y-106678252D01*
X126036000Y-106155748D02*
X126036000Y-106678252D01*
G04 #@! TO.C,R11*
X127261252Y-87428000D02*
X126738748Y-87428000D01*
X127261252Y-88848000D02*
X126738748Y-88848000D01*
G04 #@! TO.C,R12*
X117146000Y-95266252D02*
X117146000Y-94743748D01*
X118566000Y-95266252D02*
X118566000Y-94743748D01*
G04 #@! TO.C,R13*
X117095200Y-90786852D02*
X117095200Y-90264348D01*
X118515200Y-90786852D02*
X118515200Y-90264348D01*
G04 #@! TO.C,U1*
X117820000Y-111144000D02*
X123830000Y-111144000D01*
X120070000Y-117964000D02*
X123830000Y-117964000D01*
X123830000Y-111144000D02*
X123830000Y-112404000D01*
X123830000Y-117964000D02*
X123830000Y-116704000D01*
G04 #@! TO.C,U2*
X126065200Y-83877200D02*
X126065200Y-82617200D01*
X126065200Y-77057200D02*
X126065200Y-78317200D01*
X122305200Y-83877200D02*
X126065200Y-83877200D01*
X120055200Y-77057200D02*
X126065200Y-77057200D01*
G04 #@! TO.C,SW2*
X162620000Y-77156000D02*
X159960000Y-77156000D01*
X162620000Y-82296000D02*
X162620000Y-77156000D01*
X159960000Y-82296000D02*
X159960000Y-77156000D01*
X162620000Y-82296000D02*
X159960000Y-82296000D01*
X162620000Y-83566000D02*
X162620000Y-84896000D01*
X162620000Y-84896000D02*
X161290000Y-84896000D01*
D11*
G04 #@! TO.C,U4*
X128821000Y-103794000D02*
X128821000Y-103744000D01*
X124671000Y-103794000D02*
X124671000Y-103649000D01*
X124671000Y-98644000D02*
X124671000Y-98789000D01*
X128821000Y-98644000D02*
X128821000Y-98789000D01*
X128821000Y-103794000D02*
X124671000Y-103794000D01*
X128821000Y-98644000D02*
X124671000Y-98644000D01*
X128821000Y-103744000D02*
X130221000Y-103744000D01*
G04 #@! TO.C,U5*
X128821000Y-94727000D02*
X130221000Y-94727000D01*
X128821000Y-89627000D02*
X124671000Y-89627000D01*
X128821000Y-94777000D02*
X124671000Y-94777000D01*
X128821000Y-89627000D02*
X128821000Y-89772000D01*
X124671000Y-89627000D02*
X124671000Y-89772000D01*
X124671000Y-94777000D02*
X124671000Y-94632000D01*
X128821000Y-94777000D02*
X128821000Y-94727000D01*
D12*
G04 #@! TO.C,J1*
X160820000Y-112124000D02*
X160820000Y-111524000D01*
X159220000Y-112124000D02*
X160820000Y-112124000D01*
X159220000Y-111524000D02*
X159220000Y-112124000D01*
X158280000Y-112124000D02*
X158280000Y-111524000D01*
X156680000Y-112124000D02*
X158280000Y-112124000D01*
X156680000Y-111524000D02*
X156680000Y-112124000D01*
X155740000Y-112124000D02*
X155740000Y-111524000D01*
X154140000Y-112124000D02*
X155740000Y-112124000D01*
X154140000Y-111524000D02*
X154140000Y-112124000D01*
X153200000Y-112124000D02*
X153200000Y-111524000D01*
X151600000Y-112124000D02*
X153200000Y-112124000D01*
X151600000Y-111524000D02*
X151600000Y-112124000D01*
X159770000Y-117544000D02*
X159770000Y-116544000D01*
X152650000Y-117544000D02*
X152650000Y-116544000D01*
X159770000Y-116014000D02*
X160020000Y-116544000D01*
X152650000Y-116014000D02*
X159770000Y-116014000D01*
X152400000Y-116544000D02*
X152650000Y-116014000D01*
X160020000Y-116544000D02*
X160020000Y-117544000D01*
X152400000Y-116544000D02*
X160020000Y-116544000D01*
X152400000Y-117544000D02*
X152400000Y-116544000D01*
X150730000Y-112554000D02*
X150730000Y-116554000D01*
X161400000Y-111524000D02*
X151020000Y-111524000D01*
X161400000Y-117544000D02*
X161400000Y-111524000D01*
X151020000Y-117544000D02*
X161400000Y-117544000D01*
X151020000Y-111524000D02*
X151020000Y-117544000D01*
G04 #@! TO.C,J2*
X166134000Y-112124000D02*
X172154000Y-112124000D01*
X172154000Y-112124000D02*
X172154000Y-101744000D01*
X172154000Y-101744000D02*
X166134000Y-101744000D01*
X166134000Y-101744000D02*
X166134000Y-112124000D01*
X167164000Y-112414000D02*
X171164000Y-112414000D01*
X172154000Y-110744000D02*
X171154000Y-110744000D01*
X171154000Y-110744000D02*
X171154000Y-103124000D01*
X171154000Y-103124000D02*
X172154000Y-103124000D01*
X171154000Y-110744000D02*
X170624000Y-110494000D01*
X170624000Y-110494000D02*
X170624000Y-103374000D01*
X170624000Y-103374000D02*
X171154000Y-103124000D01*
X172154000Y-110494000D02*
X171154000Y-110494000D01*
X172154000Y-103374000D02*
X171154000Y-103374000D01*
X166134000Y-111544000D02*
X166734000Y-111544000D01*
X166734000Y-111544000D02*
X166734000Y-109944000D01*
X166734000Y-109944000D02*
X166134000Y-109944000D01*
X166134000Y-109004000D02*
X166734000Y-109004000D01*
X166734000Y-109004000D02*
X166734000Y-107404000D01*
X166734000Y-107404000D02*
X166134000Y-107404000D01*
X166134000Y-106464000D02*
X166734000Y-106464000D01*
X166734000Y-106464000D02*
X166734000Y-104864000D01*
X166734000Y-104864000D02*
X166134000Y-104864000D01*
X166134000Y-103924000D02*
X166734000Y-103924000D01*
X166734000Y-103924000D02*
X166734000Y-102324000D01*
X166734000Y-102324000D02*
X166134000Y-102324000D01*
G04 #@! TO.C,J3*
X157590000Y-84056000D02*
X157590000Y-78036000D01*
X157590000Y-78036000D02*
X147210000Y-78036000D01*
X147210000Y-78036000D02*
X147210000Y-84056000D01*
X147210000Y-84056000D02*
X157590000Y-84056000D01*
X157880000Y-83026000D02*
X157880000Y-79026000D01*
X156210000Y-78036000D02*
X156210000Y-79036000D01*
X156210000Y-79036000D02*
X148590000Y-79036000D01*
X148590000Y-79036000D02*
X148590000Y-78036000D01*
X156210000Y-79036000D02*
X155960000Y-79566000D01*
X155960000Y-79566000D02*
X148840000Y-79566000D01*
X148840000Y-79566000D02*
X148590000Y-79036000D01*
X155960000Y-78036000D02*
X155960000Y-79036000D01*
X148840000Y-78036000D02*
X148840000Y-79036000D01*
X157010000Y-84056000D02*
X157010000Y-83456000D01*
X157010000Y-83456000D02*
X155410000Y-83456000D01*
X155410000Y-83456000D02*
X155410000Y-84056000D01*
X154470000Y-84056000D02*
X154470000Y-83456000D01*
X154470000Y-83456000D02*
X152870000Y-83456000D01*
X152870000Y-83456000D02*
X152870000Y-84056000D01*
X151930000Y-84056000D02*
X151930000Y-83456000D01*
X151930000Y-83456000D02*
X150330000Y-83456000D01*
X150330000Y-83456000D02*
X150330000Y-84056000D01*
X149390000Y-84056000D02*
X149390000Y-83456000D01*
X149390000Y-83456000D02*
X147790000Y-83456000D01*
X147790000Y-83456000D02*
X147790000Y-84056000D01*
G04 #@! TO.C,J6*
X166734000Y-84798000D02*
X166134000Y-84798000D01*
X166734000Y-86398000D02*
X166734000Y-84798000D01*
X166134000Y-86398000D02*
X166734000Y-86398000D01*
X166734000Y-87338000D02*
X166134000Y-87338000D01*
X166734000Y-88938000D02*
X166734000Y-87338000D01*
X166134000Y-88938000D02*
X166734000Y-88938000D01*
X166734000Y-89878000D02*
X166134000Y-89878000D01*
X166734000Y-91478000D02*
X166734000Y-89878000D01*
X166134000Y-91478000D02*
X166734000Y-91478000D01*
X166734000Y-92418000D02*
X166134000Y-92418000D01*
X166734000Y-94018000D02*
X166734000Y-92418000D01*
X166134000Y-94018000D02*
X166734000Y-94018000D01*
X172154000Y-85848000D02*
X171154000Y-85848000D01*
X172154000Y-92968000D02*
X171154000Y-92968000D01*
X170624000Y-85848000D02*
X171154000Y-85598000D01*
X170624000Y-92968000D02*
X170624000Y-85848000D01*
X171154000Y-93218000D02*
X170624000Y-92968000D01*
X171154000Y-85598000D02*
X172154000Y-85598000D01*
X171154000Y-93218000D02*
X171154000Y-85598000D01*
X172154000Y-93218000D02*
X171154000Y-93218000D01*
X167164000Y-94888000D02*
X171164000Y-94888000D01*
X166134000Y-84218000D02*
X166134000Y-94598000D01*
X172154000Y-84218000D02*
X166134000Y-84218000D01*
X172154000Y-94598000D02*
X172154000Y-84218000D01*
X166134000Y-94598000D02*
X172154000Y-94598000D01*
G04 #@! TO.C,R7*
X144778252Y-85904000D02*
X144255748Y-85904000D01*
X144778252Y-87324000D02*
X144255748Y-87324000D01*
G04 #@! TO.C,R14*
X137158252Y-87324000D02*
X136635748Y-87324000D01*
X137158252Y-85904000D02*
X136635748Y-85904000D01*
G04 #@! TO.C,SW5*
X165294000Y-96968000D02*
X165294000Y-99628000D01*
X170434000Y-96968000D02*
X165294000Y-96968000D01*
X170434000Y-99628000D02*
X165294000Y-99628000D01*
X170434000Y-96968000D02*
X170434000Y-99628000D01*
X171704000Y-96968000D02*
X173034000Y-96968000D01*
X173034000Y-96968000D02*
X173034000Y-98298000D01*
G04 #@! TO.C,R15*
X143526252Y-106882000D02*
X143003748Y-106882000D01*
X143526252Y-105462000D02*
X143003748Y-105462000D01*
G04 #@! TO.C,U6*
X135280000Y-108342000D02*
X135280000Y-106542000D01*
X132060000Y-106542000D02*
X132060000Y-108992000D01*
G04 #@! TO.C,J5*
X131970000Y-111524000D02*
X131970000Y-117544000D01*
X131970000Y-117544000D02*
X142350000Y-117544000D01*
X142350000Y-117544000D02*
X142350000Y-111524000D01*
X142350000Y-111524000D02*
X131970000Y-111524000D01*
X131680000Y-112554000D02*
X131680000Y-116554000D01*
X133350000Y-117544000D02*
X133350000Y-116544000D01*
X133350000Y-116544000D02*
X140970000Y-116544000D01*
X140970000Y-116544000D02*
X140970000Y-117544000D01*
X133350000Y-116544000D02*
X133600000Y-116014000D01*
X133600000Y-116014000D02*
X140720000Y-116014000D01*
X140720000Y-116014000D02*
X140970000Y-116544000D01*
X133600000Y-117544000D02*
X133600000Y-116544000D01*
X140720000Y-117544000D02*
X140720000Y-116544000D01*
X132550000Y-111524000D02*
X132550000Y-112124000D01*
X132550000Y-112124000D02*
X134150000Y-112124000D01*
X134150000Y-112124000D02*
X134150000Y-111524000D01*
X135090000Y-111524000D02*
X135090000Y-112124000D01*
X135090000Y-112124000D02*
X136690000Y-112124000D01*
X136690000Y-112124000D02*
X136690000Y-111524000D01*
X137630000Y-111524000D02*
X137630000Y-112124000D01*
X137630000Y-112124000D02*
X139230000Y-112124000D01*
X139230000Y-112124000D02*
X139230000Y-111524000D01*
X140170000Y-111524000D02*
X140170000Y-112124000D01*
X140170000Y-112124000D02*
X141770000Y-112124000D01*
X141770000Y-112124000D02*
X141770000Y-111524000D01*
G04 #@! TO.C,J7*
X140170000Y-83456000D02*
X140170000Y-84056000D01*
X141770000Y-83456000D02*
X140170000Y-83456000D01*
X141770000Y-84056000D02*
X141770000Y-83456000D01*
X142710000Y-83456000D02*
X142710000Y-84056000D01*
X144310000Y-83456000D02*
X142710000Y-83456000D01*
X144310000Y-84056000D02*
X144310000Y-83456000D01*
X141220000Y-78036000D02*
X141220000Y-79036000D01*
X143260000Y-78036000D02*
X143260000Y-79036000D01*
X141220000Y-79566000D02*
X140970000Y-79036000D01*
X143260000Y-79566000D02*
X141220000Y-79566000D01*
X143510000Y-79036000D02*
X143260000Y-79566000D01*
X140970000Y-79036000D02*
X140970000Y-78036000D01*
X143510000Y-79036000D02*
X140970000Y-79036000D01*
X143510000Y-78036000D02*
X143510000Y-79036000D01*
X145180000Y-83026000D02*
X145180000Y-79026000D01*
X139590000Y-84056000D02*
X144890000Y-84056000D01*
X139590000Y-78036000D02*
X139590000Y-84056000D01*
X144890000Y-78036000D02*
X139590000Y-78036000D01*
X144890000Y-84056000D02*
X144890000Y-78036000D01*
G04 #@! TO.C,J9*
X137270000Y-84056000D02*
X137270000Y-78036000D01*
X137270000Y-78036000D02*
X131970000Y-78036000D01*
X131970000Y-78036000D02*
X131970000Y-84056000D01*
X131970000Y-84056000D02*
X137270000Y-84056000D01*
X137560000Y-83026000D02*
X137560000Y-79026000D01*
X135890000Y-78036000D02*
X135890000Y-79036000D01*
X135890000Y-79036000D02*
X133350000Y-79036000D01*
X133350000Y-79036000D02*
X133350000Y-78036000D01*
X135890000Y-79036000D02*
X135640000Y-79566000D01*
X135640000Y-79566000D02*
X133600000Y-79566000D01*
X133600000Y-79566000D02*
X133350000Y-79036000D01*
X135640000Y-78036000D02*
X135640000Y-79036000D01*
X133600000Y-78036000D02*
X133600000Y-79036000D01*
X136690000Y-84056000D02*
X136690000Y-83456000D01*
X136690000Y-83456000D02*
X135090000Y-83456000D01*
X135090000Y-83456000D02*
X135090000Y-84056000D01*
X134150000Y-84056000D02*
X134150000Y-83456000D01*
X134150000Y-83456000D02*
X132550000Y-83456000D01*
X132550000Y-83456000D02*
X132550000Y-84056000D01*
G04 #@! TO.C,C15*
X130631000Y-107171748D02*
X130631000Y-107694252D01*
X129211000Y-107171748D02*
X129211000Y-107694252D01*
G04 #@! TO.C,C7*
D11*
X118451333Y-86209142D02*
X118403714Y-86256761D01*
X118260857Y-86304380D01*
X118165619Y-86304380D01*
X118022761Y-86256761D01*
X117927523Y-86161523D01*
X117879904Y-86066285D01*
X117832285Y-85875809D01*
X117832285Y-85732952D01*
X117879904Y-85542476D01*
X117927523Y-85447238D01*
X118022761Y-85352000D01*
X118165619Y-85304380D01*
X118260857Y-85304380D01*
X118403714Y-85352000D01*
X118451333Y-85399619D01*
X118784666Y-85304380D02*
X119451333Y-85304380D01*
X119022761Y-86304380D01*
G04 #@! TO.C,C13*
X120261142Y-97131142D02*
X120213523Y-97178761D01*
X120070666Y-97226380D01*
X119975428Y-97226380D01*
X119832571Y-97178761D01*
X119737333Y-97083523D01*
X119689714Y-96988285D01*
X119642095Y-96797809D01*
X119642095Y-96654952D01*
X119689714Y-96464476D01*
X119737333Y-96369238D01*
X119832571Y-96274000D01*
X119975428Y-96226380D01*
X120070666Y-96226380D01*
X120213523Y-96274000D01*
X120261142Y-96321619D01*
X121213523Y-97226380D02*
X120642095Y-97226380D01*
X120927809Y-97226380D02*
X120927809Y-96226380D01*
X120832571Y-96369238D01*
X120737333Y-96464476D01*
X120642095Y-96512095D01*
X121546857Y-96226380D02*
X122165904Y-96226380D01*
X121832571Y-96607333D01*
X121975428Y-96607333D01*
X122070666Y-96654952D01*
X122118285Y-96702571D01*
X122165904Y-96797809D01*
X122165904Y-97035904D01*
X122118285Y-97131142D01*
X122070666Y-97178761D01*
X121975428Y-97226380D01*
X121689714Y-97226380D01*
X121594476Y-97178761D01*
X121546857Y-97131142D01*
G04 #@! TO.C,J8*
X110918666Y-109942380D02*
X110918666Y-110656666D01*
X110871047Y-110799523D01*
X110775809Y-110894761D01*
X110632952Y-110942380D01*
X110537714Y-110942380D01*
X111537714Y-110370952D02*
X111442476Y-110323333D01*
X111394857Y-110275714D01*
X111347238Y-110180476D01*
X111347238Y-110132857D01*
X111394857Y-110037619D01*
X111442476Y-109990000D01*
X111537714Y-109942380D01*
X111728190Y-109942380D01*
X111823428Y-109990000D01*
X111871047Y-110037619D01*
X111918666Y-110132857D01*
X111918666Y-110180476D01*
X111871047Y-110275714D01*
X111823428Y-110323333D01*
X111728190Y-110370952D01*
X111537714Y-110370952D01*
X111442476Y-110418571D01*
X111394857Y-110466190D01*
X111347238Y-110561428D01*
X111347238Y-110751904D01*
X111394857Y-110847142D01*
X111442476Y-110894761D01*
X111537714Y-110942380D01*
X111728190Y-110942380D01*
X111823428Y-110894761D01*
X111871047Y-110847142D01*
X111918666Y-110751904D01*
X111918666Y-110561428D01*
X111871047Y-110466190D01*
X111823428Y-110418571D01*
X111728190Y-110370952D01*
G04 #@! TO.C,C10*
X152265142Y-102719142D02*
X152217523Y-102766761D01*
X152074666Y-102814380D01*
X151979428Y-102814380D01*
X151836571Y-102766761D01*
X151741333Y-102671523D01*
X151693714Y-102576285D01*
X151646095Y-102385809D01*
X151646095Y-102242952D01*
X151693714Y-102052476D01*
X151741333Y-101957238D01*
X151836571Y-101862000D01*
X151979428Y-101814380D01*
X152074666Y-101814380D01*
X152217523Y-101862000D01*
X152265142Y-101909619D01*
X153217523Y-102814380D02*
X152646095Y-102814380D01*
X152931809Y-102814380D02*
X152931809Y-101814380D01*
X152836571Y-101957238D01*
X152741333Y-102052476D01*
X152646095Y-102100095D01*
X153836571Y-101814380D02*
X153931809Y-101814380D01*
X154027047Y-101862000D01*
X154074666Y-101909619D01*
X154122285Y-102004857D01*
X154169904Y-102195333D01*
X154169904Y-102433428D01*
X154122285Y-102623904D01*
X154074666Y-102719142D01*
X154027047Y-102766761D01*
X153931809Y-102814380D01*
X153836571Y-102814380D01*
X153741333Y-102766761D01*
X153693714Y-102719142D01*
X153646095Y-102623904D01*
X153598476Y-102433428D01*
X153598476Y-102195333D01*
X153646095Y-102004857D01*
X153693714Y-101909619D01*
X153741333Y-101862000D01*
X153836571Y-101814380D01*
G04 #@! TO.C,U3*
X153162095Y-97496380D02*
X153162095Y-98305904D01*
X153209714Y-98401142D01*
X153257333Y-98448761D01*
X153352571Y-98496380D01*
X153543047Y-98496380D01*
X153638285Y-98448761D01*
X153685904Y-98401142D01*
X153733523Y-98305904D01*
X153733523Y-97496380D01*
X154114476Y-97496380D02*
X154733523Y-97496380D01*
X154400190Y-97877333D01*
X154543047Y-97877333D01*
X154638285Y-97924952D01*
X154685904Y-97972571D01*
X154733523Y-98067809D01*
X154733523Y-98305904D01*
X154685904Y-98401142D01*
X154638285Y-98448761D01*
X154543047Y-98496380D01*
X154257333Y-98496380D01*
X154162095Y-98448761D01*
X154114476Y-98401142D01*
G04 #@! TO.C,C1*
X115657333Y-116689142D02*
X115609714Y-116736761D01*
X115466857Y-116784380D01*
X115371619Y-116784380D01*
X115228761Y-116736761D01*
X115133523Y-116641523D01*
X115085904Y-116546285D01*
X115038285Y-116355809D01*
X115038285Y-116212952D01*
X115085904Y-116022476D01*
X115133523Y-115927238D01*
X115228761Y-115832000D01*
X115371619Y-115784380D01*
X115466857Y-115784380D01*
X115609714Y-115832000D01*
X115657333Y-115879619D01*
X116609714Y-116784380D02*
X116038285Y-116784380D01*
X116324000Y-116784380D02*
X116324000Y-115784380D01*
X116228761Y-115927238D01*
X116133523Y-116022476D01*
X116038285Y-116070095D01*
G04 #@! TO.C,C2*
X113117333Y-116689142D02*
X113069714Y-116736761D01*
X112926857Y-116784380D01*
X112831619Y-116784380D01*
X112688761Y-116736761D01*
X112593523Y-116641523D01*
X112545904Y-116546285D01*
X112498285Y-116355809D01*
X112498285Y-116212952D01*
X112545904Y-116022476D01*
X112593523Y-115927238D01*
X112688761Y-115832000D01*
X112831619Y-115784380D01*
X112926857Y-115784380D01*
X113069714Y-115832000D01*
X113117333Y-115879619D01*
X113498285Y-115879619D02*
X113545904Y-115832000D01*
X113641142Y-115784380D01*
X113879238Y-115784380D01*
X113974476Y-115832000D01*
X114022095Y-115879619D01*
X114069714Y-115974857D01*
X114069714Y-116070095D01*
X114022095Y-116212952D01*
X113450666Y-116784380D01*
X114069714Y-116784380D01*
G04 #@! TO.C,C3*
X127341333Y-115673142D02*
X127293714Y-115720761D01*
X127150857Y-115768380D01*
X127055619Y-115768380D01*
X126912761Y-115720761D01*
X126817523Y-115625523D01*
X126769904Y-115530285D01*
X126722285Y-115339809D01*
X126722285Y-115196952D01*
X126769904Y-115006476D01*
X126817523Y-114911238D01*
X126912761Y-114816000D01*
X127055619Y-114768380D01*
X127150857Y-114768380D01*
X127293714Y-114816000D01*
X127341333Y-114863619D01*
X127674666Y-114768380D02*
X128293714Y-114768380D01*
X127960380Y-115149333D01*
X128103238Y-115149333D01*
X128198476Y-115196952D01*
X128246095Y-115244571D01*
X128293714Y-115339809D01*
X128293714Y-115577904D01*
X128246095Y-115673142D01*
X128198476Y-115720761D01*
X128103238Y-115768380D01*
X127817523Y-115768380D01*
X127722285Y-115720761D01*
X127674666Y-115673142D01*
G04 #@! TO.C,C4*
X129881333Y-115673142D02*
X129833714Y-115720761D01*
X129690857Y-115768380D01*
X129595619Y-115768380D01*
X129452761Y-115720761D01*
X129357523Y-115625523D01*
X129309904Y-115530285D01*
X129262285Y-115339809D01*
X129262285Y-115196952D01*
X129309904Y-115006476D01*
X129357523Y-114911238D01*
X129452761Y-114816000D01*
X129595619Y-114768380D01*
X129690857Y-114768380D01*
X129833714Y-114816000D01*
X129881333Y-114863619D01*
X130738476Y-115101714D02*
X130738476Y-115768380D01*
X130500380Y-114720761D02*
X130262285Y-115435047D01*
X130881333Y-115435047D01*
G04 #@! TO.C,C5*
X117943333Y-76811142D02*
X117895714Y-76858761D01*
X117752857Y-76906380D01*
X117657619Y-76906380D01*
X117514761Y-76858761D01*
X117419523Y-76763523D01*
X117371904Y-76668285D01*
X117324285Y-76477809D01*
X117324285Y-76334952D01*
X117371904Y-76144476D01*
X117419523Y-76049238D01*
X117514761Y-75954000D01*
X117657619Y-75906380D01*
X117752857Y-75906380D01*
X117895714Y-75954000D01*
X117943333Y-76001619D01*
X118848095Y-75906380D02*
X118371904Y-75906380D01*
X118324285Y-76382571D01*
X118371904Y-76334952D01*
X118467142Y-76287333D01*
X118705238Y-76287333D01*
X118800476Y-76334952D01*
X118848095Y-76382571D01*
X118895714Y-76477809D01*
X118895714Y-76715904D01*
X118848095Y-76811142D01*
X118800476Y-76858761D01*
X118705238Y-76906380D01*
X118467142Y-76906380D01*
X118371904Y-76858761D01*
X118324285Y-76811142D01*
G04 #@! TO.C,C6*
X114895333Y-76811142D02*
X114847714Y-76858761D01*
X114704857Y-76906380D01*
X114609619Y-76906380D01*
X114466761Y-76858761D01*
X114371523Y-76763523D01*
X114323904Y-76668285D01*
X114276285Y-76477809D01*
X114276285Y-76334952D01*
X114323904Y-76144476D01*
X114371523Y-76049238D01*
X114466761Y-75954000D01*
X114609619Y-75906380D01*
X114704857Y-75906380D01*
X114847714Y-75954000D01*
X114895333Y-76001619D01*
X115752476Y-75906380D02*
X115562000Y-75906380D01*
X115466761Y-75954000D01*
X115419142Y-76001619D01*
X115323904Y-76144476D01*
X115276285Y-76334952D01*
X115276285Y-76715904D01*
X115323904Y-76811142D01*
X115371523Y-76858761D01*
X115466761Y-76906380D01*
X115657238Y-76906380D01*
X115752476Y-76858761D01*
X115800095Y-76811142D01*
X115847714Y-76715904D01*
X115847714Y-76477809D01*
X115800095Y-76382571D01*
X115752476Y-76334952D01*
X115657238Y-76287333D01*
X115466761Y-76287333D01*
X115371523Y-76334952D01*
X115323904Y-76382571D01*
X115276285Y-76477809D01*
G04 #@! TO.C,C8*
X125563333Y-86209142D02*
X125515714Y-86256761D01*
X125372857Y-86304380D01*
X125277619Y-86304380D01*
X125134761Y-86256761D01*
X125039523Y-86161523D01*
X124991904Y-86066285D01*
X124944285Y-85875809D01*
X124944285Y-85732952D01*
X124991904Y-85542476D01*
X125039523Y-85447238D01*
X125134761Y-85352000D01*
X125277619Y-85304380D01*
X125372857Y-85304380D01*
X125515714Y-85352000D01*
X125563333Y-85399619D01*
X126134761Y-85732952D02*
X126039523Y-85685333D01*
X125991904Y-85637714D01*
X125944285Y-85542476D01*
X125944285Y-85494857D01*
X125991904Y-85399619D01*
X126039523Y-85352000D01*
X126134761Y-85304380D01*
X126325238Y-85304380D01*
X126420476Y-85352000D01*
X126468095Y-85399619D01*
X126515714Y-85494857D01*
X126515714Y-85542476D01*
X126468095Y-85637714D01*
X126420476Y-85685333D01*
X126325238Y-85732952D01*
X126134761Y-85732952D01*
X126039523Y-85780571D01*
X125991904Y-85828190D01*
X125944285Y-85923428D01*
X125944285Y-86113904D01*
X125991904Y-86209142D01*
X126039523Y-86256761D01*
X126134761Y-86304380D01*
X126325238Y-86304380D01*
X126420476Y-86256761D01*
X126468095Y-86209142D01*
X126515714Y-86113904D01*
X126515714Y-85923428D01*
X126468095Y-85828190D01*
X126420476Y-85780571D01*
X126325238Y-85732952D01*
G04 #@! TO.C,C9*
X140295333Y-94337142D02*
X140247714Y-94384761D01*
X140104857Y-94432380D01*
X140009619Y-94432380D01*
X139866761Y-94384761D01*
X139771523Y-94289523D01*
X139723904Y-94194285D01*
X139676285Y-94003809D01*
X139676285Y-93860952D01*
X139723904Y-93670476D01*
X139771523Y-93575238D01*
X139866761Y-93480000D01*
X140009619Y-93432380D01*
X140104857Y-93432380D01*
X140247714Y-93480000D01*
X140295333Y-93527619D01*
X140771523Y-94432380D02*
X140962000Y-94432380D01*
X141057238Y-94384761D01*
X141104857Y-94337142D01*
X141200095Y-94194285D01*
X141247714Y-94003809D01*
X141247714Y-93622857D01*
X141200095Y-93527619D01*
X141152476Y-93480000D01*
X141057238Y-93432380D01*
X140866761Y-93432380D01*
X140771523Y-93480000D01*
X140723904Y-93527619D01*
X140676285Y-93622857D01*
X140676285Y-93860952D01*
X140723904Y-93956190D01*
X140771523Y-94003809D01*
X140866761Y-94051428D01*
X141057238Y-94051428D01*
X141152476Y-94003809D01*
X141200095Y-93956190D01*
X141247714Y-93860952D01*
G04 #@! TO.C,C11*
X154043142Y-90781142D02*
X153995523Y-90828761D01*
X153852666Y-90876380D01*
X153757428Y-90876380D01*
X153614571Y-90828761D01*
X153519333Y-90733523D01*
X153471714Y-90638285D01*
X153424095Y-90447809D01*
X153424095Y-90304952D01*
X153471714Y-90114476D01*
X153519333Y-90019238D01*
X153614571Y-89924000D01*
X153757428Y-89876380D01*
X153852666Y-89876380D01*
X153995523Y-89924000D01*
X154043142Y-89971619D01*
X154995523Y-90876380D02*
X154424095Y-90876380D01*
X154709809Y-90876380D02*
X154709809Y-89876380D01*
X154614571Y-90019238D01*
X154519333Y-90114476D01*
X154424095Y-90162095D01*
X155947904Y-90876380D02*
X155376476Y-90876380D01*
X155662190Y-90876380D02*
X155662190Y-89876380D01*
X155566952Y-90019238D01*
X155471714Y-90114476D01*
X155376476Y-90162095D01*
G04 #@! TO.C,C12*
X139057142Y-102465142D02*
X139009523Y-102512761D01*
X138866666Y-102560380D01*
X138771428Y-102560380D01*
X138628571Y-102512761D01*
X138533333Y-102417523D01*
X138485714Y-102322285D01*
X138438095Y-102131809D01*
X138438095Y-101988952D01*
X138485714Y-101798476D01*
X138533333Y-101703238D01*
X138628571Y-101608000D01*
X138771428Y-101560380D01*
X138866666Y-101560380D01*
X139009523Y-101608000D01*
X139057142Y-101655619D01*
X140009523Y-102560380D02*
X139438095Y-102560380D01*
X139723809Y-102560380D02*
X139723809Y-101560380D01*
X139628571Y-101703238D01*
X139533333Y-101798476D01*
X139438095Y-101846095D01*
X140390476Y-101655619D02*
X140438095Y-101608000D01*
X140533333Y-101560380D01*
X140771428Y-101560380D01*
X140866666Y-101608000D01*
X140914285Y-101655619D01*
X140961904Y-101750857D01*
X140961904Y-101846095D01*
X140914285Y-101988952D01*
X140342857Y-102560380D01*
X140961904Y-102560380D01*
G04 #@! TO.C,C14*
X118229142Y-106021142D02*
X118181523Y-106068761D01*
X118038666Y-106116380D01*
X117943428Y-106116380D01*
X117800571Y-106068761D01*
X117705333Y-105973523D01*
X117657714Y-105878285D01*
X117610095Y-105687809D01*
X117610095Y-105544952D01*
X117657714Y-105354476D01*
X117705333Y-105259238D01*
X117800571Y-105164000D01*
X117943428Y-105116380D01*
X118038666Y-105116380D01*
X118181523Y-105164000D01*
X118229142Y-105211619D01*
X119181523Y-106116380D02*
X118610095Y-106116380D01*
X118895809Y-106116380D02*
X118895809Y-105116380D01*
X118800571Y-105259238D01*
X118705333Y-105354476D01*
X118610095Y-105402095D01*
X120038666Y-105449714D02*
X120038666Y-106116380D01*
X119800571Y-105068761D02*
X119562476Y-105783047D01*
X120181523Y-105783047D01*
G04 #@! TO.C,D1*
X150899904Y-109926380D02*
X150899904Y-108926380D01*
X151138000Y-108926380D01*
X151280857Y-108974000D01*
X151376095Y-109069238D01*
X151423714Y-109164476D01*
X151471333Y-109354952D01*
X151471333Y-109497809D01*
X151423714Y-109688285D01*
X151376095Y-109783523D01*
X151280857Y-109878761D01*
X151138000Y-109926380D01*
X150899904Y-109926380D01*
X152423714Y-109926380D02*
X151852285Y-109926380D01*
X152138000Y-109926380D02*
X152138000Y-108926380D01*
X152042761Y-109069238D01*
X151947523Y-109164476D01*
X151852285Y-109212095D01*
G04 #@! TO.C,D2*
X143533904Y-111704380D02*
X143533904Y-110704380D01*
X143772000Y-110704380D01*
X143914857Y-110752000D01*
X144010095Y-110847238D01*
X144057714Y-110942476D01*
X144105333Y-111132952D01*
X144105333Y-111275809D01*
X144057714Y-111466285D01*
X144010095Y-111561523D01*
X143914857Y-111656761D01*
X143772000Y-111704380D01*
X143533904Y-111704380D01*
X144486285Y-110799619D02*
X144533904Y-110752000D01*
X144629142Y-110704380D01*
X144867238Y-110704380D01*
X144962476Y-110752000D01*
X145010095Y-110799619D01*
X145057714Y-110894857D01*
X145057714Y-110990095D01*
X145010095Y-111132952D01*
X144438666Y-111704380D01*
X145057714Y-111704380D01*
G04 #@! TO.C,R1*
X159581333Y-108910380D02*
X159248000Y-108434190D01*
X159009904Y-108910380D02*
X159009904Y-107910380D01*
X159390857Y-107910380D01*
X159486095Y-107958000D01*
X159533714Y-108005619D01*
X159581333Y-108100857D01*
X159581333Y-108243714D01*
X159533714Y-108338952D01*
X159486095Y-108386571D01*
X159390857Y-108434190D01*
X159009904Y-108434190D01*
X160533714Y-108910380D02*
X159962285Y-108910380D01*
X160248000Y-108910380D02*
X160248000Y-107910380D01*
X160152761Y-108053238D01*
X160057523Y-108148476D01*
X159962285Y-108196095D01*
G04 #@! TO.C,R2*
X159608333Y-106116380D02*
X159275000Y-105640190D01*
X159036904Y-106116380D02*
X159036904Y-105116380D01*
X159417857Y-105116380D01*
X159513095Y-105164000D01*
X159560714Y-105211619D01*
X159608333Y-105306857D01*
X159608333Y-105449714D01*
X159560714Y-105544952D01*
X159513095Y-105592571D01*
X159417857Y-105640190D01*
X159036904Y-105640190D01*
X159989285Y-105211619D02*
X160036904Y-105164000D01*
X160132142Y-105116380D01*
X160370238Y-105116380D01*
X160465476Y-105164000D01*
X160513095Y-105211619D01*
X160560714Y-105306857D01*
X160560714Y-105402095D01*
X160513095Y-105544952D01*
X159941666Y-106116380D01*
X160560714Y-106116380D01*
G04 #@! TO.C,R3*
X148169333Y-90622380D02*
X147836000Y-90146190D01*
X147597904Y-90622380D02*
X147597904Y-89622380D01*
X147978857Y-89622380D01*
X148074095Y-89670000D01*
X148121714Y-89717619D01*
X148169333Y-89812857D01*
X148169333Y-89955714D01*
X148121714Y-90050952D01*
X148074095Y-90098571D01*
X147978857Y-90146190D01*
X147597904Y-90146190D01*
X148502666Y-89622380D02*
X149121714Y-89622380D01*
X148788380Y-90003333D01*
X148931238Y-90003333D01*
X149026476Y-90050952D01*
X149074095Y-90098571D01*
X149121714Y-90193809D01*
X149121714Y-90431904D01*
X149074095Y-90527142D01*
X149026476Y-90574761D01*
X148931238Y-90622380D01*
X148645523Y-90622380D01*
X148550285Y-90574761D01*
X148502666Y-90527142D01*
G04 #@! TO.C,R4*
X150201333Y-106966824D02*
X149868000Y-106490634D01*
X149629904Y-106966824D02*
X149629904Y-105966824D01*
X150010857Y-105966824D01*
X150106095Y-106014444D01*
X150153714Y-106062063D01*
X150201333Y-106157301D01*
X150201333Y-106300158D01*
X150153714Y-106395396D01*
X150106095Y-106443015D01*
X150010857Y-106490634D01*
X149629904Y-106490634D01*
X151058476Y-106300158D02*
X151058476Y-106966824D01*
X150820380Y-105919205D02*
X150582285Y-106633491D01*
X151201333Y-106633491D01*
G04 #@! TO.C,R5*
X138517333Y-106116380D02*
X138184000Y-105640190D01*
X137945904Y-106116380D02*
X137945904Y-105116380D01*
X138326857Y-105116380D01*
X138422095Y-105164000D01*
X138469714Y-105211619D01*
X138517333Y-105306857D01*
X138517333Y-105449714D01*
X138469714Y-105544952D01*
X138422095Y-105592571D01*
X138326857Y-105640190D01*
X137945904Y-105640190D01*
X139422095Y-105116380D02*
X138945904Y-105116380D01*
X138898285Y-105592571D01*
X138945904Y-105544952D01*
X139041142Y-105497333D01*
X139279238Y-105497333D01*
X139374476Y-105544952D01*
X139422095Y-105592571D01*
X139469714Y-105687809D01*
X139469714Y-105925904D01*
X139422095Y-106021142D01*
X139374476Y-106068761D01*
X139279238Y-106116380D01*
X139041142Y-106116380D01*
X138945904Y-106068761D01*
X138898285Y-106021142D01*
G04 #@! TO.C,R6*
X135215333Y-97988380D02*
X134882000Y-97512190D01*
X134643904Y-97988380D02*
X134643904Y-96988380D01*
X135024857Y-96988380D01*
X135120095Y-97036000D01*
X135167714Y-97083619D01*
X135215333Y-97178857D01*
X135215333Y-97321714D01*
X135167714Y-97416952D01*
X135120095Y-97464571D01*
X135024857Y-97512190D01*
X134643904Y-97512190D01*
X136072476Y-96988380D02*
X135882000Y-96988380D01*
X135786761Y-97036000D01*
X135739142Y-97083619D01*
X135643904Y-97226476D01*
X135596285Y-97416952D01*
X135596285Y-97797904D01*
X135643904Y-97893142D01*
X135691523Y-97940761D01*
X135786761Y-97988380D01*
X135977238Y-97988380D01*
X136072476Y-97940761D01*
X136120095Y-97893142D01*
X136167714Y-97797904D01*
X136167714Y-97559809D01*
X136120095Y-97464571D01*
X136072476Y-97416952D01*
X135977238Y-97369333D01*
X135786761Y-97369333D01*
X135691523Y-97416952D01*
X135643904Y-97464571D01*
X135596285Y-97559809D01*
G04 #@! TO.C,R8*
X117435333Y-108910380D02*
X117102000Y-108434190D01*
X116863904Y-108910380D02*
X116863904Y-107910380D01*
X117244857Y-107910380D01*
X117340095Y-107958000D01*
X117387714Y-108005619D01*
X117435333Y-108100857D01*
X117435333Y-108243714D01*
X117387714Y-108338952D01*
X117340095Y-108386571D01*
X117244857Y-108434190D01*
X116863904Y-108434190D01*
X118006761Y-108338952D02*
X117911523Y-108291333D01*
X117863904Y-108243714D01*
X117816285Y-108148476D01*
X117816285Y-108100857D01*
X117863904Y-108005619D01*
X117911523Y-107958000D01*
X118006761Y-107910380D01*
X118197238Y-107910380D01*
X118292476Y-107958000D01*
X118340095Y-108005619D01*
X118387714Y-108100857D01*
X118387714Y-108148476D01*
X118340095Y-108243714D01*
X118292476Y-108291333D01*
X118197238Y-108338952D01*
X118006761Y-108338952D01*
X117911523Y-108386571D01*
X117863904Y-108434190D01*
X117816285Y-108529428D01*
X117816285Y-108719904D01*
X117863904Y-108815142D01*
X117911523Y-108862761D01*
X118006761Y-108910380D01*
X118197238Y-108910380D01*
X118292476Y-108862761D01*
X118340095Y-108815142D01*
X118387714Y-108719904D01*
X118387714Y-108529428D01*
X118340095Y-108434190D01*
X118292476Y-108386571D01*
X118197238Y-108338952D01*
G04 #@! TO.C,R9*
X117435333Y-103322380D02*
X117102000Y-102846190D01*
X116863904Y-103322380D02*
X116863904Y-102322380D01*
X117244857Y-102322380D01*
X117340095Y-102370000D01*
X117387714Y-102417619D01*
X117435333Y-102512857D01*
X117435333Y-102655714D01*
X117387714Y-102750952D01*
X117340095Y-102798571D01*
X117244857Y-102846190D01*
X116863904Y-102846190D01*
X117911523Y-103322380D02*
X118102000Y-103322380D01*
X118197238Y-103274761D01*
X118244857Y-103227142D01*
X118340095Y-103084285D01*
X118387714Y-102893809D01*
X118387714Y-102512857D01*
X118340095Y-102417619D01*
X118292476Y-102370000D01*
X118197238Y-102322380D01*
X118006761Y-102322380D01*
X117911523Y-102370000D01*
X117863904Y-102417619D01*
X117816285Y-102512857D01*
X117816285Y-102750952D01*
X117863904Y-102846190D01*
X117911523Y-102893809D01*
X118006761Y-102941428D01*
X118197238Y-102941428D01*
X118292476Y-102893809D01*
X118340095Y-102846190D01*
X118387714Y-102750952D01*
G04 #@! TO.C,R10*
X126103142Y-109926380D02*
X125769809Y-109450190D01*
X125531714Y-109926380D02*
X125531714Y-108926380D01*
X125912666Y-108926380D01*
X126007904Y-108974000D01*
X126055523Y-109021619D01*
X126103142Y-109116857D01*
X126103142Y-109259714D01*
X126055523Y-109354952D01*
X126007904Y-109402571D01*
X125912666Y-109450190D01*
X125531714Y-109450190D01*
X127055523Y-109926380D02*
X126484095Y-109926380D01*
X126769809Y-109926380D02*
X126769809Y-108926380D01*
X126674571Y-109069238D01*
X126579333Y-109164476D01*
X126484095Y-109212095D01*
X127674571Y-108926380D02*
X127769809Y-108926380D01*
X127865047Y-108974000D01*
X127912666Y-109021619D01*
X127960285Y-109116857D01*
X128007904Y-109307333D01*
X128007904Y-109545428D01*
X127960285Y-109735904D01*
X127912666Y-109831142D01*
X127865047Y-109878761D01*
X127769809Y-109926380D01*
X127674571Y-109926380D01*
X127579333Y-109878761D01*
X127531714Y-109831142D01*
X127484095Y-109735904D01*
X127436476Y-109545428D01*
X127436476Y-109307333D01*
X127484095Y-109116857D01*
X127531714Y-109021619D01*
X127579333Y-108974000D01*
X127674571Y-108926380D01*
G04 #@! TO.C,R11*
X129913142Y-88590380D02*
X129579809Y-88114190D01*
X129341714Y-88590380D02*
X129341714Y-87590380D01*
X129722666Y-87590380D01*
X129817904Y-87638000D01*
X129865523Y-87685619D01*
X129913142Y-87780857D01*
X129913142Y-87923714D01*
X129865523Y-88018952D01*
X129817904Y-88066571D01*
X129722666Y-88114190D01*
X129341714Y-88114190D01*
X130865523Y-88590380D02*
X130294095Y-88590380D01*
X130579809Y-88590380D02*
X130579809Y-87590380D01*
X130484571Y-87733238D01*
X130389333Y-87828476D01*
X130294095Y-87876095D01*
X131817904Y-88590380D02*
X131246476Y-88590380D01*
X131532190Y-88590380D02*
X131532190Y-87590380D01*
X131436952Y-87733238D01*
X131341714Y-87828476D01*
X131246476Y-87876095D01*
G04 #@! TO.C,R12*
X119753142Y-95194380D02*
X119419809Y-94718190D01*
X119181714Y-95194380D02*
X119181714Y-94194380D01*
X119562666Y-94194380D01*
X119657904Y-94242000D01*
X119705523Y-94289619D01*
X119753142Y-94384857D01*
X119753142Y-94527714D01*
X119705523Y-94622952D01*
X119657904Y-94670571D01*
X119562666Y-94718190D01*
X119181714Y-94718190D01*
X120705523Y-95194380D02*
X120134095Y-95194380D01*
X120419809Y-95194380D02*
X120419809Y-94194380D01*
X120324571Y-94337238D01*
X120229333Y-94432476D01*
X120134095Y-94480095D01*
X121086476Y-94289619D02*
X121134095Y-94242000D01*
X121229333Y-94194380D01*
X121467428Y-94194380D01*
X121562666Y-94242000D01*
X121610285Y-94289619D01*
X121657904Y-94384857D01*
X121657904Y-94480095D01*
X121610285Y-94622952D01*
X121038857Y-95194380D01*
X121657904Y-95194380D01*
G04 #@! TO.C,R13*
X119905542Y-90825580D02*
X119572209Y-90349390D01*
X119334114Y-90825580D02*
X119334114Y-89825580D01*
X119715066Y-89825580D01*
X119810304Y-89873200D01*
X119857923Y-89920819D01*
X119905542Y-90016057D01*
X119905542Y-90158914D01*
X119857923Y-90254152D01*
X119810304Y-90301771D01*
X119715066Y-90349390D01*
X119334114Y-90349390D01*
X120857923Y-90825580D02*
X120286495Y-90825580D01*
X120572209Y-90825580D02*
X120572209Y-89825580D01*
X120476971Y-89968438D01*
X120381733Y-90063676D01*
X120286495Y-90111295D01*
X121191257Y-89825580D02*
X121810304Y-89825580D01*
X121476971Y-90206533D01*
X121619828Y-90206533D01*
X121715066Y-90254152D01*
X121762685Y-90301771D01*
X121810304Y-90397009D01*
X121810304Y-90635104D01*
X121762685Y-90730342D01*
X121715066Y-90777961D01*
X121619828Y-90825580D01*
X121334114Y-90825580D01*
X121238876Y-90777961D01*
X121191257Y-90730342D01*
G04 #@! TO.C,U1*
X120904095Y-118578380D02*
X120904095Y-119387904D01*
X120951714Y-119483142D01*
X120999333Y-119530761D01*
X121094571Y-119578380D01*
X121285047Y-119578380D01*
X121380285Y-119530761D01*
X121427904Y-119483142D01*
X121475523Y-119387904D01*
X121475523Y-118578380D01*
X122475523Y-119578380D02*
X121904095Y-119578380D01*
X122189809Y-119578380D02*
X122189809Y-118578380D01*
X122094571Y-118721238D01*
X121999333Y-118816476D01*
X121904095Y-118864095D01*
G04 #@! TO.C,U2*
X123393295Y-75419580D02*
X123393295Y-76229104D01*
X123440914Y-76324342D01*
X123488533Y-76371961D01*
X123583771Y-76419580D01*
X123774247Y-76419580D01*
X123869485Y-76371961D01*
X123917104Y-76324342D01*
X123964723Y-76229104D01*
X123964723Y-75419580D01*
X124393295Y-75514819D02*
X124440914Y-75467200D01*
X124536152Y-75419580D01*
X124774247Y-75419580D01*
X124869485Y-75467200D01*
X124917104Y-75514819D01*
X124964723Y-75610057D01*
X124964723Y-75705295D01*
X124917104Y-75848152D01*
X124345676Y-76419580D01*
X124964723Y-76419580D01*
G04 #@! TO.C,U4*
X131445095Y-100417380D02*
X131445095Y-101226904D01*
X131492714Y-101322142D01*
X131540333Y-101369761D01*
X131635571Y-101417380D01*
X131826047Y-101417380D01*
X131921285Y-101369761D01*
X131968904Y-101322142D01*
X132016523Y-101226904D01*
X132016523Y-100417380D01*
X132921285Y-100750714D02*
X132921285Y-101417380D01*
X132683190Y-100369761D02*
X132445095Y-101084047D01*
X133064142Y-101084047D01*
G04 #@! TO.C,U5*
X131064095Y-91400380D02*
X131064095Y-92209904D01*
X131111714Y-92305142D01*
X131159333Y-92352761D01*
X131254571Y-92400380D01*
X131445047Y-92400380D01*
X131540285Y-92352761D01*
X131587904Y-92305142D01*
X131635523Y-92209904D01*
X131635523Y-91400380D01*
X132587904Y-91400380D02*
X132111714Y-91400380D01*
X132064095Y-91876571D01*
X132111714Y-91828952D01*
X132206952Y-91781333D01*
X132445047Y-91781333D01*
X132540285Y-91828952D01*
X132587904Y-91876571D01*
X132635523Y-91971809D01*
X132635523Y-92209904D01*
X132587904Y-92305142D01*
X132540285Y-92352761D01*
X132445047Y-92400380D01*
X132206952Y-92400380D01*
X132111714Y-92352761D01*
X132064095Y-92305142D01*
G04 #@! TO.C,R7*
X144359333Y-88844380D02*
X144026000Y-88368190D01*
X143787904Y-88844380D02*
X143787904Y-87844380D01*
X144168857Y-87844380D01*
X144264095Y-87892000D01*
X144311714Y-87939619D01*
X144359333Y-88034857D01*
X144359333Y-88177714D01*
X144311714Y-88272952D01*
X144264095Y-88320571D01*
X144168857Y-88368190D01*
X143787904Y-88368190D01*
X144692666Y-87844380D02*
X145359333Y-87844380D01*
X144930761Y-88844380D01*
G04 #@! TO.C,R14*
X136263142Y-89098380D02*
X135929809Y-88622190D01*
X135691714Y-89098380D02*
X135691714Y-88098380D01*
X136072666Y-88098380D01*
X136167904Y-88146000D01*
X136215523Y-88193619D01*
X136263142Y-88288857D01*
X136263142Y-88431714D01*
X136215523Y-88526952D01*
X136167904Y-88574571D01*
X136072666Y-88622190D01*
X135691714Y-88622190D01*
X137215523Y-89098380D02*
X136644095Y-89098380D01*
X136929809Y-89098380D02*
X136929809Y-88098380D01*
X136834571Y-88241238D01*
X136739333Y-88336476D01*
X136644095Y-88384095D01*
X138072666Y-88431714D02*
X138072666Y-89098380D01*
X137834571Y-88050761D02*
X137596476Y-88765047D01*
X138215523Y-88765047D01*
G04 #@! TO.C,R15*
X142867142Y-104846380D02*
X142533809Y-104370190D01*
X142295714Y-104846380D02*
X142295714Y-103846380D01*
X142676666Y-103846380D01*
X142771904Y-103894000D01*
X142819523Y-103941619D01*
X142867142Y-104036857D01*
X142867142Y-104179714D01*
X142819523Y-104274952D01*
X142771904Y-104322571D01*
X142676666Y-104370190D01*
X142295714Y-104370190D01*
X143819523Y-104846380D02*
X143248095Y-104846380D01*
X143533809Y-104846380D02*
X143533809Y-103846380D01*
X143438571Y-103989238D01*
X143343333Y-104084476D01*
X143248095Y-104132095D01*
X144724285Y-103846380D02*
X144248095Y-103846380D01*
X144200476Y-104322571D01*
X144248095Y-104274952D01*
X144343333Y-104227333D01*
X144581428Y-104227333D01*
X144676666Y-104274952D01*
X144724285Y-104322571D01*
X144771904Y-104417809D01*
X144771904Y-104655904D01*
X144724285Y-104751142D01*
X144676666Y-104798761D01*
X144581428Y-104846380D01*
X144343333Y-104846380D01*
X144248095Y-104798761D01*
X144200476Y-104751142D01*
G04 #@! TO.C,U6*
X132842095Y-103338380D02*
X132842095Y-104147904D01*
X132889714Y-104243142D01*
X132937333Y-104290761D01*
X133032571Y-104338380D01*
X133223047Y-104338380D01*
X133318285Y-104290761D01*
X133365904Y-104243142D01*
X133413523Y-104147904D01*
X133413523Y-103338380D01*
X134318285Y-103338380D02*
X134127809Y-103338380D01*
X134032571Y-103386000D01*
X133984952Y-103433619D01*
X133889714Y-103576476D01*
X133842095Y-103766952D01*
X133842095Y-104147904D01*
X133889714Y-104243142D01*
X133937333Y-104290761D01*
X134032571Y-104338380D01*
X134223047Y-104338380D01*
X134318285Y-104290761D01*
X134365904Y-104243142D01*
X134413523Y-104147904D01*
X134413523Y-103909809D01*
X134365904Y-103814571D01*
X134318285Y-103766952D01*
X134223047Y-103719333D01*
X134032571Y-103719333D01*
X133937333Y-103766952D01*
X133889714Y-103814571D01*
X133842095Y-103909809D01*
G04 #@! TO.C,C15*
X129405142Y-110847142D02*
X129357523Y-110894761D01*
X129214666Y-110942380D01*
X129119428Y-110942380D01*
X128976571Y-110894761D01*
X128881333Y-110799523D01*
X128833714Y-110704285D01*
X128786095Y-110513809D01*
X128786095Y-110370952D01*
X128833714Y-110180476D01*
X128881333Y-110085238D01*
X128976571Y-109990000D01*
X129119428Y-109942380D01*
X129214666Y-109942380D01*
X129357523Y-109990000D01*
X129405142Y-110037619D01*
X130357523Y-110942380D02*
X129786095Y-110942380D01*
X130071809Y-110942380D02*
X130071809Y-109942380D01*
X129976571Y-110085238D01*
X129881333Y-110180476D01*
X129786095Y-110228095D01*
X131262285Y-109942380D02*
X130786095Y-109942380D01*
X130738476Y-110418571D01*
X130786095Y-110370952D01*
X130881333Y-110323333D01*
X131119428Y-110323333D01*
X131214666Y-110370952D01*
X131262285Y-110418571D01*
X131309904Y-110513809D01*
X131309904Y-110751904D01*
X131262285Y-110847142D01*
X131214666Y-110894761D01*
X131119428Y-110942380D01*
X130881333Y-110942380D01*
X130786095Y-110894761D01*
X130738476Y-110847142D01*
G04 #@! TD*
M02*
