G04 #@! TF.GenerationSoftware,KiCad,Pcbnew,5.0.2-bee76a0~70~ubuntu18.04.1*
G04 #@! TF.CreationDate,2019-05-14T19:54:41+02:00*
G04 #@! TF.ProjectId,support_board,73757070-6f72-4745-9f62-6f6172642e6b,rev?*
G04 #@! TF.SameCoordinates,Original*
G04 #@! TF.FileFunction,Soldermask,Top*
G04 #@! TF.FilePolarity,Negative*
%FSLAX46Y46*%
G04 Gerber Fmt 4.6, Leading zero omitted, Abs format (unit mm)*
G04 Created by KiCad (PCBNEW 5.0.2-bee76a0~70~ubuntu18.04.1) date Út 14. května 2019, 19:54:41 CEST*
%MOMM*%
%LPD*%
G01*
G04 APERTURE LIST*
%ADD10C,0.100000*%
G04 APERTURE END LIST*
D10*
G36*
X172212941Y-116446248D02*
X172212943Y-116446249D01*
X172212944Y-116446249D01*
X172768190Y-116676239D01*
X173073960Y-116880548D01*
X173267902Y-117010136D01*
X173692864Y-117435098D01*
X173692866Y-117435101D01*
X174026761Y-117934810D01*
X174035983Y-117957075D01*
X174256752Y-118490059D01*
X174356197Y-118990000D01*
X174374000Y-119079503D01*
X174374000Y-119680497D01*
X174256751Y-120269944D01*
X174026761Y-120825190D01*
X174026760Y-120825191D01*
X173692864Y-121324902D01*
X173267902Y-121749864D01*
X173267899Y-121749866D01*
X172768190Y-122083761D01*
X172212944Y-122313751D01*
X172212943Y-122313751D01*
X172212941Y-122313752D01*
X171623499Y-122431000D01*
X171022501Y-122431000D01*
X170433059Y-122313752D01*
X170433057Y-122313751D01*
X170433056Y-122313751D01*
X169877810Y-122083761D01*
X169378101Y-121749866D01*
X169378098Y-121749864D01*
X168953136Y-121324902D01*
X168619240Y-120825191D01*
X168619239Y-120825190D01*
X168389249Y-120269944D01*
X168272000Y-119680497D01*
X168272000Y-119079503D01*
X168289803Y-118990000D01*
X168389248Y-118490059D01*
X168610017Y-117957075D01*
X168619239Y-117934810D01*
X168953134Y-117435101D01*
X168953136Y-117435098D01*
X169378098Y-117010136D01*
X169572040Y-116880548D01*
X169877810Y-116676239D01*
X170433056Y-116446249D01*
X170433057Y-116446249D01*
X170433059Y-116446248D01*
X171022501Y-116329000D01*
X171623499Y-116329000D01*
X172212941Y-116446248D01*
X172212941Y-116446248D01*
G37*
G36*
X123952941Y-116446248D02*
X123952943Y-116446249D01*
X123952944Y-116446249D01*
X124508190Y-116676239D01*
X124813960Y-116880548D01*
X125007902Y-117010136D01*
X125432864Y-117435098D01*
X125432866Y-117435101D01*
X125766761Y-117934810D01*
X125775983Y-117957075D01*
X125996752Y-118490059D01*
X126096197Y-118990000D01*
X126114000Y-119079503D01*
X126114000Y-119680497D01*
X125996751Y-120269944D01*
X125766761Y-120825190D01*
X125766760Y-120825191D01*
X125432864Y-121324902D01*
X125007902Y-121749864D01*
X125007899Y-121749866D01*
X124508190Y-122083761D01*
X123952944Y-122313751D01*
X123952943Y-122313751D01*
X123952941Y-122313752D01*
X123363499Y-122431000D01*
X122762501Y-122431000D01*
X122173059Y-122313752D01*
X122173057Y-122313751D01*
X122173056Y-122313751D01*
X121617810Y-122083761D01*
X121118101Y-121749866D01*
X121118098Y-121749864D01*
X120693136Y-121324902D01*
X120359240Y-120825191D01*
X120359239Y-120825190D01*
X120129249Y-120269944D01*
X120012000Y-119680497D01*
X120012000Y-119079503D01*
X120029803Y-118990000D01*
X120129248Y-118490059D01*
X120350017Y-117957075D01*
X120359239Y-117934810D01*
X120693134Y-117435101D01*
X120693136Y-117435098D01*
X121118098Y-117010136D01*
X121312040Y-116880548D01*
X121617810Y-116676239D01*
X122173056Y-116446249D01*
X122173057Y-116446249D01*
X122173059Y-116446248D01*
X122762501Y-116329000D01*
X123363499Y-116329000D01*
X123952941Y-116446248D01*
X123952941Y-116446248D01*
G37*
G36*
X136458000Y-121719000D02*
X134356000Y-121719000D01*
X134356000Y-120117000D01*
X136458000Y-120117000D01*
X136458000Y-121719000D01*
X136458000Y-121719000D01*
G37*
G36*
X142758000Y-120569000D02*
X140656000Y-120569000D01*
X140656000Y-116667000D01*
X142758000Y-116667000D01*
X142758000Y-120569000D01*
X142758000Y-120569000D01*
G37*
G36*
X136458000Y-119419000D02*
X134356000Y-119419000D01*
X134356000Y-117817000D01*
X136458000Y-117817000D01*
X136458000Y-119419000D01*
X136458000Y-119419000D01*
G37*
G36*
X155644000Y-119248000D02*
X153982000Y-119248000D01*
X153982000Y-118496000D01*
X155644000Y-118496000D01*
X155644000Y-119248000D01*
X155644000Y-119248000D01*
G37*
G36*
X152944000Y-119248000D02*
X151282000Y-119248000D01*
X151282000Y-116596000D01*
X152944000Y-116596000D01*
X152944000Y-119248000D01*
X152944000Y-119248000D01*
G37*
G36*
X132541677Y-117742465D02*
X132579364Y-117753898D01*
X132614103Y-117772466D01*
X132644548Y-117797452D01*
X132669534Y-117827897D01*
X132688102Y-117862636D01*
X132699535Y-117900323D01*
X132704000Y-117945661D01*
X132704000Y-118782339D01*
X132699535Y-118827677D01*
X132688102Y-118865364D01*
X132669534Y-118900103D01*
X132644548Y-118930548D01*
X132614103Y-118955534D01*
X132579364Y-118974102D01*
X132541677Y-118985535D01*
X132496339Y-118990000D01*
X131409661Y-118990000D01*
X131364323Y-118985535D01*
X131326636Y-118974102D01*
X131291897Y-118955534D01*
X131261452Y-118930548D01*
X131236466Y-118900103D01*
X131217898Y-118865364D01*
X131206465Y-118827677D01*
X131202000Y-118782339D01*
X131202000Y-117945661D01*
X131206465Y-117900323D01*
X131217898Y-117862636D01*
X131236466Y-117827897D01*
X131261452Y-117797452D01*
X131291897Y-117772466D01*
X131326636Y-117753898D01*
X131364323Y-117742465D01*
X131409661Y-117738000D01*
X132496339Y-117738000D01*
X132541677Y-117742465D01*
X132541677Y-117742465D01*
G37*
G36*
X129874677Y-117742465D02*
X129912364Y-117753898D01*
X129947103Y-117772466D01*
X129977548Y-117797452D01*
X130002534Y-117827897D01*
X130021102Y-117862636D01*
X130032535Y-117900323D01*
X130037000Y-117945661D01*
X130037000Y-118782339D01*
X130032535Y-118827677D01*
X130021102Y-118865364D01*
X130002534Y-118900103D01*
X129977548Y-118930548D01*
X129947103Y-118955534D01*
X129912364Y-118974102D01*
X129874677Y-118985535D01*
X129829339Y-118990000D01*
X128742661Y-118990000D01*
X128697323Y-118985535D01*
X128659636Y-118974102D01*
X128624897Y-118955534D01*
X128594452Y-118930548D01*
X128569466Y-118900103D01*
X128550898Y-118865364D01*
X128539465Y-118827677D01*
X128535000Y-118782339D01*
X128535000Y-117945661D01*
X128539465Y-117900323D01*
X128550898Y-117862636D01*
X128569466Y-117827897D01*
X128594452Y-117797452D01*
X128624897Y-117772466D01*
X128659636Y-117753898D01*
X128697323Y-117742465D01*
X128742661Y-117738000D01*
X129829339Y-117738000D01*
X129874677Y-117742465D01*
X129874677Y-117742465D01*
G37*
G36*
X155644000Y-117348000D02*
X153982000Y-117348000D01*
X153982000Y-116596000D01*
X155644000Y-116596000D01*
X155644000Y-117348000D01*
X155644000Y-117348000D01*
G37*
G36*
X136458000Y-117119000D02*
X134356000Y-117119000D01*
X134356000Y-115517000D01*
X136458000Y-115517000D01*
X136458000Y-117119000D01*
X136458000Y-117119000D01*
G37*
G36*
X129874677Y-115692465D02*
X129912364Y-115703898D01*
X129947103Y-115722466D01*
X129977548Y-115747452D01*
X130002534Y-115777897D01*
X130021102Y-115812636D01*
X130032535Y-115850323D01*
X130037000Y-115895661D01*
X130037000Y-116732339D01*
X130032535Y-116777677D01*
X130021102Y-116815364D01*
X130002534Y-116850103D01*
X129977548Y-116880548D01*
X129947103Y-116905534D01*
X129912364Y-116924102D01*
X129874677Y-116935535D01*
X129829339Y-116940000D01*
X128742661Y-116940000D01*
X128697323Y-116935535D01*
X128659636Y-116924102D01*
X128624897Y-116905534D01*
X128594452Y-116880548D01*
X128569466Y-116850103D01*
X128550898Y-116815364D01*
X128539465Y-116777677D01*
X128535000Y-116732339D01*
X128535000Y-115895661D01*
X128539465Y-115850323D01*
X128550898Y-115812636D01*
X128569466Y-115777897D01*
X128594452Y-115747452D01*
X128624897Y-115722466D01*
X128659636Y-115703898D01*
X128697323Y-115692465D01*
X128742661Y-115688000D01*
X129829339Y-115688000D01*
X129874677Y-115692465D01*
X129874677Y-115692465D01*
G37*
G36*
X132541677Y-115692465D02*
X132579364Y-115703898D01*
X132614103Y-115722466D01*
X132644548Y-115747452D01*
X132669534Y-115777897D01*
X132688102Y-115812636D01*
X132699535Y-115850323D01*
X132704000Y-115895661D01*
X132704000Y-116732339D01*
X132699535Y-116777677D01*
X132688102Y-116815364D01*
X132669534Y-116850103D01*
X132644548Y-116880548D01*
X132614103Y-116905534D01*
X132579364Y-116924102D01*
X132541677Y-116935535D01*
X132496339Y-116940000D01*
X131409661Y-116940000D01*
X131364323Y-116935535D01*
X131326636Y-116924102D01*
X131291897Y-116905534D01*
X131261452Y-116880548D01*
X131236466Y-116850103D01*
X131217898Y-116815364D01*
X131206465Y-116777677D01*
X131202000Y-116732339D01*
X131202000Y-115895661D01*
X131206465Y-115850323D01*
X131217898Y-115812636D01*
X131236466Y-115777897D01*
X131261452Y-115747452D01*
X131291897Y-115722466D01*
X131326636Y-115703898D01*
X131364323Y-115692465D01*
X131409661Y-115688000D01*
X132496339Y-115688000D01*
X132541677Y-115692465D01*
X132541677Y-115692465D01*
G37*
G36*
X157308677Y-114061465D02*
X157346364Y-114072898D01*
X157381103Y-114091466D01*
X157411548Y-114116452D01*
X157436534Y-114146897D01*
X157455102Y-114181636D01*
X157466535Y-114219323D01*
X157471000Y-114264661D01*
X157471000Y-115351339D01*
X157466535Y-115396677D01*
X157455102Y-115434364D01*
X157436534Y-115469103D01*
X157411548Y-115499548D01*
X157381103Y-115524534D01*
X157346364Y-115543102D01*
X157308677Y-115554535D01*
X157263339Y-115559000D01*
X156426661Y-115559000D01*
X156381323Y-115554535D01*
X156343636Y-115543102D01*
X156308897Y-115524534D01*
X156278452Y-115499548D01*
X156253466Y-115469103D01*
X156234898Y-115434364D01*
X156223465Y-115396677D01*
X156219000Y-115351339D01*
X156219000Y-114264661D01*
X156223465Y-114219323D01*
X156234898Y-114181636D01*
X156253466Y-114146897D01*
X156278452Y-114116452D01*
X156308897Y-114091466D01*
X156343636Y-114072898D01*
X156381323Y-114061465D01*
X156426661Y-114057000D01*
X157263339Y-114057000D01*
X157308677Y-114061465D01*
X157308677Y-114061465D01*
G37*
G36*
X155258677Y-114061465D02*
X155296364Y-114072898D01*
X155331103Y-114091466D01*
X155361548Y-114116452D01*
X155386534Y-114146897D01*
X155405102Y-114181636D01*
X155416535Y-114219323D01*
X155421000Y-114264661D01*
X155421000Y-115351339D01*
X155416535Y-115396677D01*
X155405102Y-115434364D01*
X155386534Y-115469103D01*
X155361548Y-115499548D01*
X155331103Y-115524534D01*
X155296364Y-115543102D01*
X155258677Y-115554535D01*
X155213339Y-115559000D01*
X154376661Y-115559000D01*
X154331323Y-115554535D01*
X154293636Y-115543102D01*
X154258897Y-115524534D01*
X154228452Y-115499548D01*
X154203466Y-115469103D01*
X154184898Y-115434364D01*
X154173465Y-115396677D01*
X154169000Y-115351339D01*
X154169000Y-114264661D01*
X154173465Y-114219323D01*
X154184898Y-114181636D01*
X154203466Y-114146897D01*
X154228452Y-114116452D01*
X154258897Y-114091466D01*
X154293636Y-114072898D01*
X154331323Y-114061465D01*
X154376661Y-114057000D01*
X155213339Y-114057000D01*
X155258677Y-114061465D01*
X155258677Y-114061465D01*
G37*
G36*
X141451677Y-113045465D02*
X141489364Y-113056898D01*
X141524103Y-113075466D01*
X141554548Y-113100452D01*
X141579534Y-113130897D01*
X141598102Y-113165636D01*
X141609535Y-113203323D01*
X141614000Y-113248661D01*
X141614000Y-114335339D01*
X141609535Y-114380677D01*
X141598102Y-114418364D01*
X141579534Y-114453103D01*
X141554548Y-114483548D01*
X141524103Y-114508534D01*
X141489364Y-114527102D01*
X141451677Y-114538535D01*
X141406339Y-114543000D01*
X140569661Y-114543000D01*
X140524323Y-114538535D01*
X140486636Y-114527102D01*
X140451897Y-114508534D01*
X140421452Y-114483548D01*
X140396466Y-114453103D01*
X140377898Y-114418364D01*
X140366465Y-114380677D01*
X140362000Y-114335339D01*
X140362000Y-113248661D01*
X140366465Y-113203323D01*
X140377898Y-113165636D01*
X140396466Y-113130897D01*
X140421452Y-113100452D01*
X140451897Y-113075466D01*
X140486636Y-113056898D01*
X140524323Y-113045465D01*
X140569661Y-113041000D01*
X141406339Y-113041000D01*
X141451677Y-113045465D01*
X141451677Y-113045465D01*
G37*
G36*
X139401677Y-113045465D02*
X139439364Y-113056898D01*
X139474103Y-113075466D01*
X139504548Y-113100452D01*
X139529534Y-113130897D01*
X139548102Y-113165636D01*
X139559535Y-113203323D01*
X139564000Y-113248661D01*
X139564000Y-114335339D01*
X139559535Y-114380677D01*
X139548102Y-114418364D01*
X139529534Y-114453103D01*
X139504548Y-114483548D01*
X139474103Y-114508534D01*
X139439364Y-114527102D01*
X139401677Y-114538535D01*
X139356339Y-114543000D01*
X138519661Y-114543000D01*
X138474323Y-114538535D01*
X138436636Y-114527102D01*
X138401897Y-114508534D01*
X138371452Y-114483548D01*
X138346466Y-114453103D01*
X138327898Y-114418364D01*
X138316465Y-114380677D01*
X138312000Y-114335339D01*
X138312000Y-113248661D01*
X138316465Y-113203323D01*
X138327898Y-113165636D01*
X138346466Y-113130897D01*
X138371452Y-113100452D01*
X138401897Y-113075466D01*
X138436636Y-113056898D01*
X138474323Y-113045465D01*
X138519661Y-113041000D01*
X139356339Y-113041000D01*
X139401677Y-113045465D01*
X139401677Y-113045465D01*
G37*
G36*
X132541677Y-112163465D02*
X132579364Y-112174898D01*
X132614103Y-112193466D01*
X132644548Y-112218452D01*
X132669534Y-112248897D01*
X132688102Y-112283636D01*
X132699535Y-112321323D01*
X132704000Y-112366661D01*
X132704000Y-113203339D01*
X132699535Y-113248677D01*
X132688102Y-113286364D01*
X132669534Y-113321103D01*
X132644548Y-113351548D01*
X132614103Y-113376534D01*
X132579364Y-113395102D01*
X132541677Y-113406535D01*
X132496339Y-113411000D01*
X131409661Y-113411000D01*
X131364323Y-113406535D01*
X131326636Y-113395102D01*
X131291897Y-113376534D01*
X131261452Y-113351548D01*
X131236466Y-113321103D01*
X131217898Y-113286364D01*
X131206465Y-113248677D01*
X131202000Y-113203339D01*
X131202000Y-112366661D01*
X131206465Y-112321323D01*
X131217898Y-112283636D01*
X131236466Y-112248897D01*
X131261452Y-112218452D01*
X131291897Y-112193466D01*
X131326636Y-112174898D01*
X131364323Y-112163465D01*
X131409661Y-112159000D01*
X132496339Y-112159000D01*
X132541677Y-112163465D01*
X132541677Y-112163465D01*
G37*
G36*
X141451677Y-110886465D02*
X141489364Y-110897898D01*
X141524103Y-110916466D01*
X141554548Y-110941452D01*
X141579534Y-110971897D01*
X141598102Y-111006636D01*
X141609535Y-111044323D01*
X141614000Y-111089661D01*
X141614000Y-112176339D01*
X141609535Y-112221677D01*
X141598102Y-112259364D01*
X141579534Y-112294103D01*
X141554548Y-112324548D01*
X141524103Y-112349534D01*
X141489364Y-112368102D01*
X141451677Y-112379535D01*
X141406339Y-112384000D01*
X140569661Y-112384000D01*
X140524323Y-112379535D01*
X140486636Y-112368102D01*
X140451897Y-112349534D01*
X140421452Y-112324548D01*
X140396466Y-112294103D01*
X140377898Y-112259364D01*
X140366465Y-112221677D01*
X140362000Y-112176339D01*
X140362000Y-111089661D01*
X140366465Y-111044323D01*
X140377898Y-111006636D01*
X140396466Y-110971897D01*
X140421452Y-110941452D01*
X140451897Y-110916466D01*
X140486636Y-110897898D01*
X140524323Y-110886465D01*
X140569661Y-110882000D01*
X141406339Y-110882000D01*
X141451677Y-110886465D01*
X141451677Y-110886465D01*
G37*
G36*
X139401677Y-110886465D02*
X139439364Y-110897898D01*
X139474103Y-110916466D01*
X139504548Y-110941452D01*
X139529534Y-110971897D01*
X139548102Y-111006636D01*
X139559535Y-111044323D01*
X139564000Y-111089661D01*
X139564000Y-112176339D01*
X139559535Y-112221677D01*
X139548102Y-112259364D01*
X139529534Y-112294103D01*
X139504548Y-112324548D01*
X139474103Y-112349534D01*
X139439364Y-112368102D01*
X139401677Y-112379535D01*
X139356339Y-112384000D01*
X138519661Y-112384000D01*
X138474323Y-112379535D01*
X138436636Y-112368102D01*
X138401897Y-112349534D01*
X138371452Y-112324548D01*
X138346466Y-112294103D01*
X138327898Y-112259364D01*
X138316465Y-112221677D01*
X138312000Y-112176339D01*
X138312000Y-111089661D01*
X138316465Y-111044323D01*
X138327898Y-111006636D01*
X138346466Y-110971897D01*
X138371452Y-110941452D01*
X138401897Y-110916466D01*
X138436636Y-110897898D01*
X138474323Y-110886465D01*
X138519661Y-110882000D01*
X139356339Y-110882000D01*
X139401677Y-110886465D01*
X139401677Y-110886465D01*
G37*
G36*
X165214000Y-112025000D02*
X164112000Y-112025000D01*
X164112000Y-109423000D01*
X165214000Y-109423000D01*
X165214000Y-112025000D01*
X165214000Y-112025000D01*
G37*
G36*
X155214000Y-112025000D02*
X154112000Y-112025000D01*
X154112000Y-109423000D01*
X155214000Y-109423000D01*
X155214000Y-112025000D01*
X155214000Y-112025000D01*
G37*
G36*
X163214000Y-112025000D02*
X162112000Y-112025000D01*
X162112000Y-109423000D01*
X163214000Y-109423000D01*
X163214000Y-112025000D01*
X163214000Y-112025000D01*
G37*
G36*
X161214000Y-112025000D02*
X160112000Y-112025000D01*
X160112000Y-109423000D01*
X161214000Y-109423000D01*
X161214000Y-112025000D01*
X161214000Y-112025000D01*
G37*
G36*
X159214000Y-112025000D02*
X158112000Y-112025000D01*
X158112000Y-109423000D01*
X159214000Y-109423000D01*
X159214000Y-112025000D01*
X159214000Y-112025000D01*
G37*
G36*
X157214000Y-112025000D02*
X156112000Y-112025000D01*
X156112000Y-109423000D01*
X157214000Y-109423000D01*
X157214000Y-112025000D01*
X157214000Y-112025000D01*
G37*
G36*
X153214000Y-112025000D02*
X152112000Y-112025000D01*
X152112000Y-109423000D01*
X153214000Y-109423000D01*
X153214000Y-112025000D01*
X153214000Y-112025000D01*
G37*
G36*
X151214000Y-112025000D02*
X150112000Y-112025000D01*
X150112000Y-109423000D01*
X151214000Y-109423000D01*
X151214000Y-112025000D01*
X151214000Y-112025000D01*
G37*
G36*
X132541677Y-110113465D02*
X132579364Y-110124898D01*
X132614103Y-110143466D01*
X132644548Y-110168452D01*
X132669534Y-110198897D01*
X132688102Y-110233636D01*
X132699535Y-110271323D01*
X132704000Y-110316661D01*
X132704000Y-111153339D01*
X132699535Y-111198677D01*
X132688102Y-111236364D01*
X132669534Y-111271103D01*
X132644548Y-111301548D01*
X132614103Y-111326534D01*
X132579364Y-111345102D01*
X132541677Y-111356535D01*
X132496339Y-111361000D01*
X131409661Y-111361000D01*
X131364323Y-111356535D01*
X131326636Y-111345102D01*
X131291897Y-111326534D01*
X131261452Y-111301548D01*
X131236466Y-111271103D01*
X131217898Y-111236364D01*
X131206465Y-111198677D01*
X131202000Y-111153339D01*
X131202000Y-110316661D01*
X131206465Y-110271323D01*
X131217898Y-110233636D01*
X131236466Y-110198897D01*
X131261452Y-110168452D01*
X131291897Y-110143466D01*
X131326636Y-110124898D01*
X131364323Y-110113465D01*
X131409661Y-110109000D01*
X132496339Y-110109000D01*
X132541677Y-110113465D01*
X132541677Y-110113465D01*
G37*
G36*
X137953000Y-109952000D02*
X136301000Y-109952000D01*
X136301000Y-109250000D01*
X137953000Y-109250000D01*
X137953000Y-109952000D01*
X137953000Y-109952000D01*
G37*
G36*
X143353000Y-109952000D02*
X141701000Y-109952000D01*
X141701000Y-109250000D01*
X143353000Y-109250000D01*
X143353000Y-109952000D01*
X143353000Y-109952000D01*
G37*
G36*
X126517600Y-109626600D02*
X124688400Y-109626600D01*
X124688400Y-107797400D01*
X126517600Y-107797400D01*
X126517600Y-109626600D01*
X126517600Y-109626600D01*
G37*
G36*
X123242294Y-107810633D02*
X123414694Y-107862931D01*
X123414696Y-107862932D01*
X123573583Y-107947859D01*
X123573585Y-107947860D01*
X123573584Y-107947860D01*
X123712849Y-108062151D01*
X123827140Y-108201416D01*
X123912069Y-108360306D01*
X123964367Y-108532706D01*
X123982025Y-108712000D01*
X123964367Y-108891294D01*
X123916364Y-109049534D01*
X123912068Y-109063696D01*
X123827141Y-109222583D01*
X123712849Y-109361849D01*
X123573583Y-109476141D01*
X123414696Y-109561068D01*
X123414694Y-109561069D01*
X123242294Y-109613367D01*
X123107931Y-109626600D01*
X123018069Y-109626600D01*
X122883706Y-109613367D01*
X122711306Y-109561069D01*
X122711304Y-109561068D01*
X122552417Y-109476141D01*
X122413151Y-109361849D01*
X122298859Y-109222583D01*
X122213932Y-109063696D01*
X122209636Y-109049534D01*
X122161633Y-108891294D01*
X122143975Y-108712000D01*
X122161633Y-108532706D01*
X122213931Y-108360306D01*
X122298860Y-108201416D01*
X122413151Y-108062151D01*
X122552416Y-107947860D01*
X122552415Y-107947860D01*
X122552417Y-107947859D01*
X122711304Y-107862932D01*
X122711306Y-107862931D01*
X122883706Y-107810633D01*
X123018069Y-107797400D01*
X123107931Y-107797400D01*
X123242294Y-107810633D01*
X123242294Y-107810633D01*
G37*
G36*
X132541677Y-107836465D02*
X132579364Y-107847898D01*
X132614103Y-107866466D01*
X132644548Y-107891452D01*
X132669534Y-107921897D01*
X132688102Y-107956636D01*
X132699535Y-107994323D01*
X132704000Y-108039661D01*
X132704000Y-108876339D01*
X132699535Y-108921677D01*
X132688102Y-108959364D01*
X132669534Y-108994103D01*
X132644548Y-109024548D01*
X132614103Y-109049534D01*
X132579364Y-109068102D01*
X132541677Y-109079535D01*
X132496339Y-109084000D01*
X131409661Y-109084000D01*
X131364323Y-109079535D01*
X131326636Y-109068102D01*
X131291897Y-109049534D01*
X131261452Y-109024548D01*
X131236466Y-108994103D01*
X131217898Y-108959364D01*
X131206465Y-108921677D01*
X131202000Y-108876339D01*
X131202000Y-108039661D01*
X131206465Y-107994323D01*
X131217898Y-107956636D01*
X131236466Y-107921897D01*
X131261452Y-107891452D01*
X131291897Y-107866466D01*
X131326636Y-107847898D01*
X131364323Y-107836465D01*
X131409661Y-107832000D01*
X132496339Y-107832000D01*
X132541677Y-107836465D01*
X132541677Y-107836465D01*
G37*
G36*
X137953000Y-108682000D02*
X136301000Y-108682000D01*
X136301000Y-107980000D01*
X137953000Y-107980000D01*
X137953000Y-108682000D01*
X137953000Y-108682000D01*
G37*
G36*
X143353000Y-108682000D02*
X141701000Y-108682000D01*
X141701000Y-107980000D01*
X143353000Y-107980000D01*
X143353000Y-108682000D01*
X143353000Y-108682000D01*
G37*
G36*
X150114000Y-108675000D02*
X148212000Y-108675000D01*
X148212000Y-107573000D01*
X150114000Y-107573000D01*
X150114000Y-108675000D01*
X150114000Y-108675000D01*
G37*
G36*
X143353000Y-107412000D02*
X141701000Y-107412000D01*
X141701000Y-106710000D01*
X143353000Y-106710000D01*
X143353000Y-107412000D01*
X143353000Y-107412000D01*
G37*
G36*
X137953000Y-107412000D02*
X136301000Y-107412000D01*
X136301000Y-106710000D01*
X137953000Y-106710000D01*
X137953000Y-107412000D01*
X137953000Y-107412000D01*
G37*
G36*
X125782294Y-105270633D02*
X125954694Y-105322931D01*
X125954696Y-105322932D01*
X126113583Y-105407859D01*
X126252849Y-105522151D01*
X126367141Y-105661417D01*
X126452068Y-105820304D01*
X126452069Y-105820306D01*
X126504367Y-105992706D01*
X126522025Y-106172000D01*
X126504367Y-106351294D01*
X126452069Y-106523694D01*
X126452068Y-106523696D01*
X126367141Y-106682583D01*
X126252849Y-106821849D01*
X126113583Y-106936141D01*
X125960245Y-107018102D01*
X125954694Y-107021069D01*
X125782294Y-107073367D01*
X125647931Y-107086600D01*
X125558069Y-107086600D01*
X125423706Y-107073367D01*
X125251306Y-107021069D01*
X125245755Y-107018102D01*
X125092417Y-106936141D01*
X124953151Y-106821849D01*
X124838859Y-106682583D01*
X124753932Y-106523696D01*
X124753931Y-106523694D01*
X124701633Y-106351294D01*
X124683975Y-106172000D01*
X124701633Y-105992706D01*
X124753931Y-105820306D01*
X124753932Y-105820304D01*
X124838859Y-105661417D01*
X124953151Y-105522151D01*
X125092417Y-105407859D01*
X125251304Y-105322932D01*
X125251306Y-105322931D01*
X125423706Y-105270633D01*
X125558069Y-105257400D01*
X125647931Y-105257400D01*
X125782294Y-105270633D01*
X125782294Y-105270633D01*
G37*
G36*
X123242294Y-105270633D02*
X123414694Y-105322931D01*
X123414696Y-105322932D01*
X123573583Y-105407859D01*
X123712849Y-105522151D01*
X123827141Y-105661417D01*
X123912068Y-105820304D01*
X123912069Y-105820306D01*
X123964367Y-105992706D01*
X123982025Y-106172000D01*
X123964367Y-106351294D01*
X123912069Y-106523694D01*
X123912068Y-106523696D01*
X123827141Y-106682583D01*
X123712849Y-106821849D01*
X123573583Y-106936141D01*
X123420245Y-107018102D01*
X123414694Y-107021069D01*
X123242294Y-107073367D01*
X123107931Y-107086600D01*
X123018069Y-107086600D01*
X122883706Y-107073367D01*
X122711306Y-107021069D01*
X122705755Y-107018102D01*
X122552417Y-106936141D01*
X122413151Y-106821849D01*
X122298859Y-106682583D01*
X122213932Y-106523696D01*
X122213931Y-106523694D01*
X122161633Y-106351294D01*
X122143975Y-106172000D01*
X122161633Y-105992706D01*
X122213931Y-105820306D01*
X122213932Y-105820304D01*
X122298859Y-105661417D01*
X122413151Y-105522151D01*
X122552417Y-105407859D01*
X122711304Y-105322932D01*
X122711306Y-105322931D01*
X122883706Y-105270633D01*
X123018069Y-105257400D01*
X123107931Y-105257400D01*
X123242294Y-105270633D01*
X123242294Y-105270633D01*
G37*
G36*
X132541677Y-105786465D02*
X132579364Y-105797898D01*
X132614103Y-105816466D01*
X132644548Y-105841452D01*
X132669534Y-105871897D01*
X132688102Y-105906636D01*
X132699535Y-105944323D01*
X132704000Y-105989661D01*
X132704000Y-106826339D01*
X132699535Y-106871677D01*
X132688102Y-106909364D01*
X132669534Y-106944103D01*
X132644548Y-106974548D01*
X132614103Y-106999534D01*
X132579364Y-107018102D01*
X132541677Y-107029535D01*
X132496339Y-107034000D01*
X131409661Y-107034000D01*
X131364323Y-107029535D01*
X131326636Y-107018102D01*
X131291897Y-106999534D01*
X131261452Y-106974548D01*
X131236466Y-106944103D01*
X131217898Y-106909364D01*
X131206465Y-106871677D01*
X131202000Y-106826339D01*
X131202000Y-105989661D01*
X131206465Y-105944323D01*
X131217898Y-105906636D01*
X131236466Y-105871897D01*
X131261452Y-105841452D01*
X131291897Y-105816466D01*
X131326636Y-105797898D01*
X131364323Y-105786465D01*
X131409661Y-105782000D01*
X132496339Y-105782000D01*
X132541677Y-105786465D01*
X132541677Y-105786465D01*
G37*
G36*
X150114000Y-106675000D02*
X148212000Y-106675000D01*
X148212000Y-105573000D01*
X150114000Y-105573000D01*
X150114000Y-106675000D01*
X150114000Y-106675000D01*
G37*
G36*
X137953000Y-106142000D02*
X136301000Y-106142000D01*
X136301000Y-105440000D01*
X137953000Y-105440000D01*
X137953000Y-106142000D01*
X137953000Y-106142000D01*
G37*
G36*
X143353000Y-106142000D02*
X141701000Y-106142000D01*
X141701000Y-105440000D01*
X143353000Y-105440000D01*
X143353000Y-106142000D01*
X143353000Y-106142000D01*
G37*
G36*
X150114000Y-104675000D02*
X148212000Y-104675000D01*
X148212000Y-103573000D01*
X150114000Y-103573000D01*
X150114000Y-104675000D01*
X150114000Y-104675000D01*
G37*
G36*
X123242294Y-102730633D02*
X123414694Y-102782931D01*
X123414696Y-102782932D01*
X123573583Y-102867859D01*
X123573585Y-102867860D01*
X123573584Y-102867860D01*
X123712849Y-102982151D01*
X123827140Y-103121416D01*
X123912069Y-103280306D01*
X123964367Y-103452706D01*
X123982025Y-103632000D01*
X123964367Y-103811294D01*
X123916364Y-103969534D01*
X123912068Y-103983696D01*
X123827141Y-104142583D01*
X123712849Y-104281849D01*
X123573583Y-104396141D01*
X123414696Y-104481068D01*
X123414694Y-104481069D01*
X123242294Y-104533367D01*
X123107931Y-104546600D01*
X123018069Y-104546600D01*
X122883706Y-104533367D01*
X122711306Y-104481069D01*
X122711304Y-104481068D01*
X122552417Y-104396141D01*
X122413151Y-104281849D01*
X122298859Y-104142583D01*
X122213932Y-103983696D01*
X122209636Y-103969534D01*
X122161633Y-103811294D01*
X122143975Y-103632000D01*
X122161633Y-103452706D01*
X122213931Y-103280306D01*
X122298860Y-103121416D01*
X122413151Y-102982151D01*
X122552416Y-102867860D01*
X122552415Y-102867860D01*
X122552417Y-102867859D01*
X122711304Y-102782932D01*
X122711306Y-102782931D01*
X122883706Y-102730633D01*
X123018069Y-102717400D01*
X123107931Y-102717400D01*
X123242294Y-102730633D01*
X123242294Y-102730633D01*
G37*
G36*
X125782294Y-102730633D02*
X125954694Y-102782931D01*
X125954696Y-102782932D01*
X126113583Y-102867859D01*
X126113585Y-102867860D01*
X126113584Y-102867860D01*
X126252849Y-102982151D01*
X126367140Y-103121416D01*
X126452069Y-103280306D01*
X126504367Y-103452706D01*
X126522025Y-103632000D01*
X126504367Y-103811294D01*
X126456364Y-103969534D01*
X126452068Y-103983696D01*
X126367141Y-104142583D01*
X126252849Y-104281849D01*
X126113583Y-104396141D01*
X125954696Y-104481068D01*
X125954694Y-104481069D01*
X125782294Y-104533367D01*
X125647931Y-104546600D01*
X125558069Y-104546600D01*
X125423706Y-104533367D01*
X125251306Y-104481069D01*
X125251304Y-104481068D01*
X125092417Y-104396141D01*
X124953151Y-104281849D01*
X124838859Y-104142583D01*
X124753932Y-103983696D01*
X124749636Y-103969534D01*
X124701633Y-103811294D01*
X124683975Y-103632000D01*
X124701633Y-103452706D01*
X124753931Y-103280306D01*
X124838860Y-103121416D01*
X124953151Y-102982151D01*
X125092416Y-102867860D01*
X125092415Y-102867860D01*
X125092417Y-102867859D01*
X125251304Y-102782932D01*
X125251306Y-102782931D01*
X125423706Y-102730633D01*
X125558069Y-102717400D01*
X125647931Y-102717400D01*
X125782294Y-102730633D01*
X125782294Y-102730633D01*
G37*
G36*
X132541677Y-102756465D02*
X132579364Y-102767898D01*
X132614103Y-102786466D01*
X132644548Y-102811452D01*
X132669534Y-102841897D01*
X132688102Y-102876636D01*
X132699535Y-102914323D01*
X132704000Y-102959661D01*
X132704000Y-103796339D01*
X132699535Y-103841677D01*
X132688102Y-103879364D01*
X132669534Y-103914103D01*
X132644548Y-103944548D01*
X132614103Y-103969534D01*
X132579364Y-103988102D01*
X132541677Y-103999535D01*
X132496339Y-104004000D01*
X131409661Y-104004000D01*
X131364323Y-103999535D01*
X131326636Y-103988102D01*
X131291897Y-103969534D01*
X131261452Y-103944548D01*
X131236466Y-103914103D01*
X131217898Y-103879364D01*
X131206465Y-103841677D01*
X131202000Y-103796339D01*
X131202000Y-102959661D01*
X131206465Y-102914323D01*
X131217898Y-102876636D01*
X131236466Y-102841897D01*
X131261452Y-102811452D01*
X131291897Y-102786466D01*
X131326636Y-102767898D01*
X131364323Y-102756465D01*
X131409661Y-102752000D01*
X132496339Y-102752000D01*
X132541677Y-102756465D01*
X132541677Y-102756465D01*
G37*
G36*
X135081677Y-102756465D02*
X135119364Y-102767898D01*
X135154103Y-102786466D01*
X135184548Y-102811452D01*
X135209534Y-102841897D01*
X135228102Y-102876636D01*
X135239535Y-102914323D01*
X135244000Y-102959661D01*
X135244000Y-103796339D01*
X135239535Y-103841677D01*
X135228102Y-103879364D01*
X135209534Y-103914103D01*
X135184548Y-103944548D01*
X135154103Y-103969534D01*
X135119364Y-103988102D01*
X135081677Y-103999535D01*
X135036339Y-104004000D01*
X133949661Y-104004000D01*
X133904323Y-103999535D01*
X133866636Y-103988102D01*
X133831897Y-103969534D01*
X133801452Y-103944548D01*
X133776466Y-103914103D01*
X133757898Y-103879364D01*
X133746465Y-103841677D01*
X133742000Y-103796339D01*
X133742000Y-102959661D01*
X133746465Y-102914323D01*
X133757898Y-102876636D01*
X133776466Y-102841897D01*
X133801452Y-102811452D01*
X133831897Y-102786466D01*
X133866636Y-102767898D01*
X133904323Y-102756465D01*
X133949661Y-102752000D01*
X135036339Y-102752000D01*
X135081677Y-102756465D01*
X135081677Y-102756465D01*
G37*
G36*
X139399677Y-102756465D02*
X139437364Y-102767898D01*
X139472103Y-102786466D01*
X139502548Y-102811452D01*
X139527534Y-102841897D01*
X139546102Y-102876636D01*
X139557535Y-102914323D01*
X139562000Y-102959661D01*
X139562000Y-103796339D01*
X139557535Y-103841677D01*
X139546102Y-103879364D01*
X139527534Y-103914103D01*
X139502548Y-103944548D01*
X139472103Y-103969534D01*
X139437364Y-103988102D01*
X139399677Y-103999535D01*
X139354339Y-104004000D01*
X138267661Y-104004000D01*
X138222323Y-103999535D01*
X138184636Y-103988102D01*
X138149897Y-103969534D01*
X138119452Y-103944548D01*
X138094466Y-103914103D01*
X138075898Y-103879364D01*
X138064465Y-103841677D01*
X138060000Y-103796339D01*
X138060000Y-102959661D01*
X138064465Y-102914323D01*
X138075898Y-102876636D01*
X138094466Y-102841897D01*
X138119452Y-102811452D01*
X138149897Y-102786466D01*
X138184636Y-102767898D01*
X138222323Y-102756465D01*
X138267661Y-102752000D01*
X139354339Y-102752000D01*
X139399677Y-102756465D01*
X139399677Y-102756465D01*
G37*
G36*
X150114000Y-102675000D02*
X148212000Y-102675000D01*
X148212000Y-101573000D01*
X150114000Y-101573000D01*
X150114000Y-102675000D01*
X150114000Y-102675000D01*
G37*
G36*
X141237877Y-100751865D02*
X141275564Y-100763298D01*
X141310303Y-100781866D01*
X141340748Y-100806852D01*
X141365734Y-100837297D01*
X141384302Y-100872036D01*
X141395735Y-100909723D01*
X141400200Y-100955061D01*
X141400200Y-102041739D01*
X141395735Y-102087077D01*
X141384302Y-102124764D01*
X141365734Y-102159503D01*
X141340748Y-102189948D01*
X141310303Y-102214934D01*
X141275564Y-102233502D01*
X141237877Y-102244935D01*
X141192539Y-102249400D01*
X140355861Y-102249400D01*
X140310523Y-102244935D01*
X140272836Y-102233502D01*
X140238097Y-102214934D01*
X140207652Y-102189948D01*
X140182666Y-102159503D01*
X140164098Y-102124764D01*
X140152665Y-102087077D01*
X140148200Y-102041739D01*
X140148200Y-100955061D01*
X140152665Y-100909723D01*
X140164098Y-100872036D01*
X140182666Y-100837297D01*
X140207652Y-100806852D01*
X140238097Y-100781866D01*
X140272836Y-100763298D01*
X140310523Y-100751865D01*
X140355861Y-100747400D01*
X141192539Y-100747400D01*
X141237877Y-100751865D01*
X141237877Y-100751865D01*
G37*
G36*
X143287877Y-100751865D02*
X143325564Y-100763298D01*
X143360303Y-100781866D01*
X143390748Y-100806852D01*
X143415734Y-100837297D01*
X143434302Y-100872036D01*
X143445735Y-100909723D01*
X143450200Y-100955061D01*
X143450200Y-102041739D01*
X143445735Y-102087077D01*
X143434302Y-102124764D01*
X143415734Y-102159503D01*
X143390748Y-102189948D01*
X143360303Y-102214934D01*
X143325564Y-102233502D01*
X143287877Y-102244935D01*
X143242539Y-102249400D01*
X142405861Y-102249400D01*
X142360523Y-102244935D01*
X142322836Y-102233502D01*
X142288097Y-102214934D01*
X142257652Y-102189948D01*
X142232666Y-102159503D01*
X142214098Y-102124764D01*
X142202665Y-102087077D01*
X142198200Y-102041739D01*
X142198200Y-100955061D01*
X142202665Y-100909723D01*
X142214098Y-100872036D01*
X142232666Y-100837297D01*
X142257652Y-100806852D01*
X142288097Y-100781866D01*
X142322836Y-100763298D01*
X142360523Y-100751865D01*
X142405861Y-100747400D01*
X143242539Y-100747400D01*
X143287877Y-100751865D01*
X143287877Y-100751865D01*
G37*
G36*
X125782294Y-100190633D02*
X125954694Y-100242931D01*
X125954696Y-100242932D01*
X126113583Y-100327859D01*
X126252849Y-100442151D01*
X126367141Y-100581417D01*
X126452068Y-100740304D01*
X126452069Y-100740306D01*
X126504367Y-100912706D01*
X126522025Y-101092000D01*
X126504367Y-101271294D01*
X126452069Y-101443694D01*
X126452068Y-101443696D01*
X126367141Y-101602583D01*
X126252849Y-101741849D01*
X126113583Y-101856141D01*
X125960245Y-101938102D01*
X125954694Y-101941069D01*
X125782294Y-101993367D01*
X125647931Y-102006600D01*
X125558069Y-102006600D01*
X125423706Y-101993367D01*
X125251306Y-101941069D01*
X125245755Y-101938102D01*
X125092417Y-101856141D01*
X124953151Y-101741849D01*
X124838859Y-101602583D01*
X124753932Y-101443696D01*
X124753931Y-101443694D01*
X124701633Y-101271294D01*
X124683975Y-101092000D01*
X124701633Y-100912706D01*
X124753931Y-100740306D01*
X124753932Y-100740304D01*
X124838859Y-100581417D01*
X124953151Y-100442151D01*
X125092417Y-100327859D01*
X125251304Y-100242932D01*
X125251306Y-100242931D01*
X125423706Y-100190633D01*
X125558069Y-100177400D01*
X125647931Y-100177400D01*
X125782294Y-100190633D01*
X125782294Y-100190633D01*
G37*
G36*
X123242294Y-100190633D02*
X123414694Y-100242931D01*
X123414696Y-100242932D01*
X123573583Y-100327859D01*
X123712849Y-100442151D01*
X123827141Y-100581417D01*
X123912068Y-100740304D01*
X123912069Y-100740306D01*
X123964367Y-100912706D01*
X123982025Y-101092000D01*
X123964367Y-101271294D01*
X123912069Y-101443694D01*
X123912068Y-101443696D01*
X123827141Y-101602583D01*
X123712849Y-101741849D01*
X123573583Y-101856141D01*
X123420245Y-101938102D01*
X123414694Y-101941069D01*
X123242294Y-101993367D01*
X123107931Y-102006600D01*
X123018069Y-102006600D01*
X122883706Y-101993367D01*
X122711306Y-101941069D01*
X122705755Y-101938102D01*
X122552417Y-101856141D01*
X122413151Y-101741849D01*
X122298859Y-101602583D01*
X122213932Y-101443696D01*
X122213931Y-101443694D01*
X122161633Y-101271294D01*
X122143975Y-101092000D01*
X122161633Y-100912706D01*
X122213931Y-100740306D01*
X122213932Y-100740304D01*
X122298859Y-100581417D01*
X122413151Y-100442151D01*
X122552417Y-100327859D01*
X122711304Y-100242932D01*
X122711306Y-100242931D01*
X122883706Y-100190633D01*
X123018069Y-100177400D01*
X123107931Y-100177400D01*
X123242294Y-100190633D01*
X123242294Y-100190633D01*
G37*
G36*
X139399677Y-100706465D02*
X139437364Y-100717898D01*
X139472103Y-100736466D01*
X139502548Y-100761452D01*
X139527534Y-100791897D01*
X139546102Y-100826636D01*
X139557535Y-100864323D01*
X139562000Y-100909661D01*
X139562000Y-101746339D01*
X139557535Y-101791677D01*
X139546102Y-101829364D01*
X139527534Y-101864103D01*
X139502548Y-101894548D01*
X139472103Y-101919534D01*
X139437364Y-101938102D01*
X139399677Y-101949535D01*
X139354339Y-101954000D01*
X138267661Y-101954000D01*
X138222323Y-101949535D01*
X138184636Y-101938102D01*
X138149897Y-101919534D01*
X138119452Y-101894548D01*
X138094466Y-101864103D01*
X138075898Y-101829364D01*
X138064465Y-101791677D01*
X138060000Y-101746339D01*
X138060000Y-100909661D01*
X138064465Y-100864323D01*
X138075898Y-100826636D01*
X138094466Y-100791897D01*
X138119452Y-100761452D01*
X138149897Y-100736466D01*
X138184636Y-100717898D01*
X138222323Y-100706465D01*
X138267661Y-100702000D01*
X139354339Y-100702000D01*
X139399677Y-100706465D01*
X139399677Y-100706465D01*
G37*
G36*
X135081677Y-100706465D02*
X135119364Y-100717898D01*
X135154103Y-100736466D01*
X135184548Y-100761452D01*
X135209534Y-100791897D01*
X135228102Y-100826636D01*
X135239535Y-100864323D01*
X135244000Y-100909661D01*
X135244000Y-101746339D01*
X135239535Y-101791677D01*
X135228102Y-101829364D01*
X135209534Y-101864103D01*
X135184548Y-101894548D01*
X135154103Y-101919534D01*
X135119364Y-101938102D01*
X135081677Y-101949535D01*
X135036339Y-101954000D01*
X133949661Y-101954000D01*
X133904323Y-101949535D01*
X133866636Y-101938102D01*
X133831897Y-101919534D01*
X133801452Y-101894548D01*
X133776466Y-101864103D01*
X133757898Y-101829364D01*
X133746465Y-101791677D01*
X133742000Y-101746339D01*
X133742000Y-100909661D01*
X133746465Y-100864323D01*
X133757898Y-100826636D01*
X133776466Y-100791897D01*
X133801452Y-100761452D01*
X133831897Y-100736466D01*
X133866636Y-100717898D01*
X133904323Y-100706465D01*
X133949661Y-100702000D01*
X135036339Y-100702000D01*
X135081677Y-100706465D01*
X135081677Y-100706465D01*
G37*
G36*
X132541677Y-100706465D02*
X132579364Y-100717898D01*
X132614103Y-100736466D01*
X132644548Y-100761452D01*
X132669534Y-100791897D01*
X132688102Y-100826636D01*
X132699535Y-100864323D01*
X132704000Y-100909661D01*
X132704000Y-101746339D01*
X132699535Y-101791677D01*
X132688102Y-101829364D01*
X132669534Y-101864103D01*
X132644548Y-101894548D01*
X132614103Y-101919534D01*
X132579364Y-101938102D01*
X132541677Y-101949535D01*
X132496339Y-101954000D01*
X131409661Y-101954000D01*
X131364323Y-101949535D01*
X131326636Y-101938102D01*
X131291897Y-101919534D01*
X131261452Y-101894548D01*
X131236466Y-101864103D01*
X131217898Y-101829364D01*
X131206465Y-101791677D01*
X131202000Y-101746339D01*
X131202000Y-100909661D01*
X131206465Y-100864323D01*
X131217898Y-100826636D01*
X131236466Y-100791897D01*
X131261452Y-100761452D01*
X131291897Y-100736466D01*
X131326636Y-100717898D01*
X131364323Y-100706465D01*
X131409661Y-100702000D01*
X132496339Y-100702000D01*
X132541677Y-100706465D01*
X132541677Y-100706465D01*
G37*
G36*
X150114000Y-100675000D02*
X148212000Y-100675000D01*
X148212000Y-99573000D01*
X150114000Y-99573000D01*
X150114000Y-100675000D01*
X150114000Y-100675000D01*
G37*
G36*
X125782294Y-97650633D02*
X125954694Y-97702931D01*
X125954696Y-97702932D01*
X126113583Y-97787859D01*
X126171593Y-97835466D01*
X126252849Y-97902151D01*
X126367140Y-98041416D01*
X126452069Y-98200306D01*
X126504367Y-98372706D01*
X126522025Y-98552000D01*
X126504367Y-98731294D01*
X126452069Y-98903694D01*
X126452068Y-98903696D01*
X126367141Y-99062583D01*
X126252849Y-99201849D01*
X126113583Y-99316141D01*
X125954696Y-99401068D01*
X125954694Y-99401069D01*
X125782294Y-99453367D01*
X125647931Y-99466600D01*
X125558069Y-99466600D01*
X125423706Y-99453367D01*
X125251306Y-99401069D01*
X125251304Y-99401068D01*
X125092417Y-99316141D01*
X124953151Y-99201849D01*
X124838859Y-99062583D01*
X124753932Y-98903696D01*
X124753931Y-98903694D01*
X124701633Y-98731294D01*
X124683975Y-98552000D01*
X124701633Y-98372706D01*
X124753931Y-98200306D01*
X124838860Y-98041416D01*
X124953151Y-97902151D01*
X125034407Y-97835466D01*
X125092417Y-97787859D01*
X125251304Y-97702932D01*
X125251306Y-97702931D01*
X125423706Y-97650633D01*
X125558069Y-97637400D01*
X125647931Y-97637400D01*
X125782294Y-97650633D01*
X125782294Y-97650633D01*
G37*
G36*
X123242294Y-97650633D02*
X123414694Y-97702931D01*
X123414696Y-97702932D01*
X123573583Y-97787859D01*
X123631593Y-97835466D01*
X123712849Y-97902151D01*
X123827140Y-98041416D01*
X123912069Y-98200306D01*
X123964367Y-98372706D01*
X123982025Y-98552000D01*
X123964367Y-98731294D01*
X123912069Y-98903694D01*
X123912068Y-98903696D01*
X123827141Y-99062583D01*
X123712849Y-99201849D01*
X123573583Y-99316141D01*
X123414696Y-99401068D01*
X123414694Y-99401069D01*
X123242294Y-99453367D01*
X123107931Y-99466600D01*
X123018069Y-99466600D01*
X122883706Y-99453367D01*
X122711306Y-99401069D01*
X122711304Y-99401068D01*
X122552417Y-99316141D01*
X122413151Y-99201849D01*
X122298859Y-99062583D01*
X122213932Y-98903696D01*
X122213931Y-98903694D01*
X122161633Y-98731294D01*
X122143975Y-98552000D01*
X122161633Y-98372706D01*
X122213931Y-98200306D01*
X122298860Y-98041416D01*
X122413151Y-97902151D01*
X122494407Y-97835466D01*
X122552417Y-97787859D01*
X122711304Y-97702932D01*
X122711306Y-97702931D01*
X122883706Y-97650633D01*
X123018069Y-97637400D01*
X123107931Y-97637400D01*
X123242294Y-97650633D01*
X123242294Y-97650633D01*
G37*
G36*
X134448677Y-97805465D02*
X134486364Y-97816898D01*
X134521103Y-97835466D01*
X134551548Y-97860452D01*
X134576534Y-97890897D01*
X134595102Y-97925636D01*
X134606535Y-97963323D01*
X134611000Y-98008661D01*
X134611000Y-99095339D01*
X134606535Y-99140677D01*
X134595102Y-99178364D01*
X134576534Y-99213103D01*
X134551548Y-99243548D01*
X134521103Y-99268534D01*
X134486364Y-99287102D01*
X134448677Y-99298535D01*
X134403339Y-99303000D01*
X133566661Y-99303000D01*
X133521323Y-99298535D01*
X133483636Y-99287102D01*
X133448897Y-99268534D01*
X133418452Y-99243548D01*
X133393466Y-99213103D01*
X133374898Y-99178364D01*
X133363465Y-99140677D01*
X133359000Y-99095339D01*
X133359000Y-98008661D01*
X133363465Y-97963323D01*
X133374898Y-97925636D01*
X133393466Y-97890897D01*
X133418452Y-97860452D01*
X133448897Y-97835466D01*
X133483636Y-97816898D01*
X133521323Y-97805465D01*
X133566661Y-97801000D01*
X134403339Y-97801000D01*
X134448677Y-97805465D01*
X134448677Y-97805465D01*
G37*
G36*
X132398677Y-97805465D02*
X132436364Y-97816898D01*
X132471103Y-97835466D01*
X132501548Y-97860452D01*
X132526534Y-97890897D01*
X132545102Y-97925636D01*
X132556535Y-97963323D01*
X132561000Y-98008661D01*
X132561000Y-99095339D01*
X132556535Y-99140677D01*
X132545102Y-99178364D01*
X132526534Y-99213103D01*
X132501548Y-99243548D01*
X132471103Y-99268534D01*
X132436364Y-99287102D01*
X132398677Y-99298535D01*
X132353339Y-99303000D01*
X131516661Y-99303000D01*
X131471323Y-99298535D01*
X131433636Y-99287102D01*
X131398897Y-99268534D01*
X131368452Y-99243548D01*
X131343466Y-99213103D01*
X131324898Y-99178364D01*
X131313465Y-99140677D01*
X131309000Y-99095339D01*
X131309000Y-98008661D01*
X131313465Y-97963323D01*
X131324898Y-97925636D01*
X131343466Y-97890897D01*
X131368452Y-97860452D01*
X131398897Y-97835466D01*
X131433636Y-97816898D01*
X131471323Y-97805465D01*
X131516661Y-97801000D01*
X132353339Y-97801000D01*
X132398677Y-97805465D01*
X132398677Y-97805465D01*
G37*
G36*
X137699000Y-98903000D02*
X136047000Y-98903000D01*
X136047000Y-98201000D01*
X137699000Y-98201000D01*
X137699000Y-98903000D01*
X137699000Y-98903000D01*
G37*
G36*
X143099000Y-98903000D02*
X141447000Y-98903000D01*
X141447000Y-98201000D01*
X143099000Y-98201000D01*
X143099000Y-98903000D01*
X143099000Y-98903000D01*
G37*
G36*
X150114000Y-98675000D02*
X148212000Y-98675000D01*
X148212000Y-97573000D01*
X150114000Y-97573000D01*
X150114000Y-98675000D01*
X150114000Y-98675000D01*
G37*
G36*
X137699000Y-97633000D02*
X136047000Y-97633000D01*
X136047000Y-96931000D01*
X137699000Y-96931000D01*
X137699000Y-97633000D01*
X137699000Y-97633000D01*
G37*
G36*
X143099000Y-97633000D02*
X141447000Y-97633000D01*
X141447000Y-96931000D01*
X143099000Y-96931000D01*
X143099000Y-97633000D01*
X143099000Y-97633000D01*
G37*
G36*
X165214000Y-96825000D02*
X164112000Y-96825000D01*
X164112000Y-94223000D01*
X165214000Y-94223000D01*
X165214000Y-96825000D01*
X165214000Y-96825000D01*
G37*
G36*
X151214000Y-96825000D02*
X150112000Y-96825000D01*
X150112000Y-94223000D01*
X151214000Y-94223000D01*
X151214000Y-96825000D01*
X151214000Y-96825000D01*
G37*
G36*
X161214000Y-96825000D02*
X160112000Y-96825000D01*
X160112000Y-94223000D01*
X161214000Y-94223000D01*
X161214000Y-96825000D01*
X161214000Y-96825000D01*
G37*
G36*
X159214000Y-96825000D02*
X158112000Y-96825000D01*
X158112000Y-94223000D01*
X159214000Y-94223000D01*
X159214000Y-96825000D01*
X159214000Y-96825000D01*
G37*
G36*
X155214000Y-96825000D02*
X154112000Y-96825000D01*
X154112000Y-94223000D01*
X155214000Y-94223000D01*
X155214000Y-96825000D01*
X155214000Y-96825000D01*
G37*
G36*
X157214000Y-96825000D02*
X156112000Y-96825000D01*
X156112000Y-94223000D01*
X157214000Y-94223000D01*
X157214000Y-96825000D01*
X157214000Y-96825000D01*
G37*
G36*
X163214000Y-96825000D02*
X162112000Y-96825000D01*
X162112000Y-94223000D01*
X163214000Y-94223000D01*
X163214000Y-96825000D01*
X163214000Y-96825000D01*
G37*
G36*
X153214000Y-96825000D02*
X152112000Y-96825000D01*
X152112000Y-94223000D01*
X153214000Y-94223000D01*
X153214000Y-96825000D01*
X153214000Y-96825000D01*
G37*
G36*
X134700677Y-95263465D02*
X134738364Y-95274898D01*
X134773103Y-95293466D01*
X134803548Y-95318452D01*
X134828534Y-95348897D01*
X134847102Y-95383636D01*
X134858535Y-95421323D01*
X134863000Y-95466661D01*
X134863000Y-96303339D01*
X134858535Y-96348677D01*
X134847102Y-96386364D01*
X134828534Y-96421103D01*
X134803548Y-96451548D01*
X134773103Y-96476534D01*
X134738364Y-96495102D01*
X134700677Y-96506535D01*
X134655339Y-96511000D01*
X133568661Y-96511000D01*
X133523323Y-96506535D01*
X133485636Y-96495102D01*
X133450897Y-96476534D01*
X133420452Y-96451548D01*
X133395466Y-96421103D01*
X133376898Y-96386364D01*
X133365465Y-96348677D01*
X133361000Y-96303339D01*
X133361000Y-95466661D01*
X133365465Y-95421323D01*
X133376898Y-95383636D01*
X133395466Y-95348897D01*
X133420452Y-95318452D01*
X133450897Y-95293466D01*
X133485636Y-95274898D01*
X133523323Y-95263465D01*
X133568661Y-95259000D01*
X134655339Y-95259000D01*
X134700677Y-95263465D01*
X134700677Y-95263465D01*
G37*
G36*
X143099000Y-96363000D02*
X141447000Y-96363000D01*
X141447000Y-95661000D01*
X143099000Y-95661000D01*
X143099000Y-96363000D01*
X143099000Y-96363000D01*
G37*
G36*
X137699000Y-96363000D02*
X136047000Y-96363000D01*
X136047000Y-95661000D01*
X137699000Y-95661000D01*
X137699000Y-96363000D01*
X137699000Y-96363000D01*
G37*
G36*
X143099000Y-95093000D02*
X141447000Y-95093000D01*
X141447000Y-94391000D01*
X143099000Y-94391000D01*
X143099000Y-95093000D01*
X143099000Y-95093000D01*
G37*
G36*
X137699000Y-95093000D02*
X136047000Y-95093000D01*
X136047000Y-94391000D01*
X137699000Y-94391000D01*
X137699000Y-95093000D01*
X137699000Y-95093000D01*
G37*
G36*
X134700677Y-93213465D02*
X134738364Y-93224898D01*
X134773103Y-93243466D01*
X134803548Y-93268452D01*
X134828534Y-93298897D01*
X134847102Y-93333636D01*
X134858535Y-93371323D01*
X134863000Y-93416661D01*
X134863000Y-94253339D01*
X134858535Y-94298677D01*
X134847102Y-94336364D01*
X134828534Y-94371103D01*
X134803548Y-94401548D01*
X134773103Y-94426534D01*
X134738364Y-94445102D01*
X134700677Y-94456535D01*
X134655339Y-94461000D01*
X133568661Y-94461000D01*
X133523323Y-94456535D01*
X133485636Y-94445102D01*
X133450897Y-94426534D01*
X133420452Y-94401548D01*
X133395466Y-94371103D01*
X133376898Y-94336364D01*
X133365465Y-94298677D01*
X133361000Y-94253339D01*
X133361000Y-93416661D01*
X133365465Y-93371323D01*
X133376898Y-93333636D01*
X133395466Y-93298897D01*
X133420452Y-93268452D01*
X133450897Y-93243466D01*
X133485636Y-93224898D01*
X133523323Y-93213465D01*
X133568661Y-93209000D01*
X134655339Y-93209000D01*
X134700677Y-93213465D01*
X134700677Y-93213465D01*
G37*
G36*
X145749677Y-92596465D02*
X145787364Y-92607898D01*
X145822103Y-92626466D01*
X145852548Y-92651452D01*
X145877534Y-92681897D01*
X145896102Y-92716636D01*
X145907535Y-92754323D01*
X145912000Y-92799661D01*
X145912000Y-93636339D01*
X145907535Y-93681677D01*
X145896102Y-93719364D01*
X145877534Y-93754103D01*
X145852548Y-93784548D01*
X145822103Y-93809534D01*
X145787364Y-93828102D01*
X145749677Y-93839535D01*
X145704339Y-93844000D01*
X144617661Y-93844000D01*
X144572323Y-93839535D01*
X144534636Y-93828102D01*
X144499897Y-93809534D01*
X144469452Y-93784548D01*
X144444466Y-93754103D01*
X144425898Y-93719364D01*
X144414465Y-93681677D01*
X144410000Y-93636339D01*
X144410000Y-92799661D01*
X144414465Y-92754323D01*
X144425898Y-92716636D01*
X144444466Y-92681897D01*
X144469452Y-92651452D01*
X144499897Y-92626466D01*
X144534636Y-92607898D01*
X144572323Y-92596465D01*
X144617661Y-92592000D01*
X145704339Y-92592000D01*
X145749677Y-92596465D01*
X145749677Y-92596465D01*
G37*
G36*
X159320043Y-91252122D02*
X159354390Y-91262541D01*
X159386035Y-91279456D01*
X159413777Y-91302223D01*
X159436544Y-91329965D01*
X159453459Y-91361610D01*
X159463878Y-91395957D01*
X159468000Y-91437807D01*
X159468000Y-92660193D01*
X159463878Y-92702043D01*
X159453459Y-92736390D01*
X159436544Y-92768035D01*
X159413777Y-92795777D01*
X159386035Y-92818544D01*
X159354390Y-92835459D01*
X159320043Y-92845878D01*
X159278193Y-92850000D01*
X157205807Y-92850000D01*
X157163957Y-92845878D01*
X157129610Y-92835459D01*
X157097965Y-92818544D01*
X157070223Y-92795777D01*
X157047456Y-92768035D01*
X157030541Y-92736390D01*
X157020122Y-92702043D01*
X157016000Y-92660193D01*
X157016000Y-91437807D01*
X157020122Y-91395957D01*
X157030541Y-91361610D01*
X157047456Y-91329965D01*
X157070223Y-91302223D01*
X157097965Y-91279456D01*
X157129610Y-91262541D01*
X157163957Y-91252122D01*
X157205807Y-91248000D01*
X159278193Y-91248000D01*
X159320043Y-91252122D01*
X159320043Y-91252122D01*
G37*
G36*
X142845000Y-92172000D02*
X142143000Y-92172000D01*
X142143000Y-90520000D01*
X142845000Y-90520000D01*
X142845000Y-92172000D01*
X142845000Y-92172000D01*
G37*
G36*
X139035000Y-92172000D02*
X138333000Y-92172000D01*
X138333000Y-90520000D01*
X139035000Y-90520000D01*
X139035000Y-92172000D01*
X139035000Y-92172000D01*
G37*
G36*
X140305000Y-92172000D02*
X139603000Y-92172000D01*
X139603000Y-90520000D01*
X140305000Y-90520000D01*
X140305000Y-92172000D01*
X140305000Y-92172000D01*
G37*
G36*
X141575000Y-92172000D02*
X140873000Y-92172000D01*
X140873000Y-90520000D01*
X141575000Y-90520000D01*
X141575000Y-92172000D01*
X141575000Y-92172000D01*
G37*
G36*
X149942677Y-90439465D02*
X149980364Y-90450898D01*
X150015103Y-90469466D01*
X150045548Y-90494452D01*
X150070534Y-90524897D01*
X150089102Y-90559636D01*
X150100535Y-90597323D01*
X150105000Y-90642661D01*
X150105000Y-91729339D01*
X150100535Y-91774677D01*
X150089102Y-91812364D01*
X150070534Y-91847103D01*
X150045548Y-91877548D01*
X150015103Y-91902534D01*
X149980364Y-91921102D01*
X149942677Y-91932535D01*
X149897339Y-91937000D01*
X149060661Y-91937000D01*
X149015323Y-91932535D01*
X148977636Y-91921102D01*
X148942897Y-91902534D01*
X148912452Y-91877548D01*
X148887466Y-91847103D01*
X148868898Y-91812364D01*
X148857465Y-91774677D01*
X148853000Y-91729339D01*
X148853000Y-90642661D01*
X148857465Y-90597323D01*
X148868898Y-90559636D01*
X148887466Y-90524897D01*
X148912452Y-90494452D01*
X148942897Y-90469466D01*
X148977636Y-90450898D01*
X149015323Y-90439465D01*
X149060661Y-90435000D01*
X149897339Y-90435000D01*
X149942677Y-90439465D01*
X149942677Y-90439465D01*
G37*
G36*
X147892677Y-90439465D02*
X147930364Y-90450898D01*
X147965103Y-90469466D01*
X147995548Y-90494452D01*
X148020534Y-90524897D01*
X148039102Y-90559636D01*
X148050535Y-90597323D01*
X148055000Y-90642661D01*
X148055000Y-91729339D01*
X148050535Y-91774677D01*
X148039102Y-91812364D01*
X148020534Y-91847103D01*
X147995548Y-91877548D01*
X147965103Y-91902534D01*
X147930364Y-91921102D01*
X147892677Y-91932535D01*
X147847339Y-91937000D01*
X147010661Y-91937000D01*
X146965323Y-91932535D01*
X146927636Y-91921102D01*
X146892897Y-91902534D01*
X146862452Y-91877548D01*
X146837466Y-91847103D01*
X146818898Y-91812364D01*
X146807465Y-91774677D01*
X146803000Y-91729339D01*
X146803000Y-90642661D01*
X146807465Y-90597323D01*
X146818898Y-90559636D01*
X146837466Y-90524897D01*
X146862452Y-90494452D01*
X146892897Y-90469466D01*
X146927636Y-90450898D01*
X146965323Y-90439465D01*
X147010661Y-90435000D01*
X147847339Y-90435000D01*
X147892677Y-90439465D01*
X147892677Y-90439465D01*
G37*
G36*
X145749677Y-90546465D02*
X145787364Y-90557898D01*
X145822103Y-90576466D01*
X145852548Y-90601452D01*
X145877534Y-90631897D01*
X145896102Y-90666636D01*
X145907535Y-90704323D01*
X145912000Y-90749661D01*
X145912000Y-91586339D01*
X145907535Y-91631677D01*
X145896102Y-91669364D01*
X145877534Y-91704103D01*
X145852548Y-91734548D01*
X145822103Y-91759534D01*
X145787364Y-91778102D01*
X145749677Y-91789535D01*
X145704339Y-91794000D01*
X144617661Y-91794000D01*
X144572323Y-91789535D01*
X144534636Y-91778102D01*
X144499897Y-91759534D01*
X144469452Y-91734548D01*
X144444466Y-91704103D01*
X144425898Y-91669364D01*
X144414465Y-91631677D01*
X144410000Y-91586339D01*
X144410000Y-90749661D01*
X144414465Y-90704323D01*
X144425898Y-90666636D01*
X144444466Y-90631897D01*
X144469452Y-90601452D01*
X144499897Y-90576466D01*
X144534636Y-90557898D01*
X144572323Y-90546465D01*
X144617661Y-90542000D01*
X145704339Y-90542000D01*
X145749677Y-90546465D01*
X145749677Y-90546465D01*
G37*
G36*
X155655677Y-90201465D02*
X155693364Y-90212898D01*
X155728103Y-90231466D01*
X155758548Y-90256452D01*
X155783534Y-90286897D01*
X155802102Y-90321636D01*
X155813535Y-90359323D01*
X155818000Y-90404661D01*
X155818000Y-91241339D01*
X155813535Y-91286677D01*
X155802102Y-91324364D01*
X155783534Y-91359103D01*
X155758548Y-91389548D01*
X155728103Y-91414534D01*
X155693364Y-91433102D01*
X155655677Y-91444535D01*
X155610339Y-91449000D01*
X154523661Y-91449000D01*
X154478323Y-91444535D01*
X154440636Y-91433102D01*
X154405897Y-91414534D01*
X154375452Y-91389548D01*
X154350466Y-91359103D01*
X154331898Y-91324364D01*
X154320465Y-91286677D01*
X154316000Y-91241339D01*
X154316000Y-90404661D01*
X154320465Y-90359323D01*
X154331898Y-90321636D01*
X154350466Y-90286897D01*
X154375452Y-90256452D01*
X154405897Y-90231466D01*
X154440636Y-90212898D01*
X154478323Y-90201465D01*
X154523661Y-90197000D01*
X155610339Y-90197000D01*
X155655677Y-90201465D01*
X155655677Y-90201465D01*
G37*
G36*
X162259677Y-90183465D02*
X162297364Y-90194898D01*
X162332103Y-90213466D01*
X162362548Y-90238452D01*
X162387534Y-90268897D01*
X162406102Y-90303636D01*
X162417535Y-90341323D01*
X162422000Y-90386661D01*
X162422000Y-91223339D01*
X162417535Y-91268677D01*
X162406102Y-91306364D01*
X162387534Y-91341103D01*
X162362548Y-91371548D01*
X162332103Y-91396534D01*
X162297364Y-91415102D01*
X162259677Y-91426535D01*
X162214339Y-91431000D01*
X161127661Y-91431000D01*
X161082323Y-91426535D01*
X161044636Y-91415102D01*
X161009897Y-91396534D01*
X160979452Y-91371548D01*
X160954466Y-91341103D01*
X160935898Y-91306364D01*
X160924465Y-91268677D01*
X160920000Y-91223339D01*
X160920000Y-90386661D01*
X160924465Y-90341323D01*
X160935898Y-90303636D01*
X160954466Y-90268897D01*
X160979452Y-90238452D01*
X161009897Y-90213466D01*
X161044636Y-90194898D01*
X161082323Y-90183465D01*
X161127661Y-90179000D01*
X162214339Y-90179000D01*
X162259677Y-90183465D01*
X162259677Y-90183465D01*
G37*
G36*
X164799677Y-90183465D02*
X164837364Y-90194898D01*
X164872103Y-90213466D01*
X164902548Y-90238452D01*
X164927534Y-90268897D01*
X164946102Y-90303636D01*
X164957535Y-90341323D01*
X164962000Y-90386661D01*
X164962000Y-91223339D01*
X164957535Y-91268677D01*
X164946102Y-91306364D01*
X164927534Y-91341103D01*
X164902548Y-91371548D01*
X164872103Y-91396534D01*
X164837364Y-91415102D01*
X164799677Y-91426535D01*
X164754339Y-91431000D01*
X163667661Y-91431000D01*
X163622323Y-91426535D01*
X163584636Y-91415102D01*
X163549897Y-91396534D01*
X163519452Y-91371548D01*
X163494466Y-91341103D01*
X163475898Y-91306364D01*
X163464465Y-91268677D01*
X163460000Y-91223339D01*
X163460000Y-90386661D01*
X163464465Y-90341323D01*
X163475898Y-90303636D01*
X163494466Y-90268897D01*
X163519452Y-90238452D01*
X163549897Y-90213466D01*
X163584636Y-90194898D01*
X163622323Y-90183465D01*
X163667661Y-90179000D01*
X164754339Y-90179000D01*
X164799677Y-90183465D01*
X164799677Y-90183465D01*
G37*
G36*
X136859677Y-89058465D02*
X136897364Y-89069898D01*
X136932103Y-89088466D01*
X136962548Y-89113452D01*
X136987534Y-89143897D01*
X137006102Y-89178636D01*
X137017535Y-89216323D01*
X137022000Y-89261661D01*
X137022000Y-90098339D01*
X137017535Y-90143677D01*
X137006102Y-90181364D01*
X136987534Y-90216103D01*
X136962548Y-90246548D01*
X136932103Y-90271534D01*
X136897364Y-90290102D01*
X136859677Y-90301535D01*
X136814339Y-90306000D01*
X135727661Y-90306000D01*
X135682323Y-90301535D01*
X135644636Y-90290102D01*
X135609897Y-90271534D01*
X135579452Y-90246548D01*
X135554466Y-90216103D01*
X135535898Y-90181364D01*
X135524465Y-90143677D01*
X135520000Y-90098339D01*
X135520000Y-89261661D01*
X135524465Y-89216323D01*
X135535898Y-89178636D01*
X135554466Y-89143897D01*
X135579452Y-89113452D01*
X135609897Y-89088466D01*
X135644636Y-89069898D01*
X135682323Y-89058465D01*
X135727661Y-89054000D01*
X136814339Y-89054000D01*
X136859677Y-89058465D01*
X136859677Y-89058465D01*
G37*
G36*
X130799000Y-89972000D02*
X129137000Y-89972000D01*
X129137000Y-87320000D01*
X130799000Y-87320000D01*
X130799000Y-89972000D01*
X130799000Y-89972000D01*
G37*
G36*
X133499000Y-89972000D02*
X131837000Y-89972000D01*
X131837000Y-89220000D01*
X133499000Y-89220000D01*
X133499000Y-89972000D01*
X133499000Y-89972000D01*
G37*
G36*
X159320043Y-88002122D02*
X159354390Y-88012541D01*
X159386035Y-88029456D01*
X159413777Y-88052223D01*
X159436544Y-88079965D01*
X159453459Y-88111610D01*
X159463878Y-88145957D01*
X159468000Y-88187807D01*
X159468000Y-89410193D01*
X159463878Y-89452043D01*
X159453459Y-89486390D01*
X159436544Y-89518035D01*
X159413777Y-89545777D01*
X159386035Y-89568544D01*
X159354390Y-89585459D01*
X159320043Y-89595878D01*
X159278193Y-89600000D01*
X157205807Y-89600000D01*
X157163957Y-89595878D01*
X157129610Y-89585459D01*
X157097965Y-89568544D01*
X157070223Y-89545777D01*
X157047456Y-89518035D01*
X157030541Y-89486390D01*
X157020122Y-89452043D01*
X157016000Y-89410193D01*
X157016000Y-88187807D01*
X157020122Y-88145957D01*
X157030541Y-88111610D01*
X157047456Y-88079965D01*
X157070223Y-88052223D01*
X157097965Y-88029456D01*
X157129610Y-88012541D01*
X157163957Y-88002122D01*
X157205807Y-87998000D01*
X159278193Y-87998000D01*
X159320043Y-88002122D01*
X159320043Y-88002122D01*
G37*
G36*
X124812527Y-86372736D02*
X124912410Y-86392604D01*
X125194674Y-86509521D01*
X125448705Y-86679259D01*
X125664741Y-86895295D01*
X125834479Y-87149326D01*
X125887020Y-87276173D01*
X125951396Y-87431591D01*
X126011000Y-87731238D01*
X126011000Y-88036762D01*
X125976514Y-88210131D01*
X125951396Y-88336410D01*
X125834479Y-88618674D01*
X125664741Y-88872705D01*
X125448705Y-89088741D01*
X125194674Y-89258479D01*
X124912410Y-89375396D01*
X124816192Y-89394535D01*
X124612762Y-89435000D01*
X124307238Y-89435000D01*
X124103808Y-89394535D01*
X124007590Y-89375396D01*
X123725326Y-89258479D01*
X123471295Y-89088741D01*
X123255259Y-88872705D01*
X123085521Y-88618674D01*
X122968604Y-88336410D01*
X122943486Y-88210131D01*
X122909000Y-88036762D01*
X122909000Y-87731238D01*
X122968604Y-87431591D01*
X123032980Y-87276173D01*
X123085521Y-87149326D01*
X123255259Y-86895295D01*
X123471295Y-86679259D01*
X123725326Y-86509521D01*
X124007590Y-86392604D01*
X124107473Y-86372736D01*
X124307238Y-86333000D01*
X124612762Y-86333000D01*
X124812527Y-86372736D01*
X124812527Y-86372736D01*
G37*
G36*
X155655677Y-88151465D02*
X155693364Y-88162898D01*
X155728103Y-88181466D01*
X155758548Y-88206452D01*
X155783534Y-88236897D01*
X155802102Y-88271636D01*
X155813535Y-88309323D01*
X155818000Y-88354661D01*
X155818000Y-89191339D01*
X155813535Y-89236677D01*
X155802102Y-89274364D01*
X155783534Y-89309103D01*
X155758548Y-89339548D01*
X155728103Y-89364534D01*
X155693364Y-89383102D01*
X155655677Y-89394535D01*
X155610339Y-89399000D01*
X154523661Y-89399000D01*
X154478323Y-89394535D01*
X154440636Y-89383102D01*
X154405897Y-89364534D01*
X154375452Y-89339548D01*
X154350466Y-89309103D01*
X154331898Y-89274364D01*
X154320465Y-89236677D01*
X154316000Y-89191339D01*
X154316000Y-88354661D01*
X154320465Y-88309323D01*
X154331898Y-88271636D01*
X154350466Y-88236897D01*
X154375452Y-88206452D01*
X154405897Y-88181466D01*
X154440636Y-88162898D01*
X154478323Y-88151465D01*
X154523661Y-88147000D01*
X155610339Y-88147000D01*
X155655677Y-88151465D01*
X155655677Y-88151465D01*
G37*
G36*
X162259677Y-88133465D02*
X162297364Y-88144898D01*
X162332103Y-88163466D01*
X162362548Y-88188452D01*
X162387534Y-88218897D01*
X162406102Y-88253636D01*
X162417535Y-88291323D01*
X162422000Y-88336661D01*
X162422000Y-89173339D01*
X162417535Y-89218677D01*
X162406102Y-89256364D01*
X162387534Y-89291103D01*
X162362548Y-89321548D01*
X162332103Y-89346534D01*
X162297364Y-89365102D01*
X162259677Y-89376535D01*
X162214339Y-89381000D01*
X161127661Y-89381000D01*
X161082323Y-89376535D01*
X161044636Y-89365102D01*
X161009897Y-89346534D01*
X160979452Y-89321548D01*
X160954466Y-89291103D01*
X160935898Y-89256364D01*
X160924465Y-89218677D01*
X160920000Y-89173339D01*
X160920000Y-88336661D01*
X160924465Y-88291323D01*
X160935898Y-88253636D01*
X160954466Y-88218897D01*
X160979452Y-88188452D01*
X161009897Y-88163466D01*
X161044636Y-88144898D01*
X161082323Y-88133465D01*
X161127661Y-88129000D01*
X162214339Y-88129000D01*
X162259677Y-88133465D01*
X162259677Y-88133465D01*
G37*
G36*
X164799677Y-88133465D02*
X164837364Y-88144898D01*
X164872103Y-88163466D01*
X164902548Y-88188452D01*
X164927534Y-88218897D01*
X164946102Y-88253636D01*
X164957535Y-88291323D01*
X164962000Y-88336661D01*
X164962000Y-89173339D01*
X164957535Y-89218677D01*
X164946102Y-89256364D01*
X164927534Y-89291103D01*
X164902548Y-89321548D01*
X164872103Y-89346534D01*
X164837364Y-89365102D01*
X164799677Y-89376535D01*
X164754339Y-89381000D01*
X163667661Y-89381000D01*
X163622323Y-89376535D01*
X163584636Y-89365102D01*
X163549897Y-89346534D01*
X163519452Y-89321548D01*
X163494466Y-89291103D01*
X163475898Y-89256364D01*
X163464465Y-89218677D01*
X163460000Y-89173339D01*
X163460000Y-88336661D01*
X163464465Y-88291323D01*
X163475898Y-88253636D01*
X163494466Y-88218897D01*
X163519452Y-88188452D01*
X163549897Y-88163466D01*
X163584636Y-88144898D01*
X163622323Y-88133465D01*
X163667661Y-88129000D01*
X164754339Y-88129000D01*
X164799677Y-88133465D01*
X164799677Y-88133465D01*
G37*
G36*
X136859677Y-87008465D02*
X136897364Y-87019898D01*
X136932103Y-87038466D01*
X136962548Y-87063452D01*
X136987534Y-87093897D01*
X137006102Y-87128636D01*
X137017535Y-87166323D01*
X137022000Y-87211661D01*
X137022000Y-88048339D01*
X137017535Y-88093677D01*
X137006102Y-88131364D01*
X136987534Y-88166103D01*
X136962548Y-88196548D01*
X136932103Y-88221534D01*
X136897364Y-88240102D01*
X136859677Y-88251535D01*
X136814339Y-88256000D01*
X135727661Y-88256000D01*
X135682323Y-88251535D01*
X135644636Y-88240102D01*
X135609897Y-88221534D01*
X135579452Y-88196548D01*
X135554466Y-88166103D01*
X135535898Y-88131364D01*
X135524465Y-88093677D01*
X135520000Y-88048339D01*
X135520000Y-87211661D01*
X135524465Y-87166323D01*
X135535898Y-87128636D01*
X135554466Y-87093897D01*
X135579452Y-87063452D01*
X135609897Y-87038466D01*
X135644636Y-87019898D01*
X135682323Y-87008465D01*
X135727661Y-87004000D01*
X136814339Y-87004000D01*
X136859677Y-87008465D01*
X136859677Y-87008465D01*
G37*
G36*
X133499000Y-88072000D02*
X131837000Y-88072000D01*
X131837000Y-87320000D01*
X133499000Y-87320000D01*
X133499000Y-88072000D01*
X133499000Y-88072000D01*
G37*
G36*
X152566000Y-87003000D02*
X150964000Y-87003000D01*
X150964000Y-84701000D01*
X152566000Y-84701000D01*
X152566000Y-87003000D01*
X152566000Y-87003000D01*
G37*
G36*
X146166000Y-87003000D02*
X144564000Y-87003000D01*
X144564000Y-84701000D01*
X146166000Y-84701000D01*
X146166000Y-87003000D01*
X146166000Y-87003000D01*
G37*
G36*
X141575000Y-86772000D02*
X140873000Y-86772000D01*
X140873000Y-85120000D01*
X141575000Y-85120000D01*
X141575000Y-86772000D01*
X141575000Y-86772000D01*
G37*
G36*
X139035000Y-86772000D02*
X138333000Y-86772000D01*
X138333000Y-85120000D01*
X139035000Y-85120000D01*
X139035000Y-86772000D01*
X139035000Y-86772000D01*
G37*
G36*
X142845000Y-86772000D02*
X142143000Y-86772000D01*
X142143000Y-85120000D01*
X142845000Y-85120000D01*
X142845000Y-86772000D01*
X142845000Y-86772000D01*
G37*
G36*
X140305000Y-86772000D02*
X139603000Y-86772000D01*
X139603000Y-85120000D01*
X140305000Y-85120000D01*
X140305000Y-86772000D01*
X140305000Y-86772000D01*
G37*
G36*
X133303677Y-84468465D02*
X133341364Y-84479898D01*
X133376103Y-84498466D01*
X133406548Y-84523452D01*
X133431534Y-84553897D01*
X133450102Y-84588636D01*
X133461535Y-84626323D01*
X133466000Y-84671661D01*
X133466000Y-85508339D01*
X133461535Y-85553677D01*
X133450102Y-85591364D01*
X133431534Y-85626103D01*
X133406548Y-85656548D01*
X133376103Y-85681534D01*
X133341364Y-85700102D01*
X133303677Y-85711535D01*
X133258339Y-85716000D01*
X132171661Y-85716000D01*
X132126323Y-85711535D01*
X132088636Y-85700102D01*
X132053897Y-85681534D01*
X132023452Y-85656548D01*
X131998466Y-85626103D01*
X131979898Y-85591364D01*
X131968465Y-85553677D01*
X131964000Y-85508339D01*
X131964000Y-84671661D01*
X131968465Y-84626323D01*
X131979898Y-84588636D01*
X131998466Y-84553897D01*
X132023452Y-84523452D01*
X132053897Y-84498466D01*
X132088636Y-84479898D01*
X132126323Y-84468465D01*
X132171661Y-84464000D01*
X133258339Y-84464000D01*
X133303677Y-84468465D01*
X133303677Y-84468465D01*
G37*
G36*
X166715677Y-83835465D02*
X166753364Y-83846898D01*
X166788103Y-83865466D01*
X166818548Y-83890452D01*
X166843534Y-83920897D01*
X166862102Y-83955636D01*
X166873535Y-83993323D01*
X166878000Y-84038661D01*
X166878000Y-85125339D01*
X166873535Y-85170677D01*
X166862102Y-85208364D01*
X166843534Y-85243103D01*
X166818548Y-85273548D01*
X166788103Y-85298534D01*
X166753364Y-85317102D01*
X166715677Y-85328535D01*
X166670339Y-85333000D01*
X165833661Y-85333000D01*
X165788323Y-85328535D01*
X165750636Y-85317102D01*
X165715897Y-85298534D01*
X165685452Y-85273548D01*
X165660466Y-85243103D01*
X165641898Y-85208364D01*
X165630465Y-85170677D01*
X165626000Y-85125339D01*
X165626000Y-84038661D01*
X165630465Y-83993323D01*
X165641898Y-83955636D01*
X165660466Y-83920897D01*
X165685452Y-83890452D01*
X165715897Y-83865466D01*
X165750636Y-83846898D01*
X165788323Y-83835465D01*
X165833661Y-83831000D01*
X166670339Y-83831000D01*
X166715677Y-83835465D01*
X166715677Y-83835465D01*
G37*
G36*
X164665677Y-83835465D02*
X164703364Y-83846898D01*
X164738103Y-83865466D01*
X164768548Y-83890452D01*
X164793534Y-83920897D01*
X164812102Y-83955636D01*
X164823535Y-83993323D01*
X164828000Y-84038661D01*
X164828000Y-85125339D01*
X164823535Y-85170677D01*
X164812102Y-85208364D01*
X164793534Y-85243103D01*
X164768548Y-85273548D01*
X164738103Y-85298534D01*
X164703364Y-85317102D01*
X164665677Y-85328535D01*
X164620339Y-85333000D01*
X163783661Y-85333000D01*
X163738323Y-85328535D01*
X163700636Y-85317102D01*
X163665897Y-85298534D01*
X163635452Y-85273548D01*
X163610466Y-85243103D01*
X163591898Y-85208364D01*
X163580465Y-85170677D01*
X163576000Y-85125339D01*
X163576000Y-84038661D01*
X163580465Y-83993323D01*
X163591898Y-83955636D01*
X163610466Y-83920897D01*
X163635452Y-83890452D01*
X163665897Y-83865466D01*
X163700636Y-83846898D01*
X163738323Y-83835465D01*
X163783661Y-83831000D01*
X164620339Y-83831000D01*
X164665677Y-83835465D01*
X164665677Y-83835465D01*
G37*
G36*
X126011000Y-84355000D02*
X122909000Y-84355000D01*
X122909000Y-81253000D01*
X126011000Y-81253000D01*
X126011000Y-84355000D01*
X126011000Y-84355000D01*
G37*
G36*
X157179677Y-82962465D02*
X157217364Y-82973898D01*
X157252103Y-82992466D01*
X157282548Y-83017452D01*
X157307534Y-83047897D01*
X157326102Y-83082636D01*
X157337535Y-83120323D01*
X157342000Y-83165661D01*
X157342000Y-84002339D01*
X157337535Y-84047677D01*
X157326102Y-84085364D01*
X157307534Y-84120103D01*
X157282548Y-84150548D01*
X157252103Y-84175534D01*
X157217364Y-84194102D01*
X157179677Y-84205535D01*
X157134339Y-84210000D01*
X156047661Y-84210000D01*
X156002323Y-84205535D01*
X155964636Y-84194102D01*
X155929897Y-84175534D01*
X155899452Y-84150548D01*
X155874466Y-84120103D01*
X155855898Y-84085364D01*
X155844465Y-84047677D01*
X155840000Y-84002339D01*
X155840000Y-83165661D01*
X155844465Y-83120323D01*
X155855898Y-83082636D01*
X155874466Y-83047897D01*
X155899452Y-83017452D01*
X155929897Y-82992466D01*
X155964636Y-82973898D01*
X156002323Y-82962465D01*
X156047661Y-82958000D01*
X157134339Y-82958000D01*
X157179677Y-82962465D01*
X157179677Y-82962465D01*
G37*
G36*
X160227677Y-82953465D02*
X160265364Y-82964898D01*
X160300103Y-82983466D01*
X160330548Y-83008452D01*
X160355534Y-83038897D01*
X160374102Y-83073636D01*
X160385535Y-83111323D01*
X160390000Y-83156661D01*
X160390000Y-83993339D01*
X160385535Y-84038677D01*
X160374102Y-84076364D01*
X160355534Y-84111103D01*
X160330548Y-84141548D01*
X160300103Y-84166534D01*
X160265364Y-84185102D01*
X160227677Y-84196535D01*
X160182339Y-84201000D01*
X159095661Y-84201000D01*
X159050323Y-84196535D01*
X159012636Y-84185102D01*
X158977897Y-84166534D01*
X158947452Y-84141548D01*
X158922466Y-84111103D01*
X158903898Y-84076364D01*
X158892465Y-84038677D01*
X158888000Y-83993339D01*
X158888000Y-83156661D01*
X158892465Y-83111323D01*
X158903898Y-83073636D01*
X158922466Y-83038897D01*
X158947452Y-83008452D01*
X158977897Y-82983466D01*
X159012636Y-82964898D01*
X159050323Y-82953465D01*
X159095661Y-82949000D01*
X160182339Y-82949000D01*
X160227677Y-82953465D01*
X160227677Y-82953465D01*
G37*
G36*
X133303677Y-82418465D02*
X133341364Y-82429898D01*
X133376103Y-82448466D01*
X133406548Y-82473452D01*
X133431534Y-82503897D01*
X133450102Y-82538636D01*
X133461535Y-82576323D01*
X133466000Y-82621661D01*
X133466000Y-83458339D01*
X133461535Y-83503677D01*
X133450102Y-83541364D01*
X133431534Y-83576103D01*
X133406548Y-83606548D01*
X133376103Y-83631534D01*
X133341364Y-83650102D01*
X133303677Y-83661535D01*
X133258339Y-83666000D01*
X132171661Y-83666000D01*
X132126323Y-83661535D01*
X132088636Y-83650102D01*
X132053897Y-83631534D01*
X132023452Y-83606548D01*
X131998466Y-83576103D01*
X131979898Y-83541364D01*
X131968465Y-83503677D01*
X131964000Y-83458339D01*
X131964000Y-82621661D01*
X131968465Y-82576323D01*
X131979898Y-82538636D01*
X131998466Y-82503897D01*
X132023452Y-82473452D01*
X132053897Y-82448466D01*
X132088636Y-82429898D01*
X132126323Y-82418465D01*
X132171661Y-82414000D01*
X133258339Y-82414000D01*
X133303677Y-82418465D01*
X133303677Y-82418465D01*
G37*
G36*
X142701677Y-81946465D02*
X142739364Y-81957898D01*
X142774103Y-81976466D01*
X142804548Y-82001452D01*
X142829534Y-82031897D01*
X142848102Y-82066636D01*
X142859535Y-82104323D01*
X142864000Y-82149661D01*
X142864000Y-82986339D01*
X142859535Y-83031677D01*
X142848102Y-83069364D01*
X142829534Y-83104103D01*
X142804548Y-83134548D01*
X142774103Y-83159534D01*
X142739364Y-83178102D01*
X142701677Y-83189535D01*
X142656339Y-83194000D01*
X141569661Y-83194000D01*
X141524323Y-83189535D01*
X141486636Y-83178102D01*
X141451897Y-83159534D01*
X141421452Y-83134548D01*
X141396466Y-83104103D01*
X141377898Y-83069364D01*
X141366465Y-83031677D01*
X141362000Y-82986339D01*
X141362000Y-82149661D01*
X141366465Y-82104323D01*
X141377898Y-82066636D01*
X141396466Y-82031897D01*
X141421452Y-82001452D01*
X141451897Y-81976466D01*
X141486636Y-81957898D01*
X141524323Y-81946465D01*
X141569661Y-81942000D01*
X142656339Y-81942000D01*
X142701677Y-81946465D01*
X142701677Y-81946465D01*
G37*
G36*
X135843677Y-81937465D02*
X135881364Y-81948898D01*
X135916103Y-81967466D01*
X135946548Y-81992452D01*
X135971534Y-82022897D01*
X135990102Y-82057636D01*
X136001535Y-82095323D01*
X136006000Y-82140661D01*
X136006000Y-82977339D01*
X136001535Y-83022677D01*
X135990102Y-83060364D01*
X135971534Y-83095103D01*
X135946548Y-83125548D01*
X135916103Y-83150534D01*
X135881364Y-83169102D01*
X135843677Y-83180535D01*
X135798339Y-83185000D01*
X134711661Y-83185000D01*
X134666323Y-83180535D01*
X134628636Y-83169102D01*
X134593897Y-83150534D01*
X134563452Y-83125548D01*
X134538466Y-83095103D01*
X134519898Y-83060364D01*
X134508465Y-83022677D01*
X134504000Y-82977339D01*
X134504000Y-82140661D01*
X134508465Y-82095323D01*
X134519898Y-82057636D01*
X134538466Y-82022897D01*
X134563452Y-81992452D01*
X134593897Y-81967466D01*
X134628636Y-81948898D01*
X134666323Y-81937465D01*
X134711661Y-81933000D01*
X135798339Y-81933000D01*
X135843677Y-81937465D01*
X135843677Y-81937465D01*
G37*
G36*
X138637677Y-81928465D02*
X138675364Y-81939898D01*
X138710103Y-81958466D01*
X138740548Y-81983452D01*
X138765534Y-82013897D01*
X138784102Y-82048636D01*
X138795535Y-82086323D01*
X138800000Y-82131661D01*
X138800000Y-82968339D01*
X138795535Y-83013677D01*
X138784102Y-83051364D01*
X138765534Y-83086103D01*
X138740548Y-83116548D01*
X138710103Y-83141534D01*
X138675364Y-83160102D01*
X138637677Y-83171535D01*
X138592339Y-83176000D01*
X137505661Y-83176000D01*
X137460323Y-83171535D01*
X137422636Y-83160102D01*
X137387897Y-83141534D01*
X137357452Y-83116548D01*
X137332466Y-83086103D01*
X137313898Y-83051364D01*
X137302465Y-83013677D01*
X137298000Y-82968339D01*
X137298000Y-82131661D01*
X137302465Y-82086323D01*
X137313898Y-82048636D01*
X137332466Y-82013897D01*
X137357452Y-81983452D01*
X137387897Y-81958466D01*
X137422636Y-81939898D01*
X137460323Y-81928465D01*
X137505661Y-81924000D01*
X138592339Y-81924000D01*
X138637677Y-81928465D01*
X138637677Y-81928465D01*
G37*
G36*
X164665677Y-81041465D02*
X164703364Y-81052898D01*
X164738103Y-81071466D01*
X164768548Y-81096452D01*
X164793534Y-81126897D01*
X164812102Y-81161636D01*
X164823535Y-81199323D01*
X164828000Y-81244661D01*
X164828000Y-82331339D01*
X164823535Y-82376677D01*
X164812102Y-82414364D01*
X164793534Y-82449103D01*
X164768548Y-82479548D01*
X164738103Y-82504534D01*
X164703364Y-82523102D01*
X164665677Y-82534535D01*
X164620339Y-82539000D01*
X163783661Y-82539000D01*
X163738323Y-82534535D01*
X163700636Y-82523102D01*
X163665897Y-82504534D01*
X163635452Y-82479548D01*
X163610466Y-82449103D01*
X163591898Y-82414364D01*
X163580465Y-82376677D01*
X163576000Y-82331339D01*
X163576000Y-81244661D01*
X163580465Y-81199323D01*
X163591898Y-81161636D01*
X163610466Y-81126897D01*
X163635452Y-81096452D01*
X163665897Y-81071466D01*
X163700636Y-81052898D01*
X163738323Y-81041465D01*
X163783661Y-81037000D01*
X164620339Y-81037000D01*
X164665677Y-81041465D01*
X164665677Y-81041465D01*
G37*
G36*
X166715677Y-81041465D02*
X166753364Y-81052898D01*
X166788103Y-81071466D01*
X166818548Y-81096452D01*
X166843534Y-81126897D01*
X166862102Y-81161636D01*
X166873535Y-81199323D01*
X166878000Y-81244661D01*
X166878000Y-82331339D01*
X166873535Y-82376677D01*
X166862102Y-82414364D01*
X166843534Y-82449103D01*
X166818548Y-82479548D01*
X166788103Y-82504534D01*
X166753364Y-82523102D01*
X166715677Y-82534535D01*
X166670339Y-82539000D01*
X165833661Y-82539000D01*
X165788323Y-82534535D01*
X165750636Y-82523102D01*
X165715897Y-82504534D01*
X165685452Y-82479548D01*
X165660466Y-82449103D01*
X165641898Y-82414364D01*
X165630465Y-82376677D01*
X165626000Y-82331339D01*
X165626000Y-81244661D01*
X165630465Y-81199323D01*
X165641898Y-81161636D01*
X165660466Y-81126897D01*
X165685452Y-81096452D01*
X165715897Y-81071466D01*
X165750636Y-81052898D01*
X165788323Y-81041465D01*
X165833661Y-81037000D01*
X166670339Y-81037000D01*
X166715677Y-81041465D01*
X166715677Y-81041465D01*
G37*
G36*
X157179677Y-80912465D02*
X157217364Y-80923898D01*
X157252103Y-80942466D01*
X157282548Y-80967452D01*
X157307534Y-80997897D01*
X157326102Y-81032636D01*
X157337535Y-81070323D01*
X157342000Y-81115661D01*
X157342000Y-81952339D01*
X157337535Y-81997677D01*
X157326102Y-82035364D01*
X157307534Y-82070103D01*
X157282548Y-82100548D01*
X157252103Y-82125534D01*
X157217364Y-82144102D01*
X157179677Y-82155535D01*
X157134339Y-82160000D01*
X156047661Y-82160000D01*
X156002323Y-82155535D01*
X155964636Y-82144102D01*
X155929897Y-82125534D01*
X155899452Y-82100548D01*
X155874466Y-82070103D01*
X155855898Y-82035364D01*
X155844465Y-81997677D01*
X155840000Y-81952339D01*
X155840000Y-81115661D01*
X155844465Y-81070323D01*
X155855898Y-81032636D01*
X155874466Y-80997897D01*
X155899452Y-80967452D01*
X155929897Y-80942466D01*
X155964636Y-80923898D01*
X156002323Y-80912465D01*
X156047661Y-80908000D01*
X157134339Y-80908000D01*
X157179677Y-80912465D01*
X157179677Y-80912465D01*
G37*
G36*
X160227677Y-80903465D02*
X160265364Y-80914898D01*
X160300103Y-80933466D01*
X160330548Y-80958452D01*
X160355534Y-80988897D01*
X160374102Y-81023636D01*
X160385535Y-81061323D01*
X160390000Y-81106661D01*
X160390000Y-81943339D01*
X160385535Y-81988677D01*
X160374102Y-82026364D01*
X160355534Y-82061103D01*
X160330548Y-82091548D01*
X160300103Y-82116534D01*
X160265364Y-82135102D01*
X160227677Y-82146535D01*
X160182339Y-82151000D01*
X159095661Y-82151000D01*
X159050323Y-82146535D01*
X159012636Y-82135102D01*
X158977897Y-82116534D01*
X158947452Y-82091548D01*
X158922466Y-82061103D01*
X158903898Y-82026364D01*
X158892465Y-81988677D01*
X158888000Y-81943339D01*
X158888000Y-81106661D01*
X158892465Y-81061323D01*
X158903898Y-81023636D01*
X158922466Y-80988897D01*
X158947452Y-80958452D01*
X158977897Y-80933466D01*
X159012636Y-80914898D01*
X159050323Y-80903465D01*
X159095661Y-80899000D01*
X160182339Y-80899000D01*
X160227677Y-80903465D01*
X160227677Y-80903465D01*
G37*
G36*
X142701677Y-79896465D02*
X142739364Y-79907898D01*
X142774103Y-79926466D01*
X142804548Y-79951452D01*
X142829534Y-79981897D01*
X142848102Y-80016636D01*
X142859535Y-80054323D01*
X142864000Y-80099661D01*
X142864000Y-80936339D01*
X142859535Y-80981677D01*
X142848102Y-81019364D01*
X142829534Y-81054103D01*
X142804548Y-81084548D01*
X142774103Y-81109534D01*
X142739364Y-81128102D01*
X142701677Y-81139535D01*
X142656339Y-81144000D01*
X141569661Y-81144000D01*
X141524323Y-81139535D01*
X141486636Y-81128102D01*
X141451897Y-81109534D01*
X141421452Y-81084548D01*
X141396466Y-81054103D01*
X141377898Y-81019364D01*
X141366465Y-80981677D01*
X141362000Y-80936339D01*
X141362000Y-80099661D01*
X141366465Y-80054323D01*
X141377898Y-80016636D01*
X141396466Y-79981897D01*
X141421452Y-79951452D01*
X141451897Y-79926466D01*
X141486636Y-79907898D01*
X141524323Y-79896465D01*
X141569661Y-79892000D01*
X142656339Y-79892000D01*
X142701677Y-79896465D01*
X142701677Y-79896465D01*
G37*
G36*
X135843677Y-79887465D02*
X135881364Y-79898898D01*
X135916103Y-79917466D01*
X135946548Y-79942452D01*
X135971534Y-79972897D01*
X135990102Y-80007636D01*
X136001535Y-80045323D01*
X136006000Y-80090661D01*
X136006000Y-80927339D01*
X136001535Y-80972677D01*
X135990102Y-81010364D01*
X135971534Y-81045103D01*
X135946548Y-81075548D01*
X135916103Y-81100534D01*
X135881364Y-81119102D01*
X135843677Y-81130535D01*
X135798339Y-81135000D01*
X134711661Y-81135000D01*
X134666323Y-81130535D01*
X134628636Y-81119102D01*
X134593897Y-81100534D01*
X134563452Y-81075548D01*
X134538466Y-81045103D01*
X134519898Y-81010364D01*
X134508465Y-80972677D01*
X134504000Y-80927339D01*
X134504000Y-80090661D01*
X134508465Y-80045323D01*
X134519898Y-80007636D01*
X134538466Y-79972897D01*
X134563452Y-79942452D01*
X134593897Y-79917466D01*
X134628636Y-79898898D01*
X134666323Y-79887465D01*
X134711661Y-79883000D01*
X135798339Y-79883000D01*
X135843677Y-79887465D01*
X135843677Y-79887465D01*
G37*
G36*
X138637677Y-79878465D02*
X138675364Y-79889898D01*
X138710103Y-79908466D01*
X138740548Y-79933452D01*
X138765534Y-79963897D01*
X138784102Y-79998636D01*
X138795535Y-80036323D01*
X138800000Y-80081661D01*
X138800000Y-80918339D01*
X138795535Y-80963677D01*
X138784102Y-81001364D01*
X138765534Y-81036103D01*
X138740548Y-81066548D01*
X138710103Y-81091534D01*
X138675364Y-81110102D01*
X138637677Y-81121535D01*
X138592339Y-81126000D01*
X137505661Y-81126000D01*
X137460323Y-81121535D01*
X137422636Y-81110102D01*
X137387897Y-81091534D01*
X137357452Y-81066548D01*
X137332466Y-81036103D01*
X137313898Y-81001364D01*
X137302465Y-80963677D01*
X137298000Y-80918339D01*
X137298000Y-80081661D01*
X137302465Y-80036323D01*
X137313898Y-79998636D01*
X137332466Y-79963897D01*
X137357452Y-79933452D01*
X137387897Y-79908466D01*
X137422636Y-79889898D01*
X137460323Y-79878465D01*
X137505661Y-79874000D01*
X138592339Y-79874000D01*
X138637677Y-79878465D01*
X138637677Y-79878465D01*
G37*
G36*
X148640000Y-80393000D02*
X145238000Y-80393000D01*
X145238000Y-77791000D01*
X148640000Y-77791000D01*
X148640000Y-80393000D01*
X148640000Y-80393000D01*
G37*
G36*
X160426000Y-79385000D02*
X158824000Y-79385000D01*
X158824000Y-77283000D01*
X160426000Y-77283000D01*
X160426000Y-79385000D01*
X160426000Y-79385000D01*
G37*
G36*
X155496133Y-77211810D02*
X155527424Y-77221302D01*
X155556261Y-77236716D01*
X155581539Y-77257461D01*
X155602284Y-77282739D01*
X155617698Y-77311576D01*
X155627190Y-77342867D01*
X155631000Y-77381550D01*
X155631000Y-79211450D01*
X155627190Y-79250133D01*
X155617698Y-79281424D01*
X155602284Y-79310261D01*
X155581539Y-79335539D01*
X155556261Y-79356284D01*
X155527424Y-79371698D01*
X155496133Y-79381190D01*
X155457450Y-79385000D01*
X153152550Y-79385000D01*
X153113867Y-79381190D01*
X153082576Y-79371698D01*
X153053739Y-79356284D01*
X153028461Y-79335539D01*
X153007716Y-79310261D01*
X152992302Y-79281424D01*
X152982810Y-79250133D01*
X152979000Y-79211450D01*
X152979000Y-77381550D01*
X152982810Y-77342867D01*
X152992302Y-77311576D01*
X153007716Y-77282739D01*
X153028461Y-77257461D01*
X153053739Y-77236716D01*
X153082576Y-77221302D01*
X153113867Y-77211810D01*
X153152550Y-77208000D01*
X155457450Y-77208000D01*
X155496133Y-77211810D01*
X155496133Y-77211810D01*
G37*
G36*
X162726000Y-79385000D02*
X161124000Y-79385000D01*
X161124000Y-77283000D01*
X162726000Y-77283000D01*
X162726000Y-79385000D01*
X162726000Y-79385000D01*
G37*
G36*
X165026000Y-79385000D02*
X163424000Y-79385000D01*
X163424000Y-77283000D01*
X165026000Y-77283000D01*
X165026000Y-79385000D01*
X165026000Y-79385000D01*
G37*
G36*
X172212941Y-70726248D02*
X172212943Y-70726249D01*
X172212944Y-70726249D01*
X172768190Y-70956239D01*
X172882264Y-71032461D01*
X173267902Y-71290136D01*
X173692864Y-71715098D01*
X173692866Y-71715101D01*
X174026761Y-72214810D01*
X174256751Y-72770056D01*
X174256752Y-72770059D01*
X174374000Y-73359501D01*
X174374000Y-73960499D01*
X174262064Y-74523238D01*
X174256751Y-74549944D01*
X174026761Y-75105190D01*
X174011246Y-75128410D01*
X173692864Y-75604902D01*
X173267902Y-76029864D01*
X173267899Y-76029866D01*
X172768190Y-76363761D01*
X172212944Y-76593751D01*
X172212943Y-76593751D01*
X172212941Y-76593752D01*
X171623499Y-76711000D01*
X171022501Y-76711000D01*
X170433059Y-76593752D01*
X170433057Y-76593751D01*
X170433056Y-76593751D01*
X169877810Y-76363761D01*
X169378101Y-76029866D01*
X169378098Y-76029864D01*
X168953136Y-75604902D01*
X168634754Y-75128410D01*
X168619239Y-75105190D01*
X168389249Y-74549944D01*
X168383937Y-74523238D01*
X168272000Y-73960499D01*
X168272000Y-73359501D01*
X168389248Y-72770059D01*
X168389249Y-72770056D01*
X168619239Y-72214810D01*
X168953134Y-71715101D01*
X168953136Y-71715098D01*
X169378098Y-71290136D01*
X169763736Y-71032461D01*
X169877810Y-70956239D01*
X170433056Y-70726249D01*
X170433057Y-70726249D01*
X170433059Y-70726248D01*
X171022501Y-70609000D01*
X171623499Y-70609000D01*
X172212941Y-70726248D01*
X172212941Y-70726248D01*
G37*
G36*
X123952941Y-70726248D02*
X123952943Y-70726249D01*
X123952944Y-70726249D01*
X124508190Y-70956239D01*
X124622264Y-71032461D01*
X125007902Y-71290136D01*
X125432864Y-71715098D01*
X125432866Y-71715101D01*
X125766761Y-72214810D01*
X125996751Y-72770056D01*
X125996752Y-72770059D01*
X126114000Y-73359501D01*
X126114000Y-73960499D01*
X126002064Y-74523238D01*
X125996751Y-74549944D01*
X125766761Y-75105190D01*
X125751246Y-75128410D01*
X125432864Y-75604902D01*
X125007902Y-76029864D01*
X125007899Y-76029866D01*
X124508190Y-76363761D01*
X123952944Y-76593751D01*
X123952943Y-76593751D01*
X123952941Y-76593752D01*
X123363499Y-76711000D01*
X122762501Y-76711000D01*
X122173059Y-76593752D01*
X122173057Y-76593751D01*
X122173056Y-76593751D01*
X121617810Y-76363761D01*
X121118101Y-76029866D01*
X121118098Y-76029864D01*
X120693136Y-75604902D01*
X120374754Y-75128410D01*
X120359239Y-75105190D01*
X120129249Y-74549944D01*
X120123937Y-74523238D01*
X120012000Y-73960499D01*
X120012000Y-73359501D01*
X120129248Y-72770059D01*
X120129249Y-72770056D01*
X120359239Y-72214810D01*
X120693134Y-71715101D01*
X120693136Y-71715098D01*
X121118098Y-71290136D01*
X121503736Y-71032461D01*
X121617810Y-70956239D01*
X122173056Y-70726249D01*
X122173057Y-70726249D01*
X122173059Y-70726248D01*
X122762501Y-70609000D01*
X123363499Y-70609000D01*
X123952941Y-70726248D01*
X123952941Y-70726248D01*
G37*
G36*
X139473000Y-76227000D02*
X136371000Y-76227000D01*
X136371000Y-73125000D01*
X139473000Y-73125000D01*
X139473000Y-76227000D01*
X139473000Y-76227000D01*
G37*
G36*
X133151563Y-73156190D02*
X133294410Y-73184604D01*
X133576674Y-73301521D01*
X133830705Y-73471259D01*
X134046741Y-73687295D01*
X134216479Y-73941326D01*
X134333396Y-74223590D01*
X134393000Y-74523240D01*
X134393000Y-74828760D01*
X134333396Y-75128410D01*
X134216479Y-75410674D01*
X134046741Y-75664705D01*
X133830705Y-75880741D01*
X133576674Y-76050479D01*
X133294410Y-76167396D01*
X133194527Y-76187264D01*
X132994762Y-76227000D01*
X132689238Y-76227000D01*
X132489473Y-76187264D01*
X132389590Y-76167396D01*
X132107326Y-76050479D01*
X131853295Y-75880741D01*
X131637259Y-75664705D01*
X131467521Y-75410674D01*
X131350604Y-75128410D01*
X131291000Y-74828760D01*
X131291000Y-74523240D01*
X131350604Y-74223590D01*
X131467521Y-73941326D01*
X131637259Y-73687295D01*
X131853295Y-73471259D01*
X132107326Y-73301521D01*
X132389590Y-73184604D01*
X132532437Y-73156190D01*
X132689238Y-73125000D01*
X132994762Y-73125000D01*
X133151563Y-73156190D01*
X133151563Y-73156190D01*
G37*
G36*
X148640000Y-73593000D02*
X145238000Y-73593000D01*
X145238000Y-70991000D01*
X148640000Y-70991000D01*
X148640000Y-73593000D01*
X148640000Y-73593000D01*
G37*
G36*
X155496133Y-70986810D02*
X155527424Y-70996302D01*
X155556261Y-71011716D01*
X155581539Y-71032461D01*
X155602284Y-71057739D01*
X155617698Y-71086576D01*
X155627190Y-71117867D01*
X155631000Y-71156550D01*
X155631000Y-72986450D01*
X155627190Y-73025133D01*
X155617698Y-73056424D01*
X155602284Y-73085261D01*
X155581539Y-73110539D01*
X155556261Y-73131284D01*
X155527424Y-73146698D01*
X155496133Y-73156190D01*
X155457450Y-73160000D01*
X153152550Y-73160000D01*
X153113867Y-73156190D01*
X153082576Y-73146698D01*
X153053739Y-73131284D01*
X153028461Y-73110539D01*
X153007716Y-73085261D01*
X152992302Y-73056424D01*
X152982810Y-73025133D01*
X152979000Y-72986450D01*
X152979000Y-71156550D01*
X152982810Y-71117867D01*
X152992302Y-71086576D01*
X153007716Y-71057739D01*
X153028461Y-71032461D01*
X153053739Y-71011716D01*
X153082576Y-70996302D01*
X153113867Y-70986810D01*
X153152550Y-70983000D01*
X155457450Y-70983000D01*
X155496133Y-70986810D01*
X155496133Y-70986810D01*
G37*
G36*
X163876000Y-73085000D02*
X159974000Y-73085000D01*
X159974000Y-70983000D01*
X163876000Y-70983000D01*
X163876000Y-73085000D01*
X163876000Y-73085000D01*
G37*
M02*
