M48
;DRILL file {KiCad 5.0.2-bee76a0~70~ubuntu18.04.1} date Út 14. května 2019, 19:58:49 CEST
;FORMAT={-:-/ absolute / metric / decimal}
FMAT,2
METRIC,TZ
T1C0.400
T2C1.016
T3C1.520
T4C3.500
%
G90
G05
T1
X127.889Y-110.998
X127.889Y-112.522
X130.048Y-91.694
X130.048Y-103.378
X130.048Y-105.029
X131.826Y-95.885
X135.509Y-112.014
X136.017Y-85.09
X144.526Y-95.885
X152.527Y-113.157
X152.781Y-90.17
X152.781Y-91.313
X153.67Y-113.157
X154.305Y-82.804
X154.305Y-84.074
X154.813Y-100.33
X154.813Y-105.41
X156.591Y-86.106
X159.639Y-86.106
X161.163Y-100.33
X161.163Y-105.41
X162.56Y-115.443
T2
X123.063Y-98.552
X123.063Y-101.092
X123.063Y-103.632
X123.063Y-106.172
X123.063Y-108.712
X125.603Y-98.552
X125.603Y-101.092
X125.603Y-103.632
X125.603Y-106.172
X125.603Y-108.712
T3
X124.46Y-82.804
X124.46Y-87.884
X132.842Y-74.676
X137.922Y-74.676
T4
X123.063Y-73.66
X171.323Y-73.66
X123.063Y-119.38
X171.323Y-119.38
T0
M30
