G04 #@! TF.GenerationSoftware,KiCad,Pcbnew,5.0.2-bee76a0~70~ubuntu18.04.1*
G04 #@! TF.CreationDate,2019-05-14T19:54:41+02:00*
G04 #@! TF.ProjectId,support_board,73757070-6f72-4745-9f62-6f6172642e6b,rev?*
G04 #@! TF.SameCoordinates,Original*
G04 #@! TF.FileFunction,Copper,L2,Bot*
G04 #@! TF.FilePolarity,Positive*
%FSLAX46Y46*%
G04 Gerber Fmt 4.6, Leading zero omitted, Abs format (unit mm)*
G04 Created by KiCad (PCBNEW 5.0.2-bee76a0~70~ubuntu18.04.1) date Út 14. května 2019, 19:54:41 CEST*
%MOMM*%
%LPD*%
G01*
G04 APERTURE LIST*
G04 #@! TA.AperFunction,ComponentPad*
%ADD10O,1.727200X1.727200*%
G04 #@! TD*
G04 #@! TA.AperFunction,ComponentPad*
%ADD11R,1.727200X1.727200*%
G04 #@! TD*
G04 #@! TA.AperFunction,ComponentPad*
%ADD12C,3.000000*%
G04 #@! TD*
G04 #@! TA.AperFunction,ComponentPad*
%ADD13R,3.000000X3.000000*%
G04 #@! TD*
G04 #@! TA.AperFunction,ComponentPad*
%ADD14C,6.000000*%
G04 #@! TD*
G04 #@! TA.AperFunction,ViaPad*
%ADD15C,0.800000*%
G04 #@! TD*
G04 #@! TA.AperFunction,Conductor*
%ADD16C,0.500000*%
G04 #@! TD*
G04 #@! TA.AperFunction,Conductor*
%ADD17C,0.250000*%
G04 #@! TD*
G04 #@! TA.AperFunction,Conductor*
%ADD18C,0.254000*%
G04 #@! TD*
G04 APERTURE END LIST*
D10*
G04 #@! TO.P,J2,10*
G04 #@! TO.N,+5.5V*
X123063000Y-98552000D03*
G04 #@! TO.P,J2,9*
G04 #@! TO.N,Net-(J2-Pad9)*
X125603000Y-98552000D03*
G04 #@! TO.P,J2,8*
G04 #@! TO.N,+5.5V*
X123063000Y-101092000D03*
G04 #@! TO.P,J2,7*
G04 #@! TO.N,Net-(J2-Pad7)*
X125603000Y-101092000D03*
G04 #@! TO.P,J2,6*
G04 #@! TO.N,GND*
X123063000Y-103632000D03*
G04 #@! TO.P,J2,5*
G04 #@! TO.N,Net-(J2-Pad5)*
X125603000Y-103632000D03*
G04 #@! TO.P,J2,4*
G04 #@! TO.N,GND*
X123063000Y-106172000D03*
G04 #@! TO.P,J2,3*
G04 #@! TO.N,Net-(J2-Pad3)*
X125603000Y-106172000D03*
G04 #@! TO.P,J2,2*
G04 #@! TO.N,GND*
X123063000Y-108712000D03*
D11*
G04 #@! TO.P,J2,1*
G04 #@! TO.N,Net-(J2-Pad1)*
X125603000Y-108712000D03*
G04 #@! TD*
D12*
G04 #@! TO.P,J1,2*
G04 #@! TO.N,GND*
X132842000Y-74676000D03*
D13*
G04 #@! TO.P,J1,1*
G04 #@! TO.N,/12V*
X137922000Y-74676000D03*
G04 #@! TD*
D12*
G04 #@! TO.P,J3,2*
G04 #@! TO.N,GND*
X124460000Y-87884000D03*
D13*
G04 #@! TO.P,J3,1*
G04 #@! TO.N,Net-(J3-Pad1)*
X124460000Y-82804000D03*
G04 #@! TD*
D14*
G04 #@! TO.P,N1,1*
G04 #@! TO.N,N/C*
X123063000Y-73660000D03*
G04 #@! TD*
G04 #@! TO.P,N2,1*
G04 #@! TO.N,N/C*
X171323000Y-73660000D03*
G04 #@! TD*
G04 #@! TO.P,N3,1*
G04 #@! TO.N,N/C*
X123063000Y-119380000D03*
G04 #@! TD*
G04 #@! TO.P,N4,1*
G04 #@! TO.N,N/C*
X171323000Y-119380000D03*
G04 #@! TD*
D15*
G04 #@! TO.N,GND*
X154813000Y-100330000D03*
X161163000Y-100330000D03*
X154813000Y-105410000D03*
X161163000Y-105410000D03*
X136017000Y-85090000D03*
X135509000Y-112014000D03*
X130048000Y-91694000D03*
X130048000Y-105029000D03*
X156591000Y-86106000D03*
X159639000Y-86106000D03*
G04 #@! TO.N,+3V3*
X152527000Y-113157000D03*
X153670000Y-113157000D03*
X152781000Y-90170000D03*
X152781000Y-91313000D03*
G04 #@! TO.N,Net-(J2-Pad5)*
X131826000Y-95885000D03*
X130048000Y-103378000D03*
G04 #@! TO.N,Net-(U2-Pad4)*
X144526000Y-95885000D03*
X162560000Y-115443000D03*
G04 #@! TO.N,+5.5V*
X154305000Y-82804000D03*
X127889000Y-112522000D03*
X154305000Y-84074000D03*
X127889000Y-110998000D03*
G04 #@! TD*
D16*
G04 #@! TO.N,+3V3*
X152781000Y-91313000D02*
X152781000Y-90170000D01*
X149860000Y-111633000D02*
X151384000Y-113157000D01*
X152781000Y-91313000D02*
X149860000Y-94234000D01*
X151384000Y-113157000D02*
X152527000Y-113157000D01*
X149860000Y-94234000D02*
X149860000Y-111633000D01*
X152527000Y-113157000D02*
X153670000Y-113157000D01*
D17*
G04 #@! TO.N,Net-(J2-Pad5)*
X130048000Y-97663000D02*
X130048000Y-102812315D01*
X130048000Y-102812315D02*
X130048000Y-103378000D01*
X131826000Y-95885000D02*
X130048000Y-97663000D01*
G04 #@! TO.N,Net-(U2-Pad4)*
X151130000Y-115443000D02*
X161994315Y-115443000D01*
X144526000Y-108839000D02*
X151130000Y-115443000D01*
X144526000Y-95885000D02*
X144526000Y-108839000D01*
X161994315Y-115443000D02*
X162560000Y-115443000D01*
D16*
G04 #@! TO.N,+5.5V*
X123063000Y-96266000D02*
X125095000Y-94234000D01*
X123063000Y-98552000D02*
X123063000Y-96266000D01*
X125095000Y-94234000D02*
X127889000Y-94234000D01*
X123063000Y-98552000D02*
X123063000Y-101092000D01*
X154305000Y-84582000D02*
X154305000Y-82804000D01*
X153543000Y-85344000D02*
X154305000Y-84582000D01*
X149225000Y-85344000D02*
X153543000Y-85344000D01*
X127889000Y-94234000D02*
X140335000Y-94234000D01*
X140335000Y-94234000D02*
X149225000Y-85344000D01*
X127889000Y-94234000D02*
X127889000Y-110998000D01*
X127889000Y-110998000D02*
X127889000Y-112522000D01*
G04 #@! TD*
D18*
G04 #@! TO.N,GND*
G36*
X175951001Y-93345000D02*
X165481000Y-93345000D01*
X165432399Y-93354667D01*
X165391197Y-93382197D01*
X165363667Y-93423399D01*
X165354000Y-93472000D01*
X165354000Y-112776000D01*
X165363667Y-112824601D01*
X165391197Y-112865803D01*
X165432399Y-112893333D01*
X165481000Y-112903000D01*
X175951000Y-112903000D01*
X175951000Y-124008000D01*
X118435000Y-124008000D01*
X118435000Y-118708273D01*
X119686000Y-118708273D01*
X119686000Y-120051727D01*
X120200118Y-121292917D01*
X121150083Y-122242882D01*
X122391273Y-122757000D01*
X123734727Y-122757000D01*
X124975917Y-122242882D01*
X125925882Y-121292917D01*
X126440000Y-120051727D01*
X126440000Y-118708273D01*
X167946000Y-118708273D01*
X167946000Y-120051727D01*
X168460118Y-121292917D01*
X169410083Y-122242882D01*
X170651273Y-122757000D01*
X171994727Y-122757000D01*
X173235917Y-122242882D01*
X174185882Y-121292917D01*
X174700000Y-120051727D01*
X174700000Y-118708273D01*
X174185882Y-117467083D01*
X173235917Y-116517118D01*
X171994727Y-116003000D01*
X170651273Y-116003000D01*
X169410083Y-116517118D01*
X168460118Y-117467083D01*
X167946000Y-118708273D01*
X126440000Y-118708273D01*
X125925882Y-117467083D01*
X124975917Y-116517118D01*
X123734727Y-116003000D01*
X122391273Y-116003000D01*
X121150083Y-116517118D01*
X120200118Y-117467083D01*
X119686000Y-118708273D01*
X118435000Y-118708273D01*
X118435000Y-109071026D01*
X121608042Y-109071026D01*
X121780312Y-109486947D01*
X122174510Y-109918821D01*
X122703973Y-110166968D01*
X122936000Y-110046469D01*
X122936000Y-108839000D01*
X121729183Y-108839000D01*
X121608042Y-109071026D01*
X118435000Y-109071026D01*
X118435000Y-106531026D01*
X121608042Y-106531026D01*
X121780312Y-106946947D01*
X122174510Y-107378821D01*
X122309313Y-107442000D01*
X122174510Y-107505179D01*
X121780312Y-107937053D01*
X121608042Y-108352974D01*
X121729183Y-108585000D01*
X122936000Y-108585000D01*
X122936000Y-106299000D01*
X121729183Y-106299000D01*
X121608042Y-106531026D01*
X118435000Y-106531026D01*
X118435000Y-103991026D01*
X121608042Y-103991026D01*
X121780312Y-104406947D01*
X122174510Y-104838821D01*
X122309313Y-104902000D01*
X122174510Y-104965179D01*
X121780312Y-105397053D01*
X121608042Y-105812974D01*
X121729183Y-106045000D01*
X122936000Y-106045000D01*
X122936000Y-103759000D01*
X121729183Y-103759000D01*
X121608042Y-103991026D01*
X118435000Y-103991026D01*
X118435000Y-103272974D01*
X121608042Y-103272974D01*
X121729183Y-103505000D01*
X122936000Y-103505000D01*
X122936000Y-103485000D01*
X123190000Y-103485000D01*
X123190000Y-103505000D01*
X123210000Y-103505000D01*
X123210000Y-103759000D01*
X123190000Y-103759000D01*
X123190000Y-106045000D01*
X123210000Y-106045000D01*
X123210000Y-106299000D01*
X123190000Y-106299000D01*
X123190000Y-108585000D01*
X123210000Y-108585000D01*
X123210000Y-108839000D01*
X123190000Y-108839000D01*
X123190000Y-110046469D01*
X123422027Y-110166968D01*
X123951490Y-109918821D01*
X124345688Y-109486947D01*
X124355015Y-109464428D01*
X124355015Y-109575600D01*
X124384275Y-109722698D01*
X124467599Y-109847401D01*
X124592302Y-109930725D01*
X124739400Y-109959985D01*
X126466600Y-109959985D01*
X126613698Y-109930725D01*
X126738401Y-109847401D01*
X126821725Y-109722698D01*
X126850985Y-109575600D01*
X126850985Y-107848400D01*
X126821725Y-107701302D01*
X126738401Y-107576599D01*
X126613698Y-107493275D01*
X126466600Y-107464015D01*
X124739400Y-107464015D01*
X124592302Y-107493275D01*
X124467599Y-107576599D01*
X124384275Y-107701302D01*
X124355015Y-107848400D01*
X124355015Y-107959572D01*
X124345688Y-107937053D01*
X123951490Y-107505179D01*
X123816687Y-107442000D01*
X123951490Y-107378821D01*
X124345688Y-106946947D01*
X124454006Y-106685429D01*
X124708578Y-107066422D01*
X125118942Y-107340619D01*
X125480815Y-107412600D01*
X125725185Y-107412600D01*
X126087058Y-107340619D01*
X126497422Y-107066422D01*
X126771619Y-106656058D01*
X126867904Y-106172000D01*
X126771619Y-105687942D01*
X126497422Y-105277578D01*
X126087058Y-105003381D01*
X125725185Y-104931400D01*
X125480815Y-104931400D01*
X125118942Y-105003381D01*
X124708578Y-105277578D01*
X124454006Y-105658571D01*
X124345688Y-105397053D01*
X123951490Y-104965179D01*
X123816687Y-104902000D01*
X123951490Y-104838821D01*
X124345688Y-104406947D01*
X124454006Y-104145429D01*
X124708578Y-104526422D01*
X125118942Y-104800619D01*
X125480815Y-104872600D01*
X125725185Y-104872600D01*
X126087058Y-104800619D01*
X126497422Y-104526422D01*
X126771619Y-104116058D01*
X126867904Y-103632000D01*
X126771619Y-103147942D01*
X126497422Y-102737578D01*
X126087058Y-102463381D01*
X125725185Y-102391400D01*
X125480815Y-102391400D01*
X125118942Y-102463381D01*
X124708578Y-102737578D01*
X124454006Y-103118571D01*
X124345688Y-102857053D01*
X123951490Y-102425179D01*
X123569038Y-102245933D01*
X123957422Y-101986422D01*
X124231619Y-101576058D01*
X124327904Y-101092000D01*
X124338096Y-101092000D01*
X124434381Y-101576058D01*
X124708578Y-101986422D01*
X125118942Y-102260619D01*
X125480815Y-102332600D01*
X125725185Y-102332600D01*
X126087058Y-102260619D01*
X126497422Y-101986422D01*
X126771619Y-101576058D01*
X126867904Y-101092000D01*
X126771619Y-100607942D01*
X126497422Y-100197578D01*
X126087058Y-99923381D01*
X125725185Y-99851400D01*
X125480815Y-99851400D01*
X125118942Y-99923381D01*
X124708578Y-100197578D01*
X124434381Y-100607942D01*
X124338096Y-101092000D01*
X124327904Y-101092000D01*
X124231619Y-100607942D01*
X123957422Y-100197578D01*
X123690000Y-100018892D01*
X123690000Y-99625108D01*
X123957422Y-99446422D01*
X124231619Y-99036058D01*
X124327904Y-98552000D01*
X124338096Y-98552000D01*
X124434381Y-99036058D01*
X124708578Y-99446422D01*
X125118942Y-99720619D01*
X125480815Y-99792600D01*
X125725185Y-99792600D01*
X126087058Y-99720619D01*
X126497422Y-99446422D01*
X126771619Y-99036058D01*
X126867904Y-98552000D01*
X126771619Y-98067942D01*
X126497422Y-97657578D01*
X126087058Y-97383381D01*
X125725185Y-97311400D01*
X125480815Y-97311400D01*
X125118942Y-97383381D01*
X124708578Y-97657578D01*
X124434381Y-98067942D01*
X124338096Y-98552000D01*
X124327904Y-98552000D01*
X124231619Y-98067942D01*
X123957422Y-97657578D01*
X123690000Y-97478892D01*
X123690000Y-96525711D01*
X125354712Y-94861000D01*
X127262000Y-94861000D01*
X127262001Y-110526155D01*
X127230291Y-110557865D01*
X127112000Y-110843445D01*
X127112000Y-111152555D01*
X127230291Y-111438135D01*
X127262000Y-111469844D01*
X127262001Y-112050155D01*
X127230291Y-112081865D01*
X127112000Y-112367445D01*
X127112000Y-112676555D01*
X127230291Y-112962135D01*
X127448865Y-113180709D01*
X127734445Y-113299000D01*
X128043555Y-113299000D01*
X128329135Y-113180709D01*
X128547709Y-112962135D01*
X128666000Y-112676555D01*
X128666000Y-112367445D01*
X128547709Y-112081865D01*
X128516000Y-112050156D01*
X128516000Y-111469844D01*
X128547709Y-111438135D01*
X128666000Y-111152555D01*
X128666000Y-110843445D01*
X128547709Y-110557865D01*
X128516000Y-110526156D01*
X128516000Y-103223445D01*
X129271000Y-103223445D01*
X129271000Y-103532555D01*
X129389291Y-103818135D01*
X129607865Y-104036709D01*
X129893445Y-104155000D01*
X130202555Y-104155000D01*
X130488135Y-104036709D01*
X130706709Y-103818135D01*
X130825000Y-103532555D01*
X130825000Y-103223445D01*
X130706709Y-102937865D01*
X130550000Y-102781156D01*
X130550000Y-97870934D01*
X131758935Y-96662000D01*
X131980555Y-96662000D01*
X132266135Y-96543709D01*
X132484709Y-96325135D01*
X132603000Y-96039555D01*
X132603000Y-95730445D01*
X143749000Y-95730445D01*
X143749000Y-96039555D01*
X143867291Y-96325135D01*
X144024000Y-96481844D01*
X144024001Y-108789561D01*
X144014167Y-108839000D01*
X144053128Y-109034870D01*
X144136074Y-109159008D01*
X144136076Y-109159010D01*
X144164080Y-109200921D01*
X144205991Y-109228925D01*
X150740075Y-115763010D01*
X150768079Y-115804921D01*
X150934130Y-115915873D01*
X151080561Y-115945000D01*
X151080565Y-115945000D01*
X151129999Y-115954833D01*
X151179433Y-115945000D01*
X161963156Y-115945000D01*
X162119865Y-116101709D01*
X162405445Y-116220000D01*
X162714555Y-116220000D01*
X163000135Y-116101709D01*
X163218709Y-115883135D01*
X163337000Y-115597555D01*
X163337000Y-115288445D01*
X163218709Y-115002865D01*
X163000135Y-114784291D01*
X162714555Y-114666000D01*
X162405445Y-114666000D01*
X162119865Y-114784291D01*
X161963156Y-114941000D01*
X151337935Y-114941000D01*
X145028000Y-108631066D01*
X145028000Y-96481844D01*
X145184709Y-96325135D01*
X145303000Y-96039555D01*
X145303000Y-95730445D01*
X145184709Y-95444865D01*
X144966135Y-95226291D01*
X144680555Y-95108000D01*
X144371445Y-95108000D01*
X144085865Y-95226291D01*
X143867291Y-95444865D01*
X143749000Y-95730445D01*
X132603000Y-95730445D01*
X132484709Y-95444865D01*
X132266135Y-95226291D01*
X131980555Y-95108000D01*
X131671445Y-95108000D01*
X131385865Y-95226291D01*
X131167291Y-95444865D01*
X131049000Y-95730445D01*
X131049000Y-95952065D01*
X129727993Y-97273073D01*
X129686079Y-97301079D01*
X129575127Y-97467131D01*
X129546000Y-97613562D01*
X129546000Y-97613566D01*
X129536167Y-97663000D01*
X129546000Y-97712434D01*
X129546001Y-102762872D01*
X129546000Y-102762877D01*
X129546000Y-102781156D01*
X129389291Y-102937865D01*
X129271000Y-103223445D01*
X128516000Y-103223445D01*
X128516000Y-94861000D01*
X140273254Y-94861000D01*
X140335000Y-94873282D01*
X140396746Y-94861000D01*
X140396750Y-94861000D01*
X140579643Y-94824620D01*
X140787041Y-94686041D01*
X140822021Y-94633691D01*
X141221712Y-94234000D01*
X149220718Y-94234000D01*
X149233000Y-94295746D01*
X149233001Y-111571249D01*
X149220718Y-111633000D01*
X149269380Y-111877642D01*
X149269381Y-111877643D01*
X149407960Y-112085041D01*
X149460307Y-112120018D01*
X150896981Y-113556693D01*
X150931959Y-113609041D01*
X151139357Y-113747620D01*
X151322250Y-113784000D01*
X151322254Y-113784000D01*
X151383999Y-113796282D01*
X151445744Y-113784000D01*
X152055156Y-113784000D01*
X152086865Y-113815709D01*
X152372445Y-113934000D01*
X152681555Y-113934000D01*
X152967135Y-113815709D01*
X152998844Y-113784000D01*
X153198156Y-113784000D01*
X153229865Y-113815709D01*
X153515445Y-113934000D01*
X153824555Y-113934000D01*
X154110135Y-113815709D01*
X154328709Y-113597135D01*
X154447000Y-113311555D01*
X154447000Y-113002445D01*
X154328709Y-112716865D01*
X154110135Y-112498291D01*
X153824555Y-112380000D01*
X153515445Y-112380000D01*
X153229865Y-112498291D01*
X153198156Y-112530000D01*
X152998844Y-112530000D01*
X152967135Y-112498291D01*
X152681555Y-112380000D01*
X152372445Y-112380000D01*
X152086865Y-112498291D01*
X152055156Y-112530000D01*
X151643712Y-112530000D01*
X150487000Y-111373289D01*
X150487000Y-94493711D01*
X152890711Y-92090000D01*
X152935555Y-92090000D01*
X153221135Y-91971709D01*
X153439709Y-91753135D01*
X153558000Y-91467555D01*
X153558000Y-91158445D01*
X153439709Y-90872865D01*
X153408000Y-90841156D01*
X153408000Y-90641844D01*
X153439709Y-90610135D01*
X153558000Y-90324555D01*
X153558000Y-90015445D01*
X153439709Y-89729865D01*
X153221135Y-89511291D01*
X152935555Y-89393000D01*
X152626445Y-89393000D01*
X152340865Y-89511291D01*
X152122291Y-89729865D01*
X152004000Y-90015445D01*
X152004000Y-90324555D01*
X152122291Y-90610135D01*
X152154001Y-90641845D01*
X152154000Y-90841156D01*
X152122291Y-90872865D01*
X152004000Y-91158445D01*
X152004000Y-91203289D01*
X149460310Y-93746979D01*
X149407959Y-93781959D01*
X149269380Y-93989358D01*
X149233000Y-94172251D01*
X149233000Y-94172254D01*
X149220718Y-94234000D01*
X141221712Y-94234000D01*
X149484712Y-85971000D01*
X153481254Y-85971000D01*
X153543000Y-85983282D01*
X153604746Y-85971000D01*
X153604750Y-85971000D01*
X153787643Y-85934620D01*
X153995041Y-85796041D01*
X154030021Y-85743690D01*
X154704691Y-85069020D01*
X154757041Y-85034041D01*
X154895620Y-84826643D01*
X154932000Y-84643750D01*
X154932000Y-84643746D01*
X154944282Y-84582000D01*
X154936246Y-84541598D01*
X154963709Y-84514135D01*
X155082000Y-84228555D01*
X155082000Y-83919445D01*
X154963709Y-83633865D01*
X154932000Y-83602156D01*
X154932000Y-83275844D01*
X154963709Y-83244135D01*
X155082000Y-82958555D01*
X155082000Y-82649445D01*
X154963709Y-82363865D01*
X154745135Y-82145291D01*
X154459555Y-82027000D01*
X154150445Y-82027000D01*
X153864865Y-82145291D01*
X153646291Y-82363865D01*
X153528000Y-82649445D01*
X153528000Y-82958555D01*
X153646291Y-83244135D01*
X153678001Y-83275845D01*
X153678001Y-83602155D01*
X153646291Y-83633865D01*
X153528000Y-83919445D01*
X153528000Y-84228555D01*
X153599388Y-84400901D01*
X153283289Y-84717000D01*
X149286746Y-84717000D01*
X149225000Y-84704718D01*
X149163254Y-84717000D01*
X149163250Y-84717000D01*
X148980357Y-84753380D01*
X148825308Y-84856980D01*
X148825307Y-84856981D01*
X148772959Y-84891959D01*
X148737981Y-84944307D01*
X140075289Y-93607000D01*
X127950750Y-93607000D01*
X127889000Y-93594717D01*
X127827250Y-93607000D01*
X125156746Y-93607000D01*
X125095000Y-93594718D01*
X125033254Y-93607000D01*
X125033250Y-93607000D01*
X124850357Y-93643380D01*
X124642959Y-93781959D01*
X124607981Y-93834307D01*
X122663307Y-95778982D01*
X122610960Y-95813959D01*
X122575982Y-95866307D01*
X122575981Y-95866308D01*
X122472380Y-96021358D01*
X122423718Y-96266000D01*
X122436001Y-96327751D01*
X122436000Y-97478892D01*
X122168578Y-97657578D01*
X121894381Y-98067942D01*
X121798096Y-98552000D01*
X121894381Y-99036058D01*
X122168578Y-99446422D01*
X122436000Y-99625108D01*
X122436001Y-100018892D01*
X122168578Y-100197578D01*
X121894381Y-100607942D01*
X121798096Y-101092000D01*
X121894381Y-101576058D01*
X122168578Y-101986422D01*
X122556962Y-102245933D01*
X122174510Y-102425179D01*
X121780312Y-102857053D01*
X121608042Y-103272974D01*
X118435000Y-103272974D01*
X118435000Y-89397970D01*
X123125635Y-89397970D01*
X123285418Y-89716739D01*
X124076187Y-90026723D01*
X124925387Y-90010497D01*
X125634582Y-89716739D01*
X125794365Y-89397970D01*
X124460000Y-88063605D01*
X123125635Y-89397970D01*
X118435000Y-89397970D01*
X118435000Y-87500187D01*
X122317277Y-87500187D01*
X122333503Y-88349387D01*
X122627261Y-89058582D01*
X122946030Y-89218365D01*
X124280395Y-87884000D01*
X124639605Y-87884000D01*
X125973970Y-89218365D01*
X126292739Y-89058582D01*
X126602723Y-88267813D01*
X126586497Y-87418613D01*
X126292739Y-86709418D01*
X125973970Y-86549635D01*
X124639605Y-87884000D01*
X124280395Y-87884000D01*
X122946030Y-86549635D01*
X122627261Y-86709418D01*
X122317277Y-87500187D01*
X118435000Y-87500187D01*
X118435000Y-86370030D01*
X123125635Y-86370030D01*
X124460000Y-87704395D01*
X125794365Y-86370030D01*
X125634582Y-86051261D01*
X124843813Y-85741277D01*
X123994613Y-85757503D01*
X123285418Y-86051261D01*
X123125635Y-86370030D01*
X118435000Y-86370030D01*
X118435000Y-81304000D01*
X122575615Y-81304000D01*
X122575615Y-84304000D01*
X122604875Y-84451098D01*
X122688199Y-84575801D01*
X122812902Y-84659125D01*
X122960000Y-84688385D01*
X125960000Y-84688385D01*
X126107098Y-84659125D01*
X126231801Y-84575801D01*
X126315125Y-84451098D01*
X126344385Y-84304000D01*
X126344385Y-81304000D01*
X126315125Y-81156902D01*
X126231801Y-81032199D01*
X126107098Y-80948875D01*
X125960000Y-80919615D01*
X122960000Y-80919615D01*
X122812902Y-80948875D01*
X122688199Y-81032199D01*
X122604875Y-81156902D01*
X122575615Y-81304000D01*
X118435000Y-81304000D01*
X118435000Y-72988273D01*
X119686000Y-72988273D01*
X119686000Y-74331727D01*
X120200118Y-75572917D01*
X121150083Y-76522882D01*
X122391273Y-77037000D01*
X123734727Y-77037000D01*
X124975917Y-76522882D01*
X125308829Y-76189970D01*
X131507635Y-76189970D01*
X131667418Y-76508739D01*
X132458187Y-76818723D01*
X133307387Y-76802497D01*
X134016582Y-76508739D01*
X134176365Y-76189970D01*
X132842000Y-74855605D01*
X131507635Y-76189970D01*
X125308829Y-76189970D01*
X125925882Y-75572917D01*
X126440000Y-74331727D01*
X126440000Y-74292187D01*
X130699277Y-74292187D01*
X130715503Y-75141387D01*
X131009261Y-75850582D01*
X131328030Y-76010365D01*
X132662395Y-74676000D01*
X133021605Y-74676000D01*
X134355970Y-76010365D01*
X134674739Y-75850582D01*
X134984723Y-75059813D01*
X134968497Y-74210613D01*
X134674739Y-73501418D01*
X134355970Y-73341635D01*
X133021605Y-74676000D01*
X132662395Y-74676000D01*
X131328030Y-73341635D01*
X131009261Y-73501418D01*
X130699277Y-74292187D01*
X126440000Y-74292187D01*
X126440000Y-73162030D01*
X131507635Y-73162030D01*
X132842000Y-74496395D01*
X134162395Y-73176000D01*
X136037615Y-73176000D01*
X136037615Y-76176000D01*
X136066875Y-76323098D01*
X136150199Y-76447801D01*
X136274902Y-76531125D01*
X136422000Y-76560385D01*
X139422000Y-76560385D01*
X139569098Y-76531125D01*
X139693801Y-76447801D01*
X139777125Y-76323098D01*
X139806385Y-76176000D01*
X139806385Y-73176000D01*
X139777125Y-73028902D01*
X139749978Y-72988273D01*
X167946000Y-72988273D01*
X167946000Y-74331727D01*
X168460118Y-75572917D01*
X169410083Y-76522882D01*
X170651273Y-77037000D01*
X171994727Y-77037000D01*
X173235917Y-76522882D01*
X174185882Y-75572917D01*
X174700000Y-74331727D01*
X174700000Y-72988273D01*
X174185882Y-71747083D01*
X173235917Y-70797118D01*
X171994727Y-70283000D01*
X170651273Y-70283000D01*
X169410083Y-70797118D01*
X168460118Y-71747083D01*
X167946000Y-72988273D01*
X139749978Y-72988273D01*
X139693801Y-72904199D01*
X139569098Y-72820875D01*
X139422000Y-72791615D01*
X136422000Y-72791615D01*
X136274902Y-72820875D01*
X136150199Y-72904199D01*
X136066875Y-73028902D01*
X136037615Y-73176000D01*
X134162395Y-73176000D01*
X134176365Y-73162030D01*
X134016582Y-72843261D01*
X133225813Y-72533277D01*
X132376613Y-72549503D01*
X131667418Y-72843261D01*
X131507635Y-73162030D01*
X126440000Y-73162030D01*
X126440000Y-72988273D01*
X125925882Y-71747083D01*
X124975917Y-70797118D01*
X123734727Y-70283000D01*
X122391273Y-70283000D01*
X121150083Y-70797118D01*
X120200118Y-71747083D01*
X119686000Y-72988273D01*
X118435000Y-72988273D01*
X118435000Y-69032000D01*
X175951001Y-69032000D01*
X175951001Y-93345000D01*
X175951001Y-93345000D01*
G37*
X175951001Y-93345000D02*
X165481000Y-93345000D01*
X165432399Y-93354667D01*
X165391197Y-93382197D01*
X165363667Y-93423399D01*
X165354000Y-93472000D01*
X165354000Y-112776000D01*
X165363667Y-112824601D01*
X165391197Y-112865803D01*
X165432399Y-112893333D01*
X165481000Y-112903000D01*
X175951000Y-112903000D01*
X175951000Y-124008000D01*
X118435000Y-124008000D01*
X118435000Y-118708273D01*
X119686000Y-118708273D01*
X119686000Y-120051727D01*
X120200118Y-121292917D01*
X121150083Y-122242882D01*
X122391273Y-122757000D01*
X123734727Y-122757000D01*
X124975917Y-122242882D01*
X125925882Y-121292917D01*
X126440000Y-120051727D01*
X126440000Y-118708273D01*
X167946000Y-118708273D01*
X167946000Y-120051727D01*
X168460118Y-121292917D01*
X169410083Y-122242882D01*
X170651273Y-122757000D01*
X171994727Y-122757000D01*
X173235917Y-122242882D01*
X174185882Y-121292917D01*
X174700000Y-120051727D01*
X174700000Y-118708273D01*
X174185882Y-117467083D01*
X173235917Y-116517118D01*
X171994727Y-116003000D01*
X170651273Y-116003000D01*
X169410083Y-116517118D01*
X168460118Y-117467083D01*
X167946000Y-118708273D01*
X126440000Y-118708273D01*
X125925882Y-117467083D01*
X124975917Y-116517118D01*
X123734727Y-116003000D01*
X122391273Y-116003000D01*
X121150083Y-116517118D01*
X120200118Y-117467083D01*
X119686000Y-118708273D01*
X118435000Y-118708273D01*
X118435000Y-109071026D01*
X121608042Y-109071026D01*
X121780312Y-109486947D01*
X122174510Y-109918821D01*
X122703973Y-110166968D01*
X122936000Y-110046469D01*
X122936000Y-108839000D01*
X121729183Y-108839000D01*
X121608042Y-109071026D01*
X118435000Y-109071026D01*
X118435000Y-106531026D01*
X121608042Y-106531026D01*
X121780312Y-106946947D01*
X122174510Y-107378821D01*
X122309313Y-107442000D01*
X122174510Y-107505179D01*
X121780312Y-107937053D01*
X121608042Y-108352974D01*
X121729183Y-108585000D01*
X122936000Y-108585000D01*
X122936000Y-106299000D01*
X121729183Y-106299000D01*
X121608042Y-106531026D01*
X118435000Y-106531026D01*
X118435000Y-103991026D01*
X121608042Y-103991026D01*
X121780312Y-104406947D01*
X122174510Y-104838821D01*
X122309313Y-104902000D01*
X122174510Y-104965179D01*
X121780312Y-105397053D01*
X121608042Y-105812974D01*
X121729183Y-106045000D01*
X122936000Y-106045000D01*
X122936000Y-103759000D01*
X121729183Y-103759000D01*
X121608042Y-103991026D01*
X118435000Y-103991026D01*
X118435000Y-103272974D01*
X121608042Y-103272974D01*
X121729183Y-103505000D01*
X122936000Y-103505000D01*
X122936000Y-103485000D01*
X123190000Y-103485000D01*
X123190000Y-103505000D01*
X123210000Y-103505000D01*
X123210000Y-103759000D01*
X123190000Y-103759000D01*
X123190000Y-106045000D01*
X123210000Y-106045000D01*
X123210000Y-106299000D01*
X123190000Y-106299000D01*
X123190000Y-108585000D01*
X123210000Y-108585000D01*
X123210000Y-108839000D01*
X123190000Y-108839000D01*
X123190000Y-110046469D01*
X123422027Y-110166968D01*
X123951490Y-109918821D01*
X124345688Y-109486947D01*
X124355015Y-109464428D01*
X124355015Y-109575600D01*
X124384275Y-109722698D01*
X124467599Y-109847401D01*
X124592302Y-109930725D01*
X124739400Y-109959985D01*
X126466600Y-109959985D01*
X126613698Y-109930725D01*
X126738401Y-109847401D01*
X126821725Y-109722698D01*
X126850985Y-109575600D01*
X126850985Y-107848400D01*
X126821725Y-107701302D01*
X126738401Y-107576599D01*
X126613698Y-107493275D01*
X126466600Y-107464015D01*
X124739400Y-107464015D01*
X124592302Y-107493275D01*
X124467599Y-107576599D01*
X124384275Y-107701302D01*
X124355015Y-107848400D01*
X124355015Y-107959572D01*
X124345688Y-107937053D01*
X123951490Y-107505179D01*
X123816687Y-107442000D01*
X123951490Y-107378821D01*
X124345688Y-106946947D01*
X124454006Y-106685429D01*
X124708578Y-107066422D01*
X125118942Y-107340619D01*
X125480815Y-107412600D01*
X125725185Y-107412600D01*
X126087058Y-107340619D01*
X126497422Y-107066422D01*
X126771619Y-106656058D01*
X126867904Y-106172000D01*
X126771619Y-105687942D01*
X126497422Y-105277578D01*
X126087058Y-105003381D01*
X125725185Y-104931400D01*
X125480815Y-104931400D01*
X125118942Y-105003381D01*
X124708578Y-105277578D01*
X124454006Y-105658571D01*
X124345688Y-105397053D01*
X123951490Y-104965179D01*
X123816687Y-104902000D01*
X123951490Y-104838821D01*
X124345688Y-104406947D01*
X124454006Y-104145429D01*
X124708578Y-104526422D01*
X125118942Y-104800619D01*
X125480815Y-104872600D01*
X125725185Y-104872600D01*
X126087058Y-104800619D01*
X126497422Y-104526422D01*
X126771619Y-104116058D01*
X126867904Y-103632000D01*
X126771619Y-103147942D01*
X126497422Y-102737578D01*
X126087058Y-102463381D01*
X125725185Y-102391400D01*
X125480815Y-102391400D01*
X125118942Y-102463381D01*
X124708578Y-102737578D01*
X124454006Y-103118571D01*
X124345688Y-102857053D01*
X123951490Y-102425179D01*
X123569038Y-102245933D01*
X123957422Y-101986422D01*
X124231619Y-101576058D01*
X124327904Y-101092000D01*
X124338096Y-101092000D01*
X124434381Y-101576058D01*
X124708578Y-101986422D01*
X125118942Y-102260619D01*
X125480815Y-102332600D01*
X125725185Y-102332600D01*
X126087058Y-102260619D01*
X126497422Y-101986422D01*
X126771619Y-101576058D01*
X126867904Y-101092000D01*
X126771619Y-100607942D01*
X126497422Y-100197578D01*
X126087058Y-99923381D01*
X125725185Y-99851400D01*
X125480815Y-99851400D01*
X125118942Y-99923381D01*
X124708578Y-100197578D01*
X124434381Y-100607942D01*
X124338096Y-101092000D01*
X124327904Y-101092000D01*
X124231619Y-100607942D01*
X123957422Y-100197578D01*
X123690000Y-100018892D01*
X123690000Y-99625108D01*
X123957422Y-99446422D01*
X124231619Y-99036058D01*
X124327904Y-98552000D01*
X124338096Y-98552000D01*
X124434381Y-99036058D01*
X124708578Y-99446422D01*
X125118942Y-99720619D01*
X125480815Y-99792600D01*
X125725185Y-99792600D01*
X126087058Y-99720619D01*
X126497422Y-99446422D01*
X126771619Y-99036058D01*
X126867904Y-98552000D01*
X126771619Y-98067942D01*
X126497422Y-97657578D01*
X126087058Y-97383381D01*
X125725185Y-97311400D01*
X125480815Y-97311400D01*
X125118942Y-97383381D01*
X124708578Y-97657578D01*
X124434381Y-98067942D01*
X124338096Y-98552000D01*
X124327904Y-98552000D01*
X124231619Y-98067942D01*
X123957422Y-97657578D01*
X123690000Y-97478892D01*
X123690000Y-96525711D01*
X125354712Y-94861000D01*
X127262000Y-94861000D01*
X127262001Y-110526155D01*
X127230291Y-110557865D01*
X127112000Y-110843445D01*
X127112000Y-111152555D01*
X127230291Y-111438135D01*
X127262000Y-111469844D01*
X127262001Y-112050155D01*
X127230291Y-112081865D01*
X127112000Y-112367445D01*
X127112000Y-112676555D01*
X127230291Y-112962135D01*
X127448865Y-113180709D01*
X127734445Y-113299000D01*
X128043555Y-113299000D01*
X128329135Y-113180709D01*
X128547709Y-112962135D01*
X128666000Y-112676555D01*
X128666000Y-112367445D01*
X128547709Y-112081865D01*
X128516000Y-112050156D01*
X128516000Y-111469844D01*
X128547709Y-111438135D01*
X128666000Y-111152555D01*
X128666000Y-110843445D01*
X128547709Y-110557865D01*
X128516000Y-110526156D01*
X128516000Y-103223445D01*
X129271000Y-103223445D01*
X129271000Y-103532555D01*
X129389291Y-103818135D01*
X129607865Y-104036709D01*
X129893445Y-104155000D01*
X130202555Y-104155000D01*
X130488135Y-104036709D01*
X130706709Y-103818135D01*
X130825000Y-103532555D01*
X130825000Y-103223445D01*
X130706709Y-102937865D01*
X130550000Y-102781156D01*
X130550000Y-97870934D01*
X131758935Y-96662000D01*
X131980555Y-96662000D01*
X132266135Y-96543709D01*
X132484709Y-96325135D01*
X132603000Y-96039555D01*
X132603000Y-95730445D01*
X143749000Y-95730445D01*
X143749000Y-96039555D01*
X143867291Y-96325135D01*
X144024000Y-96481844D01*
X144024001Y-108789561D01*
X144014167Y-108839000D01*
X144053128Y-109034870D01*
X144136074Y-109159008D01*
X144136076Y-109159010D01*
X144164080Y-109200921D01*
X144205991Y-109228925D01*
X150740075Y-115763010D01*
X150768079Y-115804921D01*
X150934130Y-115915873D01*
X151080561Y-115945000D01*
X151080565Y-115945000D01*
X151129999Y-115954833D01*
X151179433Y-115945000D01*
X161963156Y-115945000D01*
X162119865Y-116101709D01*
X162405445Y-116220000D01*
X162714555Y-116220000D01*
X163000135Y-116101709D01*
X163218709Y-115883135D01*
X163337000Y-115597555D01*
X163337000Y-115288445D01*
X163218709Y-115002865D01*
X163000135Y-114784291D01*
X162714555Y-114666000D01*
X162405445Y-114666000D01*
X162119865Y-114784291D01*
X161963156Y-114941000D01*
X151337935Y-114941000D01*
X145028000Y-108631066D01*
X145028000Y-96481844D01*
X145184709Y-96325135D01*
X145303000Y-96039555D01*
X145303000Y-95730445D01*
X145184709Y-95444865D01*
X144966135Y-95226291D01*
X144680555Y-95108000D01*
X144371445Y-95108000D01*
X144085865Y-95226291D01*
X143867291Y-95444865D01*
X143749000Y-95730445D01*
X132603000Y-95730445D01*
X132484709Y-95444865D01*
X132266135Y-95226291D01*
X131980555Y-95108000D01*
X131671445Y-95108000D01*
X131385865Y-95226291D01*
X131167291Y-95444865D01*
X131049000Y-95730445D01*
X131049000Y-95952065D01*
X129727993Y-97273073D01*
X129686079Y-97301079D01*
X129575127Y-97467131D01*
X129546000Y-97613562D01*
X129546000Y-97613566D01*
X129536167Y-97663000D01*
X129546000Y-97712434D01*
X129546001Y-102762872D01*
X129546000Y-102762877D01*
X129546000Y-102781156D01*
X129389291Y-102937865D01*
X129271000Y-103223445D01*
X128516000Y-103223445D01*
X128516000Y-94861000D01*
X140273254Y-94861000D01*
X140335000Y-94873282D01*
X140396746Y-94861000D01*
X140396750Y-94861000D01*
X140579643Y-94824620D01*
X140787041Y-94686041D01*
X140822021Y-94633691D01*
X141221712Y-94234000D01*
X149220718Y-94234000D01*
X149233000Y-94295746D01*
X149233001Y-111571249D01*
X149220718Y-111633000D01*
X149269380Y-111877642D01*
X149269381Y-111877643D01*
X149407960Y-112085041D01*
X149460307Y-112120018D01*
X150896981Y-113556693D01*
X150931959Y-113609041D01*
X151139357Y-113747620D01*
X151322250Y-113784000D01*
X151322254Y-113784000D01*
X151383999Y-113796282D01*
X151445744Y-113784000D01*
X152055156Y-113784000D01*
X152086865Y-113815709D01*
X152372445Y-113934000D01*
X152681555Y-113934000D01*
X152967135Y-113815709D01*
X152998844Y-113784000D01*
X153198156Y-113784000D01*
X153229865Y-113815709D01*
X153515445Y-113934000D01*
X153824555Y-113934000D01*
X154110135Y-113815709D01*
X154328709Y-113597135D01*
X154447000Y-113311555D01*
X154447000Y-113002445D01*
X154328709Y-112716865D01*
X154110135Y-112498291D01*
X153824555Y-112380000D01*
X153515445Y-112380000D01*
X153229865Y-112498291D01*
X153198156Y-112530000D01*
X152998844Y-112530000D01*
X152967135Y-112498291D01*
X152681555Y-112380000D01*
X152372445Y-112380000D01*
X152086865Y-112498291D01*
X152055156Y-112530000D01*
X151643712Y-112530000D01*
X150487000Y-111373289D01*
X150487000Y-94493711D01*
X152890711Y-92090000D01*
X152935555Y-92090000D01*
X153221135Y-91971709D01*
X153439709Y-91753135D01*
X153558000Y-91467555D01*
X153558000Y-91158445D01*
X153439709Y-90872865D01*
X153408000Y-90841156D01*
X153408000Y-90641844D01*
X153439709Y-90610135D01*
X153558000Y-90324555D01*
X153558000Y-90015445D01*
X153439709Y-89729865D01*
X153221135Y-89511291D01*
X152935555Y-89393000D01*
X152626445Y-89393000D01*
X152340865Y-89511291D01*
X152122291Y-89729865D01*
X152004000Y-90015445D01*
X152004000Y-90324555D01*
X152122291Y-90610135D01*
X152154001Y-90641845D01*
X152154000Y-90841156D01*
X152122291Y-90872865D01*
X152004000Y-91158445D01*
X152004000Y-91203289D01*
X149460310Y-93746979D01*
X149407959Y-93781959D01*
X149269380Y-93989358D01*
X149233000Y-94172251D01*
X149233000Y-94172254D01*
X149220718Y-94234000D01*
X141221712Y-94234000D01*
X149484712Y-85971000D01*
X153481254Y-85971000D01*
X153543000Y-85983282D01*
X153604746Y-85971000D01*
X153604750Y-85971000D01*
X153787643Y-85934620D01*
X153995041Y-85796041D01*
X154030021Y-85743690D01*
X154704691Y-85069020D01*
X154757041Y-85034041D01*
X154895620Y-84826643D01*
X154932000Y-84643750D01*
X154932000Y-84643746D01*
X154944282Y-84582000D01*
X154936246Y-84541598D01*
X154963709Y-84514135D01*
X155082000Y-84228555D01*
X155082000Y-83919445D01*
X154963709Y-83633865D01*
X154932000Y-83602156D01*
X154932000Y-83275844D01*
X154963709Y-83244135D01*
X155082000Y-82958555D01*
X155082000Y-82649445D01*
X154963709Y-82363865D01*
X154745135Y-82145291D01*
X154459555Y-82027000D01*
X154150445Y-82027000D01*
X153864865Y-82145291D01*
X153646291Y-82363865D01*
X153528000Y-82649445D01*
X153528000Y-82958555D01*
X153646291Y-83244135D01*
X153678001Y-83275845D01*
X153678001Y-83602155D01*
X153646291Y-83633865D01*
X153528000Y-83919445D01*
X153528000Y-84228555D01*
X153599388Y-84400901D01*
X153283289Y-84717000D01*
X149286746Y-84717000D01*
X149225000Y-84704718D01*
X149163254Y-84717000D01*
X149163250Y-84717000D01*
X148980357Y-84753380D01*
X148825308Y-84856980D01*
X148825307Y-84856981D01*
X148772959Y-84891959D01*
X148737981Y-84944307D01*
X140075289Y-93607000D01*
X127950750Y-93607000D01*
X127889000Y-93594717D01*
X127827250Y-93607000D01*
X125156746Y-93607000D01*
X125095000Y-93594718D01*
X125033254Y-93607000D01*
X125033250Y-93607000D01*
X124850357Y-93643380D01*
X124642959Y-93781959D01*
X124607981Y-93834307D01*
X122663307Y-95778982D01*
X122610960Y-95813959D01*
X122575982Y-95866307D01*
X122575981Y-95866308D01*
X122472380Y-96021358D01*
X122423718Y-96266000D01*
X122436001Y-96327751D01*
X122436000Y-97478892D01*
X122168578Y-97657578D01*
X121894381Y-98067942D01*
X121798096Y-98552000D01*
X121894381Y-99036058D01*
X122168578Y-99446422D01*
X122436000Y-99625108D01*
X122436001Y-100018892D01*
X122168578Y-100197578D01*
X121894381Y-100607942D01*
X121798096Y-101092000D01*
X121894381Y-101576058D01*
X122168578Y-101986422D01*
X122556962Y-102245933D01*
X122174510Y-102425179D01*
X121780312Y-102857053D01*
X121608042Y-103272974D01*
X118435000Y-103272974D01*
X118435000Y-89397970D01*
X123125635Y-89397970D01*
X123285418Y-89716739D01*
X124076187Y-90026723D01*
X124925387Y-90010497D01*
X125634582Y-89716739D01*
X125794365Y-89397970D01*
X124460000Y-88063605D01*
X123125635Y-89397970D01*
X118435000Y-89397970D01*
X118435000Y-87500187D01*
X122317277Y-87500187D01*
X122333503Y-88349387D01*
X122627261Y-89058582D01*
X122946030Y-89218365D01*
X124280395Y-87884000D01*
X124639605Y-87884000D01*
X125973970Y-89218365D01*
X126292739Y-89058582D01*
X126602723Y-88267813D01*
X126586497Y-87418613D01*
X126292739Y-86709418D01*
X125973970Y-86549635D01*
X124639605Y-87884000D01*
X124280395Y-87884000D01*
X122946030Y-86549635D01*
X122627261Y-86709418D01*
X122317277Y-87500187D01*
X118435000Y-87500187D01*
X118435000Y-86370030D01*
X123125635Y-86370030D01*
X124460000Y-87704395D01*
X125794365Y-86370030D01*
X125634582Y-86051261D01*
X124843813Y-85741277D01*
X123994613Y-85757503D01*
X123285418Y-86051261D01*
X123125635Y-86370030D01*
X118435000Y-86370030D01*
X118435000Y-81304000D01*
X122575615Y-81304000D01*
X122575615Y-84304000D01*
X122604875Y-84451098D01*
X122688199Y-84575801D01*
X122812902Y-84659125D01*
X122960000Y-84688385D01*
X125960000Y-84688385D01*
X126107098Y-84659125D01*
X126231801Y-84575801D01*
X126315125Y-84451098D01*
X126344385Y-84304000D01*
X126344385Y-81304000D01*
X126315125Y-81156902D01*
X126231801Y-81032199D01*
X126107098Y-80948875D01*
X125960000Y-80919615D01*
X122960000Y-80919615D01*
X122812902Y-80948875D01*
X122688199Y-81032199D01*
X122604875Y-81156902D01*
X122575615Y-81304000D01*
X118435000Y-81304000D01*
X118435000Y-72988273D01*
X119686000Y-72988273D01*
X119686000Y-74331727D01*
X120200118Y-75572917D01*
X121150083Y-76522882D01*
X122391273Y-77037000D01*
X123734727Y-77037000D01*
X124975917Y-76522882D01*
X125308829Y-76189970D01*
X131507635Y-76189970D01*
X131667418Y-76508739D01*
X132458187Y-76818723D01*
X133307387Y-76802497D01*
X134016582Y-76508739D01*
X134176365Y-76189970D01*
X132842000Y-74855605D01*
X131507635Y-76189970D01*
X125308829Y-76189970D01*
X125925882Y-75572917D01*
X126440000Y-74331727D01*
X126440000Y-74292187D01*
X130699277Y-74292187D01*
X130715503Y-75141387D01*
X131009261Y-75850582D01*
X131328030Y-76010365D01*
X132662395Y-74676000D01*
X133021605Y-74676000D01*
X134355970Y-76010365D01*
X134674739Y-75850582D01*
X134984723Y-75059813D01*
X134968497Y-74210613D01*
X134674739Y-73501418D01*
X134355970Y-73341635D01*
X133021605Y-74676000D01*
X132662395Y-74676000D01*
X131328030Y-73341635D01*
X131009261Y-73501418D01*
X130699277Y-74292187D01*
X126440000Y-74292187D01*
X126440000Y-73162030D01*
X131507635Y-73162030D01*
X132842000Y-74496395D01*
X134162395Y-73176000D01*
X136037615Y-73176000D01*
X136037615Y-76176000D01*
X136066875Y-76323098D01*
X136150199Y-76447801D01*
X136274902Y-76531125D01*
X136422000Y-76560385D01*
X139422000Y-76560385D01*
X139569098Y-76531125D01*
X139693801Y-76447801D01*
X139777125Y-76323098D01*
X139806385Y-76176000D01*
X139806385Y-73176000D01*
X139777125Y-73028902D01*
X139749978Y-72988273D01*
X167946000Y-72988273D01*
X167946000Y-74331727D01*
X168460118Y-75572917D01*
X169410083Y-76522882D01*
X170651273Y-77037000D01*
X171994727Y-77037000D01*
X173235917Y-76522882D01*
X174185882Y-75572917D01*
X174700000Y-74331727D01*
X174700000Y-72988273D01*
X174185882Y-71747083D01*
X173235917Y-70797118D01*
X171994727Y-70283000D01*
X170651273Y-70283000D01*
X169410083Y-70797118D01*
X168460118Y-71747083D01*
X167946000Y-72988273D01*
X139749978Y-72988273D01*
X139693801Y-72904199D01*
X139569098Y-72820875D01*
X139422000Y-72791615D01*
X136422000Y-72791615D01*
X136274902Y-72820875D01*
X136150199Y-72904199D01*
X136066875Y-73028902D01*
X136037615Y-73176000D01*
X134162395Y-73176000D01*
X134176365Y-73162030D01*
X134016582Y-72843261D01*
X133225813Y-72533277D01*
X132376613Y-72549503D01*
X131667418Y-72843261D01*
X131507635Y-73162030D01*
X126440000Y-73162030D01*
X126440000Y-72988273D01*
X125925882Y-71747083D01*
X124975917Y-70797118D01*
X123734727Y-70283000D01*
X122391273Y-70283000D01*
X121150083Y-70797118D01*
X120200118Y-71747083D01*
X119686000Y-72988273D01*
X118435000Y-72988273D01*
X118435000Y-69032000D01*
X175951001Y-69032000D01*
X175951001Y-93345000D01*
G04 #@! TD*
M02*
