G04 #@! TF.GenerationSoftware,KiCad,Pcbnew,5.0.2-bee76a0~70~ubuntu18.04.1*
G04 #@! TF.CreationDate,2019-05-14T19:54:41+02:00*
G04 #@! TF.ProjectId,support_board,73757070-6f72-4745-9f62-6f6172642e6b,rev?*
G04 #@! TF.SameCoordinates,Original*
G04 #@! TF.FileFunction,Soldermask,Bot*
G04 #@! TF.FilePolarity,Negative*
%FSLAX46Y46*%
G04 Gerber Fmt 4.6, Leading zero omitted, Abs format (unit mm)*
G04 Created by KiCad (PCBNEW 5.0.2-bee76a0~70~ubuntu18.04.1) date Út 14. května 2019, 19:54:41 CEST*
%MOMM*%
%LPD*%
G01*
G04 APERTURE LIST*
%ADD10C,0.100000*%
G04 APERTURE END LIST*
D10*
G36*
X172212941Y-116446248D02*
X172212943Y-116446249D01*
X172212944Y-116446249D01*
X172768190Y-116676239D01*
X172768191Y-116676240D01*
X173267902Y-117010136D01*
X173692864Y-117435098D01*
X173692866Y-117435101D01*
X174026761Y-117934810D01*
X174256751Y-118490056D01*
X174374000Y-119079503D01*
X174374000Y-119680497D01*
X174256751Y-120269944D01*
X174026761Y-120825190D01*
X174026760Y-120825191D01*
X173692864Y-121324902D01*
X173267902Y-121749864D01*
X173267899Y-121749866D01*
X172768190Y-122083761D01*
X172212944Y-122313751D01*
X172212943Y-122313751D01*
X172212941Y-122313752D01*
X171623499Y-122431000D01*
X171022501Y-122431000D01*
X170433059Y-122313752D01*
X170433057Y-122313751D01*
X170433056Y-122313751D01*
X169877810Y-122083761D01*
X169378101Y-121749866D01*
X169378098Y-121749864D01*
X168953136Y-121324902D01*
X168619240Y-120825191D01*
X168619239Y-120825190D01*
X168389249Y-120269944D01*
X168272000Y-119680497D01*
X168272000Y-119079503D01*
X168389249Y-118490056D01*
X168619239Y-117934810D01*
X168953134Y-117435101D01*
X168953136Y-117435098D01*
X169378098Y-117010136D01*
X169877809Y-116676240D01*
X169877810Y-116676239D01*
X170433056Y-116446249D01*
X170433057Y-116446249D01*
X170433059Y-116446248D01*
X171022501Y-116329000D01*
X171623499Y-116329000D01*
X172212941Y-116446248D01*
X172212941Y-116446248D01*
G37*
G36*
X123952941Y-116446248D02*
X123952943Y-116446249D01*
X123952944Y-116446249D01*
X124508190Y-116676239D01*
X124508191Y-116676240D01*
X125007902Y-117010136D01*
X125432864Y-117435098D01*
X125432866Y-117435101D01*
X125766761Y-117934810D01*
X125996751Y-118490056D01*
X126114000Y-119079503D01*
X126114000Y-119680497D01*
X125996751Y-120269944D01*
X125766761Y-120825190D01*
X125766760Y-120825191D01*
X125432864Y-121324902D01*
X125007902Y-121749864D01*
X125007899Y-121749866D01*
X124508190Y-122083761D01*
X123952944Y-122313751D01*
X123952943Y-122313751D01*
X123952941Y-122313752D01*
X123363499Y-122431000D01*
X122762501Y-122431000D01*
X122173059Y-122313752D01*
X122173057Y-122313751D01*
X122173056Y-122313751D01*
X121617810Y-122083761D01*
X121118101Y-121749866D01*
X121118098Y-121749864D01*
X120693136Y-121324902D01*
X120359240Y-120825191D01*
X120359239Y-120825190D01*
X120129249Y-120269944D01*
X120012000Y-119680497D01*
X120012000Y-119079503D01*
X120129249Y-118490056D01*
X120359239Y-117934810D01*
X120693134Y-117435101D01*
X120693136Y-117435098D01*
X121118098Y-117010136D01*
X121617809Y-116676240D01*
X121617810Y-116676239D01*
X122173056Y-116446249D01*
X122173057Y-116446249D01*
X122173059Y-116446248D01*
X122762501Y-116329000D01*
X123363499Y-116329000D01*
X123952941Y-116446248D01*
X123952941Y-116446248D01*
G37*
G36*
X123242294Y-107810633D02*
X123414694Y-107862931D01*
X123414696Y-107862932D01*
X123573583Y-107947859D01*
X123573585Y-107947860D01*
X123573584Y-107947860D01*
X123712849Y-108062151D01*
X123827140Y-108201416D01*
X123912069Y-108360306D01*
X123964367Y-108532706D01*
X123982025Y-108712000D01*
X123964367Y-108891294D01*
X123912069Y-109063694D01*
X123912068Y-109063696D01*
X123827141Y-109222583D01*
X123712849Y-109361849D01*
X123573583Y-109476141D01*
X123414696Y-109561068D01*
X123414694Y-109561069D01*
X123242294Y-109613367D01*
X123107931Y-109626600D01*
X123018069Y-109626600D01*
X122883706Y-109613367D01*
X122711306Y-109561069D01*
X122711304Y-109561068D01*
X122552417Y-109476141D01*
X122413151Y-109361849D01*
X122298859Y-109222583D01*
X122213932Y-109063696D01*
X122213931Y-109063694D01*
X122161633Y-108891294D01*
X122143975Y-108712000D01*
X122161633Y-108532706D01*
X122213931Y-108360306D01*
X122298860Y-108201416D01*
X122413151Y-108062151D01*
X122552416Y-107947860D01*
X122552415Y-107947860D01*
X122552417Y-107947859D01*
X122711304Y-107862932D01*
X122711306Y-107862931D01*
X122883706Y-107810633D01*
X123018069Y-107797400D01*
X123107931Y-107797400D01*
X123242294Y-107810633D01*
X123242294Y-107810633D01*
G37*
G36*
X126517600Y-109626600D02*
X124688400Y-109626600D01*
X124688400Y-107797400D01*
X126517600Y-107797400D01*
X126517600Y-109626600D01*
X126517600Y-109626600D01*
G37*
G36*
X125782294Y-105270633D02*
X125954694Y-105322931D01*
X125954696Y-105322932D01*
X126113583Y-105407859D01*
X126113585Y-105407860D01*
X126113584Y-105407860D01*
X126252849Y-105522151D01*
X126367140Y-105661416D01*
X126452069Y-105820306D01*
X126504367Y-105992706D01*
X126522025Y-106172000D01*
X126504367Y-106351294D01*
X126452069Y-106523694D01*
X126452068Y-106523696D01*
X126367141Y-106682583D01*
X126252849Y-106821849D01*
X126113583Y-106936141D01*
X125954696Y-107021068D01*
X125954694Y-107021069D01*
X125782294Y-107073367D01*
X125647931Y-107086600D01*
X125558069Y-107086600D01*
X125423706Y-107073367D01*
X125251306Y-107021069D01*
X125251304Y-107021068D01*
X125092417Y-106936141D01*
X124953151Y-106821849D01*
X124838859Y-106682583D01*
X124753932Y-106523696D01*
X124753931Y-106523694D01*
X124701633Y-106351294D01*
X124683975Y-106172000D01*
X124701633Y-105992706D01*
X124753931Y-105820306D01*
X124838860Y-105661416D01*
X124953151Y-105522151D01*
X125092416Y-105407860D01*
X125092415Y-105407860D01*
X125092417Y-105407859D01*
X125251304Y-105322932D01*
X125251306Y-105322931D01*
X125423706Y-105270633D01*
X125558069Y-105257400D01*
X125647931Y-105257400D01*
X125782294Y-105270633D01*
X125782294Y-105270633D01*
G37*
G36*
X123242294Y-105270633D02*
X123414694Y-105322931D01*
X123414696Y-105322932D01*
X123573583Y-105407859D01*
X123573585Y-105407860D01*
X123573584Y-105407860D01*
X123712849Y-105522151D01*
X123827140Y-105661416D01*
X123912069Y-105820306D01*
X123964367Y-105992706D01*
X123982025Y-106172000D01*
X123964367Y-106351294D01*
X123912069Y-106523694D01*
X123912068Y-106523696D01*
X123827141Y-106682583D01*
X123712849Y-106821849D01*
X123573583Y-106936141D01*
X123414696Y-107021068D01*
X123414694Y-107021069D01*
X123242294Y-107073367D01*
X123107931Y-107086600D01*
X123018069Y-107086600D01*
X122883706Y-107073367D01*
X122711306Y-107021069D01*
X122711304Y-107021068D01*
X122552417Y-106936141D01*
X122413151Y-106821849D01*
X122298859Y-106682583D01*
X122213932Y-106523696D01*
X122213931Y-106523694D01*
X122161633Y-106351294D01*
X122143975Y-106172000D01*
X122161633Y-105992706D01*
X122213931Y-105820306D01*
X122298860Y-105661416D01*
X122413151Y-105522151D01*
X122552416Y-105407860D01*
X122552415Y-105407860D01*
X122552417Y-105407859D01*
X122711304Y-105322932D01*
X122711306Y-105322931D01*
X122883706Y-105270633D01*
X123018069Y-105257400D01*
X123107931Y-105257400D01*
X123242294Y-105270633D01*
X123242294Y-105270633D01*
G37*
G36*
X125782294Y-102730633D02*
X125954694Y-102782931D01*
X125954696Y-102782932D01*
X126113583Y-102867859D01*
X126113585Y-102867860D01*
X126113584Y-102867860D01*
X126252849Y-102982151D01*
X126367140Y-103121416D01*
X126452069Y-103280306D01*
X126504367Y-103452706D01*
X126522025Y-103632000D01*
X126504367Y-103811294D01*
X126452069Y-103983694D01*
X126452068Y-103983696D01*
X126367141Y-104142583D01*
X126252849Y-104281849D01*
X126113583Y-104396141D01*
X125954696Y-104481068D01*
X125954694Y-104481069D01*
X125782294Y-104533367D01*
X125647931Y-104546600D01*
X125558069Y-104546600D01*
X125423706Y-104533367D01*
X125251306Y-104481069D01*
X125251304Y-104481068D01*
X125092417Y-104396141D01*
X124953151Y-104281849D01*
X124838859Y-104142583D01*
X124753932Y-103983696D01*
X124753931Y-103983694D01*
X124701633Y-103811294D01*
X124683975Y-103632000D01*
X124701633Y-103452706D01*
X124753931Y-103280306D01*
X124838860Y-103121416D01*
X124953151Y-102982151D01*
X125092416Y-102867860D01*
X125092415Y-102867860D01*
X125092417Y-102867859D01*
X125251304Y-102782932D01*
X125251306Y-102782931D01*
X125423706Y-102730633D01*
X125558069Y-102717400D01*
X125647931Y-102717400D01*
X125782294Y-102730633D01*
X125782294Y-102730633D01*
G37*
G36*
X123242294Y-102730633D02*
X123414694Y-102782931D01*
X123414696Y-102782932D01*
X123573583Y-102867859D01*
X123573585Y-102867860D01*
X123573584Y-102867860D01*
X123712849Y-102982151D01*
X123827140Y-103121416D01*
X123912069Y-103280306D01*
X123964367Y-103452706D01*
X123982025Y-103632000D01*
X123964367Y-103811294D01*
X123912069Y-103983694D01*
X123912068Y-103983696D01*
X123827141Y-104142583D01*
X123712849Y-104281849D01*
X123573583Y-104396141D01*
X123414696Y-104481068D01*
X123414694Y-104481069D01*
X123242294Y-104533367D01*
X123107931Y-104546600D01*
X123018069Y-104546600D01*
X122883706Y-104533367D01*
X122711306Y-104481069D01*
X122711304Y-104481068D01*
X122552417Y-104396141D01*
X122413151Y-104281849D01*
X122298859Y-104142583D01*
X122213932Y-103983696D01*
X122213931Y-103983694D01*
X122161633Y-103811294D01*
X122143975Y-103632000D01*
X122161633Y-103452706D01*
X122213931Y-103280306D01*
X122298860Y-103121416D01*
X122413151Y-102982151D01*
X122552416Y-102867860D01*
X122552415Y-102867860D01*
X122552417Y-102867859D01*
X122711304Y-102782932D01*
X122711306Y-102782931D01*
X122883706Y-102730633D01*
X123018069Y-102717400D01*
X123107931Y-102717400D01*
X123242294Y-102730633D01*
X123242294Y-102730633D01*
G37*
G36*
X125782294Y-100190633D02*
X125954694Y-100242931D01*
X125954696Y-100242932D01*
X126113583Y-100327859D01*
X126113585Y-100327860D01*
X126113584Y-100327860D01*
X126252849Y-100442151D01*
X126367140Y-100581416D01*
X126452069Y-100740306D01*
X126504367Y-100912706D01*
X126522025Y-101092000D01*
X126504367Y-101271294D01*
X126452069Y-101443694D01*
X126452068Y-101443696D01*
X126367141Y-101602583D01*
X126252849Y-101741849D01*
X126113583Y-101856141D01*
X125954696Y-101941068D01*
X125954694Y-101941069D01*
X125782294Y-101993367D01*
X125647931Y-102006600D01*
X125558069Y-102006600D01*
X125423706Y-101993367D01*
X125251306Y-101941069D01*
X125251304Y-101941068D01*
X125092417Y-101856141D01*
X124953151Y-101741849D01*
X124838859Y-101602583D01*
X124753932Y-101443696D01*
X124753931Y-101443694D01*
X124701633Y-101271294D01*
X124683975Y-101092000D01*
X124701633Y-100912706D01*
X124753931Y-100740306D01*
X124838860Y-100581416D01*
X124953151Y-100442151D01*
X125092416Y-100327860D01*
X125092415Y-100327860D01*
X125092417Y-100327859D01*
X125251304Y-100242932D01*
X125251306Y-100242931D01*
X125423706Y-100190633D01*
X125558069Y-100177400D01*
X125647931Y-100177400D01*
X125782294Y-100190633D01*
X125782294Y-100190633D01*
G37*
G36*
X123242294Y-100190633D02*
X123414694Y-100242931D01*
X123414696Y-100242932D01*
X123573583Y-100327859D01*
X123573585Y-100327860D01*
X123573584Y-100327860D01*
X123712849Y-100442151D01*
X123827140Y-100581416D01*
X123912069Y-100740306D01*
X123964367Y-100912706D01*
X123982025Y-101092000D01*
X123964367Y-101271294D01*
X123912069Y-101443694D01*
X123912068Y-101443696D01*
X123827141Y-101602583D01*
X123712849Y-101741849D01*
X123573583Y-101856141D01*
X123414696Y-101941068D01*
X123414694Y-101941069D01*
X123242294Y-101993367D01*
X123107931Y-102006600D01*
X123018069Y-102006600D01*
X122883706Y-101993367D01*
X122711306Y-101941069D01*
X122711304Y-101941068D01*
X122552417Y-101856141D01*
X122413151Y-101741849D01*
X122298859Y-101602583D01*
X122213932Y-101443696D01*
X122213931Y-101443694D01*
X122161633Y-101271294D01*
X122143975Y-101092000D01*
X122161633Y-100912706D01*
X122213931Y-100740306D01*
X122298860Y-100581416D01*
X122413151Y-100442151D01*
X122552416Y-100327860D01*
X122552415Y-100327860D01*
X122552417Y-100327859D01*
X122711304Y-100242932D01*
X122711306Y-100242931D01*
X122883706Y-100190633D01*
X123018069Y-100177400D01*
X123107931Y-100177400D01*
X123242294Y-100190633D01*
X123242294Y-100190633D01*
G37*
G36*
X123242294Y-97650633D02*
X123414694Y-97702931D01*
X123414696Y-97702932D01*
X123573583Y-97787859D01*
X123573585Y-97787860D01*
X123573584Y-97787860D01*
X123712849Y-97902151D01*
X123827140Y-98041416D01*
X123912069Y-98200306D01*
X123964367Y-98372706D01*
X123982025Y-98552000D01*
X123964367Y-98731294D01*
X123912069Y-98903694D01*
X123912068Y-98903696D01*
X123827141Y-99062583D01*
X123712849Y-99201849D01*
X123573583Y-99316141D01*
X123414696Y-99401068D01*
X123414694Y-99401069D01*
X123242294Y-99453367D01*
X123107931Y-99466600D01*
X123018069Y-99466600D01*
X122883706Y-99453367D01*
X122711306Y-99401069D01*
X122711304Y-99401068D01*
X122552417Y-99316141D01*
X122413151Y-99201849D01*
X122298859Y-99062583D01*
X122213932Y-98903696D01*
X122213931Y-98903694D01*
X122161633Y-98731294D01*
X122143975Y-98552000D01*
X122161633Y-98372706D01*
X122213931Y-98200306D01*
X122298860Y-98041416D01*
X122413151Y-97902151D01*
X122552416Y-97787860D01*
X122552415Y-97787860D01*
X122552417Y-97787859D01*
X122711304Y-97702932D01*
X122711306Y-97702931D01*
X122883706Y-97650633D01*
X123018069Y-97637400D01*
X123107931Y-97637400D01*
X123242294Y-97650633D01*
X123242294Y-97650633D01*
G37*
G36*
X125782294Y-97650633D02*
X125954694Y-97702931D01*
X125954696Y-97702932D01*
X126113583Y-97787859D01*
X126113585Y-97787860D01*
X126113584Y-97787860D01*
X126252849Y-97902151D01*
X126367140Y-98041416D01*
X126452069Y-98200306D01*
X126504367Y-98372706D01*
X126522025Y-98552000D01*
X126504367Y-98731294D01*
X126452069Y-98903694D01*
X126452068Y-98903696D01*
X126367141Y-99062583D01*
X126252849Y-99201849D01*
X126113583Y-99316141D01*
X125954696Y-99401068D01*
X125954694Y-99401069D01*
X125782294Y-99453367D01*
X125647931Y-99466600D01*
X125558069Y-99466600D01*
X125423706Y-99453367D01*
X125251306Y-99401069D01*
X125251304Y-99401068D01*
X125092417Y-99316141D01*
X124953151Y-99201849D01*
X124838859Y-99062583D01*
X124753932Y-98903696D01*
X124753931Y-98903694D01*
X124701633Y-98731294D01*
X124683975Y-98552000D01*
X124701633Y-98372706D01*
X124753931Y-98200306D01*
X124838860Y-98041416D01*
X124953151Y-97902151D01*
X125092416Y-97787860D01*
X125092415Y-97787860D01*
X125092417Y-97787859D01*
X125251304Y-97702932D01*
X125251306Y-97702931D01*
X125423706Y-97650633D01*
X125558069Y-97637400D01*
X125647931Y-97637400D01*
X125782294Y-97650633D01*
X125782294Y-97650633D01*
G37*
G36*
X124812527Y-86372736D02*
X124912410Y-86392604D01*
X125194674Y-86509521D01*
X125448705Y-86679259D01*
X125664741Y-86895295D01*
X125834479Y-87149326D01*
X125951396Y-87431590D01*
X126011000Y-87731240D01*
X126011000Y-88036760D01*
X125951396Y-88336410D01*
X125834479Y-88618674D01*
X125664741Y-88872705D01*
X125448705Y-89088741D01*
X125194674Y-89258479D01*
X124912410Y-89375396D01*
X124812527Y-89395264D01*
X124612762Y-89435000D01*
X124307238Y-89435000D01*
X124107473Y-89395264D01*
X124007590Y-89375396D01*
X123725326Y-89258479D01*
X123471295Y-89088741D01*
X123255259Y-88872705D01*
X123085521Y-88618674D01*
X122968604Y-88336410D01*
X122909000Y-88036760D01*
X122909000Y-87731240D01*
X122968604Y-87431590D01*
X123085521Y-87149326D01*
X123255259Y-86895295D01*
X123471295Y-86679259D01*
X123725326Y-86509521D01*
X124007590Y-86392604D01*
X124107473Y-86372736D01*
X124307238Y-86333000D01*
X124612762Y-86333000D01*
X124812527Y-86372736D01*
X124812527Y-86372736D01*
G37*
G36*
X126011000Y-84355000D02*
X122909000Y-84355000D01*
X122909000Y-81253000D01*
X126011000Y-81253000D01*
X126011000Y-84355000D01*
X126011000Y-84355000D01*
G37*
G36*
X123952941Y-70726248D02*
X123952943Y-70726249D01*
X123952944Y-70726249D01*
X124508190Y-70956239D01*
X124508191Y-70956240D01*
X125007902Y-71290136D01*
X125432864Y-71715098D01*
X125432866Y-71715101D01*
X125766761Y-72214810D01*
X125996751Y-72770056D01*
X125996752Y-72770059D01*
X126114000Y-73359501D01*
X126114000Y-73960499D01*
X126002064Y-74523238D01*
X125996751Y-74549944D01*
X125766761Y-75105190D01*
X125751246Y-75128410D01*
X125432864Y-75604902D01*
X125007902Y-76029864D01*
X125007899Y-76029866D01*
X124508190Y-76363761D01*
X123952944Y-76593751D01*
X123952943Y-76593751D01*
X123952941Y-76593752D01*
X123363499Y-76711000D01*
X122762501Y-76711000D01*
X122173059Y-76593752D01*
X122173057Y-76593751D01*
X122173056Y-76593751D01*
X121617810Y-76363761D01*
X121118101Y-76029866D01*
X121118098Y-76029864D01*
X120693136Y-75604902D01*
X120374754Y-75128410D01*
X120359239Y-75105190D01*
X120129249Y-74549944D01*
X120123937Y-74523238D01*
X120012000Y-73960499D01*
X120012000Y-73359501D01*
X120129248Y-72770059D01*
X120129249Y-72770056D01*
X120359239Y-72214810D01*
X120693134Y-71715101D01*
X120693136Y-71715098D01*
X121118098Y-71290136D01*
X121617809Y-70956240D01*
X121617810Y-70956239D01*
X122173056Y-70726249D01*
X122173057Y-70726249D01*
X122173059Y-70726248D01*
X122762501Y-70609000D01*
X123363499Y-70609000D01*
X123952941Y-70726248D01*
X123952941Y-70726248D01*
G37*
G36*
X172212941Y-70726248D02*
X172212943Y-70726249D01*
X172212944Y-70726249D01*
X172768190Y-70956239D01*
X172768191Y-70956240D01*
X173267902Y-71290136D01*
X173692864Y-71715098D01*
X173692866Y-71715101D01*
X174026761Y-72214810D01*
X174256751Y-72770056D01*
X174256752Y-72770059D01*
X174374000Y-73359501D01*
X174374000Y-73960499D01*
X174262064Y-74523238D01*
X174256751Y-74549944D01*
X174026761Y-75105190D01*
X174011246Y-75128410D01*
X173692864Y-75604902D01*
X173267902Y-76029864D01*
X173267899Y-76029866D01*
X172768190Y-76363761D01*
X172212944Y-76593751D01*
X172212943Y-76593751D01*
X172212941Y-76593752D01*
X171623499Y-76711000D01*
X171022501Y-76711000D01*
X170433059Y-76593752D01*
X170433057Y-76593751D01*
X170433056Y-76593751D01*
X169877810Y-76363761D01*
X169378101Y-76029866D01*
X169378098Y-76029864D01*
X168953136Y-75604902D01*
X168634754Y-75128410D01*
X168619239Y-75105190D01*
X168389249Y-74549944D01*
X168383937Y-74523238D01*
X168272000Y-73960499D01*
X168272000Y-73359501D01*
X168389248Y-72770059D01*
X168389249Y-72770056D01*
X168619239Y-72214810D01*
X168953134Y-71715101D01*
X168953136Y-71715098D01*
X169378098Y-71290136D01*
X169877809Y-70956240D01*
X169877810Y-70956239D01*
X170433056Y-70726249D01*
X170433057Y-70726249D01*
X170433059Y-70726248D01*
X171022501Y-70609000D01*
X171623499Y-70609000D01*
X172212941Y-70726248D01*
X172212941Y-70726248D01*
G37*
G36*
X133194527Y-73164736D02*
X133294410Y-73184604D01*
X133576674Y-73301521D01*
X133830705Y-73471259D01*
X134046741Y-73687295D01*
X134216479Y-73941326D01*
X134333396Y-74223590D01*
X134393000Y-74523240D01*
X134393000Y-74828760D01*
X134333396Y-75128410D01*
X134216479Y-75410674D01*
X134046741Y-75664705D01*
X133830705Y-75880741D01*
X133576674Y-76050479D01*
X133294410Y-76167396D01*
X133194527Y-76187264D01*
X132994762Y-76227000D01*
X132689238Y-76227000D01*
X132489473Y-76187264D01*
X132389590Y-76167396D01*
X132107326Y-76050479D01*
X131853295Y-75880741D01*
X131637259Y-75664705D01*
X131467521Y-75410674D01*
X131350604Y-75128410D01*
X131291000Y-74828760D01*
X131291000Y-74523240D01*
X131350604Y-74223590D01*
X131467521Y-73941326D01*
X131637259Y-73687295D01*
X131853295Y-73471259D01*
X132107326Y-73301521D01*
X132389590Y-73184604D01*
X132489473Y-73164736D01*
X132689238Y-73125000D01*
X132994762Y-73125000D01*
X133194527Y-73164736D01*
X133194527Y-73164736D01*
G37*
G36*
X139473000Y-76227000D02*
X136371000Y-76227000D01*
X136371000Y-73125000D01*
X139473000Y-73125000D01*
X139473000Y-76227000D01*
X139473000Y-76227000D01*
G37*
M02*
